<svg width="37" height="16" viewBox="0 0 37 16" fill="none" xmlns="http://www.w3.org/2000/svg">
<path fill-rule="evenodd" clip-rule="evenodd" d="M20.8508 8.99002V11.908H19.4808V4.05474H22.497C23.3779 4.05474 24.0773 4.28307 24.5953 4.73974C25.1134 5.1964 25.3724 5.8005 25.3724 6.55203C25.3724 7.32154 25.1188 7.92023 24.6116 8.34814C24.1043 8.77605 23.3941 8.99002 22.4808 8.99002H20.8508ZM20.8112 7.83947H22.452C22.9377 7.83947 23.3083 7.72515 23.5638 7.49645C23.8193 7.2678 23.947 6.93743 23.947 6.5053C23.947 6.08037 23.8175 5.74102 23.5584 5.48714C23.2993 5.23327 22.9431 5.10275 22.4898 5.09555H20.8112V7.83947ZM29.6727 11.3496C29.716 11.6015 29.7667 11.7831 29.8245 11.8947H31.1689V11.803C31.0208 11.4899 30.9467 11.0707 30.9467 10.5454V7.91165C30.9358 7.28916 30.7262 6.80613 30.3178 6.46251C29.9094 6.11889 29.3619 5.94711 28.6752 5.94711C28.2234 5.94711 27.8141 6.02626 27.4473 6.18456C27.0804 6.34287 26.7904 6.56148 26.5771 6.8403C26.3639 7.11917 26.2573 7.41872 26.2573 7.73895H27.5747C27.5747 7.50865 27.6704 7.31884 27.862 7.16952C28.0535 7.0202 28.2993 6.94555 28.5993 6.94555C28.9463 6.94555 29.2046 7.03639 29.3745 7.21808C29.5444 7.39982 29.6293 7.64177 29.6293 7.94403V8.32723H28.8216C27.9578 8.32723 27.2936 8.4936 26.8292 8.82644C26.3648 9.15929 26.1326 9.63691 26.1326 10.2594C26.1326 10.7523 26.3187 11.1661 26.691 11.5007C27.0632 11.8353 27.5439 12.0026 28.133 12.0026C28.7402 12.0026 29.2534 11.7849 29.6727 11.3496ZM28.3927 10.9618C28.6536 10.9618 28.8992 10.8989 29.1293 10.7729C29.3595 10.6469 29.5326 10.4778 29.6485 10.2654V9.1641H28.9363C28.447 9.1641 28.0791 9.24867 27.8327 9.41784C27.5862 9.58697 27.463 9.8263 27.463 10.1359C27.463 10.3878 27.5472 10.5884 27.7158 10.7378C27.8843 10.8872 28.1099 10.9618 28.3927 10.9618ZM35.475 6.04171L34.2896 10.0194L33.0558 6.04171H31.6441L33.6915 11.8782L33.5029 12.3822C33.406 12.6676 33.274 12.8708 33.1069 12.9918C32.9399 13.1129 32.6911 13.1734 32.3607 13.1734L32.1129 13.1571V14.1759C32.3427 14.2409 32.5529 14.2735 32.7432 14.2735C33.5946 14.2735 34.198 13.7803 34.5536 12.794L36.8705 6.04171H35.475Z" fill="#212121"/>
<path fill-rule="evenodd" clip-rule="evenodd" d="M11.9967 8.54524V9.36217H11.2753V10.6302H10.4474V9.36217H8.13145V8.60412L8.15282 8.53639L10.4808 5.20186L10.5792 5.15072H11.2753V8.54524H11.9967ZM7.64783 9.80979V10.6302H3.9622L3.96922 10.5047C4.03048 9.40775 4.4107 8.94394 5.59528 8.20717C5.59528 8.20717 5.80238 8.07826 5.86213 8.04033C6.5158 7.62499 6.79747 7.30123 6.79747 6.80664C6.79747 6.28834 6.43385 5.93509 5.8973 5.93509C5.27679 5.93509 4.95761 6.40359 4.94014 7.13503L4.93739 7.25106H4.12142L4.10881 6.99168C4.10881 5.89185 4.83984 5.15072 5.92665 5.15072C6.98929 5.15072 7.69272 5.80082 7.69272 6.79293C7.69272 7.698 7.26169 8.14333 6.05556 8.86886L6.03153 8.88313L5.95343 8.92921C5.91037 8.95457 5.86295 8.9825 5.84397 8.99378C5.35264 9.28563 5.09821 9.50401 4.97894 9.80979H7.64783ZM10.4474 8.5435H9.10444L10.4474 6.5651V8.5435Z" fill="black" fill-opacity="0.87"/>
<path fill-rule="evenodd" clip-rule="evenodd" d="M0 7.99998C0 3.584 3.59941 0 8.03446 0C12.4695 0 16.0689 3.584 16.0689 7.99998C16.0689 12.416 12.4695 16 8.03446 16C3.59941 16 0 12.416 0 7.99998ZM1.02027 7.99998C1.02027 11.85 4.16788 14.9841 8.03446 14.9841C11.901 14.9841 15.0487 11.85 15.0487 7.99998C15.0487 4.14999 11.901 1.01586 8.03446 1.01586C4.16788 1.01586 1.02027 4.14999 1.02027 7.99998Z" fill="#8DC641"/>
</svg>
