<svg width="40" height="16" viewBox="0 0 40 16" fill="none" xmlns="http://www.w3.org/2000/svg">
<g clip-path="url(#clip0_13_10)">
<path d="M7.63287 2.0628C7.17617 2.60324 6.44543 3.0295 5.7147 2.9686C5.62336 2.23787 5.98111 1.46147 6.39976 0.981922C6.85647 0.426261 7.65571 0.0304472 8.30271 0C8.37883 0.76118 8.08197 1.50714 7.63287 2.0628ZM8.2951 3.11323C7.23706 3.05233 6.33126 3.71456 5.82888 3.71456C5.31889 3.71456 4.5501 3.14367 3.7128 3.1589C2.62431 3.17412 1.61194 3.79068 1.05628 4.7726C-0.0854895 6.73644 0.75942 9.64415 1.86313 11.2426C2.40357 12.0343 3.05057 12.902 3.90309 12.8716C4.70994 12.8411 5.02964 12.3463 6.00395 12.3463C6.98587 12.3463 7.26751 12.8716 8.12003 12.8563C9.003 12.8411 9.55866 12.0647 10.0991 11.2731C10.7157 10.3749 10.9668 9.49952 10.9821 9.45385C10.9668 9.43863 9.27702 8.79163 9.2618 6.84301C9.24657 5.21408 10.5939 4.43768 10.6548 4.39201C9.89358 3.26546 8.70614 3.14367 8.2951 3.11323ZM14.4074 0.905804V12.7726H16.2494V8.71551H18.7994C21.1286 8.71551 22.7651 7.11703 22.7651 4.80304C22.7651 2.48906 21.159 0.905804 18.8603 0.905804H14.4074ZM16.2494 2.45861H18.3731C19.9716 2.45861 20.885 3.31113 20.885 4.81066C20.885 6.31018 19.9716 7.17031 18.3655 7.17031H16.2494V2.45861ZM26.1295 12.8639C27.2865 12.8639 28.3598 12.2778 28.847 11.3492H28.885V12.7726H30.5901V6.86584C30.5901 5.15319 29.2199 4.04948 27.1115 4.04948C25.1552 4.04948 23.709 5.16841 23.6557 6.70599H25.3151C25.4521 5.97526 26.1295 5.49572 27.0582 5.49572C28.1847 5.49572 28.8165 6.02093 28.8165 6.98763V7.64225L26.5177 7.77926C24.3788 7.90866 23.2218 8.78401 23.2218 10.3064C23.2218 11.844 24.4169 12.8639 26.1295 12.8639ZM26.6243 11.4558C25.6424 11.4558 25.0182 10.9838 25.0182 10.2607C25.0182 9.51475 25.6196 9.08088 26.7689 9.01237L28.8165 8.88297V9.55281C28.8165 10.6641 27.8726 11.4558 26.6243 11.4558ZM32.866 16C34.6624 16 35.5073 15.3149 36.2456 13.2369L39.4806 4.16365H37.6081L35.4388 11.1741H35.4007L33.2313 4.16365H31.3056L34.4264 12.803L34.2589 13.3283C33.9773 14.2188 33.5206 14.5614 32.7061 14.5614C32.5615 14.5614 32.2799 14.5461 32.1657 14.5309V15.9543C32.2723 15.9848 32.729 16 32.866 16Z" fill="black"/>
</g>
<defs>
<clipPath id="clip0_13_10">
<rect width="38.9724" height="16" fill="white" transform="translate(0.508301)"/>
</clipPath>
</defs>
</svg>
