<svg width="24" height="24" viewBox="0 0 24 24" fill="none" xmlns="http://www.w3.org/2000/svg">
<path d="M21.9873 21.0852V15.5953L22 8.4185C22 4.46362 18.6371 2.5 14.6904 2.5H2.38071C2.31303 2.5 2.24958 2.51842 2.19036 2.5553C2.13113 2.59217 2.0846 2.64289 2.05076 2.70742C2.01692 2.77196 2 2.8411 2 2.91485C2 2.9886 2.01269 3.05774 2.03807 3.12227L4.48731 8.21107C4.52115 8.27561 4.53807 8.34475 4.53807 8.4185C4.53807 8.49225 4.52115 8.56139 4.48731 8.62592C4.45347 8.69045 4.40694 8.74114 4.34772 8.77801C4.28003 8.81489 4.21235 8.83334 4.14467 8.83334H2.38071C2.31303 8.83334 2.24958 8.84718 2.19036 8.87484C2.13113 8.91171 2.0846 8.96239 2.05076 9.02693C2.01692 9.09146 2 9.1606 2 9.23435C2 9.3081 2.01269 9.37724 2.03807 9.44177L4.48731 14.5582C4.52115 14.6228 4.53807 14.6919 4.53807 14.7656C4.53807 14.8394 4.52115 14.9085 4.48731 14.9731C4.45347 15.0376 4.40694 15.0883 4.34772 15.1252C4.28003 15.1529 4.21235 15.1667 4.14467 15.1667H2.38071C2.31303 15.1667 2.24958 15.1851 2.19036 15.222C2.13113 15.2589 2.0846 15.3096 2.05076 15.3741C2.01692 15.4386 2 15.5078 2 15.5815C2 15.6553 2.01269 15.7244 2.03807 15.789C2.03807 15.789 2.79949 17.476 3.1802 18.1536C4.32233 20.2416 6.80965 21.5 10.4391 21.5H21.6066C21.6574 21.5 21.7081 21.4908 21.7589 21.4724C21.8012 21.4539 21.8393 21.4263 21.8731 21.3894C21.9154 21.3525 21.945 21.3064 21.9619 21.2511C21.9789 21.1958 21.9873 21.1405 21.9873 21.0852Z" fill="white"/>
<path fill-rule="evenodd" clip-rule="evenodd" d="M2 9.23435C2 9.3081 2.01269 9.37724 2.03807 9.44177L4.48731 14.5582C4.52115 14.6228 4.53807 14.6919 4.53807 14.7656C4.53807 14.8394 4.52115 14.9085 4.48731 14.9731C4.45347 15.0376 4.40694 15.0883 4.34772 15.1252C4.28003 15.1529 4.21235 15.1667 4.14467 15.1667H2.38071C2.31303 15.1667 2.24958 15.1851 2.19036 15.222C2.13113 15.2589 2.0846 15.3096 2.05076 15.3741C2.01692 15.4386 2 15.5078 2 15.5815C2 15.6553 2.01269 15.7244 2.03807 15.789C2.03807 15.789 2.18434 16.113 2.38071 16.5342C2.45616 16.696 2.53901 16.8721 2.6238 17.0497L2.63193 17.0667C2.82753 17.4759 3.03251 17.8907 3.1802 18.1536C4.32233 20.2416 6.80965 21.5 10.4391 21.5H21.6066C21.6574 21.5 21.7081 21.4908 21.7589 21.4724C21.8012 21.4539 21.8393 21.4263 21.8731 21.3894C21.9154 21.3525 21.945 21.3064 21.9619 21.2511C21.9789 21.1958 21.9873 21.1405 21.9873 21.0852V15.5953L22 8.4185C22 4.46362 18.6371 2.5 14.6904 2.5H2.38071C2.31303 2.5 2.24958 2.51842 2.19036 2.5553C2.13113 2.59217 2.0846 2.64289 2.05076 2.70742C2.01692 2.77196 2 2.8411 2 2.91485C2 2.9886 2.01269 3.05774 2.03807 3.12227L4.48731 8.21107C4.52115 8.27561 4.53807 8.34475 4.53807 8.4185C4.53807 8.49225 4.52115 8.56139 4.48731 8.62592C4.45347 8.69045 4.40694 8.74114 4.34772 8.77801C4.28003 8.81489 4.21235 8.83334 4.14467 8.83334H2.38071C2.31303 8.83334 2.24958 8.84718 2.19036 8.87484C2.13113 8.91171 2.0846 8.96239 2.05076 9.02693C2.01692 9.09146 2 9.1606 2 9.23435ZM20 8.4185V8.41658C19.9995 7.01416 19.4337 6.09361 18.5977 5.47621C17.701 4.814 16.3426 4.4 14.6904 4.4H4.85219L6.29763 7.4032C6.45913 7.72595 6.53807 8.07184 6.53807 8.4185C6.53807 8.77929 6.45256 9.13925 6.27746 9.47316C6.09723 9.81685 5.8207 10.1326 5.44408 10.3671L5.39432 10.3981L5.34271 10.4262C5.18434 10.5125 5.00582 10.5879 4.80994 10.6425L6.29885 13.7528C6.45953 14.0748 6.53807 14.4199 6.53807 14.7656C6.53807 15.1264 6.45257 15.4864 6.27746 15.8203L4.7982 16.9834C4.85329 17.091 4.90293 17.1847 4.94459 17.2589L4.9498 17.2682L4.9549 17.2775C5.64023 18.5304 7.27515 19.6 10.4391 19.6H19.9873L20 8.4185Z" fill="#E80000"/>
<path d="M11.5846 7V11.1679L14.6709 7H17.2157L13.5609 11.7376L17.5 17H14.8198L11.5846 12.5622V17H9.5V7H11.5846Z" fill="#E80000"/>
</svg>
