<svg width="16" height="16" viewBox="0 0 16 16" fill="none" xmlns="http://www.w3.org/2000/svg">
<path d="M13 11.6667C13 12.1087 12.8244 12.5326 12.5118 12.8452C12.1993 13.1577 11.7754 13.3333 11.3333 13.3333C10.8913 13.3333 10.4674 13.1577 10.1548 12.8452C9.84226 12.5326 9.66667 12.1087 9.66667 11.6667C9.66667 11.2246 9.84226 10.8007 10.1548 10.4882C10.4674 10.1756 10.8913 10 11.3333 10C11.7754 10 12.1993 10.1756 12.5118 10.4882C12.8244 10.8007 13 11.2246 13 11.6667ZM6.33333 11.6667C6.33333 12.1087 6.15774 12.5326 5.84518 12.8452C5.53262 13.1577 5.10869 13.3333 4.66667 13.3333C4.22464 13.3333 3.80072 13.1577 3.48816 12.8452C3.17559 12.5326 3 12.1087 3 11.6667C3 11.2246 3.17559 10.8007 3.48816 10.4882C3.80072 10.1756 4.22464 10 4.66667 10C5.10869 10 5.53262 10.1756 5.84518 10.4882C6.15774 10.8007 6.33333 11.2246 6.33333 11.6667Z" stroke="black" stroke-linecap="round" stroke-linejoin="round"/>
<path d="M9.66658 11.6667H6.33325M12.9999 11.6667H13.5086C13.6553 11.6667 13.7286 11.6667 13.7899 11.6587C14.0106 11.6312 14.2159 11.5309 14.3732 11.3737C14.5305 11.2165 14.6309 11.0113 14.6586 10.7907C14.6666 10.7287 14.6666 10.6553 14.6666 10.5087V8.66667C14.6666 7.5174 14.21 6.4152 13.3974 5.60254C12.5847 4.78988 11.4825 4.33333 10.3333 4.33333M1.33325 2.66667H7.99992C8.94258 2.66667 9.41392 2.66667 9.70659 2.96C9.99992 3.252 9.99992 3.72333 9.99992 4.66667V10.3333M1.33325 8.5V10C1.33325 10.6233 1.33325 10.9347 1.46725 11.1667C1.55502 11.3187 1.68125 11.4449 1.83325 11.5327C2.06525 11.6667 2.37659 11.6667 2.99992 11.6667M1.33325 4.66667H5.33325M1.33325 6.66667H3.99992" stroke="black" stroke-linecap="round" stroke-linejoin="round"/>
</svg>
