<svg width="42" height="16" viewBox="0 0 42 16" fill="none" xmlns="http://www.w3.org/2000/svg">
<path d="M19.8986 7.80013V12.4786H18.3894V0.908211H22.3133C23.2691 0.908211 24.1746 1.26035 24.8789 1.91433C25.5832 2.518 25.9353 3.42351 25.9353 4.37932C25.9353 5.33514 25.5832 6.19034 24.8789 6.84431C24.1746 7.49829 23.3194 7.85043 22.3133 7.85043L19.8986 7.80013ZM19.8986 2.31678V6.34125H22.4139C22.9672 6.34125 23.5206 6.14003 23.8728 5.73758C24.6776 4.98299 24.6776 3.72534 23.9231 2.97076L23.8728 2.92045C23.4703 2.518 22.9672 2.26647 22.4139 2.31678H19.8986Z" fill="#5F6368"/>
<path d="M29.4064 4.32902C30.5131 4.32902 31.3683 4.63085 32.0223 5.23452C32.6763 5.83819 32.9781 6.64309 32.9781 7.64921V12.4786H31.5696V11.3718H31.5193C30.9156 12.2774 30.0604 12.7301 29.0543 12.7301C28.1991 12.7301 27.4445 12.4786 26.8408 11.9755C26.2874 11.4725 25.9353 10.7682 25.9353 10.0136C25.9353 9.20869 26.2371 8.55472 26.8408 8.05166C27.4445 7.5486 28.2997 7.34737 29.3058 7.34737C30.2113 7.34737 30.9156 7.49829 31.469 7.85043V7.49829C31.469 6.99523 31.2677 6.49217 30.8653 6.19034C30.4628 5.83819 29.9598 5.63697 29.4064 5.63697C28.5512 5.63697 27.8972 5.98911 27.4445 6.6934L26.1365 5.8885C26.9414 4.83208 27.9978 4.32902 29.4064 4.32902ZM27.4948 10.0639C27.4948 10.4663 27.696 10.8185 27.9978 11.0197C28.35 11.2712 28.7524 11.4222 29.1549 11.4222C29.7586 11.4222 30.3622 11.1706 30.815 10.7179C31.318 10.2651 31.5696 9.71175 31.5696 9.10808C31.1168 8.75594 30.4628 8.55472 29.6076 8.55472C29.004 8.55472 28.5009 8.70563 28.0985 9.00747C27.696 9.259 27.4948 9.61114 27.4948 10.0639Z" fill="#5F6368"/>
<path d="M41.1277 4.58055L36.1474 16H34.6382L36.4996 12.0258L33.2297 4.63085H34.8395L37.2038 10.3154H37.2541L39.5682 4.63085H41.1277V4.58055Z" fill="#5F6368"/>
<path d="M13.9122 6.79401C13.9122 6.34126 13.8619 5.8885 13.8116 5.43575H7.52332V8.00135H11.095C10.9441 8.80625 10.4914 9.56084 9.78709 10.0136V11.6737H11.9502C13.2079 10.5167 13.9122 8.80625 13.9122 6.79401Z" fill="#4285F4"/>
<path d="M7.52332 13.2835C9.33434 13.2835 10.8435 12.6798 11.9502 11.6737L9.78709 10.0136C9.18342 10.416 8.42883 10.6676 7.52332 10.6676C5.81292 10.6676 4.30374 9.51053 3.80068 7.90074H1.58722V9.61114C2.74426 11.8749 5.00803 13.2835 7.52332 13.2835Z" fill="#34A853"/>
<path d="M3.80068 7.90074C3.49885 7.09585 3.49885 6.19034 3.80068 5.33514V3.62474H1.58722C0.631408 5.48606 0.631408 7.69952 1.58722 9.61114L3.80068 7.90074Z" fill="#FBBC04"/>
<path d="M7.52332 2.61862C8.47914 2.61862 9.38464 2.97076 10.0889 3.62474L12.0006 1.71311C10.7932 0.606378 9.18342 -0.0475994 7.57363 0.00270653C5.05833 0.00270653 2.74426 1.41127 1.63753 3.67504L3.85099 5.38544C4.30374 3.77565 5.81292 2.61862 7.52332 2.61862Z" fill="#EA4335"/>
</svg>
