<svg width="24" height="24" viewBox="0 0 24 24" fill="none" xmlns="http://www.w3.org/2000/svg">
<rect width="24" height="24" rx="12" fill="#E80000"/>
<path d="M10.5184 11.2586C11.0462 12.1859 11.8141 12.9538 12.7414 13.4816L13.2386 12.7852C13.3186 12.6733 13.4368 12.5945 13.571 12.5638C13.7051 12.5331 13.8458 12.5527 13.9665 12.6188C14.7621 13.0535 15.6406 13.315 16.5444 13.386C16.6855 13.3972 16.8172 13.4611 16.9132 13.5651C17.0092 13.669 17.0625 13.8053 17.0625 13.9468V16.4567C17.0625 16.596 17.0109 16.7303 16.9176 16.8337C16.8243 16.9371 16.6959 17.0022 16.5574 17.0164C16.2592 17.0473 15.9589 17.0625 15.6562 17.0625C10.8412 17.0625 6.9375 13.1588 6.9375 8.34375C6.9375 8.04113 6.95269 7.74075 6.98363 7.44262C6.99783 7.30408 7.06293 7.17573 7.16632 7.08242C7.26971 6.98911 7.40404 6.93747 7.54331 6.9375H10.0532C10.1947 6.93748 10.331 6.9908 10.4349 7.08682C10.5389 7.18283 10.6028 7.3145 10.614 7.45556C10.685 8.35938 10.9465 9.23794 11.3812 10.0335C11.4473 10.1542 11.4669 10.2949 11.4362 10.429C11.4055 10.5632 11.3267 10.6814 11.2148 10.7614L10.5184 11.2586ZM9.09975 10.8891L10.1685 10.1258C9.86519 9.47105 9.65739 8.77622 9.55144 8.0625H8.06813C8.06475 8.15587 8.06306 8.24981 8.06306 8.34375C8.0625 12.5377 11.4623 15.9375 15.6562 15.9375C15.7502 15.9375 15.8441 15.9358 15.9375 15.9319V14.4486C15.2238 14.3426 14.5289 14.1348 13.8742 13.8315L13.1109 14.9002C12.8036 14.7808 12.5051 14.6399 12.2177 14.4784L12.1851 14.4598C11.0818 13.8319 10.1681 12.9182 9.54019 11.8149L9.52163 11.7823C9.36014 11.4949 9.21916 11.1964 9.09975 10.8891Z" fill="white"/>
</svg>
