<svg width="32" height="32" viewBox="0 0 32 32" fill="none" xmlns="http://www.w3.org/2000/svg">
<rect width="32" height="32" rx="16" fill="#C2E5FF"/>
<path d="M23.2647 23.3347V19.3421L23.274 14.1225C23.274 11.2463 20.8282 9.81818 17.9579 9.81818H9.0054C8.95617 9.81818 8.91003 9.83158 8.86696 9.85839C8.82389 9.88521 8.79004 9.9221 8.76543 9.96903C8.74082 10.016 8.72852 10.0662 8.72852 10.1199C8.72852 10.1735 8.73774 10.2238 8.7562 10.2707L10.5375 13.9717C10.5621 14.0186 10.5744 14.0689 10.5744 14.1225C10.5744 14.1762 10.5621 14.2265 10.5375 14.2734C10.5129 14.3203 10.479 14.3572 10.4359 14.384C10.3867 14.4108 10.3375 14.4242 10.2883 14.4242H9.0054C8.95617 14.4242 8.91003 14.4343 8.86696 14.4544C8.82389 14.4812 8.79004 14.5181 8.76543 14.565C8.74082 14.612 8.72852 14.6622 8.72852 14.7159C8.72852 14.7695 8.73774 14.8198 8.7562 14.8667L10.5375 18.5878C10.5621 18.6347 10.5744 18.685 10.5744 18.7386C10.5744 18.7923 10.5621 18.8426 10.5375 18.8895C10.5129 18.9364 10.479 18.9733 10.4359 19.0001C10.3867 19.0203 10.3375 19.0303 10.2883 19.0303H9.0054C8.95617 19.0303 8.91003 19.0437 8.86696 19.0705C8.82389 19.0974 8.79004 19.1342 8.76543 19.1812C8.74082 19.2281 8.72852 19.2784 8.72852 19.332C8.72852 19.3857 8.73774 19.4359 8.7562 19.4829C8.7562 19.4829 9.30996 20.7098 9.58684 21.2026C10.4175 22.7212 12.2264 23.6364 14.866 23.6364H22.9879C23.0248 23.6364 23.0617 23.6297 23.0986 23.6163C23.1294 23.6028 23.1571 23.5827 23.1817 23.5559C23.2124 23.5291 23.234 23.4956 23.2463 23.4554C23.2586 23.4151 23.2647 23.3749 23.2647 23.3347Z" fill="white"/>
<path fill-rule="evenodd" clip-rule="evenodd" d="M8.72852 14.7159C8.72852 14.7695 8.73774 14.8198 8.7562 14.8667L10.5375 18.5878C10.5621 18.6347 10.5744 18.685 10.5744 18.7386C10.5744 18.7923 10.5621 18.8426 10.5375 18.8895C10.5129 18.9364 10.479 18.9733 10.4359 19.0001C10.3867 19.0203 10.3375 19.0303 10.2883 19.0303H9.0054C8.95617 19.0303 8.91003 19.0437 8.86696 19.0705C8.82389 19.0974 8.79004 19.1342 8.76543 19.1812C8.74082 19.2281 8.72852 19.2784 8.72852 19.332C8.72852 19.3857 8.73774 19.4359 8.7562 19.4829C8.7562 19.4829 8.86258 19.7186 9.0054 20.0248C9.06027 20.1425 9.12052 20.2706 9.18219 20.3998L9.1881 20.4121C9.33036 20.7098 9.47943 21.0114 9.58684 21.2026C10.4175 22.7212 12.2264 23.6364 14.866 23.6364H22.9879C23.0248 23.6364 23.0617 23.6297 23.0986 23.6163C23.1294 23.6028 23.1571 23.5827 23.1817 23.5559C23.2124 23.5291 23.234 23.4956 23.2463 23.4554C23.2586 23.4151 23.2647 23.3749 23.2647 23.3347V19.3421L23.274 14.1225C23.274 11.2463 20.8282 9.81818 17.9579 9.81818H9.0054C8.95617 9.81818 8.91003 9.83158 8.86696 9.85839C8.82389 9.88521 8.79004 9.9221 8.76543 9.96903C8.74082 10.016 8.72852 10.0662 8.72852 10.1199C8.72852 10.1735 8.73774 10.2238 8.7562 10.2707L10.5375 13.9717C10.5621 14.0186 10.5744 14.0689 10.5744 14.1225C10.5744 14.1762 10.5621 14.2265 10.5375 14.2734C10.5129 14.3203 10.479 14.3572 10.4359 14.384C10.3867 14.4108 10.3375 14.4242 10.2883 14.4242H9.0054C8.95617 14.4242 8.91003 14.4343 8.86696 14.4544C8.82389 14.4812 8.79004 14.5181 8.76543 14.565C8.74082 14.612 8.72852 14.6622 8.72852 14.7159ZM21.8194 14.1225V14.1211C21.819 13.1012 21.4075 12.4317 20.7996 11.9827C20.1474 11.5011 19.1595 11.2 17.9579 11.2H10.8028L11.8541 13.3841C11.9715 13.6189 12.0289 13.8704 12.0289 14.1225C12.0289 14.3849 11.9667 14.6467 11.8394 14.8896C11.7083 15.1395 11.5072 15.3691 11.2333 15.5397L11.1971 15.5622L11.1596 15.5827C11.0444 15.6454 10.9146 15.7003 10.7721 15.74L11.8549 18.002C11.9718 18.2362 12.0289 18.4872 12.0289 18.7386C12.0289 19.001 11.9667 19.2628 11.8394 19.5057L10.7636 20.3516C10.8036 20.4298 10.8397 20.498 10.87 20.5519L10.8738 20.5587L10.8775 20.5654C11.376 21.4767 12.565 22.2545 14.866 22.2545H21.8102L21.8194 14.1225Z" fill="#E80000"/>
<path d="M15.6997 13.0909V16.1221L17.9442 13.0909H19.795L17.137 16.5365L20.0018 20.3636H18.0525L15.6997 17.1362V20.3636H14.1836V13.0909H15.6997Z" fill="#E80000"/>
</svg>
