<svg width="22" height="16" viewBox="0 0 22 16" fill="none" xmlns="http://www.w3.org/2000/svg">
<g clip-path="url(#clip0_12_21)">
<path d="M4.21492 15.9649V14.9031C4.21492 14.4969 3.96749 14.2309 3.54275 14.2309C3.33038 14.2309 3.09945 14.301 2.94069 14.532C2.81698 14.3381 2.63966 14.2309 2.37368 14.2309C2.19636 14.2309 2.01904 14.2845 1.87883 14.4784V14.266H1.5077V15.9649H1.87883V15.0268C1.87883 14.7258 2.0376 14.5835 2.28502 14.5835C2.53244 14.5835 2.65615 14.7423 2.65615 15.0268V15.9649H3.02729V15.0268C3.02729 14.7258 3.20461 14.5835 3.43347 14.5835C3.6809 14.5835 3.80461 14.7423 3.80461 15.0268V15.9649H4.21492ZM9.72007 14.266H9.11801V13.7526H8.74688V14.266H8.41079V14.6021H8.74688V15.3814C8.74688 15.7711 8.90564 16 9.33038 16C9.48914 16 9.66646 15.9464 9.79017 15.8763L9.68296 15.5567C9.57574 15.6268 9.45203 15.6454 9.36337 15.6454C9.18605 15.6454 9.11595 15.5381 9.11595 15.3629V14.6021H9.71801V14.266H9.72007ZM12.8706 14.2289C12.6582 14.2289 12.5159 14.3361 12.4273 14.4763V14.2639H12.0562V15.9629H12.4273V15.0062C12.4273 14.7237 12.551 14.5629 12.7819 14.5629C12.852 14.5629 12.9407 14.5814 13.0129 14.5979L13.1201 14.2433C13.0458 14.2289 12.9407 14.2289 12.8706 14.2289ZM8.10976 14.4062C7.93244 14.2825 7.68502 14.2289 7.41904 14.2289C6.9943 14.2289 6.71182 14.4412 6.71182 14.7773C6.71182 15.0598 6.9242 15.2206 7.29533 15.2722L7.47265 15.2907C7.66646 15.3258 7.77368 15.3794 7.77368 15.468C7.77368 15.5918 7.63141 15.6804 7.38399 15.6804C7.13657 15.6804 6.94069 15.5918 6.81698 15.5031L6.63966 15.7856C6.83347 15.9278 7.09945 15.9979 7.36543 15.9979C7.86028 15.9979 8.14481 15.767 8.14481 15.4495C8.14481 15.1485 7.91389 14.9897 7.56131 14.9361L7.38399 14.9175C7.22523 14.899 7.10152 14.8639 7.10152 14.7588C7.10152 14.6351 7.22523 14.5649 7.4211 14.5649C7.63347 14.5649 7.84584 14.6536 7.95306 14.7072L8.10976 14.4062ZM17.984 14.2289C17.7716 14.2289 17.6294 14.3361 17.5407 14.4763V14.2639H17.1696V15.9629H17.5407V15.0062C17.5407 14.7237 17.6644 14.5629 17.8953 14.5629C17.9654 14.5629 18.0541 14.5814 18.1263 14.5979L18.2335 14.2474C18.1613 14.2289 18.0562 14.2289 17.984 14.2289ZM13.2417 15.1155C13.2417 15.6289 13.5964 16 14.1448 16C14.3922 16 14.5696 15.9464 14.7469 15.8062L14.5696 15.5052C14.4273 15.6124 14.2871 15.6639 14.1263 15.6639C13.8252 15.6639 13.6129 15.4515 13.6129 15.1155C13.6129 14.7959 13.8252 14.5835 14.1263 14.567C14.285 14.567 14.4273 14.6206 14.5696 14.7258L14.7469 14.4247C14.5696 14.2825 14.3922 14.2309 14.1448 14.2309C13.5964 14.2289 13.2417 14.6021 13.2417 15.1155ZM16.6747 14.266H16.3036V14.4784C16.1799 14.3196 16.0025 14.2309 15.7716 14.2309C15.2933 14.2309 14.9221 14.6021 14.9221 15.1155C14.9221 15.6289 15.2933 16 15.7716 16C16.019 16 16.1964 15.9113 16.3036 15.7526V15.9649H16.6747V14.266ZM15.3118 15.1155C15.3118 14.8144 15.5056 14.567 15.8252 14.567C16.1263 14.567 16.3386 14.7979 16.3386 15.1155C16.3386 15.4165 16.1263 15.6639 15.8252 15.6639C15.5077 15.6454 15.3118 15.4144 15.3118 15.1155ZM10.8706 14.2289C10.3757 14.2289 10.0211 14.5835 10.0211 15.1134C10.0211 15.6454 10.3757 15.9979 10.8891 15.9979C11.1366 15.9979 11.384 15.9278 11.5799 15.767L11.4025 15.501C11.2603 15.6082 11.083 15.6784 10.9077 15.6784C10.6768 15.6784 10.4479 15.5711 10.3943 15.2722H11.65C11.65 15.2186 11.65 15.1835 11.65 15.1299C11.6665 14.5835 11.3469 14.2289 10.8706 14.2289ZM10.8706 14.5485C11.1015 14.5485 11.2603 14.6907 11.2953 14.9546H10.4108C10.4458 14.7258 10.6046 14.5485 10.8706 14.5485ZM20.0912 13.5938H19.7201V14.4784C19.5964 14.3196 19.419 14.2309 19.1881 14.2309C18.7098 14.2309 18.3386 14.6021 18.3386 15.1155C18.3386 15.6289 18.7098 16 19.1881 16C19.4355 16 19.6129 15.9113 19.7201 15.7526V15.9649H20.0912V13.5938ZM18.7283 15.1155C18.7283 14.8144 18.9221 14.567 19.2417 14.567C19.5428 14.567 19.7551 14.7979 19.7551 15.1155C19.7551 15.4165 19.5428 15.6639 19.2417 15.6639C18.9221 15.6454 18.7283 15.4144 18.7283 15.1155ZM6.30358 14.266H5.93244V14.4784C5.80873 14.3196 5.63141 14.2309 5.40048 14.2309C4.92213 14.2309 4.551 14.6021 4.551 15.1155C4.551 15.6289 4.92213 16 5.40048 16C5.64791 16 5.82523 15.9113 5.93244 15.7526V15.9649H6.30358V14.266ZM4.9242 15.1155C4.9242 14.8144 5.11801 14.567 5.4376 14.567C5.73863 14.567 5.951 14.7979 5.951 15.1155C5.951 15.4165 5.73863 15.6639 5.4376 15.6639C5.11801 15.6454 4.9242 15.4144 4.9242 15.1155Z" fill="black"/>
<path d="M13.5614 1.36289H7.98611V11.3794H13.5614V1.36289Z" fill="#FF5A00"/>
<path d="M8.35725 6.37113C8.35725 4.33608 9.31395 2.5299 10.782 1.36289C9.70158 0.513402 8.33869 0 6.85209 0C3.33044 0 0.480957 2.84948 0.480957 6.37113C0.480957 9.89278 3.33044 12.7423 6.85209 12.7423C8.33869 12.7423 9.70158 12.2289 10.782 11.3794C9.31189 10.2289 8.35725 8.40619 8.35725 6.37113Z" fill="#EB001B"/>
<path d="M21.083 6.37113C21.083 9.89278 18.2335 12.7423 14.7119 12.7423C13.2253 12.7423 11.8624 12.2289 10.782 11.3794C12.2686 10.2103 13.2067 8.40619 13.2067 6.37113C13.2067 4.33608 12.25 2.5299 10.782 1.36289C11.8603 0.513402 13.2232 0 14.7098 0C18.2335 0 21.083 2.86804 21.083 6.37113Z" fill="#F79E1B"/>
</g>
<defs>
<clipPath id="clip0_12_21">
<rect width="20.6021" height="16" fill="white" transform="translate(0.480713)"/>
</clipPath>
</defs>
</svg>
