<svg width="24" height="24" viewBox="0 0 24 24" fill="none" xmlns="http://www.w3.org/2000/svg">
<path fill-rule="evenodd" clip-rule="evenodd" d="M1.83105 12.83L6.73705 14.105L7.69205 14.147C8.06223 14.9063 8.63056 15.5517 9.33706 16.0149C10.0436 16.4781 10.862 16.7419 11.706 16.7786C12.55 16.8153 13.3883 16.6234 14.1323 16.2232C14.8763 15.823 15.4984 15.2294 15.9331 14.505L16.4211 14.526H19.7891C20.2611 14.676 20.9101 14.876 21.5671 15.076C20.2941 19.199 16.4521 22.196 11.9101 22.196C6.57806 22.196 2.21005 18.066 1.83105 12.83Z" fill="white"/>
<path fill-rule="evenodd" clip-rule="evenodd" d="M21.819 6.85104C22.6528 8.43909 23.087 10.2064 23.084 12C23.084 18.122 18.122 23.085 12 23.085C5.87804 23.085 0.915039 18.122 0.915039 12C0.915039 5.87804 5.87804 0.915039 12 0.915039C13 0.915039 13.97 1.04804 14.893 1.29704C14.7094 1.80701 14.6156 2.345 14.616 2.88704C14.616 3.75804 14.854 4.57404 15.267 5.27304L14.723 5.90504C14.6455 6.00633 14.6095 6.13345 14.6226 6.26037C14.6357 6.38728 14.6968 6.5044 14.7934 6.58773C14.89 6.67106 15.0149 6.7143 15.1423 6.70859C15.2698 6.70289 15.3902 6.64867 15.479 6.55704L15.881 6.09104C16.3194 6.56116 16.85 6.93592 17.4396 7.19193C18.0292 7.44794 18.6652 7.57972 19.308 7.57904C20.1969 7.5802 21.0687 7.32764 21.819 6.85104ZM20.433 17.534C20.164 17.403 19.942 17.118 19.539 16.044C18.94 14.447 17.741 14.485 16.793 16.344C15.545 18.791 14.297 18.241 12.899 17.243C12.7016 17.0951 12.4854 16.974 12.256 16.883C12.0028 16.8995 11.7486 16.8955 11.496 16.871C11.177 16.997 10.889 17.285 10.526 17.648C10.142 18.032 9.67604 18.498 9.00404 18.94C7.15404 20.159 6.40404 17.542 5.83504 15.553C5.77504 15.343 5.71604 15.138 5.65904 14.946C5.24104 13.555 3.53204 14.359 2.41604 15.151C3.73904 19.178 7.53004 22.086 12 22.086C15.526 22.086 18.63 20.276 20.433 17.534ZM11.95 15.894C12.9168 15.894 13.8439 15.51 14.5274 14.8264C15.211 14.1429 15.595 13.2158 15.595 12.249C15.595 11.2823 15.211 10.3552 14.5274 9.67164C13.8439 8.98807 12.9168 8.60404 11.95 8.60404C10.9833 8.60404 10.0562 8.98807 9.37263 9.67164C8.68906 10.3552 8.30504 11.2823 8.30504 12.249C8.30504 13.2158 8.68906 14.1429 9.37263 14.8264C10.0562 15.51 10.9833 15.894 11.95 15.894ZM10.394 2.57204C10.2706 2.53774 10.1387 2.55213 10.0256 2.61224C9.91245 2.67235 9.82671 2.77359 9.78604 2.89507C9.74538 3.01656 9.7529 3.14902 9.80704 3.26512C9.86119 3.38122 9.95783 3.47211 10.077 3.51904L12.349 4.27904C12.4124 4.30516 12.4804 4.31799 12.5489 4.31672C12.6174 4.31546 12.6849 4.30012 12.7473 4.27168C12.8096 4.24323 12.8654 4.20228 12.9113 4.15136C12.9571 4.10044 12.992 4.04064 13.0138 3.97567C13.0355 3.91071 13.0437 3.84196 13.0378 3.7737C13.0319 3.70544 13.012 3.63912 12.9794 3.57886C12.9468 3.5186 12.9022 3.46568 12.8483 3.4234C12.7944 3.38111 12.7323 3.35036 12.666 3.33304L10.394 2.57204ZM8.68004 7.57004C8.58469 7.47788 8.52987 7.35161 8.52762 7.21902C8.52537 7.08644 8.57588 6.95839 8.66804 6.86304L10.334 5.14104C10.3786 5.08977 10.4331 5.0481 10.4942 5.01859C10.5554 4.98907 10.6219 4.97232 10.6897 4.96936C10.7576 4.96639 10.8253 4.97728 10.8888 5.00135C10.9523 5.02542 11.0102 5.06218 11.0591 5.10937C11.1079 5.15656 11.1466 5.21321 11.1728 5.27585C11.199 5.33849 11.2122 5.40581 11.2115 5.47371C11.2109 5.54161 11.1964 5.60867 11.169 5.67079C11.1416 5.73291 11.1018 5.7888 11.052 5.83504L9.38604 7.55804C9.29391 7.65308 9.16786 7.70771 9.03552 7.70996C8.90318 7.71221 8.77534 7.66189 8.68004 7.57004ZM3.39004 7.81904C3.27599 7.87685 3.18842 7.97617 3.14534 8.09656C3.10226 8.21695 3.10694 8.34927 3.15842 8.46632C3.2099 8.58336 3.30427 8.67624 3.42212 8.72585C3.53997 8.77546 3.67235 8.77803 3.79204 8.73304L5.98504 7.76804C6.04866 7.74412 6.10674 7.70749 6.15572 7.66037C6.20471 7.61326 6.24357 7.55665 6.26994 7.494C6.29631 7.43136 6.30963 7.364 6.30909 7.29603C6.30855 7.22807 6.29416 7.16093 6.2668 7.09871C6.23943 7.0365 6.19967 6.98051 6.14994 6.93418C6.10021 6.88785 6.04156 6.85214 5.97756 6.82925C5.91357 6.80635 5.84558 6.79673 5.77775 6.801C5.70991 6.80526 5.64366 6.82331 5.58304 6.85404L3.39004 7.81904ZM4.49404 10.479C4.45222 10.4258 4.40004 10.3817 4.34066 10.3493C4.28128 10.3168 4.21593 10.2968 4.14857 10.2903C4.08122 10.2839 4.01326 10.2912 3.94881 10.3118C3.88435 10.3324 3.82475 10.3658 3.77361 10.4101C3.72247 10.4545 3.68085 10.5087 3.65127 10.5695C3.6217 10.6304 3.60478 10.6966 3.60155 10.7642C3.59832 10.8318 3.60884 10.8993 3.63247 10.9627C3.6561 11.0261 3.69236 11.0841 3.73904 11.133L5.30804 12.944C5.34948 12.9982 5.40155 13.0433 5.46106 13.0765C5.52056 13.1098 5.58624 13.1306 5.65406 13.1375C5.72188 13.1445 5.79041 13.1375 5.85543 13.117C5.92045 13.0965 5.98059 13.0629 6.03216 13.0183C6.08372 12.9737 6.12562 12.919 6.15528 12.8576C6.18494 12.7963 6.20173 12.7295 6.20462 12.6613C6.20751 12.5932 6.19644 12.5252 6.1721 12.4616C6.14775 12.3979 6.11064 12.3398 6.06304 12.291L4.49404 10.479ZM17.919 10.762C17.9542 10.82 18.0007 10.8701 18.0559 10.9095C18.111 10.9489 18.1736 10.9766 18.2398 10.9911C18.306 11.0056 18.3744 11.0064 18.4409 10.9936C18.5075 10.9808 18.5707 10.9546 18.6268 10.9166C18.6829 10.8786 18.7307 10.8296 18.7673 10.7726C18.8039 10.7156 18.8285 10.6517 18.8397 10.5849C18.8508 10.5181 18.8483 10.4497 18.8322 10.3839C18.8161 10.318 18.7868 10.2562 18.746 10.202L17.4 8.21904C17.3229 8.11651 17.2093 8.04755 17.0828 8.02643C16.9562 8.00532 16.8264 8.03367 16.7201 8.10561C16.6139 8.17755 16.5394 8.28758 16.512 8.41293C16.4846 8.53828 16.5065 8.66935 16.573 8.77904L17.918 10.763L17.919 10.762ZM19.331 13.882C19.2407 13.7852 19.1925 13.6564 19.197 13.5241C19.2015 13.3917 19.2584 13.2665 19.355 13.176L21.107 11.541C21.1541 11.4918 21.2107 11.4527 21.2733 11.4261C21.336 11.3995 21.4035 11.3859 21.4716 11.3863C21.5397 11.3867 21.607 11.401 21.6693 11.4284C21.7317 11.4557 21.7878 11.4955 21.8343 11.5453C21.8807 11.5951 21.9165 11.6538 21.9394 11.7179C21.9624 11.782 21.972 11.8502 21.9677 11.9181C21.9633 11.9861 21.9452 12.0524 21.9143 12.1131C21.8834 12.1738 21.8404 12.2275 21.788 12.271L20.037 13.906C19.9402 13.9964 19.8114 14.0446 19.6791 14.0401C19.5467 14.0356 19.4215 13.9787 19.331 13.882Z" fill="#EB1517"/>
<path fill-rule="evenodd" clip-rule="evenodd" d="M22.532 6.244C23.4982 8.00846 24.0031 9.98833 24 12C24 18.627 18.627 24 12 24C5.373 24 0 18.627 0 12C0 5.373 5.373 0 12 0C13.194 0 14.348 0.175 15.437 0.5C15.2679 0.851385 15.1436 1.22262 15.067 1.605C14.071 1.3122 13.0381 1.16402 12 1.165C6.016 1.165 1.165 6.016 1.165 12C1.165 17.984 6.016 22.835 12 22.835C17.984 22.835 22.835 17.984 22.835 12C22.835 10.13 22.361 8.37 21.527 6.836C21.887 6.68 22.225 6.48 22.532 6.244ZM9.02 12.266C9.01283 11.879 9.08286 11.4944 9.22601 11.1348C9.36915 10.7751 9.58254 10.4476 9.8537 10.1714C10.1249 9.89517 10.4484 9.67575 10.8053 9.52596C11.1622 9.37618 11.5454 9.29903 11.9325 9.29903C12.3196 9.29903 12.7028 9.37618 13.0597 9.52596C13.4166 9.67575 13.7401 9.89517 14.0113 10.1714C14.2825 10.4476 14.4958 10.7751 14.639 11.1348C14.7821 11.4944 14.8522 11.879 14.845 12.266C14.8309 13.0291 14.5178 13.7562 13.9731 14.2908C13.4285 14.8255 12.6957 15.125 11.9325 15.125C11.1693 15.125 10.4365 14.8255 9.89187 14.2908C9.34721 13.7562 9.03414 13.0291 9.02 12.266ZM11.932 8.189C11.3912 8.18053 10.854 8.27974 10.3519 8.48085C9.84979 8.68196 9.39269 8.98096 9.00723 9.36043C8.62177 9.7399 8.31565 10.1923 8.1067 10.6912C7.89775 11.1901 7.79014 11.7256 7.79014 12.2665C7.79014 12.8074 7.89775 13.3429 8.1067 13.8418C8.31565 14.3407 8.62177 14.7931 9.00723 15.1726C9.39269 15.552 9.84979 15.851 10.3519 16.0521C10.854 16.2533 11.3912 16.3525 11.932 16.344C13.0024 16.3272 14.0232 15.8903 14.7742 15.1274C15.5252 14.3646 15.9461 13.337 15.9461 12.2665C15.9461 11.196 15.5252 10.1684 14.7742 9.40558C14.0232 8.64273 13.0024 8.20576 11.932 8.189Z" fill="#9F0001"/>
<path fill-rule="evenodd" clip-rule="evenodd" d="M15.3052 0.438965C14.7088 1.41358 14.4885 2.57235 14.6856 3.69785C14.8828 4.82336 15.4839 5.83822 16.3762 6.55203C17.2684 7.26583 18.3905 7.62951 19.5318 7.57481C20.6732 7.52012 21.7553 7.05082 22.5752 6.25496C22.4268 5.98083 22.2677 5.71262 22.0982 5.45096C21.4482 6.15724 20.5543 6.59054 19.5972 6.66336C18.64 6.73619 17.6909 6.44312 16.9415 5.84334C16.192 5.24355 15.6981 4.38174 15.5594 3.43191C15.4207 2.48208 15.6476 1.51501 16.1942 0.725965C15.9018 0.618601 15.6052 0.522859 15.3052 0.438965Z" fill="#9F0001"/>
</svg>
