<svg width="32" height="35" viewBox="0 0 32 35" fill="none" xmlns="http://www.w3.org/2000/svg">
<path d="M15.2002 0.899902C15.6951 0.614257 16.3049 0.614258 16.7998 0.899902L29.7422 8.37256C30.2371 8.6584 30.542 9.18675 30.542 9.7583V24.7017C30.542 25.2732 30.2371 25.8016 29.7422 26.0874L16.7998 33.5601C16.3049 33.8457 15.6951 33.8457 15.2002 33.5601L2.25781 26.0874C1.76289 25.8016 1.45801 25.2732 1.45801 24.7017V9.7583C1.45801 9.18675 1.76289 8.6584 2.25781 8.37256L15.2002 0.899902Z" fill="#CAA686" stroke="white" stroke-width="1.37143"/>
<path d="M16.6092 20.2398V21.4966H19.6568V22.7157H12.3425V21.4966H15.3902V20.2398C14.2118 20.0912 13.1281 19.5177 12.3425 18.6269C11.557 17.736 11.1235 16.5891 11.1235 15.4014V11.7443H20.8759V15.4014C20.8759 16.5891 20.4424 17.736 19.6568 18.6269C18.8713 19.5177 17.7876 20.0912 16.6092 20.2398ZM9.29492 12.9633H10.514V15.4014H9.29492V12.9633ZM21.4854 12.9633H22.7044V15.4014H21.4854V12.9633Z" fill="white"/>
</svg>
