<svg width="20" height="20" viewBox="0 0 20 20" fill="none" xmlns="http://www.w3.org/2000/svg">
<path d="M9.16797 1.66699C13.3078 1.66717 16.668 5.0271 16.668 9.16699C16.6703 10.8685 16.0907 12.52 15.0264 13.8477L18.5957 17.416L17.417 18.5947L13.8486 15.0254C12.521 16.0897 10.8695 16.6693 9.16797 16.667C5.02808 16.667 1.66814 13.3068 1.66797 9.16699C1.66797 5.02699 5.02797 1.66699 9.16797 1.66699ZM9.16797 3.33301C5.94463 3.33301 3.33398 5.94366 3.33398 9.16699C3.33416 12.3893 5.94474 15 9.16797 15C10.6849 15.0023 12.143 14.412 13.2305 13.3545L13.3555 13.2295C14.413 12.142 15.0033 10.6839 15.001 9.16699C15.001 5.94377 12.3903 3.33318 9.16797 3.33301Z" fill="#4E4F5F"/>
</svg>
