<svg width="15" height="15" viewBox="0 0 15 15" fill="none" xmlns="http://www.w3.org/2000/svg">
<path d="M6.35487 0.574861C6.7148 -0.191894 7.80538 -0.191895 8.16532 0.57486L9.6086 3.64945C9.75017 3.95103 10.0326 4.1623 10.3619 4.21291L13.6711 4.72152C14.4754 4.84513 14.8032 5.82633 14.2347 6.40853L11.7795 8.92315C11.5577 9.15033 11.4569 9.46936 11.508 9.78273L12.0785 13.2803C12.2129 14.1043 11.3382 14.7204 10.6076 14.3164L7.74401 12.7329C7.44289 12.5664 7.0773 12.5664 6.77617 12.7329L3.91254 14.3164C3.18198 14.7204 2.30727 14.1043 2.44166 13.2803L3.01214 9.78273C3.06326 9.46936 2.96251 9.15033 2.74069 8.92315L0.285453 6.40853C-0.282999 5.82633 0.0447956 4.84513 0.849044 4.72152L4.15827 4.21291C4.48756 4.1623 4.77002 3.95103 4.91158 3.64945L6.35487 0.574861Z" fill="#E1E1E1"/>
</svg>
