<svg width="24" height="24" viewBox="0 0 24 24" fill="none" xmlns="http://www.w3.org/2000/svg">
<g clip-path="url(#clip0_22835_265353)">
<path d="M0 12.0001C0 18.6276 5.37255 24.0001 12 24.0001C18.6275 24.0001 24 18.6276 24 12.0001C24 5.37263 18.6275 7.24792e-05 12 7.24792e-05C5.37255 7.24792e-05 0 5.37263 0 12.0001Z" fill="url(#paint0_linear_22835_265353)"/>
<path d="M8.12305 12.8772L9.54678 16.8179C9.54678 16.8179 9.72475 17.1864 9.91542 17.1864C10.1061 17.1864 12.9409 14.2372 12.9409 14.2372L16.0934 8.14825L8.17389 11.8601L8.12305 12.8772Z" fill="#C8DAEA"/>
<path d="M10.0106 13.8878L9.73721 16.7924C9.73721 16.7924 9.6228 17.6822 10.5126 16.7924C11.4025 15.9026 12.2542 15.2161 12.2542 15.2161" fill="#A9C6D8"/>
<path d="M8.14873 13.0179L5.22042 12.0637C5.22042 12.0637 4.8709 11.9218 4.98317 11.5997C5.00635 11.5333 5.05303 11.4769 5.19286 11.3794C5.84188 10.9271 17.2035 6.84335 17.2035 6.84335C17.2035 6.84335 17.5243 6.73535 17.714 6.80715C17.8006 6.83999 17.8559 6.87711 17.9025 7.01257C17.9195 7.06189 17.9293 7.16674 17.9279 7.27108C17.9269 7.34633 17.9178 7.41599 17.9111 7.52532C17.8419 8.64193 15.7714 16.9746 15.7714 16.9746C15.7714 16.9746 15.6475 17.4623 15.2036 17.4788C15.0417 17.4849 14.8453 17.4521 14.6103 17.25C13.7393 16.5007 10.7284 14.4773 10.0632 14.0324C10.0256 14.0074 10.015 13.9747 10.0086 13.9429C9.99928 13.8961 10.0493 13.8377 10.0493 13.8377C10.0493 13.8377 15.2919 9.17756 15.4314 8.68861C15.4422 8.65067 15.4016 8.63196 15.3466 8.64834C14.9984 8.77647 8.96219 12.588 8.29609 13.009C8.25714 13.0336 8.14792 13.0178 8.14792 13.0178" fill="white"/>
</g>
<defs>
<linearGradient id="paint0_linear_22835_265353" x1="12" y1="24" x2="12" y2="-2.92159e-05" gradientUnits="userSpaceOnUse">
<stop stop-color="#1D93D2"/>
<stop offset="1" stop-color="#38B0E3"/>
</linearGradient>
<clipPath id="clip0_22835_265353">
<rect width="24" height="24" fill="white"/>
</clipPath>
</defs>
</svg>
