<svg width="50" height="16" viewBox="0 0 50 16" fill="none" xmlns="http://www.w3.org/2000/svg">
<path d="M32.5237 0C29.0177 0 25.8843 1.81754 25.8843 5.17483C25.8843 9.02543 31.4412 9.29136 31.4412 11.226C31.4412 12.0407 30.508 12.7697 28.9134 12.7697C26.6509 12.7697 24.9599 11.751 24.9599 11.751L24.2363 15.1394C24.2363 15.1394 26.1843 16 28.7705 16C32.6038 16 35.6205 14.0935 35.6205 10.6784C35.6205 6.60929 30.0404 6.35126 30.0404 4.55596C30.0404 3.91782 30.8065 3.21888 32.3962 3.21888C34.19 3.21888 35.6531 3.95984 35.6531 3.95984L36.3615 0.687571C36.3615 0.687571 34.7688 0 32.5232 0H32.5237ZM0.445127 0.24715L0.360107 0.740956C0.360107 0.740956 1.8351 1.01084 3.16378 1.54963C4.87455 2.16701 4.99615 2.52686 5.28433 3.64299L8.42363 15.7449H12.6321L19.1153 0.24715H14.9168L10.7508 10.7841L9.05089 1.85214C8.89519 0.82993 8.1053 0.246656 7.13894 0.246656H0.445621L0.445127 0.24715ZM20.8039 0.24715L17.5103 15.7449H21.5142L24.7958 0.24715H20.8039ZM43.1344 0.24715C42.169 0.24715 41.6574 0.764188 41.2822 1.66727L35.4164 15.7449H39.615L40.4271 13.3985H45.5421L46.0359 15.7449H49.7407L46.509 0.24715H43.1344ZM43.6806 4.43437L44.9252 10.2498H41.5912L43.6811 4.43437H43.6806Z" fill="#1434CB"/>
</svg>
