<svg width="144" height="71" fill="none" xmlns="http://www.w3.org/2000/svg"><g filter="url(#filter0_d)"><path d="M46.893 51.829c5.428-5.83 18.095-6.317 23.75-5.83V12.471H55.036L22.464 27.777v10.204h-5.428l-.679 1.458-1.357.728v7.289l1.357.729.679.728h23.071v2.916h6.786zM95.551 51.829c-5.693-5.83-18.978-6.317-24.908-5.83V12.471H87.01l34.161 15.305v10.204h5.693l.712 1.458 1.423.728v7.289l-1.423.729-.712.728h-24.197v2.916h-7.117z" fill="#AE0014"/><path d="M43.5 49.115L22.464 37.579V27.401c8.686-10.858 24.881-14.477 31.893-14.93v33.93L43.5 49.114z" fill="url(#paint0_linear)"/><path d="M55.714 46.4V12.473c4.343-1.629 12.667-1.583 16.286-1.357v33.928s-13.345.905-16.286 1.358z" fill="url(#paint1_linear)"/><path d="M100.11 49.115l20.747-11.501V27.466c-8.567-10.825-24.54-14.433-31.456-14.884v33.826l10.709 2.707z" fill="url(#paint2_linear)"/><path d="M88.063 46.408V12.582C83.779 10.958 75.57 11.003 72 11.23v33.827s13.162.902 16.063 1.352z" fill="url(#paint3_linear)"/></g><defs><linearGradient id="paint0_linear" x1="75.042" y1="77.105" x2="142.254" y2="45.791" gradientUnits="userSpaceOnUse"><stop stop-color="#E8001B"/><stop offset="1" stop-color="#FF8A00"/></linearGradient><linearGradient id="paint1_linear" x1="75.042" y1="77.105" x2="142.254" y2="45.791" gradientUnits="userSpaceOnUse"><stop stop-color="#E8001B"/><stop offset="1" stop-color="#FF8A00"/></linearGradient><linearGradient id="paint2_linear" x1="75.042" y1="77.105" x2="142.254" y2="45.791" gradientUnits="userSpaceOnUse"><stop stop-color="#E8001B"/><stop offset="1" stop-color="#FF8A00"/></linearGradient><linearGradient id="paint3_linear" x1="75.042" y1="77.105" x2="142.254" y2="45.791" gradientUnits="userSpaceOnUse"><stop stop-color="#E8001B"/><stop offset="1" stop-color="#FF8A00"/></linearGradient><filter id="filter0_d" x="0" y="0" width="144" height="70.829" filterUnits="userSpaceOnUse" color-interpolation-filters="sRGB"><feFlood flood-opacity="0" result="BackgroundImageFix"/><feColorMatrix in="SourceAlpha" values="0 0 0 0 0 0 0 0 0 0 0 0 0 0 0 0 0 0 127 0"/><feOffset dy="4"/><feGaussianBlur stdDeviation="7.5"/><feColorMatrix values="0 0 0 0 0.909804 0 0 0 0 0 0 0 0 0 0.106447 0 0 0 0.35 0"/><feBlend in2="BackgroundImageFix" result="effect1_dropShadow"/><feBlend in="SourceGraphic" in2="effect1_dropShadow" result="shape"/></filter></defs></svg>