<svg width="121" height="78" fill="none" xmlns="http://www.w3.org/2000/svg"><g filter="url(#filter0_d)"><rect x="15" y="11" width="91" height="48" rx="5" fill="#AE0014"/><path d="M19.333 15.167a2.167 2.167 0 114.334 0v16.476a2.167 2.167 0 01-4.334 0V15.167z" fill="url(#paint0_linear)"/><path d="M19.333 38.167a2.167 2.167 0 014.334 0v16.476a2.167 2.167 0 01-4.334 0V38.167z" fill="url(#paint1_linear)"/><path d="M26.556 15.167a2.167 2.167 0 014.333 0v16.476a2.167 2.167 0 01-4.333 0V15.167z" fill="url(#paint2_linear)"/><path d="M26.556 38.167a2.167 2.167 0 014.333 0v16.476a2.167 2.167 0 01-4.333 0V38.167z" fill="url(#paint3_linear)"/><path d="M33.778 15.167a2.167 2.167 0 014.333 0v16.476a2.167 2.167 0 11-4.333 0V15.167z" fill="url(#paint4_linear)"/><path d="M33.778 38.167a2.167 2.167 0 014.333 0v16.476a2.167 2.167 0 11-4.333 0V38.167z" fill="url(#paint5_linear)"/><path d="M83.889 15.167a2.167 2.167 0 114.333 0v16.476a2.167 2.167 0 11-4.333 0V15.167z" fill="url(#paint6_linear)"/><path d="M83.889 38.167a2.167 2.167 0 114.333 0v16.476a2.167 2.167 0 11-4.333 0V38.167z" fill="url(#paint7_linear)"/><path d="M91.111 15.167a2.167 2.167 0 014.334 0v16.476a2.167 2.167 0 01-4.334 0V15.167z" fill="url(#paint8_linear)"/><path d="M91.111 38.167a2.167 2.167 0 014.334 0v16.476a2.167 2.167 0 01-4.334 0V38.167z" fill="url(#paint9_linear)"/><path d="M98.333 15.167a2.167 2.167 0 014.334 0v16.476a2.167 2.167 0 01-4.334 0V15.167z" fill="url(#paint10_linear)"/><path d="M98.333 38.167a2.167 2.167 0 014.334 0v16.476a2.167 2.167 0 01-4.334 0V38.167z" fill="url(#paint11_linear)"/><path d="M62.667 15.167a2.167 2.167 0 014.333 0v16.476a2.167 2.167 0 01-4.333 0V15.167z" fill="url(#paint12_linear)"/><path d="M62.667 38.167a2.167 2.167 0 114.333 0v16.476a2.167 2.167 0 11-4.333 0V38.167z" fill="url(#paint13_linear)"/><path d="M69.89 15.167a2.167 2.167 0 014.332 0v16.476a2.167 2.167 0 01-4.333 0V15.167z" fill="url(#paint14_linear)"/><path d="M69.89 38.167a2.167 2.167 0 014.332 0v16.476a2.167 2.167 0 01-4.333 0V38.167z" fill="url(#paint15_linear)"/><path d="M77.111 15.167a2.167 2.167 0 014.334 0v16.476a2.167 2.167 0 11-4.334 0V15.167z" fill="url(#paint16_linear)"/><path d="M77.111 38.167a2.167 2.167 0 014.334 0v16.476a2.167 2.167 0 11-4.334 0V38.167z" fill="url(#paint17_linear)"/><path d="M41 15.167a2.167 2.167 0 114.333 0v16.476a2.167 2.167 0 11-4.333 0V15.167z" fill="url(#paint18_linear)"/><path d="M41 38.167a2.167 2.167 0 014.333 0v16.476a2.167 2.167 0 11-4.333 0V38.167z" fill="url(#paint19_linear)"/><path d="M48.222 15.167a2.167 2.167 0 114.333 0v16.476a2.167 2.167 0 01-4.333 0V15.167z" fill="url(#paint20_linear)"/><path d="M48.222 38.167a2.167 2.167 0 114.333 0v16.476a2.167 2.167 0 01-4.333 0V38.167z" fill="url(#paint21_linear)"/><path d="M55.444 15.167a2.167 2.167 0 114.334 0v16.476a2.167 2.167 0 01-4.334 0V15.167z" fill="url(#paint22_linear)"/><path d="M55.444 38.167a2.167 2.167 0 114.334 0v16.476a2.167 2.167 0 01-4.334 0V38.167z" fill="url(#paint23_linear)"/></g><defs><linearGradient id="paint0_linear" x1="63.864" y1="88.982" x2="125.841" y2="67.705" gradientUnits="userSpaceOnUse"><stop stop-color="#E8001B"/><stop offset="1" stop-color="#FF8A00"/></linearGradient><linearGradient id="paint1_linear" x1="63.864" y1="88.982" x2="125.841" y2="67.705" gradientUnits="userSpaceOnUse"><stop stop-color="#E8001B"/><stop offset="1" stop-color="#FF8A00"/></linearGradient><linearGradient id="paint2_linear" x1="63.864" y1="88.982" x2="125.841" y2="67.705" gradientUnits="userSpaceOnUse"><stop stop-color="#E8001B"/><stop offset="1" stop-color="#FF8A00"/></linearGradient><linearGradient id="paint3_linear" x1="63.864" y1="88.982" x2="125.841" y2="67.705" gradientUnits="userSpaceOnUse"><stop stop-color="#E8001B"/><stop offset="1" stop-color="#FF8A00"/></linearGradient><linearGradient id="paint4_linear" x1="63.864" y1="88.982" x2="125.841" y2="67.705" gradientUnits="userSpaceOnUse"><stop stop-color="#E8001B"/><stop offset="1" stop-color="#FF8A00"/></linearGradient><linearGradient id="paint5_linear" x1="63.864" y1="88.982" x2="125.841" y2="67.705" gradientUnits="userSpaceOnUse"><stop stop-color="#E8001B"/><stop offset="1" stop-color="#FF8A00"/></linearGradient><linearGradient id="paint6_linear" x1="63.864" y1="88.982" x2="125.841" y2="67.705" gradientUnits="userSpaceOnUse"><stop stop-color="#E8001B"/><stop offset="1" stop-color="#FF8A00"/></linearGradient><linearGradient id="paint7_linear" x1="63.864" y1="88.982" x2="125.841" y2="67.705" gradientUnits="userSpaceOnUse"><stop stop-color="#E8001B"/><stop offset="1" stop-color="#FF8A00"/></linearGradient><linearGradient id="paint8_linear" x1="63.864" y1="88.982" x2="125.841" y2="67.705" gradientUnits="userSpaceOnUse"><stop stop-color="#E8001B"/><stop offset="1" stop-color="#FF8A00"/></linearGradient><linearGradient id="paint9_linear" x1="63.864" y1="88.982" x2="125.841" y2="67.705" gradientUnits="userSpaceOnUse"><stop stop-color="#E8001B"/><stop offset="1" stop-color="#FF8A00"/></linearGradient><linearGradient id="paint10_linear" x1="63.864" y1="88.982" x2="125.841" y2="67.705" gradientUnits="userSpaceOnUse"><stop stop-color="#E8001B"/><stop offset="1" stop-color="#FF8A00"/></linearGradient><linearGradient id="paint11_linear" x1="63.864" y1="88.982" x2="125.841" y2="67.705" gradientUnits="userSpaceOnUse"><stop stop-color="#E8001B"/><stop offset="1" stop-color="#FF8A00"/></linearGradient><linearGradient id="paint12_linear" x1="63.864" y1="88.982" x2="125.841" y2="67.705" gradientUnits="userSpaceOnUse"><stop stop-color="#E8001B"/><stop offset="1" stop-color="#FF8A00"/></linearGradient><linearGradient id="paint13_linear" x1="63.864" y1="88.982" x2="125.841" y2="67.705" gradientUnits="userSpaceOnUse"><stop stop-color="#E8001B"/><stop offset="1" stop-color="#FF8A00"/></linearGradient><linearGradient id="paint14_linear" x1="63.864" y1="88.982" x2="125.841" y2="67.705" gradientUnits="userSpaceOnUse"><stop stop-color="#E8001B"/><stop offset="1" stop-color="#FF8A00"/></linearGradient><linearGradient id="paint15_linear" x1="63.864" y1="88.982" x2="125.841" y2="67.705" gradientUnits="userSpaceOnUse"><stop stop-color="#E8001B"/><stop offset="1" stop-color="#FF8A00"/></linearGradient><linearGradient id="paint16_linear" x1="63.864" y1="88.982" x2="125.841" y2="67.705" gradientUnits="userSpaceOnUse"><stop stop-color="#E8001B"/><stop offset="1" stop-color="#FF8A00"/></linearGradient><linearGradient id="paint17_linear" x1="63.864" y1="88.982" x2="125.841" y2="67.705" gradientUnits="userSpaceOnUse"><stop stop-color="#E8001B"/><stop offset="1" stop-color="#FF8A00"/></linearGradient><linearGradient id="paint18_linear" x1="63.864" y1="88.982" x2="125.841" y2="67.705" gradientUnits="userSpaceOnUse"><stop stop-color="#E8001B"/><stop offset="1" stop-color="#FF8A00"/></linearGradient><linearGradient id="paint19_linear" x1="63.864" y1="88.982" x2="125.841" y2="67.705" gradientUnits="userSpaceOnUse"><stop stop-color="#E8001B"/><stop offset="1" stop-color="#FF8A00"/></linearGradient><linearGradient id="paint20_linear" x1="63.864" y1="88.982" x2="125.841" y2="67.705" gradientUnits="userSpaceOnUse"><stop stop-color="#E8001B"/><stop offset="1" stop-color="#FF8A00"/></linearGradient><linearGradient id="paint21_linear" x1="63.864" y1="88.982" x2="125.841" y2="67.705" gradientUnits="userSpaceOnUse"><stop stop-color="#E8001B"/><stop offset="1" stop-color="#FF8A00"/></linearGradient><linearGradient id="paint22_linear" x1="63.864" y1="88.982" x2="125.841" y2="67.705" gradientUnits="userSpaceOnUse"><stop stop-color="#E8001B"/><stop offset="1" stop-color="#FF8A00"/></linearGradient><linearGradient id="paint23_linear" x1="63.864" y1="88.982" x2="125.841" y2="67.705" gradientUnits="userSpaceOnUse"><stop stop-color="#E8001B"/><stop offset="1" stop-color="#FF8A00"/></linearGradient><filter id="filter0_d" x="0" y="0" width="121" height="78" filterUnits="userSpaceOnUse" color-interpolation-filters="sRGB"><feFlood flood-opacity="0" result="BackgroundImageFix"/><feColorMatrix in="SourceAlpha" values="0 0 0 0 0 0 0 0 0 0 0 0 0 0 0 0 0 0 127 0"/><feOffset dy="4"/><feGaussianBlur stdDeviation="7.5"/><feColorMatrix values="0 0 0 0 0.909804 0 0 0 0 0 0 0 0 0 0.106447 0 0 0 0.35 0"/><feBlend in2="BackgroundImageFix" result="effect1_dropShadow"/><feBlend in="SourceGraphic" in2="effect1_dropShadow" result="shape"/></filter></defs></svg>