<svg width="73" height="90" fill="none" xmlns="http://www.w3.org/2000/svg"><g filter="url(#filter0_d)"><rect x="28" y="16" width="16" height="36" rx="4" fill="#AE0014"/><path fill-rule="evenodd" clip-rule="evenodd" d="M44 19c-.833-.762-3.6-2.286-8-2.286-5.074 0-6.318.973-7.658 2.021-.113.088-.226.177-.342.265.5-1.905 2.6-5.714 7-5.714L36 11l1 2.286c2.167 0 6.6 1.143 7 5.714zM28 48a4 4 0 00-4 4v3h-6.5a2.5 2.5 0 000 5h6.626c.444 1.725 2.01 3 3.874 3h5v4.5a3.5 3.5 0 107 0V63h5a4.002 4.002 0 003.874-3H55.5a2.5 2.5 0 000-5H49v-3a4 4 0 00-4-4H28zm8.5 21a1.5 1.5 0 100-3 1.5 1.5 0 000 3z" fill="url(#paint0_linear)"/></g><defs><linearGradient id="paint0_linear" x1="37.978" y1="115.063" x2="73.139" y2="110.515" gradientUnits="userSpaceOnUse"><stop stop-color="#E8001B"/><stop offset="1" stop-color="#FF8A00"/></linearGradient><filter id="filter0_d" x="0" y="0" width="73" height="90" filterUnits="userSpaceOnUse" color-interpolation-filters="sRGB"><feFlood flood-opacity="0" result="BackgroundImageFix"/><feColorMatrix in="SourceAlpha" values="0 0 0 0 0 0 0 0 0 0 0 0 0 0 0 0 0 0 127 0"/><feOffset dy="4"/><feGaussianBlur stdDeviation="7.5"/><feColorMatrix values="0 0 0 0 0.909804 0 0 0 0 0 0 0 0 0 0.106447 0 0 0 0.35 0"/><feBlend in2="BackgroundImageFix" result="effect1_dropShadow"/><feBlend in="SourceGraphic" in2="effect1_dropShadow" result="shape"/></filter></defs></svg>