<svg width="70" height="90" fill="none" xmlns="http://www.w3.org/2000/svg"><g filter="url(#filter0_d)"><path d="M35.333 19.125h6.384c3.25 0 4.45 3.096 4.644 4.643v40.046c0 5.572-4.256 6.578-6.385 6.385H21.985c-6.036 0-7.158-3.096-6.965-4.643V49.305c0-18.572 4.063-17.992 10.447-23.796 5.107-4.643 8.706-6.19 9.866-6.384z" fill="#AE0014"/><path d="M46.027 28.411c-6.771 10.834-16.25 32.502 0 32.502s6.771-21.668 0-32.502z" fill="url(#paint0_linear)"/><path d="M31.25 13.322A2.322 2.322 0 0133.572 11h10.447a2.321 2.321 0 012.321 2.322v4.643a2.321 2.321 0 01-2.321 2.321H33.572a2.322 2.322 0 01-2.322-2.322v-4.642z" fill="url(#paint1_linear)"/></g><defs><linearGradient id="paint0_linear" x1="43.941" y1="97.567" x2="63.541" y2="95.884" gradientUnits="userSpaceOnUse"><stop stop-color="#E8001B"/><stop offset="1" stop-color="#FF8A00"/></linearGradient><linearGradient id="paint1_linear" x1="43.941" y1="97.567" x2="63.541" y2="95.884" gradientUnits="userSpaceOnUse"><stop stop-color="#E8001B"/><stop offset="1" stop-color="#FF8A00"/></linearGradient><filter id="filter0_d" x="0" y="0" width="70" height="89.221" filterUnits="userSpaceOnUse" color-interpolation-filters="sRGB"><feFlood flood-opacity="0" result="BackgroundImageFix"/><feColorMatrix in="SourceAlpha" values="0 0 0 0 0 0 0 0 0 0 0 0 0 0 0 0 0 0 127 0"/><feOffset dy="4"/><feGaussianBlur stdDeviation="7.5"/><feColorMatrix values="0 0 0 0 0.909804 0 0 0 0 0 0 0 0 0 0.106447 0 0 0 0.35 0"/><feBlend in2="BackgroundImageFix" result="effect1_dropShadow"/><feBlend in="SourceGraphic" in2="effect1_dropShadow" result="shape"/></filter></defs></svg>