<svg width="97" height="79" fill="none" xmlns="http://www.w3.org/2000/svg"><g filter="url(#filter0_d)"><path fill-rule="evenodd" clip-rule="evenodd" d="M19 26.5a4 4 0 00-4 4V56a4 4 0 004 4h59a4 4 0 004-4V30.5a4 4 0 00-4-4H19zm15.226 17.652h-4.985v4.878h-1.688v-4.878h-4.985v-1.58h4.985v-4.905h1.688v4.904h4.985v1.581zm35.812-2.019h2.234v1.662h-9.255v-1.662H70.038z" fill="#AE0014"/><path d="M15 18.683c0-1.85 1.5-3.35 3.35-3.35h60.3c1.85 0 3.35 1.5 3.35 3.35v2.234c0 1.85-1.5 3.35-3.35 3.35h-60.3a3.35 3.35 0 01-3.35-3.35v-2.234z" fill="url(#paint0_linear)"/><path d="M23.933 14.217c0-1.234 1-2.234 2.234-2.234h5.583a2.233 2.233 0 010 4.467h-5.583c-1.234 0-2.234-1-2.234-2.233z" fill="url(#paint1_linear)"/><path d="M63.017 14.217c0-1.234 1-2.234 2.233-2.234h5.583a2.233 2.233 0 110 4.467H65.25c-1.233 0-2.233-1-2.233-2.233z" fill="url(#paint2_linear)"/></g><defs><linearGradient id="paint0_linear" x1="50.802" y1="33.287" x2="79.091" y2="5.439" gradientUnits="userSpaceOnUse"><stop stop-color="#E8001B"/><stop offset="1" stop-color="#FF8A00"/></linearGradient><linearGradient id="paint1_linear" x1="50.802" y1="33.287" x2="79.091" y2="5.439" gradientUnits="userSpaceOnUse"><stop stop-color="#E8001B"/><stop offset="1" stop-color="#FF8A00"/></linearGradient><linearGradient id="paint2_linear" x1="50.802" y1="33.287" x2="79.091" y2="5.439" gradientUnits="userSpaceOnUse"><stop stop-color="#E8001B"/><stop offset="1" stop-color="#FF8A00"/></linearGradient><filter id="filter0_d" x="0" y=".983" width="97" height="78.017" filterUnits="userSpaceOnUse" color-interpolation-filters="sRGB"><feFlood flood-opacity="0" result="BackgroundImageFix"/><feColorMatrix in="SourceAlpha" values="0 0 0 0 0 0 0 0 0 0 0 0 0 0 0 0 0 0 127 0"/><feOffset dy="4"/><feGaussianBlur stdDeviation="7.5"/><feColorMatrix values="0 0 0 0 0.909804 0 0 0 0 0 0 0 0 0 0.106447 0 0 0 0.35 0"/><feBlend in2="BackgroundImageFix" result="effect1_dropShadow"/><feBlend in="SourceGraphic" in2="effect1_dropShadow" result="shape"/></filter></defs></svg>