<svg width="320" height="282" viewBox="0 0 320 282" fill="none" xmlns="http://www.w3.org/2000/svg">
<g clip-path="url(#clip0_22981_398035)">
<rect width="320" height="282" fill="#F4F4F4"/>
<rect width="320" height="282" fill="white"/>
<rect width="320" height="282" fill="#E3F1FE"/>
<path d="M59.2758 36V21.7H62.7158V35.34L60.6758 33.12H68.5958L67.3558 35.34V21.7H70.7958V35.34L69.5558 33.12H77.4758L75.4358 35.34V21.7H78.8758V36H59.2758ZM81.8088 36V33.12H83.8288C84.3088 33.12 84.7221 33.04 85.0688 32.88C85.4154 32.72 85.7288 32.4533 86.0088 32.08C86.3021 31.6933 86.5954 31.1667 86.8888 30.5L90.8288 21.7H94.3288L88.9288 32.88C88.5821 33.5867 88.1754 34.1733 87.7088 34.64C87.2554 35.0933 86.7288 35.4333 86.1288 35.66C85.5288 35.8867 84.8421 36 84.0688 36H81.8088ZM86.1888 32.82L80.6688 21.7H84.1688L88.7088 31.28L86.1888 32.82ZM99.5713 36H96.1313V21.7H99.5713V36ZM110.111 36H105.631L99.0713 28.58H99.3913L105.111 21.7H109.271L103.111 28.88V28.28L110.111 36ZM122.362 33.4H113.442V30.54H122.362V33.4ZM125.402 36H121.702L117.422 24.22H118.302L114.002 36H110.422L116.002 21.7H119.822L125.402 36ZM127.498 36V21.7H130.938V34.58H128.578L136.778 21.7H140.378V36H136.938V22.94H139.338L131.098 36H127.498ZM134.158 20.08C133.145 20.08 132.292 19.8267 131.598 19.32C130.905 18.8133 130.485 18.0133 130.338 16.92H132.878C132.945 17.4 133.092 17.74 133.318 17.94C133.545 18.14 133.825 18.24 134.158 18.24C134.518 18.24 134.805 18.14 135.018 17.94C135.245 17.74 135.385 17.4 135.438 16.92H137.998C137.865 18.0133 137.445 18.8133 136.738 19.32C136.045 19.8267 135.185 20.08 134.158 20.08ZM150.313 36H146.873V24.4H150.313V36ZM154.613 24.6H142.573V21.7H154.613V24.6ZM167.255 36H156.815V21.7H167.255V24.56H160.255V33.14H167.255V36ZM166.875 30.24H160.055V27.38H166.875V30.24ZM180.41 36H176.97V24.4H180.41V36ZM184.71 24.6H172.67V21.7H184.71V24.6ZM193.232 36.32C192.098 36.32 191.058 36.1333 190.112 35.76C189.165 35.3867 188.338 34.8667 187.632 34.2C186.938 33.5333 186.398 32.7467 186.012 31.84C185.638 30.92 185.452 29.92 185.452 28.84C185.452 27.76 185.638 26.7667 186.012 25.86C186.398 24.9533 186.938 24.1667 187.632 23.5C188.338 22.8333 189.165 22.3133 190.112 21.94C191.058 21.5667 192.098 21.38 193.232 21.38C194.365 21.38 195.405 21.5667 196.352 21.94C197.298 22.3133 198.118 22.8333 198.812 23.5C199.518 24.1667 200.058 24.9533 200.432 25.86C200.818 26.7667 201.012 27.76 201.012 28.84C201.012 29.92 200.818 30.92 200.432 31.84C200.058 32.7467 199.518 33.5333 198.812 34.2C198.118 34.8667 197.298 35.3867 196.352 35.76C195.405 36.1333 194.365 36.32 193.232 36.32ZM193.232 33.3C194.058 33.3 194.778 33.1133 195.392 32.74C196.018 32.3533 196.505 31.8267 196.852 31.16C197.212 30.48 197.392 29.7067 197.392 28.84C197.392 27.9733 197.212 27.2067 196.852 26.54C196.505 25.8733 196.018 25.3533 195.392 24.98C194.778 24.5933 194.058 24.4 193.232 24.4C192.418 24.4 191.698 24.5933 191.072 24.98C190.445 25.3533 189.952 25.8733 189.592 26.54C189.245 27.2067 189.072 27.9733 189.072 28.84C189.072 29.7067 189.245 30.48 189.592 31.16C189.952 31.8267 190.445 32.3533 191.072 32.74C191.698 33.1133 192.418 33.3 193.232 33.3ZM203.553 36V21.7H209.873C210.833 21.7 211.673 21.8533 212.393 22.16C213.113 22.4667 213.673 22.9 214.073 23.46C214.473 24.0067 214.673 24.6533 214.673 25.4C214.673 26.1067 214.473 26.7333 214.073 27.28C213.673 27.8267 213.113 28.2533 212.393 28.56C211.673 28.8667 210.833 29.02 209.873 29.02H207.193V27.96H209.873C210.953 27.96 211.893 28.12 212.693 28.44C213.506 28.7467 214.14 29.1867 214.593 29.76C215.046 30.3333 215.273 31.0133 215.273 31.8C215.273 32.64 215.046 33.38 214.593 34.02C214.14 34.6467 213.506 35.1333 212.693 35.48C211.893 35.8267 210.953 36 209.873 36H203.553ZM206.993 33.18H209.893C210.48 33.18 210.94 33.04 211.273 32.76C211.62 32.4667 211.793 32.0667 211.793 31.56C211.793 31.0933 211.62 30.7267 211.273 30.46C210.94 30.1933 210.48 30.06 209.893 30.06H206.793V27.32H209.633C210.126 27.32 210.506 27.1933 210.773 26.94C211.053 26.6733 211.193 26.3133 211.193 25.86C211.193 25.4333 211.053 25.1067 210.773 24.88C210.506 24.64 210.126 24.52 209.633 24.52H206.993V33.18ZM227.772 33.4H218.852V30.54H227.772V33.4ZM230.812 36H227.112L222.832 24.22H223.712L219.412 36H215.832L221.412 21.7H225.232L230.812 36ZM236.349 36H232.909V21.7H238.889C239.955 21.7 240.895 21.8933 241.709 22.28C242.522 22.6667 243.155 23.2067 243.609 23.9C244.062 24.58 244.289 25.38 244.289 26.3C244.289 27.2067 244.062 28.0067 243.609 28.7C243.155 29.3933 242.522 29.9333 241.709 30.32C240.895 30.7067 239.955 30.9 238.889 30.9H236.149V28.04H238.889C239.475 28.04 239.942 27.8867 240.289 27.58C240.635 27.26 240.809 26.8333 240.809 26.3C240.809 25.7667 240.635 25.3467 240.289 25.04C239.942 24.72 239.475 24.56 238.889 24.56H236.349V36ZM255.307 36.32C254.013 36.32 252.833 36.0933 251.767 35.64C250.7 35.1733 249.827 34.5133 249.147 33.66L251.287 31.48C251.82 32.08 252.44 32.54 253.147 32.86C253.867 33.1667 254.627 33.32 255.427 33.32C256 33.32 256.493 33.2467 256.907 33.1C257.32 32.9533 257.64 32.7533 257.867 32.5C258.093 32.2333 258.207 31.9267 258.207 31.58C258.207 31.1133 257.987 30.76 257.547 30.52C257.107 30.2667 256.467 30.14 255.627 30.14H252.967V27.28H255.647C256.327 27.28 256.853 27.16 257.227 26.92C257.6 26.6667 257.787 26.3333 257.787 25.92C257.787 25.4533 257.56 25.08 257.107 24.8C256.667 24.52 256.073 24.38 255.327 24.38C254.607 24.38 253.953 24.5333 253.367 24.84C252.78 25.1333 252.22 25.62 251.687 26.3L249.507 24.06C250.253 23.1533 251.127 22.48 252.127 22.04C253.127 21.5867 254.233 21.36 255.447 21.36C256.567 21.36 257.567 21.5333 258.447 21.88C259.327 22.2267 260.013 22.7067 260.507 23.32C261.013 23.92 261.267 24.6133 261.267 25.4C261.267 26.08 261.073 26.68 260.687 27.2C260.3 27.72 259.767 28.1267 259.087 28.42C259.887 28.6867 260.52 29.12 260.987 29.72C261.453 30.3067 261.687 31 261.687 31.8C261.687 32.68 261.407 33.46 260.847 34.14C260.3 34.82 259.547 35.3533 258.587 35.74C257.627 36.1267 256.533 36.32 255.307 36.32ZM89.1488 61V46.7H101.829V61H98.3888V47.54L100.029 49.58H90.7488L92.5888 47.54V61H89.1488ZM112.148 61.32C111.014 61.32 109.974 61.1333 109.028 60.76C108.081 60.3867 107.254 59.8667 106.548 59.2C105.854 58.5333 105.314 57.7467 104.928 56.84C104.554 55.92 104.368 54.92 104.368 53.84C104.368 52.76 104.554 51.7667 104.928 50.86C105.314 49.9533 105.854 49.1667 106.548 48.5C107.254 47.8333 108.081 47.3133 109.028 46.94C109.974 46.5667 111.014 46.38 112.148 46.38C113.281 46.38 114.321 46.5667 115.268 46.94C116.214 47.3133 117.034 47.8333 117.728 48.5C118.434 49.1667 118.974 49.9533 119.348 50.86C119.734 51.7667 119.928 52.76 119.928 53.84C119.928 54.92 119.734 55.92 119.348 56.84C118.974 57.7467 118.434 58.5333 117.728 59.2C117.034 59.8667 116.214 60.3867 115.268 60.76C114.321 61.1333 113.281 61.32 112.148 61.32ZM112.148 58.3C112.974 58.3 113.694 58.1133 114.308 57.74C114.934 57.3533 115.421 56.8267 115.768 56.16C116.128 55.48 116.308 54.7067 116.308 53.84C116.308 52.9733 116.128 52.2067 115.768 51.54C115.421 50.8733 114.934 50.3533 114.308 49.98C113.694 49.5933 112.974 49.4 112.148 49.4C111.334 49.4 110.614 49.5933 109.988 49.98C109.361 50.3533 108.868 50.8733 108.508 51.54C108.161 52.2067 107.988 52.9733 107.988 53.84C107.988 54.7067 108.161 55.48 108.508 56.16C108.868 56.8267 109.361 57.3533 109.988 57.74C110.614 58.1133 111.334 58.3 112.148 58.3ZM127.289 61.32C125.996 61.32 124.816 61.0933 123.749 60.64C122.682 60.1733 121.809 59.5133 121.129 58.66L123.269 56.48C123.802 57.08 124.422 57.54 125.129 57.86C125.849 58.1667 126.609 58.32 127.409 58.32C127.982 58.32 128.476 58.2467 128.889 58.1C129.302 57.9533 129.622 57.7533 129.849 57.5C130.076 57.2333 130.189 56.9267 130.189 56.58C130.189 56.1133 129.969 55.76 129.529 55.52C129.089 55.2667 128.449 55.14 127.609 55.14H124.949V52.28H127.629C128.309 52.28 128.836 52.16 129.209 51.92C129.582 51.6667 129.769 51.3333 129.769 50.92C129.769 50.4533 129.542 50.08 129.089 49.8C128.649 49.52 128.056 49.38 127.309 49.38C126.589 49.38 125.936 49.5333 125.349 49.84C124.762 50.1333 124.202 50.62 123.669 51.3L121.489 49.06C122.236 48.1533 123.109 47.48 124.109 47.04C125.109 46.5867 126.216 46.36 127.429 46.36C128.549 46.36 129.549 46.5333 130.429 46.88C131.309 47.2267 131.996 47.7067 132.489 48.32C132.996 48.92 133.249 49.6133 133.249 50.4C133.249 51.08 133.056 51.68 132.669 52.2C132.282 52.72 131.749 53.1267 131.069 53.42C131.869 53.6867 132.502 54.12 132.969 54.72C133.436 55.3067 133.669 56 133.669 56.8C133.669 57.68 133.389 58.46 132.829 59.14C132.282 59.82 131.529 60.3533 130.569 60.74C129.609 61.1267 128.516 61.32 127.289 61.32ZM145.187 61V46.7H148.627V61H145.187ZM139.347 61H135.907V46.7H139.347V61ZM139.147 55.14V52.26H145.387V55.14H139.147ZM162.665 58.4H153.745V55.54H162.665V58.4ZM165.705 61H162.005L157.725 49.22H158.605L154.305 61H150.725L156.305 46.7H160.125L165.705 61ZM170.229 56.14C168.642 56.14 167.396 55.74 166.489 54.94C165.596 54.1267 165.149 53.0133 165.149 51.6V46.7H168.589V51.2C168.589 51.92 168.776 52.44 169.149 52.76C169.522 53.0667 170.122 53.22 170.949 53.22C171.482 53.22 172.002 53.1667 172.509 53.06C173.016 52.94 173.449 52.7867 173.809 52.6L174.589 54.62C174.109 55.1133 173.482 55.4933 172.709 55.76C171.949 56.0133 171.122 56.14 170.229 56.14ZM173.669 61V46.7H177.109V61H173.669ZM183.741 61H180.301V46.7H183.741V61ZM194.281 61H189.801L183.241 53.58H183.561L189.281 46.7H193.441L187.281 53.88V53.28L194.281 61ZM201.21 61.32C200.077 61.32 199.037 61.1333 198.09 60.76C197.144 60.3867 196.317 59.8667 195.61 59.2C194.917 58.5333 194.377 57.7467 193.99 56.84C193.617 55.92 193.43 54.92 193.43 53.84C193.43 52.76 193.617 51.7667 193.99 50.86C194.377 49.9533 194.917 49.1667 195.61 48.5C196.317 47.8333 197.144 47.3133 198.09 46.94C199.037 46.5667 200.077 46.38 201.21 46.38C202.344 46.38 203.384 46.5667 204.33 46.94C205.277 47.3133 206.097 47.8333 206.79 48.5C207.497 49.1667 208.037 49.9533 208.41 50.86C208.797 51.7667 208.99 52.76 208.99 53.84C208.99 54.92 208.797 55.92 208.41 56.84C208.037 57.7467 207.497 58.5333 206.79 59.2C206.097 59.8667 205.277 60.3867 204.33 60.76C203.384 61.1333 202.344 61.32 201.21 61.32ZM201.21 58.3C202.037 58.3 202.757 58.1133 203.37 57.74C203.997 57.3533 204.484 56.8267 204.83 56.16C205.19 55.48 205.37 54.7067 205.37 53.84C205.37 52.9733 205.19 52.2067 204.83 51.54C204.484 50.8733 203.997 50.3533 203.37 49.98C202.757 49.5933 202.037 49.4 201.21 49.4C200.397 49.4 199.677 49.5933 199.05 49.98C198.424 50.3533 197.93 50.8733 197.57 51.54C197.224 52.2067 197.05 52.9733 197.05 53.84C197.05 54.7067 197.224 55.48 197.57 56.16C197.93 56.8267 198.424 57.3533 199.05 57.74C199.677 58.1133 200.397 58.3 201.21 58.3ZM224.232 61.32C223.178 61.32 222.205 61.14 221.312 60.78C220.432 60.4067 219.665 59.8867 219.012 59.22C218.358 58.54 217.852 57.7467 217.492 56.84C217.132 55.92 216.952 54.92 216.952 53.84C216.952 52.76 217.132 51.7667 217.492 50.86C217.852 49.9533 218.358 49.1667 219.012 48.5C219.665 47.82 220.432 47.3 221.312 46.94C222.205 46.5667 223.178 46.38 224.232 46.38C225.285 46.38 226.252 46.5667 227.132 46.94C228.025 47.3 228.798 47.82 229.452 48.5C230.105 49.1667 230.612 49.9533 230.972 50.86C231.332 51.7667 231.512 52.76 231.512 53.84C231.512 54.92 231.332 55.92 230.972 56.84C230.612 57.7467 230.105 58.54 229.452 59.22C228.798 59.8867 228.025 60.4067 227.132 60.78C226.252 61.14 225.285 61.32 224.232 61.32ZM211.532 61V46.7H214.972V61H211.532ZM213.372 55.14V52.26H219.212V55.14H213.372ZM224.232 58.3C224.978 58.3 225.625 58.12 226.172 57.76C226.718 57.3867 227.138 56.8667 227.432 56.2C227.738 55.52 227.892 54.7333 227.892 53.84C227.892 52.9333 227.738 52.1533 227.432 51.5C227.138 50.8333 226.718 50.32 226.172 49.96C225.625 49.5867 224.978 49.4 224.232 49.4C223.498 49.4 222.852 49.5867 222.292 49.96C221.745 50.32 221.318 50.8333 221.012 51.5C220.718 52.1667 220.572 52.9467 220.572 53.84C220.572 54.7333 220.718 55.52 221.012 56.2C221.318 56.8667 221.745 57.3867 222.292 57.76C222.852 58.12 223.498 58.3 224.232 58.3Z" fill="#1A141F"/>
<path d="M203.259 145.174H192.517C176.129 145.174 166.169 139.224 160.701 129.82C159.397 127.571 156.048 120.491 156.048 120.491C155.911 120.214 155.844 119.904 155.855 119.592C155.866 119.28 155.953 118.977 156.108 118.71C156.264 118.444 156.482 118.223 156.742 118.07C157.003 117.918 157.296 117.837 157.595 117.837H203.259C203.72 117.837 204.162 117.646 204.489 117.307C204.815 116.967 204.999 116.505 205.001 116.024C205.001 98.9482 189.877 90.5 172.103 90.5H116.739C116.44 90.4994 116.147 90.5794 115.886 90.7323C115.625 90.8851 115.407 91.1056 115.252 91.3725C115.097 91.6394 115.01 91.9438 115.001 92.2558C114.991 92.5679 115.059 92.8771 115.198 93.1538L126.189 115.172C126.326 115.449 126.393 115.759 126.382 116.07C126.372 116.382 126.284 116.686 126.129 116.953C125.974 117.219 125.755 117.44 125.495 117.593C125.234 117.745 124.941 117.826 124.642 117.826H116.739C116.44 117.825 116.147 117.905 115.886 118.058C115.625 118.211 115.407 118.431 115.252 118.698C115.097 118.965 115.01 119.269 115.001 119.581C114.991 119.893 115.059 120.203 115.198 120.48L126.189 142.498C126.326 142.775 126.393 143.084 126.382 143.396C126.372 143.708 126.284 144.012 126.129 144.278C125.974 144.545 125.755 144.765 125.495 144.918C125.234 145.071 124.941 145.151 124.642 145.151H116.739C116.44 145.152 116.146 145.233 115.886 145.386C115.626 145.54 115.408 145.761 115.253 146.028C115.098 146.295 115.011 146.6 115.002 146.912C114.992 147.224 115.059 147.534 115.198 147.811C115.198 147.811 118.619 155.1 120.289 158.014C125.463 167.048 136.626 172.5 152.97 172.5H203.259C203.721 172.498 204.163 172.306 204.489 171.966C204.815 171.625 204.999 171.163 205.001 170.681V146.977C204.995 146.497 204.809 146.04 204.483 145.703C204.157 145.366 203.718 145.176 203.259 145.174ZM154.306 107.894C154.309 105.52 155.215 103.243 156.824 101.566C158.432 99.888 160.613 98.9465 162.886 98.948C165.159 98.9465 167.339 99.888 168.948 101.566C170.557 103.243 171.462 105.52 171.465 107.894C171.462 108.016 171.435 108.137 171.385 108.247C171.335 108.358 171.264 108.457 171.176 108.537C171.088 108.618 170.985 108.678 170.873 108.715C170.762 108.752 170.644 108.765 170.528 108.752H155.244C155.128 108.76 155.012 108.745 154.902 108.707C154.792 108.668 154.691 108.607 154.604 108.527C154.517 108.448 154.445 108.351 154.394 108.242C154.343 108.133 154.314 108.015 154.306 107.894Z" fill="#E80000"/>
<path d="M86.4819 215V202.13H88.5519V214.514L87.4359 213.218H96.0939L95.0499 214.514V202.13H97.1199V215H86.4819ZM96.6159 218.132V213.218H98.5779V218.132H96.6159ZM107.78 212.282L108.932 213.542C108.464 214.082 107.882 214.508 107.186 214.82C106.49 215.132 105.716 215.288 104.864 215.288C103.856 215.288 102.962 215.084 102.182 214.676C101.414 214.268 100.808 213.704 100.364 212.984C99.932 212.264 99.716 211.442 99.716 210.518C99.716 209.582 99.926 208.754 100.346 208.034C100.766 207.314 101.342 206.75 102.074 206.342C102.806 205.934 103.628 205.73 104.54 205.73C105.428 205.73 106.214 205.934 106.898 206.342C107.582 206.738 108.122 207.29 108.518 207.998C108.914 208.694 109.112 209.504 109.112 210.428V210.536H107.114V210.338C107.114 209.738 107 209.216 106.772 208.772C106.556 208.316 106.256 207.968 105.872 207.728C105.488 207.476 105.038 207.35 104.522 207.35C103.982 207.35 103.502 207.482 103.082 207.746C102.674 207.998 102.356 208.358 102.128 208.826C101.9 209.282 101.786 209.834 101.786 210.482C101.786 211.13 101.918 211.694 102.182 212.174C102.458 212.654 102.83 213.026 103.298 213.29C103.778 213.542 104.33 213.668 104.954 213.668C106.094 213.668 107.036 213.206 107.78 212.282ZM109.112 211.148H101.12V209.78H108.824L109.112 210.446V211.148ZM121.275 215V206.018H123.291V215H121.275ZM114.723 215V206.018H116.739V215H114.723ZM115.677 211.112V209.456H122.427V211.112H115.677ZM133.804 215H131.95V213.218L131.86 212.84V209.474C131.86 208.802 131.644 208.28 131.212 207.908C130.78 207.524 130.192 207.332 129.448 207.332C128.908 207.332 128.404 207.44 127.936 207.656C127.48 207.872 127.084 208.172 126.748 208.556L125.596 207.296C126.088 206.804 126.664 206.42 127.324 206.144C127.984 205.868 128.716 205.73 129.52 205.73C130.372 205.73 131.116 205.88 131.752 206.18C132.4 206.468 132.904 206.888 133.264 207.44C133.624 207.992 133.804 208.652 133.804 209.42V215ZM128.764 215.288C128.08 215.288 127.474 215.162 126.946 214.91C126.418 214.658 126.01 214.316 125.722 213.884C125.434 213.452 125.29 212.948 125.29 212.372C125.29 211.748 125.47 211.22 125.83 210.788C126.19 210.344 126.688 210.008 127.324 209.78C127.972 209.54 128.716 209.42 129.556 209.42H132.076V210.806H129.736C129.028 210.806 128.452 210.932 128.008 211.184C127.576 211.436 127.36 211.808 127.36 212.3C127.36 212.744 127.528 213.098 127.864 213.362C128.2 213.614 128.638 213.74 129.178 213.74C129.694 213.74 130.168 213.632 130.6 213.416C131.032 213.2 131.374 212.906 131.626 212.534C131.89 212.15 132.04 211.712 132.076 211.22L132.724 211.526C132.724 212.258 132.556 212.912 132.22 213.488C131.884 214.052 131.416 214.496 130.816 214.82C130.216 215.132 129.532 215.288 128.764 215.288ZM136.116 215V206.018H138.096V214.604L137.412 213.362H142.236L141.534 214.604V206.018H143.514V214.604L143.046 213.362H147.906L146.952 214.604V206.018H148.932V215H136.116ZM159.451 215H157.597V213.218L157.507 212.84V209.474C157.507 208.802 157.291 208.28 156.859 207.908C156.427 207.524 155.839 207.332 155.095 207.332C154.555 207.332 154.051 207.44 153.583 207.656C153.127 207.872 152.731 208.172 152.395 208.556L151.243 207.296C151.735 206.804 152.311 206.42 152.971 206.144C153.631 205.868 154.363 205.73 155.167 205.73C156.019 205.73 156.763 205.88 157.399 206.18C158.047 206.468 158.551 206.888 158.911 207.44C159.271 207.992 159.451 208.652 159.451 209.42V215ZM154.411 215.288C153.727 215.288 153.121 215.162 152.593 214.91C152.065 214.658 151.657 214.316 151.369 213.884C151.081 213.452 150.937 212.948 150.937 212.372C150.937 211.748 151.117 211.22 151.477 210.788C151.837 210.344 152.335 210.008 152.971 209.78C153.619 209.54 154.363 209.42 155.203 209.42H157.723V210.806H155.383C154.675 210.806 154.099 210.932 153.655 211.184C153.223 211.436 153.007 211.808 153.007 212.3C153.007 212.744 153.175 213.098 153.511 213.362C153.847 213.614 154.285 213.74 154.825 213.74C155.341 213.74 155.815 213.632 156.247 213.416C156.679 213.2 157.021 212.906 157.273 212.534C157.537 212.15 157.687 211.712 157.723 211.22L158.371 211.526C158.371 212.258 158.203 212.912 157.867 213.488C157.531 214.052 157.063 214.496 156.463 214.82C155.863 215.132 155.179 215.288 154.411 215.288ZM171.83 215V206.018H173.846V215H171.83ZM165.278 215V206.018H167.294V215H165.278ZM166.232 211.112V209.456H172.982V211.112H166.232ZM184.359 215H182.505V213.218L182.415 212.84V209.474C182.415 208.802 182.199 208.28 181.767 207.908C181.335 207.524 180.747 207.332 180.003 207.332C179.463 207.332 178.959 207.44 178.491 207.656C178.035 207.872 177.639 208.172 177.303 208.556L176.151 207.296C176.643 206.804 177.219 206.42 177.879 206.144C178.539 205.868 179.271 205.73 180.075 205.73C180.927 205.73 181.671 205.88 182.307 206.18C182.955 206.468 183.459 206.888 183.819 207.44C184.179 207.992 184.359 208.652 184.359 209.42V215ZM179.319 215.288C178.635 215.288 178.029 215.162 177.501 214.91C176.973 214.658 176.565 214.316 176.277 213.884C175.989 213.452 175.845 212.948 175.845 212.372C175.845 211.748 176.025 211.22 176.385 210.788C176.745 210.344 177.243 210.008 177.879 209.78C178.527 209.54 179.271 209.42 180.111 209.42H182.631V210.806H180.291C179.583 210.806 179.007 210.932 178.563 211.184C178.131 211.436 177.915 211.808 177.915 212.3C177.915 212.744 178.083 213.098 178.419 213.362C178.755 213.614 179.193 213.74 179.733 213.74C180.249 213.74 180.723 213.632 181.155 213.416C181.587 213.2 181.929 212.906 182.181 212.534C182.445 212.15 182.595 211.712 182.631 211.22L183.279 211.526C183.279 212.258 183.111 212.912 182.775 213.488C182.439 214.052 181.971 214.496 181.371 214.82C180.771 215.132 180.087 215.288 179.319 215.288ZM186.67 215V206.018H188.614V212.408L188.47 212.354L193.438 206.018H195.202V215H193.258V208.61L193.384 208.664L188.434 215H186.67ZM191.026 204.452C190.174 204.452 189.466 204.236 188.902 203.804C188.338 203.372 188.002 202.736 187.894 201.896H189.514C189.586 202.388 189.754 202.742 190.018 202.958C190.282 203.174 190.618 203.282 191.026 203.282C191.434 203.282 191.77 203.174 192.034 202.958C192.298 202.742 192.46 202.388 192.52 201.896H194.158C194.05 202.736 193.714 203.372 193.15 203.804C192.586 204.236 191.878 204.452 191.026 204.452ZM202.027 210.716H197.059V208.988H202.027V210.716ZM210.431 215V206.018H212.447V215H210.431ZM203.879 215V206.018H205.895V215H203.879ZM204.833 211.112V209.456H211.583V211.112H204.833ZM222.961 215H221.107V213.218L221.017 212.84V209.474C221.017 208.802 220.801 208.28 220.369 207.908C219.937 207.524 219.349 207.332 218.605 207.332C218.065 207.332 217.561 207.44 217.093 207.656C216.637 207.872 216.241 208.172 215.905 208.556L214.753 207.296C215.245 206.804 215.821 206.42 216.481 206.144C217.141 205.868 217.873 205.73 218.677 205.73C219.529 205.73 220.273 205.88 220.909 206.18C221.557 206.468 222.061 206.888 222.421 207.44C222.781 207.992 222.961 208.652 222.961 209.42V215ZM217.921 215.288C217.237 215.288 216.631 215.162 216.103 214.91C215.575 214.658 215.167 214.316 214.879 213.884C214.591 213.452 214.447 212.948 214.447 212.372C214.447 211.748 214.627 211.22 214.987 210.788C215.347 210.344 215.845 210.008 216.481 209.78C217.129 209.54 217.873 209.42 218.713 209.42H221.233V210.806H218.893C218.185 210.806 217.609 210.932 217.165 211.184C216.733 211.436 216.517 211.808 216.517 212.3C216.517 212.744 216.685 213.098 217.021 213.362C217.357 213.614 217.795 213.74 218.335 213.74C218.851 213.74 219.325 213.632 219.757 213.416C220.189 213.2 220.531 212.906 220.783 212.534C221.047 212.15 221.197 211.712 221.233 211.22L221.881 211.526C221.881 212.258 221.713 212.912 221.377 213.488C221.041 214.052 220.573 214.496 219.973 214.82C219.373 215.132 218.689 215.288 217.921 215.288ZM225.272 215V206.018H227.216V212.408L227.072 212.354L232.04 206.018H233.804V215H231.86V208.61L231.986 208.664L227.036 215H225.272ZM229.628 204.452C228.776 204.452 228.068 204.236 227.504 203.804C226.94 203.372 226.604 202.736 226.496 201.896H228.116C228.188 202.388 228.356 202.742 228.62 202.958C228.884 203.174 229.22 203.282 229.628 203.282C230.036 203.282 230.372 203.174 230.636 202.958C230.9 202.742 231.062 202.388 231.122 201.896H232.76C232.652 202.736 232.316 203.372 231.752 203.804C231.188 204.236 230.48 204.452 229.628 204.452ZM97.1228 238V229.018H99.1388V238H97.1228ZM90.5708 238V229.018H92.5868V238H90.5708ZM91.5248 234.112V232.456H98.2748V234.112H91.5248ZM109.652 238H107.798V236.218L107.708 235.84V232.474C107.708 231.802 107.492 231.28 107.06 230.908C106.628 230.524 106.04 230.332 105.296 230.332C104.756 230.332 104.252 230.44 103.784 230.656C103.328 230.872 102.932 231.172 102.596 231.556L101.444 230.296C101.936 229.804 102.512 229.42 103.172 229.144C103.832 228.868 104.564 228.73 105.368 228.73C106.22 228.73 106.964 228.88 107.6 229.18C108.248 229.468 108.752 229.888 109.112 230.44C109.472 230.992 109.652 231.652 109.652 232.42V238ZM104.612 238.288C103.928 238.288 103.322 238.162 102.794 237.91C102.266 237.658 101.858 237.316 101.57 236.884C101.282 236.452 101.138 235.948 101.138 235.372C101.138 234.748 101.318 234.22 101.678 233.788C102.038 233.344 102.536 233.008 103.172 232.78C103.82 232.54 104.564 232.42 105.404 232.42H107.924V233.806H105.584C104.876 233.806 104.3 233.932 103.856 234.184C103.424 234.436 103.208 234.808 103.208 235.3C103.208 235.744 103.376 236.098 103.712 236.362C104.048 236.614 104.486 236.74 105.026 236.74C105.542 236.74 106.016 236.632 106.448 236.416C106.88 236.2 107.222 235.906 107.474 235.534C107.738 235.15 107.888 234.712 107.924 234.22L108.572 234.526C108.572 235.258 108.404 235.912 108.068 236.488C107.732 237.052 107.264 237.496 106.664 237.82C106.064 238.132 105.38 238.288 104.612 238.288ZM111.963 238V229.018H113.907V235.408L113.763 235.354L118.731 229.018H120.495V238H118.551V231.61L118.677 231.664L113.727 238H111.963ZM116.319 227.452C115.467 227.452 114.759 227.236 114.195 226.804C113.631 226.372 113.295 225.736 113.187 224.896H114.807C114.879 225.388 115.047 225.742 115.311 225.958C115.575 226.174 115.911 226.282 116.319 226.282C116.727 226.282 117.063 226.174 117.327 225.958C117.591 225.742 117.753 225.388 117.813 224.896H119.451C119.343 225.736 119.007 226.372 118.443 226.804C117.879 227.236 117.171 227.452 116.319 227.452ZM127.464 238.288C126.516 238.288 125.67 238.084 124.926 237.676C124.194 237.268 123.618 236.704 123.198 235.984C122.778 235.264 122.568 234.436 122.568 233.5C122.568 232.576 122.778 231.754 123.198 231.034C123.618 230.314 124.194 229.75 124.926 229.342C125.67 228.934 126.516 228.73 127.464 228.73C128.424 228.73 129.27 228.934 130.002 229.342C130.746 229.75 131.322 230.314 131.73 231.034C132.15 231.754 132.36 232.576 132.36 233.5C132.36 234.436 132.15 235.264 131.73 235.984C131.322 236.704 130.746 237.268 130.002 237.676C129.27 238.084 128.424 238.288 127.464 238.288ZM127.464 236.596C128.028 236.596 128.52 236.464 128.94 236.2C129.36 235.936 129.684 235.576 129.912 235.12C130.152 234.652 130.272 234.112 130.272 233.5C130.272 232.9 130.152 232.372 129.912 231.916C129.684 231.448 129.36 231.082 128.94 230.818C128.52 230.554 128.028 230.422 127.464 230.422C126.912 230.422 126.426 230.554 126.006 230.818C125.586 231.082 125.256 231.448 125.016 231.916C124.788 232.372 124.674 232.9 124.674 233.5C124.674 234.112 124.788 234.652 125.016 235.12C125.256 235.576 125.586 235.936 126.006 236.2C126.426 236.464 126.912 236.596 127.464 236.596ZM141.268 235.246L142.564 236.506C142.12 237.058 141.574 237.496 140.926 237.82C140.278 238.132 139.534 238.288 138.694 238.288C137.77 238.288 136.942 238.084 136.21 237.676C135.49 237.256 134.92 236.692 134.5 235.984C134.08 235.264 133.87 234.436 133.87 233.5C133.87 232.576 134.08 231.76 134.5 231.052C134.92 230.332 135.496 229.768 136.228 229.36C136.972 228.94 137.812 228.73 138.748 228.73C139.564 228.73 140.29 228.886 140.926 229.198C141.574 229.51 142.12 229.948 142.564 230.512L141.268 231.772C141.004 231.364 140.668 231.04 140.26 230.8C139.864 230.548 139.384 230.422 138.82 230.422C138.268 230.422 137.776 230.554 137.344 230.818C136.912 231.082 136.576 231.448 136.336 231.916C136.096 232.372 135.976 232.9 135.976 233.5C135.976 234.1 136.096 234.634 136.336 235.102C136.576 235.57 136.912 235.936 137.344 236.2C137.776 236.464 138.268 236.596 138.82 236.596C139.384 236.596 139.864 236.47 140.26 236.218C140.668 235.966 141.004 235.642 141.268 235.246ZM148.469 238.288C147.521 238.288 146.675 238.084 145.931 237.676C145.199 237.268 144.623 236.704 144.203 235.984C143.783 235.264 143.573 234.436 143.573 233.5C143.573 232.576 143.783 231.754 144.203 231.034C144.623 230.314 145.199 229.75 145.931 229.342C146.675 228.934 147.521 228.73 148.469 228.73C149.429 228.73 150.275 228.934 151.007 229.342C151.751 229.75 152.327 230.314 152.735 231.034C153.155 231.754 153.365 232.576 153.365 233.5C153.365 234.436 153.155 235.264 152.735 235.984C152.327 236.704 151.751 237.268 151.007 237.676C150.275 238.084 149.429 238.288 148.469 238.288ZM148.469 236.596C149.033 236.596 149.525 236.464 149.945 236.2C150.365 235.936 150.689 235.576 150.917 235.12C151.157 234.652 151.277 234.112 151.277 233.5C151.277 232.9 151.157 232.372 150.917 231.916C150.689 231.448 150.365 231.082 149.945 230.818C149.525 230.554 149.033 230.422 148.469 230.422C147.917 230.422 147.431 230.554 147.011 230.818C146.591 231.082 146.261 231.448 146.021 231.916C145.793 232.372 145.679 232.9 145.679 233.5C145.679 234.112 145.793 234.652 146.021 235.12C146.261 235.576 146.591 235.936 147.011 236.2C147.431 236.464 147.917 236.596 148.469 236.596ZM159.664 238.288C158.128 238.288 156.946 237.742 156.118 236.65C155.29 235.558 154.876 233.992 154.876 231.952C154.876 229.948 155.224 228.442 155.92 227.434C156.616 226.426 157.72 225.82 159.232 225.616L163.174 225.04L163.426 226.714L159.538 227.308C158.866 227.416 158.326 227.626 157.918 227.938C157.522 228.25 157.234 228.718 157.054 229.342C156.874 229.954 156.76 230.77 156.712 231.79L156.406 232.33C156.526 231.718 156.766 231.196 157.126 230.764C157.486 230.32 157.936 229.984 158.476 229.756C159.016 229.516 159.592 229.396 160.204 229.396C161.068 229.396 161.8 229.582 162.4 229.954C163.012 230.314 163.48 230.818 163.804 231.466C164.128 232.102 164.29 232.834 164.29 233.662C164.29 234.586 164.098 235.396 163.714 236.092C163.33 236.788 162.79 237.328 162.094 237.712C161.41 238.096 160.6 238.288 159.664 238.288ZM159.592 236.578C160.408 236.578 161.044 236.326 161.5 235.822C161.968 235.318 162.202 234.628 162.202 233.752C162.202 232.9 161.986 232.24 161.554 231.772C161.122 231.292 160.51 231.052 159.718 231.052C159.25 231.052 158.824 231.16 158.44 231.376C158.056 231.58 157.726 231.868 157.45 232.24C157.186 232.612 157.006 233.056 156.91 233.572L156.982 232.564C156.958 233.932 157.156 234.946 157.576 235.606C157.996 236.254 158.668 236.578 159.592 236.578ZM165.396 238V236.326H166.044C166.368 236.326 166.608 236.248 166.764 236.092C166.932 235.936 167.028 235.666 167.052 235.282L167.628 229.018H174.468V238H172.452V229.342L173.892 230.656H168.006L169.536 229.342L168.924 235.678C168.84 236.542 168.6 237.148 168.204 237.496C167.808 237.832 167.202 238 166.386 238H165.396ZM177.073 238V229.018H179.017V235.408L178.873 235.354L183.841 229.018H185.605V238H183.661V231.61L183.787 231.664L178.837 238H177.073ZM188.235 238V229.018H192.825C193.797 229.018 194.565 229.234 195.129 229.666C195.693 230.098 195.975 230.68 195.975 231.412C195.975 231.868 195.837 232.27 195.561 232.618C195.297 232.954 194.937 233.212 194.481 233.392L194.463 233.23C195.039 233.386 195.507 233.656 195.867 234.04C196.227 234.412 196.407 234.868 196.407 235.408C196.407 235.924 196.251 236.38 195.939 236.776C195.639 237.16 195.231 237.46 194.715 237.676C194.199 237.892 193.623 238 192.987 238H188.235ZM190.089 237.496L189.045 236.488H192.735C193.275 236.488 193.683 236.386 193.959 236.182C194.247 235.978 194.391 235.678 194.391 235.282C194.391 234.886 194.247 234.586 193.959 234.382C193.683 234.178 193.275 234.076 192.735 234.076H189.243V232.654H192.591C193.095 232.654 193.449 232.558 193.653 232.366C193.869 232.174 193.977 231.904 193.977 231.556C193.977 231.208 193.869 230.95 193.653 230.782C193.449 230.614 193.095 230.53 192.591 230.53H188.991L190.089 229.486V237.496ZM200.252 238H198.236V229.018H200.252V238ZM199.244 227.164C198.896 227.164 198.596 227.044 198.344 226.804C198.092 226.564 197.966 226.276 197.966 225.94C197.966 225.58 198.092 225.28 198.344 225.04C198.596 224.8 198.896 224.68 199.244 224.68C199.604 224.68 199.904 224.8 200.144 225.04C200.396 225.28 200.522 225.574 200.522 225.922C200.522 226.27 200.396 226.564 200.144 226.804C199.904 227.044 199.604 227.164 199.244 227.164ZM202.895 238V229.018H204.875V237.604L204.191 236.362H209.015L208.313 237.604V229.018H210.293V237.604L209.825 236.362H214.685L213.731 237.604V229.018H215.711V238H202.895ZM226.23 238H224.376V236.218L224.286 235.84V232.474C224.286 231.802 224.07 231.28 223.638 230.908C223.206 230.524 222.618 230.332 221.874 230.332C221.334 230.332 220.83 230.44 220.362 230.656C219.906 230.872 219.51 231.172 219.174 231.556L218.022 230.296C218.514 229.804 219.09 229.42 219.75 229.144C220.41 228.868 221.142 228.73 221.946 228.73C222.798 228.73 223.542 228.88 224.178 229.18C224.826 229.468 225.33 229.888 225.69 230.44C226.05 230.992 226.23 231.652 226.23 232.42V238ZM221.19 238.288C220.506 238.288 219.9 238.162 219.372 237.91C218.844 237.658 218.436 237.316 218.148 236.884C217.86 236.452 217.716 235.948 217.716 235.372C217.716 234.748 217.896 234.22 218.256 233.788C218.616 233.344 219.114 233.008 219.75 232.78C220.398 232.54 221.142 232.42 221.982 232.42H224.502V233.806H222.162C221.454 233.806 220.878 233.932 220.434 234.184C220.002 234.436 219.786 234.808 219.786 235.3C219.786 235.744 219.954 236.098 220.29 236.362C220.626 236.614 221.064 236.74 221.604 236.74C222.12 236.74 222.594 236.632 223.026 236.416C223.458 236.2 223.8 235.906 224.052 235.534C224.316 235.15 224.466 234.712 224.502 234.22L225.15 234.526C225.15 235.258 224.982 235.912 224.646 236.488C224.31 237.052 223.842 237.496 223.242 237.82C222.642 238.132 221.958 238.288 221.19 238.288ZM99.9165 264.492H97.9005V252.018H99.8985V254.79H99.4665C99.5505 254.19 99.7605 253.662 100.096 253.206C100.432 252.75 100.864 252.39 101.392 252.126C101.92 251.862 102.508 251.73 103.156 251.73C103.996 251.73 104.752 251.934 105.424 252.342C106.108 252.75 106.648 253.314 107.044 254.034C107.44 254.754 107.638 255.576 107.638 256.5C107.638 257.436 107.434 258.264 107.026 258.984C106.63 259.704 106.09 260.268 105.406 260.676C104.722 261.084 103.948 261.288 103.084 261.288C102.292 261.288 101.608 261.126 101.032 260.802C100.456 260.466 100.018 260.016 99.7185 259.452C99.4305 258.876 99.3105 258.234 99.3585 257.526L99.7725 257.202C99.8325 257.67 99.9945 258.084 100.258 258.444C100.522 258.804 100.864 259.086 101.284 259.29C101.704 259.494 102.16 259.596 102.652 259.596C103.24 259.596 103.744 259.464 104.164 259.2C104.596 258.936 104.932 258.57 105.172 258.102C105.412 257.634 105.532 257.1 105.532 256.5C105.532 255.912 105.418 255.384 105.19 254.916C104.962 254.448 104.638 254.082 104.218 253.818C103.81 253.554 103.324 253.422 102.76 253.422C102.208 253.422 101.716 253.56 101.284 253.836C100.864 254.1 100.528 254.472 100.276 254.952C100.036 255.432 99.9165 255.996 99.9165 256.644V264.492ZM117.219 258.282L118.371 259.542C117.903 260.082 117.321 260.508 116.625 260.82C115.929 261.132 115.155 261.288 114.303 261.288C113.295 261.288 112.401 261.084 111.621 260.676C110.853 260.268 110.247 259.704 109.803 258.984C109.371 258.264 109.155 257.442 109.155 256.518C109.155 255.582 109.365 254.754 109.785 254.034C110.205 253.314 110.781 252.75 111.513 252.342C112.245 251.934 113.067 251.73 113.979 251.73C114.867 251.73 115.653 251.934 116.337 252.342C117.021 252.738 117.561 253.29 117.957 253.998C118.353 254.694 118.551 255.504 118.551 256.428V256.536H116.553V256.338C116.553 255.738 116.439 255.216 116.211 254.772C115.995 254.316 115.695 253.968 115.311 253.728C114.927 253.476 114.477 253.35 113.961 253.35C113.421 253.35 112.941 253.482 112.521 253.746C112.113 253.998 111.795 254.358 111.567 254.826C111.339 255.282 111.225 255.834 111.225 256.482C111.225 257.13 111.357 257.694 111.621 258.174C111.897 258.654 112.269 259.026 112.737 259.29C113.217 259.542 113.769 259.668 114.393 259.668C115.533 259.668 116.475 259.206 117.219 258.282ZM118.551 257.148H110.559V255.78H118.263L118.551 256.446V257.148ZM126.749 261L122.141 256.338H122.339L126.479 252.018H128.963L124.265 256.914L124.031 255.654L129.377 261H126.749ZM120.647 261V252.018H122.663V261H120.647ZM134.53 261.288C133.582 261.288 132.736 261.084 131.992 260.676C131.26 260.268 130.684 259.704 130.264 258.984C129.844 258.264 129.634 257.436 129.634 256.5C129.634 255.576 129.844 254.754 130.264 254.034C130.684 253.314 131.26 252.75 131.992 252.342C132.736 251.934 133.582 251.73 134.53 251.73C135.49 251.73 136.336 251.934 137.068 252.342C137.812 252.75 138.388 253.314 138.796 254.034C139.216 254.754 139.426 255.576 139.426 256.5C139.426 257.436 139.216 258.264 138.796 258.984C138.388 259.704 137.812 260.268 137.068 260.676C136.336 261.084 135.49 261.288 134.53 261.288ZM134.53 259.596C135.094 259.596 135.586 259.464 136.006 259.2C136.426 258.936 136.75 258.576 136.978 258.12C137.218 257.652 137.338 257.112 137.338 256.5C137.338 255.9 137.218 255.372 136.978 254.916C136.75 254.448 136.426 254.082 136.006 253.818C135.586 253.554 135.094 253.422 134.53 253.422C133.978 253.422 133.492 253.554 133.072 253.818C132.652 254.082 132.322 254.448 132.082 254.916C131.854 255.372 131.74 255.9 131.74 256.5C131.74 257.112 131.854 257.652 132.082 258.12C132.322 258.576 132.652 258.936 133.072 259.2C133.492 259.464 133.978 259.596 134.53 259.596ZM141.495 261V252.018H143.619L146.985 258.354L146.661 258.336L149.973 252.018H152.187V261H150.333V252.684L151.143 253.134L147.471 260.1H146.085L142.413 253.134L143.277 252.756V261H141.495ZM162.325 258.282L163.477 259.542C163.009 260.082 162.427 260.508 161.731 260.82C161.035 261.132 160.261 261.288 159.409 261.288C158.401 261.288 157.507 261.084 156.727 260.676C155.959 260.268 155.353 259.704 154.909 258.984C154.477 258.264 154.261 257.442 154.261 256.518C154.261 255.582 154.471 254.754 154.891 254.034C155.311 253.314 155.887 252.75 156.619 252.342C157.351 251.934 158.173 251.73 159.085 251.73C159.973 251.73 160.759 251.934 161.443 252.342C162.127 252.738 162.667 253.29 163.063 253.998C163.459 254.694 163.657 255.504 163.657 256.428V256.536H161.659V256.338C161.659 255.738 161.545 255.216 161.317 254.772C161.101 254.316 160.801 253.968 160.417 253.728C160.033 253.476 159.583 253.35 159.067 253.35C158.527 253.35 158.047 253.482 157.627 253.746C157.219 253.998 156.901 254.358 156.673 254.826C156.445 255.282 156.331 255.834 156.331 256.482C156.331 257.13 156.463 257.694 156.727 258.174C157.003 258.654 157.375 259.026 157.843 259.29C158.323 259.542 158.875 259.668 159.499 259.668C160.639 259.668 161.581 259.206 162.325 258.282ZM163.657 257.148H155.665V255.78H163.369L163.657 256.446V257.148ZM172.304 261V252.018H174.32V261H172.304ZM165.752 261V252.018H167.768V261H165.752ZM166.706 257.112V255.456H173.456V257.112H166.706ZM176.464 260.154V259.362H176.752C177.004 259.362 177.202 259.314 177.346 259.218C177.502 259.11 177.616 258.93 177.688 258.678C177.772 258.414 177.838 258.048 177.886 257.58L178.498 252.018H185.212V259.884H183.232V252.342L184.636 253.656H178.84L180.424 252.342L179.776 257.742C179.716 258.342 179.596 258.816 179.416 259.164C179.248 259.512 178.99 259.764 178.642 259.92C178.306 260.076 177.85 260.154 177.274 260.154H176.464ZM176.032 263.412V259.362H186.616V263.412H184.726V259.83L185.86 261H177.22L177.94 259.83V263.412H176.032ZM196.277 261H194.423V259.218L194.333 258.84V255.474C194.333 254.802 194.117 254.28 193.685 253.908C193.253 253.524 192.665 253.332 191.921 253.332C191.381 253.332 190.877 253.44 190.409 253.656C189.953 253.872 189.557 254.172 189.221 254.556L188.069 253.296C188.561 252.804 189.137 252.42 189.797 252.144C190.457 251.868 191.189 251.73 191.993 251.73C192.845 251.73 193.589 251.88 194.225 252.18C194.873 252.468 195.377 252.888 195.737 253.44C196.097 253.992 196.277 254.652 196.277 255.42V261ZM191.237 261.288C190.553 261.288 189.947 261.162 189.419 260.91C188.891 260.658 188.483 260.316 188.195 259.884C187.907 259.452 187.763 258.948 187.763 258.372C187.763 257.748 187.943 257.22 188.303 256.788C188.663 256.344 189.161 256.008 189.797 255.78C190.445 255.54 191.189 255.42 192.029 255.42H194.549V256.806H192.209C191.501 256.806 190.925 256.932 190.481 257.184C190.049 257.436 189.833 257.808 189.833 258.3C189.833 258.744 190.001 259.098 190.337 259.362C190.673 259.614 191.111 259.74 191.651 259.74C192.167 259.74 192.641 259.632 193.073 259.416C193.505 259.2 193.847 258.906 194.099 258.534C194.363 258.15 194.513 257.712 194.549 257.22L195.197 257.526C195.197 258.258 195.029 258.912 194.693 259.488C194.357 260.052 193.889 260.496 193.289 260.82C192.689 261.132 192.005 261.288 191.237 261.288ZM198.588 261V252.018H200.604V260.676L199.056 259.362H205.734L204.726 260.676V252.018H206.742V261H198.588ZM206.184 263.412V259.362H208.074V263.412H206.184ZM211.854 261H209.838V252.018H211.854V261ZM210.846 250.164C210.498 250.164 210.198 250.044 209.946 249.804C209.694 249.564 209.568 249.276 209.568 248.94C209.568 248.58 209.694 248.28 209.946 248.04C210.198 247.8 210.498 247.68 210.846 247.68C211.206 247.68 211.506 247.8 211.746 248.04C211.998 248.28 212.124 248.574 212.124 248.922C212.124 249.27 211.998 249.564 211.746 249.804C211.506 250.044 211.206 250.164 210.846 250.164ZM220.185 261V252.288L221.481 253.566H217.899C217.443 253.566 217.059 253.668 216.747 253.872C216.447 254.076 216.297 254.412 216.297 254.88C216.297 255.3 216.435 255.624 216.711 255.852C216.999 256.08 217.401 256.194 217.917 256.194H221.013V257.67H217.701C216.657 257.67 215.823 257.418 215.199 256.914C214.587 256.398 214.281 255.708 214.281 254.844C214.281 254.304 214.431 253.824 214.731 253.404C215.031 252.972 215.439 252.636 215.955 252.396C216.483 252.144 217.077 252.018 217.737 252.018H222.075V261H220.185ZM213.849 261L216.945 257.004H219.033L216.099 261H213.849Z" fill="#1A141F"/>
</g>
<defs>
<clipPath id="clip0_22981_398035">
<rect width="320" height="282" fill="white"/>
</clipPath>
</defs>
</svg>
