<svg width="236" height="444" viewBox="0 0 236 444" fill="none" xmlns="http://www.w3.org/2000/svg">
<g clip-path="url(#clip0_22937_22261)">
<rect width="236" height="444" fill="white"/>
<rect width="236" height="444" fill="#E3F1FE"/>
<path d="M25.9477 36V21.7H29.3877V35.34L27.3477 33.12H35.2677L34.0277 35.34V21.7H37.4677V35.34L36.2277 33.12H44.1477L42.1077 35.34V21.7H45.5477V36H25.9477ZM48.4806 36V33.12H50.5006C50.9806 33.12 51.394 33.04 51.7406 32.88C52.0873 32.72 52.4006 32.4533 52.6806 32.08C52.974 31.6933 53.2673 31.1667 53.5606 30.5L57.5006 21.7H61.0006L55.6006 32.88C55.254 33.5867 54.8473 34.1733 54.3806 34.64C53.9273 35.0933 53.4006 35.4333 52.8006 35.66C52.2006 35.8867 51.514 36 50.7406 36H48.4806ZM52.8606 32.82L47.3406 21.7H50.8406L55.3806 31.28L52.8606 32.82ZM66.2431 36H62.8031V21.7H66.2431V36ZM76.7831 36H72.3031L65.7431 28.58H66.0631L71.7831 21.7H75.9431L69.7831 28.88V28.28L76.7831 36ZM89.0338 33.4H80.1138V30.54H89.0338V33.4ZM92.0738 36H88.3738L84.0938 24.22H84.9738L80.6738 36H77.0938L82.6738 21.7H86.4938L92.0738 36ZM94.1703 36V21.7H97.6103V34.58H95.2503L103.45 21.7H107.05V36H103.61V22.94H106.01L97.7703 36H94.1703ZM100.83 20.08C99.817 20.08 98.9636 19.8267 98.2703 19.32C97.577 18.8133 97.157 18.0133 97.0103 16.92H99.5503C99.617 17.4 99.7636 17.74 99.9903 17.94C100.217 18.14 100.497 18.24 100.83 18.24C101.19 18.24 101.477 18.14 101.69 17.94C101.917 17.74 102.057 17.4 102.11 16.92H104.67C104.537 18.0133 104.117 18.8133 103.41 19.32C102.717 19.8267 101.857 20.08 100.83 20.08ZM116.985 36H113.545V24.4H116.985V36ZM121.285 24.6H109.245V21.7H121.285V24.6ZM133.927 36H123.487V21.7H133.927V24.56H126.927V33.14H133.927V36ZM133.547 30.24H126.727V27.38H133.547V30.24ZM147.082 36H143.642V24.4H147.082V36ZM151.382 24.6H139.342V21.7H151.382V24.6ZM159.904 36.32C158.77 36.32 157.73 36.1333 156.784 35.76C155.837 35.3867 155.01 34.8667 154.304 34.2C153.61 33.5333 153.07 32.7467 152.684 31.84C152.31 30.92 152.124 29.92 152.124 28.84C152.124 27.76 152.31 26.7667 152.684 25.86C153.07 24.9533 153.61 24.1667 154.304 23.5C155.01 22.8333 155.837 22.3133 156.784 21.94C157.73 21.5667 158.77 21.38 159.904 21.38C161.037 21.38 162.077 21.5667 163.024 21.94C163.97 22.3133 164.79 22.8333 165.484 23.5C166.19 24.1667 166.73 24.9533 167.104 25.86C167.49 26.7667 167.684 27.76 167.684 28.84C167.684 29.92 167.49 30.92 167.104 31.84C166.73 32.7467 166.19 33.5333 165.484 34.2C164.79 34.8667 163.97 35.3867 163.024 35.76C162.077 36.1333 161.037 36.32 159.904 36.32ZM159.904 33.3C160.73 33.3 161.45 33.1133 162.064 32.74C162.69 32.3533 163.177 31.8267 163.524 31.16C163.884 30.48 164.064 29.7067 164.064 28.84C164.064 27.9733 163.884 27.2067 163.524 26.54C163.177 25.8733 162.69 25.3533 162.064 24.98C161.45 24.5933 160.73 24.4 159.904 24.4C159.09 24.4 158.37 24.5933 157.744 24.98C157.117 25.3533 156.624 25.8733 156.264 26.54C155.917 27.2067 155.744 27.9733 155.744 28.84C155.744 29.7067 155.917 30.48 156.264 31.16C156.624 31.8267 157.117 32.3533 157.744 32.74C158.37 33.1133 159.09 33.3 159.904 33.3ZM170.225 36V21.7H176.545C177.505 21.7 178.345 21.8533 179.065 22.16C179.785 22.4667 180.345 22.9 180.745 23.46C181.145 24.0067 181.345 24.6533 181.345 25.4C181.345 26.1067 181.145 26.7333 180.745 27.28C180.345 27.8267 179.785 28.2533 179.065 28.56C178.345 28.8667 177.505 29.02 176.545 29.02H173.865V27.96H176.545C177.625 27.96 178.565 28.12 179.365 28.44C180.178 28.7467 180.812 29.1867 181.265 29.76C181.718 30.3333 181.945 31.0133 181.945 31.8C181.945 32.64 181.718 33.38 181.265 34.02C180.812 34.6467 180.178 35.1333 179.365 35.48C178.565 35.8267 177.625 36 176.545 36H170.225ZM173.665 33.18H176.565C177.152 33.18 177.612 33.04 177.945 32.76C178.292 32.4667 178.465 32.0667 178.465 31.56C178.465 31.0933 178.292 30.7267 177.945 30.46C177.612 30.1933 177.152 30.06 176.565 30.06H173.465V27.32H176.305C176.798 27.32 177.178 27.1933 177.445 26.94C177.725 26.6733 177.865 26.3133 177.865 25.86C177.865 25.4333 177.725 25.1067 177.445 24.88C177.178 24.64 176.798 24.52 176.305 24.52H173.665V33.18ZM194.444 33.4H185.524V30.54H194.444V33.4ZM197.484 36H193.784L189.504 24.22H190.384L186.084 36H182.504L188.084 21.7H191.904L197.484 36ZM203.02 36H199.58V21.7H205.56C206.627 21.7 207.567 21.8933 208.38 22.28C209.194 22.6667 209.827 23.2067 210.28 23.9C210.734 24.58 210.96 25.38 210.96 26.3C210.96 27.2067 210.734 28.0067 210.28 28.7C209.827 29.3933 209.194 29.9333 208.38 30.32C207.567 30.7067 206.627 30.9 205.56 30.9H202.82V28.04H205.56C206.147 28.04 206.614 27.8867 206.96 27.58C207.307 27.26 207.48 26.8333 207.48 26.3C207.48 25.7667 207.307 25.3467 206.96 25.04C206.614 24.72 206.147 24.56 205.56 24.56H203.02V36ZM43.297 61.32C42.0036 61.32 40.8236 61.0933 39.757 60.64C38.6903 60.1733 37.817 59.5133 37.137 58.66L39.277 56.48C39.8103 57.08 40.4303 57.54 41.137 57.86C41.857 58.1667 42.617 58.32 43.417 58.32C43.9903 58.32 44.4836 58.2467 44.897 58.1C45.3103 57.9533 45.6303 57.7533 45.857 57.5C46.0836 57.2333 46.197 56.9267 46.197 56.58C46.197 56.1133 45.977 55.76 45.537 55.52C45.097 55.2667 44.457 55.14 43.617 55.14H40.957V52.28H43.637C44.317 52.28 44.8436 52.16 45.217 51.92C45.5903 51.6667 45.777 51.3333 45.777 50.92C45.777 50.4533 45.5503 50.08 45.097 49.8C44.657 49.52 44.0636 49.38 43.317 49.38C42.597 49.38 41.9436 49.5333 41.357 49.84C40.7703 50.1333 40.2103 50.62 39.677 51.3L37.497 49.06C38.2436 48.1533 39.117 47.48 40.117 47.04C41.117 46.5867 42.2236 46.36 43.437 46.36C44.557 46.36 45.557 46.5333 46.437 46.88C47.317 47.2267 48.0036 47.7067 48.497 48.32C49.0036 48.92 49.257 49.6133 49.257 50.4C49.257 51.08 49.0636 51.68 48.677 52.2C48.2903 52.72 47.757 53.1267 47.077 53.42C47.877 53.6867 48.5103 54.12 48.977 54.72C49.4436 55.3067 49.677 56 49.677 56.8C49.677 57.68 49.397 58.46 48.837 59.14C48.2903 59.82 47.537 60.3533 46.577 60.74C45.617 61.1267 44.5236 61.32 43.297 61.32ZM55.8207 61V46.7H68.5007V61H65.0607V47.54L66.7007 49.58H57.4207L59.2607 47.54V61H55.8207ZM78.8196 61.32C77.6863 61.32 76.6463 61.1333 75.6996 60.76C74.7529 60.3867 73.9263 59.8667 73.2196 59.2C72.5263 58.5333 71.9863 57.7467 71.5996 56.84C71.2263 55.92 71.0396 54.92 71.0396 53.84C71.0396 52.76 71.2263 51.7667 71.5996 50.86C71.9863 49.9533 72.5263 49.1667 73.2196 48.5C73.9263 47.8333 74.7529 47.3133 75.6996 46.94C76.6463 46.5667 77.6863 46.38 78.8196 46.38C79.9529 46.38 80.9929 46.5667 81.9396 46.94C82.8863 47.3133 83.7063 47.8333 84.3996 48.5C85.1063 49.1667 85.6463 49.9533 86.0196 50.86C86.4063 51.7667 86.5996 52.76 86.5996 53.84C86.5996 54.92 86.4063 55.92 86.0196 56.84C85.6463 57.7467 85.1063 58.5333 84.3996 59.2C83.7063 59.8667 82.8863 60.3867 81.9396 60.76C80.9929 61.1333 79.9529 61.32 78.8196 61.32ZM78.8196 58.3C79.6463 58.3 80.3663 58.1133 80.9796 57.74C81.6063 57.3533 82.0929 56.8267 82.4396 56.16C82.7996 55.48 82.9796 54.7067 82.9796 53.84C82.9796 52.9733 82.7996 52.2067 82.4396 51.54C82.0929 50.8733 81.6063 50.3533 80.9796 49.98C80.3663 49.5933 79.6463 49.4 78.8196 49.4C78.0063 49.4 77.2863 49.5933 76.6596 49.98C76.0329 50.3533 75.5396 50.8733 75.1796 51.54C74.8329 52.2067 74.6596 52.9733 74.6596 53.84C74.6596 54.7067 74.8329 55.48 75.1796 56.16C75.5396 56.8267 76.0329 57.3533 76.6596 57.74C77.2863 58.1133 78.0063 58.3 78.8196 58.3ZM93.961 61.32C92.6677 61.32 91.4877 61.0933 90.421 60.64C89.3543 60.1733 88.481 59.5133 87.801 58.66L89.941 56.48C90.4743 57.08 91.0943 57.54 91.801 57.86C92.521 58.1667 93.281 58.32 94.081 58.32C94.6543 58.32 95.1477 58.2467 95.561 58.1C95.9743 57.9533 96.2943 57.7533 96.521 57.5C96.7477 57.2333 96.861 56.9267 96.861 56.58C96.861 56.1133 96.641 55.76 96.201 55.52C95.761 55.2667 95.121 55.14 94.281 55.14H91.621V52.28H94.301C94.981 52.28 95.5077 52.16 95.881 51.92C96.2543 51.6667 96.441 51.3333 96.441 50.92C96.441 50.4533 96.2143 50.08 95.761 49.8C95.321 49.52 94.7277 49.38 93.981 49.38C93.261 49.38 92.6077 49.5333 92.021 49.84C91.4343 50.1333 90.8743 50.62 90.341 51.3L88.161 49.06C88.9077 48.1533 89.781 47.48 90.781 47.04C91.781 46.5867 92.8877 46.36 94.101 46.36C95.221 46.36 96.221 46.5333 97.101 46.88C97.981 47.2267 98.6677 47.7067 99.161 48.32C99.6677 48.92 99.921 49.6133 99.921 50.4C99.921 51.08 99.7277 51.68 99.341 52.2C98.9543 52.72 98.421 53.1267 97.741 53.42C98.541 53.6867 99.1743 54.12 99.641 54.72C100.108 55.3067 100.341 56 100.341 56.8C100.341 57.68 100.061 58.46 99.501 59.14C98.9543 59.82 98.201 60.3533 97.241 60.74C96.281 61.1267 95.1877 61.32 93.961 61.32ZM111.859 61V46.7H115.299V61H111.859ZM106.019 61H102.579V46.7H106.019V61ZM105.819 55.14V52.26H112.059V55.14H105.819ZM129.336 58.4H120.416V55.54H129.336V58.4ZM132.376 61H128.676L124.396 49.22H125.276L120.976 61H117.396L122.976 46.7H126.796L132.376 61ZM136.901 56.14C135.314 56.14 134.068 55.74 133.161 54.94C132.268 54.1267 131.821 53.0133 131.821 51.6V46.7H135.261V51.2C135.261 51.92 135.448 52.44 135.821 52.76C136.194 53.0667 136.794 53.22 137.621 53.22C138.154 53.22 138.674 53.1667 139.181 53.06C139.688 52.94 140.121 52.7867 140.481 52.6L141.261 54.62C140.781 55.1133 140.154 55.4933 139.381 55.76C138.621 56.0133 137.794 56.14 136.901 56.14ZM140.341 61V46.7H143.781V61H140.341ZM150.413 61H146.973V46.7H150.413V61ZM160.953 61H156.473L149.913 53.58H150.233L155.953 46.7H160.113L153.953 53.88V53.28L160.953 61ZM167.882 61.32C166.749 61.32 165.709 61.1333 164.762 60.76C163.815 60.3867 162.989 59.8667 162.282 59.2C161.589 58.5333 161.049 57.7467 160.662 56.84C160.289 55.92 160.102 54.92 160.102 53.84C160.102 52.76 160.289 51.7667 160.662 50.86C161.049 49.9533 161.589 49.1667 162.282 48.5C162.989 47.8333 163.815 47.3133 164.762 46.94C165.709 46.5667 166.749 46.38 167.882 46.38C169.015 46.38 170.055 46.5667 171.002 46.94C171.949 47.3133 172.769 47.8333 173.462 48.5C174.169 49.1667 174.709 49.9533 175.082 50.86C175.469 51.7667 175.662 52.76 175.662 53.84C175.662 54.92 175.469 55.92 175.082 56.84C174.709 57.7467 174.169 58.5333 173.462 59.2C172.769 59.8667 171.949 60.3867 171.002 60.76C170.055 61.1333 169.015 61.32 167.882 61.32ZM167.882 58.3C168.709 58.3 169.429 58.1133 170.042 57.74C170.669 57.3533 171.155 56.8267 171.502 56.16C171.862 55.48 172.042 54.7067 172.042 53.84C172.042 52.9733 171.862 52.2067 171.502 51.54C171.155 50.8733 170.669 50.3533 170.042 49.98C169.429 49.5933 168.709 49.4 167.882 49.4C167.069 49.4 166.349 49.5933 165.722 49.98C165.095 50.3533 164.602 50.8733 164.242 51.54C163.895 52.2067 163.722 52.9733 163.722 53.84C163.722 54.7067 163.895 55.48 164.242 56.16C164.602 56.8267 165.095 57.3533 165.722 57.74C166.349 58.1133 167.069 58.3 167.882 58.3ZM190.904 61.32C189.85 61.32 188.877 61.14 187.984 60.78C187.104 60.4067 186.337 59.8867 185.684 59.22C185.03 58.54 184.524 57.7467 184.164 56.84C183.804 55.92 183.624 54.92 183.624 53.84C183.624 52.76 183.804 51.7667 184.164 50.86C184.524 49.9533 185.03 49.1667 185.684 48.5C186.337 47.82 187.104 47.3 187.984 46.94C188.877 46.5667 189.85 46.38 190.904 46.38C191.957 46.38 192.924 46.5667 193.804 46.94C194.697 47.3 195.47 47.82 196.124 48.5C196.777 49.1667 197.284 49.9533 197.644 50.86C198.004 51.7667 198.184 52.76 198.184 53.84C198.184 54.92 198.004 55.92 197.644 56.84C197.284 57.7467 196.777 58.54 196.124 59.22C195.47 59.8867 194.697 60.4067 193.804 60.78C192.924 61.14 191.957 61.32 190.904 61.32ZM178.204 61V46.7H181.644V61H178.204ZM180.044 55.14V52.26H185.884V55.14H180.044ZM190.904 58.3C191.65 58.3 192.297 58.12 192.844 57.76C193.39 57.3867 193.81 56.8667 194.104 56.2C194.41 55.52 194.564 54.7333 194.564 53.84C194.564 52.9333 194.41 52.1533 194.104 51.5C193.81 50.8333 193.39 50.32 192.844 49.96C192.297 49.5867 191.65 49.4 190.904 49.4C190.17 49.4 189.524 49.5867 188.964 49.96C188.417 50.32 187.99 50.8333 187.684 51.5C187.39 52.1667 187.244 52.9467 187.244 53.84C187.244 54.7333 187.39 55.52 187.684 56.2C187.99 56.8667 188.417 57.3867 188.964 57.76C189.524 58.12 190.17 58.3 190.904 58.3Z" fill="#1A141F"/>
<path d="M161.259 152.674H150.517C134.129 152.674 124.169 146.724 118.701 137.32C117.397 135.071 114.048 127.991 114.048 127.991C113.911 127.714 113.844 127.404 113.855 127.092C113.866 126.78 113.953 126.477 114.108 126.21C114.264 125.944 114.482 125.723 114.742 125.57C115.003 125.418 115.296 125.337 115.595 125.337H161.259C161.72 125.337 162.162 125.146 162.489 124.807C162.815 124.467 162.999 124.005 163.001 123.524C163.001 106.448 147.877 98 130.103 98H74.7392C74.4404 97.9994 74.1465 98.0794 73.886 98.2323C73.6254 98.3851 73.407 98.6056 73.252 98.8725C73.0969 99.1394 73.0104 99.4438 73.0009 99.7558C72.9913 100.068 73.0591 100.377 73.1975 100.654L84.1893 122.672C84.3263 122.949 84.3926 123.259 84.3821 123.57C84.3715 123.882 84.2844 124.186 84.129 124.453C83.9736 124.719 83.7552 124.94 83.4948 125.093C83.2344 125.245 82.9407 125.326 82.642 125.326H74.7392C74.4404 125.325 74.1465 125.405 73.886 125.558C73.6254 125.711 73.407 125.931 73.252 126.198C73.0969 126.465 73.0104 126.769 73.0009 127.081C72.9913 127.393 73.0591 127.703 73.1975 127.98L84.1893 149.998C84.3263 150.275 84.3926 150.584 84.3821 150.896C84.3715 151.208 84.2844 151.512 84.129 151.778C83.9736 152.045 83.7552 152.265 83.4948 152.418C83.2344 152.571 82.9407 152.651 82.642 152.651H74.7392C74.4402 152.652 74.1464 152.733 73.886 152.886C73.6257 153.04 73.4076 153.261 73.2527 153.528C73.0978 153.795 73.0113 154.1 73.0016 154.412C72.992 154.724 73.0595 155.034 73.1975 155.311C73.1975 155.311 76.6193 162.6 78.2885 165.514C83.4628 174.548 94.6265 180 110.97 180H161.259C161.721 179.998 162.163 179.806 162.489 179.466C162.815 179.125 162.999 178.663 163.001 178.181V154.477C162.995 153.997 162.809 153.54 162.483 153.203C162.157 152.866 161.718 152.676 161.259 152.674ZM112.306 115.394C112.309 113.02 113.215 110.743 114.824 109.066C116.432 107.388 118.613 106.447 120.886 106.448C123.159 106.447 125.339 107.388 126.948 109.066C128.557 110.743 129.462 113.02 129.465 115.394C129.462 115.516 129.435 115.637 129.385 115.747C129.335 115.858 129.264 115.957 129.176 116.037C129.088 116.118 128.985 116.178 128.873 116.215C128.762 116.252 128.644 116.265 128.528 116.252H113.244C113.128 116.26 113.012 116.245 112.902 116.207C112.792 116.168 112.691 116.107 112.604 116.027C112.517 115.948 112.445 115.851 112.394 115.742C112.343 115.633 112.314 115.515 112.306 115.394Z" fill="#E80000"/>
<path d="M44.4819 230V217.13H46.5519V229.514L45.4359 228.218H54.0939L53.0499 229.514V217.13H55.1199V230H44.4819ZM54.6159 233.132V228.218H56.5779V233.132H54.6159ZM65.78 227.282L66.932 228.542C66.464 229.082 65.882 229.508 65.186 229.82C64.49 230.132 63.716 230.288 62.864 230.288C61.856 230.288 60.962 230.084 60.182 229.676C59.414 229.268 58.808 228.704 58.364 227.984C57.932 227.264 57.716 226.442 57.716 225.518C57.716 224.582 57.926 223.754 58.346 223.034C58.766 222.314 59.342 221.75 60.074 221.342C60.806 220.934 61.628 220.73 62.54 220.73C63.428 220.73 64.214 220.934 64.898 221.342C65.582 221.738 66.122 222.29 66.518 222.998C66.914 223.694 67.112 224.504 67.112 225.428V225.536H65.114V225.338C65.114 224.738 65 224.216 64.772 223.772C64.556 223.316 64.256 222.968 63.872 222.728C63.488 222.476 63.038 222.35 62.522 222.35C61.982 222.35 61.502 222.482 61.082 222.746C60.674 222.998 60.356 223.358 60.128 223.826C59.9 224.282 59.786 224.834 59.786 225.482C59.786 226.13 59.918 226.694 60.182 227.174C60.458 227.654 60.83 228.026 61.298 228.29C61.778 228.542 62.33 228.668 62.954 228.668C64.094 228.668 65.036 228.206 65.78 227.282ZM67.112 226.148H59.12V224.78H66.824L67.112 225.446V226.148ZM79.2752 230V221.018H81.2912V230H79.2752ZM72.7232 230V221.018H74.7392V230H72.7232ZM73.6772 226.112V224.456H80.4272V226.112H73.6772ZM91.8044 230H89.9504V228.218L89.8604 227.84V224.474C89.8604 223.802 89.6444 223.28 89.2124 222.908C88.7804 222.524 88.1924 222.332 87.4484 222.332C86.9084 222.332 86.4044 222.44 85.9364 222.656C85.4804 222.872 85.0844 223.172 84.7484 223.556L83.5964 222.296C84.0884 221.804 84.6644 221.42 85.3244 221.144C85.9844 220.868 86.7164 220.73 87.5204 220.73C88.3724 220.73 89.1164 220.88 89.7524 221.18C90.4004 221.468 90.9044 221.888 91.2644 222.44C91.6244 222.992 91.8044 223.652 91.8044 224.42V230ZM86.7644 230.288C86.0804 230.288 85.4744 230.162 84.9464 229.91C84.4184 229.658 84.0104 229.316 83.7224 228.884C83.4344 228.452 83.2904 227.948 83.2904 227.372C83.2904 226.748 83.4704 226.22 83.8304 225.788C84.1904 225.344 84.6884 225.008 85.3244 224.78C85.9724 224.54 86.7164 224.42 87.5564 224.42H90.0764V225.806H87.7364C87.0284 225.806 86.4524 225.932 86.0084 226.184C85.5764 226.436 85.3604 226.808 85.3604 227.3C85.3604 227.744 85.5284 228.098 85.8644 228.362C86.2004 228.614 86.6384 228.74 87.1784 228.74C87.6944 228.74 88.1684 228.632 88.6004 228.416C89.0324 228.2 89.3744 227.906 89.6264 227.534C89.8904 227.15 90.0404 226.712 90.0764 226.22L90.7244 226.526C90.7244 227.258 90.5564 227.912 90.2204 228.488C89.8844 229.052 89.4164 229.496 88.8164 229.82C88.2164 230.132 87.5324 230.288 86.7644 230.288ZM94.1158 230V221.018H96.0958V229.604L95.4118 228.362H100.236L99.5338 229.604V221.018H101.514V229.604L101.046 228.362H105.906L104.952 229.604V221.018H106.932V230H94.1158ZM117.451 230H115.597V228.218L115.507 227.84V224.474C115.507 223.802 115.291 223.28 114.859 222.908C114.427 222.524 113.839 222.332 113.095 222.332C112.555 222.332 112.051 222.44 111.583 222.656C111.127 222.872 110.731 223.172 110.395 223.556L109.243 222.296C109.735 221.804 110.311 221.42 110.971 221.144C111.631 220.868 112.363 220.73 113.167 220.73C114.019 220.73 114.763 220.88 115.399 221.18C116.047 221.468 116.551 221.888 116.911 222.44C117.271 222.992 117.451 223.652 117.451 224.42V230ZM112.411 230.288C111.727 230.288 111.121 230.162 110.593 229.91C110.065 229.658 109.657 229.316 109.369 228.884C109.081 228.452 108.937 227.948 108.937 227.372C108.937 226.748 109.117 226.22 109.477 225.788C109.837 225.344 110.335 225.008 110.971 224.78C111.619 224.54 112.363 224.42 113.203 224.42H115.723V225.806H113.383C112.675 225.806 112.099 225.932 111.655 226.184C111.223 226.436 111.007 226.808 111.007 227.3C111.007 227.744 111.175 228.098 111.511 228.362C111.847 228.614 112.285 228.74 112.825 228.74C113.341 228.74 113.815 228.632 114.247 228.416C114.679 228.2 115.021 227.906 115.273 227.534C115.537 227.15 115.687 226.712 115.723 226.22L116.371 226.526C116.371 227.258 116.203 227.912 115.867 228.488C115.531 229.052 115.063 229.496 114.463 229.82C113.863 230.132 113.179 230.288 112.411 230.288ZM129.83 230V221.018H131.846V230H129.83ZM123.278 230V221.018H125.294V230H123.278ZM124.232 226.112V224.456H130.982V226.112H124.232ZM142.359 230H140.505V228.218L140.415 227.84V224.474C140.415 223.802 140.199 223.28 139.767 222.908C139.335 222.524 138.747 222.332 138.003 222.332C137.463 222.332 136.959 222.44 136.491 222.656C136.035 222.872 135.639 223.172 135.303 223.556L134.151 222.296C134.643 221.804 135.219 221.42 135.879 221.144C136.539 220.868 137.271 220.73 138.075 220.73C138.927 220.73 139.671 220.88 140.307 221.18C140.955 221.468 141.459 221.888 141.819 222.44C142.179 222.992 142.359 223.652 142.359 224.42V230ZM137.319 230.288C136.635 230.288 136.029 230.162 135.501 229.91C134.973 229.658 134.565 229.316 134.277 228.884C133.989 228.452 133.845 227.948 133.845 227.372C133.845 226.748 134.025 226.22 134.385 225.788C134.745 225.344 135.243 225.008 135.879 224.78C136.527 224.54 137.271 224.42 138.111 224.42H140.631V225.806H138.291C137.583 225.806 137.007 225.932 136.563 226.184C136.131 226.436 135.915 226.808 135.915 227.3C135.915 227.744 136.083 228.098 136.419 228.362C136.755 228.614 137.193 228.74 137.733 228.74C138.249 228.74 138.723 228.632 139.155 228.416C139.587 228.2 139.929 227.906 140.181 227.534C140.445 227.15 140.595 226.712 140.631 226.22L141.279 226.526C141.279 227.258 141.111 227.912 140.775 228.488C140.439 229.052 139.971 229.496 139.371 229.82C138.771 230.132 138.087 230.288 137.319 230.288ZM144.67 230V221.018H146.614V227.408L146.47 227.354L151.438 221.018H153.202V230H151.258V223.61L151.384 223.664L146.434 230H144.67ZM149.026 219.452C148.174 219.452 147.466 219.236 146.902 218.804C146.338 218.372 146.002 217.736 145.894 216.896H147.514C147.586 217.388 147.754 217.742 148.018 217.958C148.282 218.174 148.618 218.282 149.026 218.282C149.434 218.282 149.77 218.174 150.034 217.958C150.298 217.742 150.46 217.388 150.52 216.896H152.158C152.05 217.736 151.714 218.372 151.15 218.804C150.586 219.236 149.878 219.452 149.026 219.452ZM160.027 225.716H155.059V223.988H160.027V225.716ZM168.431 230V221.018H170.447V230H168.431ZM161.879 230V221.018H163.895V230H161.879ZM162.833 226.112V224.456H169.583V226.112H162.833ZM180.961 230H179.107V228.218L179.017 227.84V224.474C179.017 223.802 178.801 223.28 178.369 222.908C177.937 222.524 177.349 222.332 176.605 222.332C176.065 222.332 175.561 222.44 175.093 222.656C174.637 222.872 174.241 223.172 173.905 223.556L172.753 222.296C173.245 221.804 173.821 221.42 174.481 221.144C175.141 220.868 175.873 220.73 176.677 220.73C177.529 220.73 178.273 220.88 178.909 221.18C179.557 221.468 180.061 221.888 180.421 222.44C180.781 222.992 180.961 223.652 180.961 224.42V230ZM175.921 230.288C175.237 230.288 174.631 230.162 174.103 229.91C173.575 229.658 173.167 229.316 172.879 228.884C172.591 228.452 172.447 227.948 172.447 227.372C172.447 226.748 172.627 226.22 172.987 225.788C173.347 225.344 173.845 225.008 174.481 224.78C175.129 224.54 175.873 224.42 176.713 224.42H179.233V225.806H176.893C176.185 225.806 175.609 225.932 175.165 226.184C174.733 226.436 174.517 226.808 174.517 227.3C174.517 227.744 174.685 228.098 175.021 228.362C175.357 228.614 175.795 228.74 176.335 228.74C176.851 228.74 177.325 228.632 177.757 228.416C178.189 228.2 178.531 227.906 178.783 227.534C179.047 227.15 179.197 226.712 179.233 226.22L179.881 226.526C179.881 227.258 179.713 227.912 179.377 228.488C179.041 229.052 178.573 229.496 177.973 229.82C177.373 230.132 176.689 230.288 175.921 230.288ZM183.272 230V221.018H185.216V227.408L185.072 227.354L190.04 221.018H191.804V230H189.86V223.61L189.986 223.664L185.036 230H183.272ZM187.628 219.452C186.776 219.452 186.068 219.236 185.504 218.804C184.94 218.372 184.604 217.736 184.496 216.896H186.116C186.188 217.388 186.356 217.742 186.62 217.958C186.884 218.174 187.22 218.282 187.628 218.282C188.036 218.282 188.372 218.174 188.636 217.958C188.9 217.742 189.062 217.388 189.122 216.896H190.76C190.652 217.736 190.316 218.372 189.752 218.804C189.188 219.236 188.48 219.452 187.628 219.452ZM55.1228 253V244.018H57.1388V253H55.1228ZM48.5708 253V244.018H50.5868V253H48.5708ZM49.5248 249.112V247.456H56.2748V249.112H49.5248ZM67.6521 253H65.7981V251.218L65.7081 250.84V247.474C65.7081 246.802 65.4921 246.28 65.0601 245.908C64.6281 245.524 64.0401 245.332 63.2961 245.332C62.7561 245.332 62.2521 245.44 61.7841 245.656C61.3281 245.872 60.9321 246.172 60.5961 246.556L59.4441 245.296C59.9361 244.804 60.5121 244.42 61.1721 244.144C61.8321 243.868 62.5641 243.73 63.3681 243.73C64.2201 243.73 64.9641 243.88 65.6001 244.18C66.2481 244.468 66.7521 244.888 67.1121 245.44C67.4721 245.992 67.6521 246.652 67.6521 247.42V253ZM62.6121 253.288C61.9281 253.288 61.3221 253.162 60.7941 252.91C60.2661 252.658 59.8581 252.316 59.5701 251.884C59.2821 251.452 59.1381 250.948 59.1381 250.372C59.1381 249.748 59.3181 249.22 59.6781 248.788C60.0381 248.344 60.5361 248.008 61.1721 247.78C61.8201 247.54 62.5641 247.42 63.4041 247.42H65.9241V248.806H63.5841C62.8761 248.806 62.3001 248.932 61.8561 249.184C61.4241 249.436 61.2081 249.808 61.2081 250.3C61.2081 250.744 61.3761 251.098 61.7121 251.362C62.0481 251.614 62.4861 251.74 63.0261 251.74C63.5421 251.74 64.0161 251.632 64.4481 251.416C64.8801 251.2 65.2221 250.906 65.4741 250.534C65.7381 250.15 65.8881 249.712 65.9241 249.22L66.5721 249.526C66.5721 250.258 66.4041 250.912 66.0681 251.488C65.7321 252.052 65.2641 252.496 64.6641 252.82C64.0641 253.132 63.3801 253.288 62.6121 253.288ZM69.9634 253V244.018H71.9074V250.408L71.7634 250.354L76.7314 244.018H78.4954V253H76.5514V246.61L76.6774 246.664L71.7274 253H69.9634ZM74.3194 242.452C73.4674 242.452 72.7594 242.236 72.1954 241.804C71.6314 241.372 71.2954 240.736 71.1874 239.896H72.8074C72.8794 240.388 73.0474 240.742 73.3114 240.958C73.5754 241.174 73.9114 241.282 74.3194 241.282C74.7274 241.282 75.0634 241.174 75.3274 240.958C75.5914 240.742 75.7534 240.388 75.8134 239.896H77.4514C77.3434 240.736 77.0074 241.372 76.4434 241.804C75.8794 242.236 75.1714 242.452 74.3194 242.452ZM85.4635 253.288C84.5155 253.288 83.6695 253.084 82.9255 252.676C82.1935 252.268 81.6175 251.704 81.1975 250.984C80.7775 250.264 80.5675 249.436 80.5675 248.5C80.5675 247.576 80.7775 246.754 81.1975 246.034C81.6175 245.314 82.1935 244.75 82.9255 244.342C83.6695 243.934 84.5155 243.73 85.4635 243.73C86.4235 243.73 87.2695 243.934 88.0015 244.342C88.7455 244.75 89.3215 245.314 89.7295 246.034C90.1495 246.754 90.3595 247.576 90.3595 248.5C90.3595 249.436 90.1495 250.264 89.7295 250.984C89.3215 251.704 88.7455 252.268 88.0015 252.676C87.2695 253.084 86.4235 253.288 85.4635 253.288ZM85.4635 251.596C86.0275 251.596 86.5195 251.464 86.9395 251.2C87.3595 250.936 87.6835 250.576 87.9115 250.12C88.1515 249.652 88.2715 249.112 88.2715 248.5C88.2715 247.9 88.1515 247.372 87.9115 246.916C87.6835 246.448 87.3595 246.082 86.9395 245.818C86.5195 245.554 86.0275 245.422 85.4635 245.422C84.9115 245.422 84.4255 245.554 84.0055 245.818C83.5855 246.082 83.2555 246.448 83.0155 246.916C82.7875 247.372 82.6735 247.9 82.6735 248.5C82.6735 249.112 82.7875 249.652 83.0155 250.12C83.2555 250.576 83.5855 250.936 84.0055 251.2C84.4255 251.464 84.9115 251.596 85.4635 251.596ZM99.2683 250.246L100.564 251.506C100.12 252.058 99.5743 252.496 98.9263 252.82C98.2783 253.132 97.5343 253.288 96.6943 253.288C95.7703 253.288 94.9423 253.084 94.2103 252.676C93.4903 252.256 92.9203 251.692 92.5003 250.984C92.0803 250.264 91.8703 249.436 91.8703 248.5C91.8703 247.576 92.0803 246.76 92.5003 246.052C92.9203 245.332 93.4963 244.768 94.2283 244.36C94.9723 243.94 95.8123 243.73 96.7483 243.73C97.5643 243.73 98.2903 243.886 98.9263 244.198C99.5743 244.51 100.12 244.948 100.564 245.512L99.2683 246.772C99.0043 246.364 98.6683 246.04 98.2603 245.8C97.8643 245.548 97.3843 245.422 96.8203 245.422C96.2683 245.422 95.7763 245.554 95.3443 245.818C94.9123 246.082 94.5763 246.448 94.3363 246.916C94.0963 247.372 93.9763 247.9 93.9763 248.5C93.9763 249.1 94.0963 249.634 94.3363 250.102C94.5763 250.57 94.9123 250.936 95.3443 251.2C95.7763 251.464 96.2683 251.596 96.8203 251.596C97.3843 251.596 97.8643 251.47 98.2603 251.218C98.6683 250.966 99.0043 250.642 99.2683 250.246ZM106.469 253.288C105.521 253.288 104.675 253.084 103.931 252.676C103.199 252.268 102.623 251.704 102.203 250.984C101.783 250.264 101.573 249.436 101.573 248.5C101.573 247.576 101.783 246.754 102.203 246.034C102.623 245.314 103.199 244.75 103.931 244.342C104.675 243.934 105.521 243.73 106.469 243.73C107.429 243.73 108.275 243.934 109.007 244.342C109.751 244.75 110.327 245.314 110.735 246.034C111.155 246.754 111.365 247.576 111.365 248.5C111.365 249.436 111.155 250.264 110.735 250.984C110.327 251.704 109.751 252.268 109.007 252.676C108.275 253.084 107.429 253.288 106.469 253.288ZM106.469 251.596C107.033 251.596 107.525 251.464 107.945 251.2C108.365 250.936 108.689 250.576 108.917 250.12C109.157 249.652 109.277 249.112 109.277 248.5C109.277 247.9 109.157 247.372 108.917 246.916C108.689 246.448 108.365 246.082 107.945 245.818C107.525 245.554 107.033 245.422 106.469 245.422C105.917 245.422 105.431 245.554 105.011 245.818C104.591 246.082 104.261 246.448 104.021 246.916C103.793 247.372 103.679 247.9 103.679 248.5C103.679 249.112 103.793 249.652 104.021 250.12C104.261 250.576 104.591 250.936 105.011 251.2C105.431 251.464 105.917 251.596 106.469 251.596ZM117.664 253.288C116.128 253.288 114.946 252.742 114.118 251.65C113.29 250.558 112.876 248.992 112.876 246.952C112.876 244.948 113.224 243.442 113.92 242.434C114.616 241.426 115.72 240.82 117.232 240.616L121.174 240.04L121.426 241.714L117.538 242.308C116.866 242.416 116.326 242.626 115.918 242.938C115.522 243.25 115.234 243.718 115.054 244.342C114.874 244.954 114.76 245.77 114.712 246.79L114.406 247.33C114.526 246.718 114.766 246.196 115.126 245.764C115.486 245.32 115.936 244.984 116.476 244.756C117.016 244.516 117.592 244.396 118.204 244.396C119.068 244.396 119.8 244.582 120.4 244.954C121.012 245.314 121.48 245.818 121.804 246.466C122.128 247.102 122.29 247.834 122.29 248.662C122.29 249.586 122.098 250.396 121.714 251.092C121.33 251.788 120.79 252.328 120.094 252.712C119.41 253.096 118.6 253.288 117.664 253.288ZM117.592 251.578C118.408 251.578 119.044 251.326 119.5 250.822C119.968 250.318 120.202 249.628 120.202 248.752C120.202 247.9 119.986 247.24 119.554 246.772C119.122 246.292 118.51 246.052 117.718 246.052C117.25 246.052 116.824 246.16 116.44 246.376C116.056 246.58 115.726 246.868 115.45 247.24C115.186 247.612 115.006 248.056 114.91 248.572L114.982 247.564C114.958 248.932 115.156 249.946 115.576 250.606C115.996 251.254 116.668 251.578 117.592 251.578ZM123.396 253V251.326H124.044C124.368 251.326 124.608 251.248 124.764 251.092C124.932 250.936 125.028 250.666 125.052 250.282L125.628 244.018H132.468V253H130.452V244.342L131.892 245.656H126.006L127.536 244.342L126.924 250.678C126.84 251.542 126.6 252.148 126.204 252.496C125.808 252.832 125.202 253 124.386 253H123.396ZM135.073 253V244.018H137.017V250.408L136.873 250.354L141.841 244.018H143.605V253H141.661V246.61L141.787 246.664L136.837 253H135.073ZM146.235 253V244.018H150.825C151.797 244.018 152.565 244.234 153.129 244.666C153.693 245.098 153.975 245.68 153.975 246.412C153.975 246.868 153.837 247.27 153.561 247.618C153.297 247.954 152.937 248.212 152.481 248.392L152.463 248.23C153.039 248.386 153.507 248.656 153.867 249.04C154.227 249.412 154.407 249.868 154.407 250.408C154.407 250.924 154.251 251.38 153.939 251.776C153.639 252.16 153.231 252.46 152.715 252.676C152.199 252.892 151.623 253 150.987 253H146.235ZM148.089 252.496L147.045 251.488H150.735C151.275 251.488 151.683 251.386 151.959 251.182C152.247 250.978 152.391 250.678 152.391 250.282C152.391 249.886 152.247 249.586 151.959 249.382C151.683 249.178 151.275 249.076 150.735 249.076H147.243V247.654H150.591C151.095 247.654 151.449 247.558 151.653 247.366C151.869 247.174 151.977 246.904 151.977 246.556C151.977 246.208 151.869 245.95 151.653 245.782C151.449 245.614 151.095 245.53 150.591 245.53H146.991L148.089 244.486V252.496ZM158.252 253H156.236V244.018H158.252V253ZM157.244 242.164C156.896 242.164 156.596 242.044 156.344 241.804C156.092 241.564 155.966 241.276 155.966 240.94C155.966 240.58 156.092 240.28 156.344 240.04C156.596 239.8 156.896 239.68 157.244 239.68C157.604 239.68 157.904 239.8 158.144 240.04C158.396 240.28 158.522 240.574 158.522 240.922C158.522 241.27 158.396 241.564 158.144 241.804C157.904 242.044 157.604 242.164 157.244 242.164ZM160.895 253V244.018H162.875V252.604L162.191 251.362H167.015L166.313 252.604V244.018H168.293V252.604L167.825 251.362H172.685L171.731 252.604V244.018H173.711V253H160.895ZM184.23 253H182.376V251.218L182.286 250.84V247.474C182.286 246.802 182.07 246.28 181.638 245.908C181.206 245.524 180.618 245.332 179.874 245.332C179.334 245.332 178.83 245.44 178.362 245.656C177.906 245.872 177.51 246.172 177.174 246.556L176.022 245.296C176.514 244.804 177.09 244.42 177.75 244.144C178.41 243.868 179.142 243.73 179.946 243.73C180.798 243.73 181.542 243.88 182.178 244.18C182.826 244.468 183.33 244.888 183.69 245.44C184.05 245.992 184.23 246.652 184.23 247.42V253ZM179.19 253.288C178.506 253.288 177.9 253.162 177.372 252.91C176.844 252.658 176.436 252.316 176.148 251.884C175.86 251.452 175.716 250.948 175.716 250.372C175.716 249.748 175.896 249.22 176.256 248.788C176.616 248.344 177.114 248.008 177.75 247.78C178.398 247.54 179.142 247.42 179.982 247.42H182.502V248.806H180.162C179.454 248.806 178.878 248.932 178.434 249.184C178.002 249.436 177.786 249.808 177.786 250.3C177.786 250.744 177.954 251.098 178.29 251.362C178.626 251.614 179.064 251.74 179.604 251.74C180.12 251.74 180.594 251.632 181.026 251.416C181.458 251.2 181.8 250.906 182.052 250.534C182.316 250.15 182.466 249.712 182.502 249.22L183.15 249.526C183.15 250.258 182.982 250.912 182.646 251.488C182.31 252.052 181.842 252.496 181.242 252.82C180.642 253.132 179.958 253.288 179.19 253.288ZM57.9165 279.492H55.9005V267.018H57.8985V269.79H57.4665C57.5505 269.19 57.7605 268.662 58.0965 268.206C58.4325 267.75 58.8645 267.39 59.3925 267.126C59.9205 266.862 60.5085 266.73 61.1565 266.73C61.9965 266.73 62.7525 266.934 63.4245 267.342C64.1085 267.75 64.6485 268.314 65.0445 269.034C65.4405 269.754 65.6385 270.576 65.6385 271.5C65.6385 272.436 65.4345 273.264 65.0265 273.984C64.6305 274.704 64.0905 275.268 63.4065 275.676C62.7225 276.084 61.9485 276.288 61.0845 276.288C60.2925 276.288 59.6085 276.126 59.0325 275.802C58.4565 275.466 58.0185 275.016 57.7185 274.452C57.4305 273.876 57.3105 273.234 57.3585 272.526L57.7725 272.202C57.8325 272.67 57.9945 273.084 58.2585 273.444C58.5225 273.804 58.8645 274.086 59.2845 274.29C59.7045 274.494 60.1605 274.596 60.6525 274.596C61.2405 274.596 61.7445 274.464 62.1645 274.2C62.5965 273.936 62.9325 273.57 63.1725 273.102C63.4125 272.634 63.5325 272.1 63.5325 271.5C63.5325 270.912 63.4185 270.384 63.1905 269.916C62.9625 269.448 62.6385 269.082 62.2185 268.818C61.8105 268.554 61.3245 268.422 60.7605 268.422C60.2085 268.422 59.7165 268.56 59.2845 268.836C58.8645 269.1 58.5285 269.472 58.2765 269.952C58.0365 270.432 57.9165 270.996 57.9165 271.644V279.492ZM75.2194 273.282L76.3714 274.542C75.9034 275.082 75.3214 275.508 74.6254 275.82C73.9294 276.132 73.1554 276.288 72.3034 276.288C71.2954 276.288 70.4014 276.084 69.6214 275.676C68.8534 275.268 68.2474 274.704 67.8034 273.984C67.3714 273.264 67.1554 272.442 67.1554 271.518C67.1554 270.582 67.3654 269.754 67.7854 269.034C68.2054 268.314 68.7814 267.75 69.5134 267.342C70.2454 266.934 71.0674 266.73 71.9794 266.73C72.8674 266.73 73.6534 266.934 74.3374 267.342C75.0214 267.738 75.5614 268.29 75.9574 268.998C76.3534 269.694 76.5514 270.504 76.5514 271.428V271.536H74.5534V271.338C74.5534 270.738 74.4394 270.216 74.2114 269.772C73.9954 269.316 73.6954 268.968 73.3114 268.728C72.9274 268.476 72.4774 268.35 71.9614 268.35C71.4214 268.35 70.9414 268.482 70.5214 268.746C70.1134 268.998 69.7954 269.358 69.5674 269.826C69.3394 270.282 69.2254 270.834 69.2254 271.482C69.2254 272.13 69.3574 272.694 69.6214 273.174C69.8974 273.654 70.2694 274.026 70.7374 274.29C71.2174 274.542 71.7694 274.668 72.3934 274.668C73.5334 274.668 74.4754 274.206 75.2194 273.282ZM76.5514 272.148H68.5594V270.78H76.2634L76.5514 271.446V272.148ZM84.749 276L80.141 271.338H80.339L84.479 267.018H86.963L82.265 271.914L82.031 270.654L87.377 276H84.749ZM78.647 276V267.018H80.663V276H78.647ZM92.5299 276.288C91.5819 276.288 90.7359 276.084 89.9919 275.676C89.2599 275.268 88.6839 274.704 88.2639 273.984C87.8439 273.264 87.6339 272.436 87.6339 271.5C87.6339 270.576 87.8439 269.754 88.2639 269.034C88.6839 268.314 89.2599 267.75 89.9919 267.342C90.7359 266.934 91.5819 266.73 92.5299 266.73C93.4899 266.73 94.3359 266.934 95.0679 267.342C95.8119 267.75 96.3879 268.314 96.7959 269.034C97.2159 269.754 97.4259 270.576 97.4259 271.5C97.4259 272.436 97.2159 273.264 96.7959 273.984C96.3879 274.704 95.8119 275.268 95.0679 275.676C94.3359 276.084 93.4899 276.288 92.5299 276.288ZM92.5299 274.596C93.0939 274.596 93.5859 274.464 94.0059 274.2C94.4259 273.936 94.7499 273.576 94.9779 273.12C95.2179 272.652 95.3379 272.112 95.3379 271.5C95.3379 270.9 95.2179 270.372 94.9779 269.916C94.7499 269.448 94.4259 269.082 94.0059 268.818C93.5859 268.554 93.0939 268.422 92.5299 268.422C91.9779 268.422 91.4919 268.554 91.0719 268.818C90.6519 269.082 90.3219 269.448 90.0819 269.916C89.8539 270.372 89.7399 270.9 89.7399 271.5C89.7399 272.112 89.8539 272.652 90.0819 273.12C90.3219 273.576 90.6519 273.936 91.0719 274.2C91.4919 274.464 91.9779 274.596 92.5299 274.596ZM99.4947 276V267.018H101.619L104.985 273.354L104.661 273.336L107.973 267.018H110.187V276H108.333V267.684L109.143 268.134L105.471 275.1H104.085L100.413 268.134L101.277 267.756V276H99.4947ZM120.325 273.282L121.477 274.542C121.009 275.082 120.427 275.508 119.731 275.82C119.035 276.132 118.261 276.288 117.409 276.288C116.401 276.288 115.507 276.084 114.727 275.676C113.959 275.268 113.353 274.704 112.909 273.984C112.477 273.264 112.261 272.442 112.261 271.518C112.261 270.582 112.471 269.754 112.891 269.034C113.311 268.314 113.887 267.75 114.619 267.342C115.351 266.934 116.173 266.73 117.085 266.73C117.973 266.73 118.759 266.934 119.443 267.342C120.127 267.738 120.667 268.29 121.063 268.998C121.459 269.694 121.657 270.504 121.657 271.428V271.536H119.659V271.338C119.659 270.738 119.545 270.216 119.317 269.772C119.101 269.316 118.801 268.968 118.417 268.728C118.033 268.476 117.583 268.35 117.067 268.35C116.527 268.35 116.047 268.482 115.627 268.746C115.219 268.998 114.901 269.358 114.673 269.826C114.445 270.282 114.331 270.834 114.331 271.482C114.331 272.13 114.463 272.694 114.727 273.174C115.003 273.654 115.375 274.026 115.843 274.29C116.323 274.542 116.875 274.668 117.499 274.668C118.639 274.668 119.581 274.206 120.325 273.282ZM121.657 272.148H113.665V270.78H121.369L121.657 271.446V272.148ZM130.304 276V267.018H132.32V276H130.304ZM123.752 276V267.018H125.768V276H123.752ZM124.706 272.112V270.456H131.456V272.112H124.706ZM134.464 275.154V274.362H134.752C135.004 274.362 135.202 274.314 135.346 274.218C135.502 274.11 135.616 273.93 135.688 273.678C135.772 273.414 135.838 273.048 135.886 272.58L136.498 267.018H143.212V274.884H141.232V267.342L142.636 268.656H136.84L138.424 267.342L137.776 272.742C137.716 273.342 137.596 273.816 137.416 274.164C137.248 274.512 136.99 274.764 136.642 274.92C136.306 275.076 135.85 275.154 135.274 275.154H134.464ZM134.032 278.412V274.362H144.616V278.412H142.726V274.83L143.86 276H135.22L135.94 274.83V278.412H134.032ZM154.277 276H152.423V274.218L152.333 273.84V270.474C152.333 269.802 152.117 269.28 151.685 268.908C151.253 268.524 150.665 268.332 149.921 268.332C149.381 268.332 148.877 268.44 148.409 268.656C147.953 268.872 147.557 269.172 147.221 269.556L146.069 268.296C146.561 267.804 147.137 267.42 147.797 267.144C148.457 266.868 149.189 266.73 149.993 266.73C150.845 266.73 151.589 266.88 152.225 267.18C152.873 267.468 153.377 267.888 153.737 268.44C154.097 268.992 154.277 269.652 154.277 270.42V276ZM149.237 276.288C148.553 276.288 147.947 276.162 147.419 275.91C146.891 275.658 146.483 275.316 146.195 274.884C145.907 274.452 145.763 273.948 145.763 273.372C145.763 272.748 145.943 272.22 146.303 271.788C146.663 271.344 147.161 271.008 147.797 270.78C148.445 270.54 149.189 270.42 150.029 270.42H152.549V271.806H150.209C149.501 271.806 148.925 271.932 148.481 272.184C148.049 272.436 147.833 272.808 147.833 273.3C147.833 273.744 148.001 274.098 148.337 274.362C148.673 274.614 149.111 274.74 149.651 274.74C150.167 274.74 150.641 274.632 151.073 274.416C151.505 274.2 151.847 273.906 152.099 273.534C152.363 273.15 152.513 272.712 152.549 272.22L153.197 272.526C153.197 273.258 153.029 273.912 152.693 274.488C152.357 275.052 151.889 275.496 151.289 275.82C150.689 276.132 150.005 276.288 149.237 276.288ZM156.588 276V267.018H158.604V275.676L157.056 274.362H163.734L162.726 275.676V267.018H164.742V276H156.588ZM164.184 278.412V274.362H166.074V278.412H164.184ZM169.854 276H167.838V267.018H169.854V276ZM168.846 265.164C168.498 265.164 168.198 265.044 167.946 264.804C167.694 264.564 167.568 264.276 167.568 263.94C167.568 263.58 167.694 263.28 167.946 263.04C168.198 262.8 168.498 262.68 168.846 262.68C169.206 262.68 169.506 262.8 169.746 263.04C169.998 263.28 170.124 263.574 170.124 263.922C170.124 264.27 169.998 264.564 169.746 264.804C169.506 265.044 169.206 265.164 168.846 265.164ZM178.185 276V267.288L179.481 268.566H175.899C175.443 268.566 175.059 268.668 174.747 268.872C174.447 269.076 174.297 269.412 174.297 269.88C174.297 270.3 174.435 270.624 174.711 270.852C174.999 271.08 175.401 271.194 175.917 271.194H179.013V272.67H175.701C174.657 272.67 173.823 272.418 173.199 271.914C172.587 271.398 172.281 270.708 172.281 269.844C172.281 269.304 172.431 268.824 172.731 268.404C173.031 267.972 173.439 267.636 173.955 267.396C174.483 267.144 175.077 267.018 175.737 267.018H180.075V276H178.185ZM171.849 276L174.945 272.004H177.033L174.099 276H171.849Z" fill="#1A141F"/>
<path d="M99.3423 329V319.128H96.6063C95.9449 319.128 95.4276 319.293 95.0543 319.624C94.6809 319.944 94.4943 320.387 94.4943 320.952C94.4943 321.517 94.6809 321.965 95.0543 322.296C95.4276 322.616 95.9449 322.776 96.6063 322.776H99.5023V324.344H96.6063C95.8169 324.344 95.1183 324.205 94.5103 323.928C93.9129 323.64 93.4489 323.24 93.1183 322.728C92.7876 322.216 92.6223 321.624 92.6223 320.952C92.6223 320.269 92.7876 319.677 93.1183 319.176C93.4489 318.664 93.9129 318.269 94.5103 317.992C95.1183 317.704 95.8169 317.56 96.6063 317.56H101.182V329H99.3423ZM91.8383 329L95.6943 323.672H97.7423L94.0303 329H91.8383ZM109.201 329L105.105 324.856H105.281L108.961 321.016H111.169L106.993 325.368L106.785 324.248L111.537 329H109.201ZM103.777 329V321.016H105.569V329H103.777ZM114.678 329H112.886V321.016H114.678V329ZM113.782 319.368C113.473 319.368 113.206 319.261 112.982 319.048C112.758 318.835 112.646 318.579 112.646 318.28C112.646 317.96 112.758 317.693 112.982 317.48C113.206 317.267 113.473 317.16 113.782 317.16C114.102 317.16 114.369 317.267 114.582 317.48C114.806 317.693 114.918 317.955 114.918 318.264C114.918 318.573 114.806 318.835 114.582 319.048C114.369 319.261 114.102 319.368 113.782 319.368ZM123.107 326.552L124.259 327.672C123.865 328.163 123.379 328.552 122.803 328.84C122.227 329.117 121.566 329.256 120.819 329.256C119.998 329.256 119.262 329.075 118.611 328.712C117.971 328.339 117.465 327.837 117.091 327.208C116.718 326.568 116.531 325.832 116.531 325C116.531 324.179 116.718 323.453 117.091 322.824C117.465 322.184 117.977 321.683 118.627 321.32C119.289 320.947 120.035 320.76 120.867 320.76C121.593 320.76 122.238 320.899 122.803 321.176C123.379 321.453 123.865 321.843 124.259 322.344L123.107 323.464C122.873 323.101 122.574 322.813 122.211 322.6C121.859 322.376 121.433 322.264 120.931 322.264C120.441 322.264 120.003 322.381 119.619 322.616C119.235 322.851 118.937 323.176 118.723 323.592C118.51 323.997 118.403 324.467 118.403 325C118.403 325.533 118.51 326.008 118.723 326.424C118.937 326.84 119.235 327.165 119.619 327.4C120.003 327.635 120.441 327.752 120.931 327.752C121.433 327.752 121.859 327.64 122.211 327.416C122.574 327.192 122.873 326.904 123.107 326.552ZM127.965 329V321.608H129.757V329H127.965ZM125.165 322.472V321.016H132.541V322.472H125.165ZM134.074 329V321.016H135.802V328.76L134.602 327.544H137.866C138.325 327.544 138.677 327.437 138.922 327.224C139.168 327 139.29 326.696 139.29 326.312C139.29 325.928 139.168 325.629 138.922 325.416C138.677 325.203 138.325 325.096 137.866 325.096H135.002V323.64H138.01C138.949 323.64 139.701 323.885 140.266 324.376C140.842 324.867 141.13 325.496 141.13 326.264C141.13 326.808 140.997 327.288 140.73 327.704C140.464 328.109 140.096 328.429 139.626 328.664C139.157 328.888 138.618 329 138.01 329H134.074ZM66.4024 349V341.016H72.1784V342.472H66.7864L68.1944 341.368V349H66.4024ZM80.4729 349H78.8249V347.416L78.7449 347.08V344.088C78.7449 343.491 78.5529 343.027 78.1689 342.696C77.7849 342.355 77.2622 342.184 76.6009 342.184C76.1209 342.184 75.6729 342.28 75.2569 342.472C74.8515 342.664 74.4995 342.931 74.2009 343.272L73.1769 342.152C73.6142 341.715 74.1262 341.373 74.7129 341.128C75.2995 340.883 75.9502 340.76 76.6649 340.76C77.4222 340.76 78.0835 340.893 78.6489 341.16C79.2249 341.416 79.6729 341.789 79.9929 342.28C80.3129 342.771 80.4729 343.357 80.4729 344.04V349ZM75.9929 349.256C75.3849 349.256 74.8462 349.144 74.3769 348.92C73.9075 348.696 73.5449 348.392 73.2889 348.008C73.0329 347.624 72.9049 347.176 72.9049 346.664C72.9049 346.109 73.0649 345.64 73.3849 345.256C73.7049 344.861 74.1475 344.563 74.7129 344.36C75.2889 344.147 75.9502 344.04 76.6969 344.04H78.9369V345.272H76.8569C76.2275 345.272 75.7155 345.384 75.3209 345.608C74.9369 345.832 74.7449 346.163 74.7449 346.6C74.7449 346.995 74.8942 347.309 75.1929 347.544C75.4915 347.768 75.8809 347.88 76.3609 347.88C76.8195 347.88 77.2409 347.784 77.6249 347.592C78.0089 347.4 78.3129 347.139 78.5369 346.808C78.7715 346.467 78.9049 346.077 78.9369 345.64L79.5129 345.912C79.5129 346.563 79.3635 347.144 79.0649 347.656C78.7662 348.157 78.3502 348.552 77.8169 348.84C77.2835 349.117 76.6755 349.256 75.9929 349.256ZM84.3034 352.104H82.5114V341.016H84.2874V343.48H83.9034C83.978 342.947 84.1647 342.477 84.4634 342.072C84.762 341.667 85.146 341.347 85.6154 341.112C86.0847 340.877 86.6074 340.76 87.1834 340.76C87.93 340.76 88.602 340.941 89.1994 341.304C89.8074 341.667 90.2874 342.168 90.6394 342.808C90.9914 343.448 91.1674 344.179 91.1674 345C91.1674 345.832 90.986 346.568 90.6234 347.208C90.2714 347.848 89.7914 348.349 89.1834 348.712C88.5754 349.075 87.8874 349.256 87.1194 349.256C86.4154 349.256 85.8074 349.112 85.2954 348.824C84.7834 348.525 84.394 348.125 84.1274 347.624C83.8714 347.112 83.7647 346.541 83.8074 345.912L84.1754 345.624C84.2287 346.04 84.3727 346.408 84.6074 346.728C84.842 347.048 85.146 347.299 85.5194 347.48C85.8927 347.661 86.298 347.752 86.7354 347.752C87.258 347.752 87.706 347.635 88.0794 347.4C88.4634 347.165 88.762 346.84 88.9754 346.424C89.1887 346.008 89.2954 345.533 89.2954 345C89.2954 344.477 89.194 344.008 88.9914 343.592C88.7887 343.176 88.5007 342.851 88.1274 342.616C87.7647 342.381 87.3327 342.264 86.8314 342.264C86.3407 342.264 85.9034 342.387 85.5194 342.632C85.146 342.867 84.8474 343.197 84.6234 343.624C84.41 344.051 84.3034 344.552 84.3034 345.128V352.104ZM99.8948 349H98.2468V347.416L98.1668 347.08V344.088C98.1668 343.491 97.9748 343.027 97.5908 342.696C97.2068 342.355 96.6841 342.184 96.0228 342.184C95.5428 342.184 95.0948 342.28 94.6788 342.472C94.2734 342.664 93.9214 342.931 93.6228 343.272L92.5988 342.152C93.0361 341.715 93.5481 341.373 94.1348 341.128C94.7214 340.883 95.3721 340.76 96.0868 340.76C96.8441 340.76 97.5054 340.893 98.0708 341.16C98.6468 341.416 99.0948 341.789 99.4148 342.28C99.7348 342.771 99.8948 343.357 99.8948 344.04V349ZM95.4148 349.256C94.8068 349.256 94.2681 349.144 93.7988 348.92C93.3294 348.696 92.9668 348.392 92.7108 348.008C92.4548 347.624 92.3268 347.176 92.3268 346.664C92.3268 346.109 92.4868 345.64 92.8068 345.256C93.1268 344.861 93.5694 344.563 94.1348 344.36C94.7108 344.147 95.3721 344.04 96.1188 344.04H98.3588V345.272H96.2788C95.6494 345.272 95.1374 345.384 94.7428 345.608C94.3588 345.832 94.1668 346.163 94.1668 346.6C94.1668 346.995 94.3161 347.309 94.6148 347.544C94.9134 347.768 95.3028 347.88 95.7828 347.88C96.2414 347.88 96.6628 347.784 97.0468 347.592C97.4308 347.4 97.7348 347.139 97.9588 346.808C98.1934 346.467 98.3268 346.077 98.3588 345.64L98.9348 345.912C98.9348 346.563 98.7854 347.144 98.4868 347.656C98.1881 348.157 97.7721 348.552 97.2388 348.84C96.7054 349.117 96.0974 349.256 95.4148 349.256ZM107.773 349V341.016H109.565V349H107.773ZM101.949 349V341.016H103.741V349H101.949ZM102.797 345.544V344.072H108.797V345.544H102.797ZM113.902 349V341.608H115.694V349H113.902ZM111.102 342.472V341.016H118.478V342.472H111.102ZM123.555 349.256C122.713 349.256 121.961 349.075 121.299 348.712C120.649 348.349 120.137 347.848 119.763 347.208C119.39 346.568 119.203 345.832 119.203 345C119.203 344.179 119.39 343.448 119.763 342.808C120.137 342.168 120.649 341.667 121.299 341.304C121.961 340.941 122.713 340.76 123.555 340.76C124.409 340.76 125.161 340.941 125.811 341.304C126.473 341.667 126.985 342.168 127.347 342.808C127.721 343.448 127.907 344.179 127.907 345C127.907 345.832 127.721 346.568 127.347 347.208C126.985 347.848 126.473 348.349 125.811 348.712C125.161 349.075 124.409 349.256 123.555 349.256ZM123.555 347.752C124.057 347.752 124.494 347.635 124.867 347.4C125.241 347.165 125.529 346.845 125.731 346.44C125.945 346.024 126.051 345.544 126.051 345C126.051 344.467 125.945 343.997 125.731 343.592C125.529 343.176 125.241 342.851 124.867 342.616C124.494 342.381 124.057 342.264 123.555 342.264C123.065 342.264 122.633 342.381 122.259 342.616C121.886 342.851 121.593 343.176 121.379 343.592C121.177 343.997 121.075 344.467 121.075 345C121.075 345.544 121.177 346.024 121.379 346.44C121.593 346.845 121.886 347.165 122.259 347.4C122.633 347.635 123.065 347.752 123.555 347.752ZM129.746 349V341.016H133.826C134.69 341.016 135.373 341.208 135.874 341.592C136.375 341.976 136.626 342.493 136.626 343.144C136.626 343.549 136.503 343.907 136.258 344.216C136.023 344.515 135.703 344.744 135.298 344.904L135.282 344.76C135.794 344.899 136.21 345.139 136.53 345.48C136.85 345.811 137.01 346.216 137.01 346.696C137.01 347.155 136.871 347.56 136.594 347.912C136.327 348.253 135.965 348.52 135.506 348.712C135.047 348.904 134.535 349 133.97 349H129.746ZM131.394 348.552L130.466 347.656H133.746C134.226 347.656 134.589 347.565 134.834 347.384C135.09 347.203 135.218 346.936 135.218 346.584C135.218 346.232 135.09 345.965 134.834 345.784C134.589 345.603 134.226 345.512 133.746 345.512H130.642V344.248H133.618C134.066 344.248 134.381 344.163 134.562 343.992C134.754 343.821 134.85 343.581 134.85 343.272C134.85 342.963 134.754 342.733 134.562 342.584C134.381 342.435 134.066 342.36 133.618 342.36H130.418L131.394 341.432V348.552ZM145.91 349H144.262V347.416L144.182 347.08V344.088C144.182 343.491 143.99 343.027 143.606 342.696C143.222 342.355 142.7 342.184 142.038 342.184C141.558 342.184 141.11 342.28 140.694 342.472C140.289 342.664 139.937 342.931 139.638 343.272L138.614 342.152C139.052 341.715 139.564 341.373 140.15 341.128C140.737 340.883 141.388 340.76 142.102 340.76C142.86 340.76 143.521 340.893 144.086 341.16C144.662 341.416 145.11 341.789 145.43 342.28C145.75 342.771 145.91 343.357 145.91 344.04V349ZM141.43 349.256C140.822 349.256 140.284 349.144 139.814 348.92C139.345 348.696 138.982 348.392 138.726 348.008C138.47 347.624 138.342 347.176 138.342 346.664C138.342 346.109 138.502 345.64 138.822 345.256C139.142 344.861 139.585 344.563 140.15 344.36C140.726 344.147 141.388 344.04 142.134 344.04H144.374V345.272H142.294C141.665 345.272 141.153 345.384 140.758 345.608C140.374 345.832 140.182 346.163 140.182 346.6C140.182 346.995 140.332 347.309 140.63 347.544C140.929 347.768 141.318 347.88 141.798 347.88C142.257 347.88 142.678 347.784 143.062 347.592C143.446 347.4 143.75 347.139 143.974 346.808C144.209 346.467 144.342 346.077 144.374 345.64L144.95 345.912C144.95 346.563 144.801 347.144 144.502 347.656C144.204 348.157 143.788 348.552 143.254 348.84C142.721 349.117 142.113 349.256 141.43 349.256ZM153.789 349V341.016H155.581V349H153.789ZM147.965 349V341.016H149.757V349H147.965ZM148.813 345.544V344.072H154.813V345.544H148.813ZM161.774 349.256C160.931 349.256 160.179 349.075 159.518 348.712C158.867 348.349 158.355 347.848 157.982 347.208C157.609 346.568 157.422 345.832 157.422 345C157.422 344.179 157.609 343.448 157.982 342.808C158.355 342.168 158.867 341.667 159.518 341.304C160.179 340.941 160.931 340.76 161.774 340.76C162.627 340.76 163.379 340.941 164.03 341.304C164.691 341.667 165.203 342.168 165.566 342.808C165.939 343.448 166.126 344.179 166.126 345C166.126 345.832 165.939 346.568 165.566 347.208C165.203 347.848 164.691 348.349 164.03 348.712C163.379 349.075 162.627 349.256 161.774 349.256ZM161.774 347.752C162.275 347.752 162.713 347.635 163.086 347.4C163.459 347.165 163.747 346.845 163.95 346.44C164.163 346.024 164.27 345.544 164.27 345C164.27 344.467 164.163 343.997 163.95 343.592C163.747 343.176 163.459 342.851 163.086 342.616C162.713 342.381 162.275 342.264 161.774 342.264C161.283 342.264 160.851 342.381 160.478 342.616C160.105 342.851 159.811 343.176 159.598 343.592C159.395 343.997 159.294 344.467 159.294 345C159.294 345.544 159.395 346.024 159.598 346.44C159.811 346.845 160.105 347.165 160.478 347.4C160.851 347.635 161.283 347.752 161.774 347.752ZM169.949 348.008C169.949 348.328 169.832 348.6 169.597 348.824C169.373 349.048 169.101 349.16 168.781 349.16C168.45 349.16 168.168 349.048 167.933 348.824C167.709 348.6 167.597 348.328 167.597 348.008C167.597 347.688 167.709 347.416 167.933 347.192C168.168 346.968 168.45 346.856 168.781 346.856C169.101 346.856 169.373 346.968 169.597 347.192C169.832 347.416 169.949 347.688 169.949 348.008ZM169.245 345.528H168.317C168.296 345.357 168.269 345.075 168.237 344.68C168.205 344.275 168.168 343.811 168.125 343.288C168.082 342.765 168.04 342.227 167.997 341.672C167.954 341.117 167.912 340.595 167.869 340.104C167.837 339.613 167.805 339.208 167.773 338.888C167.752 338.557 167.741 338.36 167.741 338.296C167.741 338.008 167.842 337.773 168.045 337.592C168.248 337.4 168.493 337.304 168.781 337.304C169.069 337.304 169.309 337.4 169.501 337.592C169.704 337.773 169.805 338.008 169.805 338.296C169.805 338.36 169.794 338.557 169.773 338.888C169.752 339.208 169.72 339.613 169.677 340.104C169.645 340.595 169.608 341.117 169.565 341.672C169.522 342.227 169.48 342.765 169.437 343.288C169.394 343.811 169.357 344.275 169.325 344.68C169.293 345.075 169.266 345.357 169.245 345.528Z" fill="#1A141F"/>
<path d="M13.584 677.664C13.584 698.696 18.8984 717.572 28.9971 731.016C38.9324 744.242 53.7842 752.638 74.2051 752.638H216.385L216.385 456.177C216.385 417.104 202.56 392.173 181.686 380.911L181.676 380.906L181.667 380.901L180.959 380.521C177.259 378.564 171.189 375.717 165.751 373.234C162.889 371.928 160.261 370.75 158.35 369.897C158.055 369.766 157.776 369.643 157.518 369.528V385.933C157.518 388.02 156.905 389.869 155.944 391.456L155.871 391.578L155.792 391.696C154.752 393.258 153.305 394.535 151.718 395.393C150.384 396.114 148.635 396.754 146.556 396.802C144.547 396.906 142.68 396.442 141.096 395.683V395.685L85.5508 369.592V385.933C85.5508 388.019 84.9383 389.869 83.9775 391.456L83.9043 391.578L83.8262 391.696C82.9429 393.023 81.6396 394.409 79.8203 395.393L79.708 395.453L79.5938 395.51C78.3775 396.107 76.679 396.753 74.5928 396.802C72.661 396.903 70.754 396.482 69.0898 395.633L13.584 369.59L13.584 677.664Z" stroke="white" stroke-width="13.1688"/>
<path d="M19.377 686.484C19.377 707.363 24.7826 726.105 35.0684 739.463C45.1961 752.615 60.3841 761.016 81.3096 761.016H226.392L226.392 466.201C226.392 427.425 212.341 402.635 191.008 391.407L190.998 391.402L190.989 391.397L190.267 391.02C186.488 389.07 180.293 386.235 174.75 383.767C171.831 382.467 169.153 381.294 167.203 380.446C166.811 380.276 166.448 380.12 166.119 379.978V396.338C166.119 398.457 165.481 400.325 164.496 401.912L164.42 402.034L164.34 402.152C163.275 403.712 161.806 404.97 160.214 405.81C158.871 406.518 157.128 407.138 155.064 407.184C153.158 407.282 151.374 406.878 149.831 406.193L149.513 406.047L92.748 380.034V396.338C92.748 398.457 92.1101 400.325 91.125 401.912L91.0498 402.034L90.9688 402.152C90.0627 403.48 88.7397 404.847 86.9141 405.81L86.8018 405.868L86.6885 405.923C85.461 406.511 83.7686 407.137 81.6992 407.184C79.7894 407.283 77.8966 406.881 76.2344 406.059L19.377 380.032L19.377 686.484Z" stroke="#E80000" stroke-width="13.1688"/>
</g>
<defs>
<clipPath id="clip0_22937_22261">
<rect width="236" height="444" fill="white"/>
</clipPath>
</defs>
</svg>
