<svg width="180" height="380" viewBox="0 0 180 380" fill="none" xmlns="http://www.w3.org/2000/svg">
<g clip-path="url(#clip0_22975_40532)">
<rect width="180" height="380" fill="white"/>
<rect width="180" height="380" fill="#E3F1FE"/>
<path d="M16.3581 33V21.56H19.1101V32.472L17.4781 30.696H23.8141L22.8221 32.472V21.56H25.5741V32.472L24.5821 30.696H30.9181L29.2861 32.472V21.56H32.0381V33H16.3581ZM34.3845 33V30.696H36.0005C36.3845 30.696 36.7152 30.632 36.9925 30.504C37.2698 30.376 37.5205 30.1627 37.7445 29.864C37.9792 29.5547 38.2138 29.1333 38.4485 28.6L41.6005 21.56H44.4005L40.0805 30.504C39.8032 31.0693 39.4778 31.5387 39.1045 31.912C38.7418 32.2747 38.3205 32.5467 37.8405 32.728C37.3605 32.9093 36.8112 33 36.1925 33H34.3845ZM37.8885 30.456L33.4725 21.56H36.2725L39.9045 29.224L37.8885 30.456ZM48.5945 33H45.8425V21.56H48.5945V33ZM57.0265 33H53.4425L48.1945 27.064H48.4505L53.0265 21.56H56.3545L51.4265 27.304V26.824L57.0265 33ZM66.827 30.92H59.691V28.632H66.827V30.92ZM69.259 33H66.299L62.875 23.576H63.579L60.139 33H57.275L61.739 21.56H64.795L69.259 33ZM70.9363 33V21.56H73.6883V31.864H71.8003L78.3603 21.56H81.2403V33H78.4883V22.552H80.4083L73.8163 33H70.9363ZM76.2643 20.264C75.4536 20.264 74.7709 20.0613 74.2163 19.656C73.6616 19.2507 73.3256 18.6107 73.2083 17.736H75.2403C75.2936 18.12 75.4109 18.392 75.5923 18.552C75.7736 18.712 75.9976 18.792 76.2643 18.792C76.5523 18.792 76.7816 18.712 76.9523 18.552C77.1336 18.392 77.2456 18.12 77.2883 17.736H79.3363C79.2296 18.6107 78.8936 19.2507 78.3283 19.656C77.7736 20.0613 77.0856 20.264 76.2643 20.264ZM89.1876 33H86.4356V23.72H89.1876V33ZM92.6276 23.88H82.9956V21.56H92.6276V23.88ZM102.741 33H94.3894V21.56H102.741V23.848H97.1414V30.712H102.741V33ZM102.437 28.392H96.9814V26.104H102.437V28.392ZM113.266 33H110.514V23.72H113.266V33ZM116.706 23.88H107.074V21.56H116.706V23.88ZM123.523 33.256C122.616 33.256 121.784 33.1067 121.027 32.808C120.27 32.5093 119.608 32.0933 119.043 31.56C118.488 31.0267 118.056 30.3973 117.747 29.672C117.448 28.936 117.299 28.136 117.299 27.272C117.299 26.408 117.448 25.6133 117.747 24.888C118.056 24.1627 118.488 23.5333 119.043 23C119.608 22.4667 120.27 22.0507 121.027 21.752C121.784 21.4533 122.616 21.304 123.523 21.304C124.43 21.304 125.262 21.4533 126.019 21.752C126.776 22.0507 127.432 22.4667 127.987 23C128.552 23.5333 128.984 24.1627 129.283 24.888C129.592 25.6133 129.747 26.408 129.747 27.272C129.747 28.136 129.592 28.936 129.283 29.672C128.984 30.3973 128.552 31.0267 127.987 31.56C127.432 32.0933 126.776 32.5093 126.019 32.808C125.262 33.1067 124.43 33.256 123.523 33.256ZM123.523 30.84C124.184 30.84 124.76 30.6907 125.251 30.392C125.752 30.0827 126.142 29.6613 126.419 29.128C126.707 28.584 126.851 27.9653 126.851 27.272C126.851 26.5787 126.707 25.9653 126.419 25.432C126.142 24.8987 125.752 24.4827 125.251 24.184C124.76 23.8747 124.184 23.72 123.523 23.72C122.872 23.72 122.296 23.8747 121.795 24.184C121.294 24.4827 120.899 24.8987 120.611 25.432C120.334 25.9653 120.195 26.5787 120.195 27.272C120.195 27.9653 120.334 28.584 120.611 29.128C120.899 29.6613 121.294 30.0827 121.795 30.392C122.296 30.6907 122.872 30.84 123.523 30.84ZM131.78 33V21.56H136.836C137.604 21.56 138.276 21.6827 138.852 21.928C139.428 22.1733 139.876 22.52 140.196 22.968C140.516 23.4053 140.676 23.9227 140.676 24.52C140.676 25.0853 140.516 25.5867 140.196 26.024C139.876 26.4613 139.428 26.8027 138.852 27.048C138.276 27.2933 137.604 27.416 136.836 27.416H134.692V26.568H136.836C137.7 26.568 138.452 26.696 139.092 26.952C139.743 27.1973 140.249 27.5493 140.612 28.008C140.975 28.4667 141.156 29.0107 141.156 29.64C141.156 30.312 140.975 30.904 140.612 31.416C140.249 31.9173 139.743 32.3067 139.092 32.584C138.452 32.8613 137.7 33 136.836 33H131.78ZM134.532 30.744H136.852C137.321 30.744 137.689 30.632 137.956 30.408C138.233 30.1733 138.372 29.8533 138.372 29.448C138.372 29.0747 138.233 28.7813 137.956 28.568C137.689 28.3547 137.321 28.248 136.852 28.248H134.372V26.056H136.644C137.039 26.056 137.343 25.9547 137.556 25.752C137.78 25.5387 137.892 25.2507 137.892 24.888C137.892 24.5467 137.78 24.2853 137.556 24.104C137.343 23.912 137.039 23.816 136.644 23.816H134.532V30.744ZM151.155 30.92H144.019V28.632H151.155V30.92ZM153.587 33H150.627L147.203 23.576H147.907L144.467 33H141.603L146.067 21.56H149.123L153.587 33ZM158.016 33H155.264V21.56H160.048C160.902 21.56 161.654 21.7147 162.304 22.024C162.955 22.3333 163.462 22.7653 163.824 23.32C164.187 23.864 164.368 24.504 164.368 25.24C164.368 25.9653 164.187 26.6053 163.824 27.16C163.462 27.7147 162.955 28.1467 162.304 28.456C161.654 28.7653 160.902 28.92 160.048 28.92H157.856V26.632H160.048C160.518 26.632 160.891 26.5093 161.168 26.264C161.446 26.008 161.584 25.6667 161.584 25.24C161.584 24.8133 161.446 24.4773 161.168 24.232C160.891 23.976 160.518 23.848 160.048 23.848H158.016V33ZM30.2376 54.256C29.2029 54.256 28.2589 54.0747 27.4056 53.712C26.5522 53.3387 25.8536 52.8107 25.3096 52.128L27.0216 50.384C27.4482 50.864 27.9442 51.232 28.5096 51.488C29.0856 51.7333 29.6936 51.856 30.3336 51.856C30.7922 51.856 31.1869 51.7973 31.5176 51.68C31.8482 51.5627 32.1042 51.4027 32.2856 51.2C32.4669 50.9867 32.5576 50.7413 32.5576 50.464C32.5576 50.0907 32.3816 49.808 32.0296 49.616C31.6776 49.4133 31.1656 49.312 30.4936 49.312H28.3656V47.024H30.5096C31.0536 47.024 31.4749 46.928 31.7736 46.736C32.0722 46.5333 32.2216 46.2667 32.2216 45.936C32.2216 45.5627 32.0402 45.264 31.6776 45.04C31.3256 44.816 30.8509 44.704 30.2536 44.704C29.6776 44.704 29.1549 44.8267 28.6856 45.072C28.2162 45.3067 27.7682 45.696 27.3416 46.24L25.5976 44.448C26.1949 43.7227 26.8936 43.184 27.6936 42.832C28.4936 42.4693 29.3789 42.288 30.3496 42.288C31.2456 42.288 32.0456 42.4267 32.7496 42.704C33.4536 42.9813 34.0029 43.3653 34.3976 43.856C34.8029 44.336 35.0056 44.8907 35.0056 45.52C35.0056 46.064 34.8509 46.544 34.5416 46.96C34.2322 47.376 33.8056 47.7013 33.2616 47.936C33.9016 48.1493 34.4082 48.496 34.7816 48.976C35.1549 49.4453 35.3416 50 35.3416 50.64C35.3416 51.344 35.1176 51.968 34.6696 52.512C34.2322 53.056 33.6296 53.4827 32.8616 53.792C32.0936 54.1013 31.2189 54.256 30.2376 54.256ZM40.2566 54V42.56H50.4006V54H47.6486V43.232L48.9606 44.864H41.5366L43.0086 43.232V54H40.2566ZM58.6557 54.256C57.749 54.256 56.917 54.1067 56.1597 53.808C55.4024 53.5093 54.741 53.0933 54.1757 52.56C53.621 52.0267 53.189 51.3973 52.8797 50.672C52.581 49.936 52.4317 49.136 52.4317 48.272C52.4317 47.408 52.581 46.6133 52.8797 45.888C53.189 45.1627 53.621 44.5333 54.1757 44C54.741 43.4667 55.4024 43.0507 56.1597 42.752C56.917 42.4533 57.749 42.304 58.6557 42.304C59.5624 42.304 60.3944 42.4533 61.1517 42.752C61.909 43.0507 62.565 43.4667 63.1197 44C63.685 44.5333 64.117 45.1627 64.4157 45.888C64.725 46.6133 64.8797 47.408 64.8797 48.272C64.8797 49.136 64.725 49.936 64.4157 50.672C64.117 51.3973 63.685 52.0267 63.1197 52.56C62.565 53.0933 61.909 53.5093 61.1517 53.808C60.3944 54.1067 59.5624 54.256 58.6557 54.256ZM58.6557 51.84C59.317 51.84 59.893 51.6907 60.3837 51.392C60.885 51.0827 61.2744 50.6613 61.5517 50.128C61.8397 49.584 61.9837 48.9653 61.9837 48.272C61.9837 47.5787 61.8397 46.9653 61.5517 46.432C61.2744 45.8987 60.885 45.4827 60.3837 45.184C59.893 44.8747 59.317 44.72 58.6557 44.72C58.005 44.72 57.429 44.8747 56.9277 45.184C56.4264 45.4827 56.0317 45.8987 55.7437 46.432C55.4664 46.9653 55.3277 47.5787 55.3277 48.272C55.3277 48.9653 55.4664 49.584 55.7437 50.128C56.0317 50.6613 56.4264 51.0827 56.9277 51.392C57.429 51.6907 58.005 51.84 58.6557 51.84ZM70.7688 54.256C69.7341 54.256 68.7901 54.0747 67.9368 53.712C67.0835 53.3387 66.3848 52.8107 65.8408 52.128L67.5528 50.384C67.9795 50.864 68.4755 51.232 69.0408 51.488C69.6168 51.7333 70.2248 51.856 70.8648 51.856C71.3235 51.856 71.7181 51.7973 72.0488 51.68C72.3795 51.5627 72.6355 51.4027 72.8168 51.2C72.9981 50.9867 73.0888 50.7413 73.0888 50.464C73.0888 50.0907 72.9128 49.808 72.5608 49.616C72.2088 49.4133 71.6968 49.312 71.0248 49.312H68.8968V47.024H71.0408C71.5848 47.024 72.0061 46.928 72.3048 46.736C72.6035 46.5333 72.7528 46.2667 72.7528 45.936C72.7528 45.5627 72.5715 45.264 72.2088 45.04C71.8568 44.816 71.3821 44.704 70.7848 44.704C70.2088 44.704 69.6861 44.8267 69.2168 45.072C68.7475 45.3067 68.2995 45.696 67.8728 46.24L66.1288 44.448C66.7261 43.7227 67.4248 43.184 68.2248 42.832C69.0248 42.4693 69.9101 42.288 70.8808 42.288C71.7768 42.288 72.5768 42.4267 73.2808 42.704C73.9848 42.9813 74.5341 43.3653 74.9288 43.856C75.3341 44.336 75.5368 44.8907 75.5368 45.52C75.5368 46.064 75.3821 46.544 75.0728 46.96C74.7635 47.376 74.3368 47.7013 73.7928 47.936C74.4328 48.1493 74.9395 48.496 75.3128 48.976C75.6861 49.4453 75.8728 50 75.8728 50.64C75.8728 51.344 75.6488 51.968 75.2008 52.512C74.7635 53.056 74.1608 53.4827 73.3928 53.792C72.6248 54.1013 71.7501 54.256 70.7688 54.256ZM85.0868 54V42.56H87.8388V54H85.0868ZM80.4148 54H77.6628V42.56H80.4148V54ZM80.2548 49.312V47.008H85.2468V49.312H80.2548ZM99.0692 51.92H91.9332V49.632H99.0692V51.92ZM101.501 54H98.5412L95.1172 44.576H95.8212L92.3812 54H89.5172L93.9812 42.56H97.0372L101.501 54ZM105.121 50.112C103.851 50.112 102.854 49.792 102.129 49.152C101.414 48.5013 101.057 47.6107 101.057 46.48V42.56H103.809V46.16C103.809 46.736 103.958 47.152 104.257 47.408C104.555 47.6533 105.035 47.776 105.697 47.776C106.123 47.776 106.539 47.7333 106.945 47.648C107.35 47.552 107.697 47.4293 107.985 47.28L108.609 48.896C108.225 49.2907 107.723 49.5947 107.105 49.808C106.497 50.0107 105.835 50.112 105.121 50.112ZM107.873 54V42.56H110.625V54H107.873ZM115.93 54H113.178V42.56H115.93V54ZM124.362 54H120.778L115.53 48.064H115.786L120.362 42.56H123.69L118.762 48.304V47.824L124.362 54ZM129.906 54.256C128.999 54.256 128.167 54.1067 127.41 53.808C126.652 53.5093 125.991 53.0933 125.426 52.56C124.871 52.0267 124.439 51.3973 124.13 50.672C123.831 49.936 123.682 49.136 123.682 48.272C123.682 47.408 123.831 46.6133 124.13 45.888C124.439 45.1627 124.871 44.5333 125.426 44C125.991 43.4667 126.652 43.0507 127.41 42.752C128.167 42.4533 128.999 42.304 129.906 42.304C130.812 42.304 131.644 42.4533 132.402 42.752C133.159 43.0507 133.815 43.4667 134.37 44C134.935 44.5333 135.367 45.1627 135.666 45.888C135.975 46.6133 136.13 47.408 136.13 48.272C136.13 49.136 135.975 49.936 135.666 50.672C135.367 51.3973 134.935 52.0267 134.37 52.56C133.815 53.0933 133.159 53.5093 132.402 53.808C131.644 54.1067 130.812 54.256 129.906 54.256ZM129.906 51.84C130.567 51.84 131.143 51.6907 131.634 51.392C132.135 51.0827 132.524 50.6613 132.802 50.128C133.09 49.584 133.234 48.9653 133.234 48.272C133.234 47.5787 133.09 46.9653 132.802 46.432C132.524 45.8987 132.135 45.4827 131.634 45.184C131.143 44.8747 130.567 44.72 129.906 44.72C129.255 44.72 128.679 44.8747 128.178 45.184C127.676 45.4827 127.282 45.8987 126.994 46.432C126.716 46.9653 126.578 47.5787 126.578 48.272C126.578 48.9653 126.716 49.584 126.994 50.128C127.282 50.6613 127.676 51.0827 128.178 51.392C128.679 51.6907 129.255 51.84 129.906 51.84ZM148.323 54.256C147.48 54.256 146.701 54.112 145.987 53.824C145.283 53.5253 144.669 53.1093 144.147 52.576C143.624 52.032 143.219 51.3973 142.931 50.672C142.643 49.936 142.499 49.136 142.499 48.272C142.499 47.408 142.643 46.6133 142.931 45.888C143.219 45.1627 143.624 44.5333 144.147 44C144.669 43.456 145.283 43.04 145.987 42.752C146.701 42.4533 147.48 42.304 148.323 42.304C149.165 42.304 149.939 42.4533 150.643 42.752C151.357 43.04 151.976 43.456 152.499 44C153.021 44.5333 153.427 45.1627 153.715 45.888C154.003 46.6133 154.147 47.408 154.147 48.272C154.147 49.136 154.003 49.936 153.715 50.672C153.427 51.3973 153.021 52.032 152.499 52.576C151.976 53.1093 151.357 53.5253 150.643 53.824C149.939 54.112 149.165 54.256 148.323 54.256ZM138.163 54V42.56H140.915V54H138.163ZM139.635 49.312V47.008H144.307V49.312H139.635ZM148.323 51.84C148.92 51.84 149.437 51.696 149.875 51.408C150.312 51.1093 150.648 50.6933 150.883 50.16C151.128 49.616 151.251 48.9867 151.251 48.272C151.251 47.5467 151.128 46.9227 150.883 46.4C150.648 45.8667 150.312 45.456 149.875 45.168C149.437 44.8693 148.92 44.72 148.323 44.72C147.736 44.72 147.219 44.8693 146.771 45.168C146.333 45.456 145.992 45.8667 145.747 46.4C145.512 46.9333 145.395 47.5573 145.395 48.272C145.395 48.9867 145.512 49.616 145.747 50.16C145.992 50.6933 146.333 51.1093 146.771 51.408C147.219 51.696 147.736 51.84 148.323 51.84Z" fill="#1A141F"/>
<path d="M133.259 136.674H122.516C106.129 136.674 96.1684 130.724 90.7002 121.32C89.397 119.071 86.0473 111.991 86.0473 111.991C85.9103 111.714 85.8439 111.404 85.8545 111.092C85.8651 110.78 85.9522 110.477 86.1076 110.21C86.263 109.944 86.4814 109.723 86.7418 109.57C87.0022 109.418 87.2959 109.337 87.5946 109.337H133.259C133.72 109.337 134.162 109.146 134.488 108.807C134.814 108.467 134.999 108.005 135 107.524C135 90.4482 119.877 82 102.102 82H46.7387C46.4399 81.9994 46.146 82.0794 45.8855 82.2323C45.6249 82.3851 45.4065 82.6056 45.2515 82.8725C45.0964 83.1394 45.0099 83.4438 45.0004 83.7558C44.9909 84.0679 45.0586 84.3771 45.1971 84.6538L56.1888 106.672C56.3258 106.949 56.3921 107.259 56.3816 107.57C56.371 107.882 56.2839 108.186 56.1285 108.453C55.9731 108.719 55.7547 108.94 55.4943 109.093C55.2339 109.245 54.9402 109.326 54.6415 109.326H46.7387C46.4399 109.325 46.146 109.405 45.8855 109.558C45.6249 109.711 45.4065 109.931 45.2515 110.198C45.0964 110.465 45.0099 110.769 45.0004 111.081C44.9909 111.393 45.0586 111.703 45.1971 111.98L56.1888 133.998C56.3258 134.275 56.3921 134.584 56.3816 134.896C56.371 135.208 56.2839 135.512 56.1285 135.778C55.9731 136.045 55.7547 136.265 55.4943 136.418C55.2339 136.571 54.9402 136.651 54.6415 136.651H46.7387C46.4397 136.652 46.1459 136.733 45.8855 136.886C45.6252 137.04 45.4071 137.261 45.2522 137.528C45.0973 137.795 45.0108 138.1 45.0011 138.412C44.9915 138.724 45.059 139.034 45.1971 139.311C45.1971 139.311 48.6188 146.6 50.2881 149.514C55.4623 158.548 66.626 164 82.9694 164H133.259C133.72 163.998 134.162 163.806 134.488 163.466C134.815 163.125 134.999 162.663 135 162.181V138.477C134.994 137.997 134.808 137.54 134.483 137.203C134.157 136.866 133.717 136.676 133.259 136.674ZM84.306 99.3943C84.3089 97.0195 85.2143 94.7432 86.8231 93.0656C88.4318 91.388 90.6124 90.4465 92.8853 90.448C95.1583 90.4465 97.3388 91.388 98.9476 93.0656C100.556 94.7432 101.462 97.0195 101.465 99.3943C101.461 99.5165 101.434 99.6368 101.384 99.7474C101.335 99.858 101.263 99.9566 101.175 100.037C101.087 100.118 100.984 100.178 100.873 100.215C100.761 100.252 100.644 100.265 100.527 100.252H85.2432C85.1276 100.26 85.0116 100.245 84.9017 100.207C84.7919 100.168 84.6905 100.107 84.6033 100.027C84.5162 99.9477 84.445 99.8507 84.3939 99.742C84.3429 99.6333 84.313 99.5151 84.306 99.3943Z" fill="#E40521"/>
<path d="M24.6506 205V193.56H26.4906V204.568L25.4986 203.416H33.1946L32.2666 204.568V193.56H34.1066V205H24.6506ZM33.6586 207.784V203.416H35.4026V207.784H33.6586ZM43.5822 202.584L44.6062 203.704C44.1902 204.184 43.6729 204.563 43.0542 204.84C42.4355 205.117 41.7475 205.256 40.9902 205.256C40.0942 205.256 39.2995 205.075 38.6062 204.712C37.9235 204.349 37.3849 203.848 36.9902 203.208C36.6062 202.568 36.4142 201.837 36.4142 201.016C36.4142 200.184 36.6009 199.448 36.9742 198.808C37.3475 198.168 37.8595 197.667 38.5102 197.304C39.1609 196.941 39.8915 196.76 40.7022 196.76C41.4915 196.76 42.1902 196.941 42.7982 197.304C43.4062 197.656 43.8862 198.147 44.2382 198.776C44.5902 199.395 44.7662 200.115 44.7662 200.936V201.032H42.9902V200.856C42.9902 200.323 42.8889 199.859 42.6862 199.464C42.4942 199.059 42.2275 198.749 41.8862 198.536C41.5449 198.312 41.1449 198.2 40.6862 198.2C40.2062 198.2 39.7795 198.317 39.4062 198.552C39.0435 198.776 38.7609 199.096 38.5582 199.512C38.3555 199.917 38.2542 200.408 38.2542 200.984C38.2542 201.56 38.3715 202.061 38.6062 202.488C38.8515 202.915 39.1822 203.245 39.5982 203.48C40.0249 203.704 40.5155 203.816 41.0702 203.816C42.0835 203.816 42.9209 203.405 43.5822 202.584ZM44.7662 201.576H37.6622V200.36H44.5102L44.7662 200.952V201.576ZM55.5779 205V197.016H57.3699V205H55.5779ZM49.7539 205V197.016H51.5459V205H49.7539ZM50.6019 201.544V200.072H56.6019V201.544H50.6019ZM66.7151 205H65.0671V203.416L64.9871 203.08V200.088C64.9871 199.491 64.7951 199.027 64.4111 198.696C64.0271 198.355 63.5044 198.184 62.8431 198.184C62.3631 198.184 61.9151 198.28 61.4991 198.472C61.0937 198.664 60.7417 198.931 60.4431 199.272L59.4191 198.152C59.8564 197.715 60.3684 197.373 60.9551 197.128C61.5417 196.883 62.1924 196.76 62.9071 196.76C63.6644 196.76 64.3257 196.893 64.8911 197.16C65.4671 197.416 65.9151 197.789 66.2351 198.28C66.5551 198.771 66.7151 199.357 66.7151 200.04V205ZM62.2351 205.256C61.6271 205.256 61.0884 205.144 60.6191 204.92C60.1497 204.696 59.7871 204.392 59.5311 204.008C59.2751 203.624 59.1471 203.176 59.1471 202.664C59.1471 202.109 59.3071 201.64 59.6271 201.256C59.9471 200.861 60.3897 200.563 60.9551 200.36C61.5311 200.147 62.1924 200.04 62.9391 200.04H65.1791V201.272H63.0991C62.4697 201.272 61.9577 201.384 61.5631 201.608C61.1791 201.832 60.9871 202.163 60.9871 202.6C60.9871 202.995 61.1364 203.309 61.4351 203.544C61.7337 203.768 62.1231 203.88 62.6031 203.88C63.0617 203.88 63.4831 203.784 63.8671 203.592C64.2511 203.4 64.5551 203.139 64.7791 202.808C65.0137 202.467 65.1471 202.077 65.1791 201.64L65.7551 201.912C65.7551 202.563 65.6057 203.144 65.3071 203.656C65.0084 204.157 64.5924 204.552 64.0591 204.84C63.5257 205.117 62.9177 205.256 62.2351 205.256ZM68.7696 205V197.016H70.5296V204.648L69.9216 203.544H74.2096L73.5856 204.648V197.016H75.3456V204.648L74.9296 203.544H79.2496L78.4016 204.648V197.016H80.1616V205H68.7696ZM89.5119 205H87.8639V203.416L87.7839 203.08V200.088C87.7839 199.491 87.5919 199.027 87.2079 198.696C86.8239 198.355 86.3013 198.184 85.6399 198.184C85.1599 198.184 84.7119 198.28 84.2959 198.472C83.8906 198.664 83.5386 198.931 83.2399 199.272L82.2159 198.152C82.6533 197.715 83.1653 197.373 83.7519 197.128C84.3386 196.883 84.9893 196.76 85.7039 196.76C86.4613 196.76 87.1226 196.893 87.6879 197.16C88.2639 197.416 88.7119 197.789 89.0319 198.28C89.3519 198.771 89.5119 199.357 89.5119 200.04V205ZM85.0319 205.256C84.4239 205.256 83.8853 205.144 83.4159 204.92C82.9466 204.696 82.5839 204.392 82.3279 204.008C82.0719 203.624 81.9439 203.176 81.9439 202.664C81.9439 202.109 82.1039 201.64 82.4239 201.256C82.7439 200.861 83.1866 200.563 83.7519 200.36C84.3279 200.147 84.9893 200.04 85.7359 200.04H87.9759V201.272H85.8959C85.2666 201.272 84.7546 201.384 84.3599 201.608C83.9759 201.832 83.7839 202.163 83.7839 202.6C83.7839 202.995 83.9333 203.309 84.2319 203.544C84.5306 203.768 84.9199 203.88 85.3999 203.88C85.8586 203.88 86.2799 203.784 86.6639 203.592C87.0479 203.4 87.3519 203.139 87.5759 202.808C87.8106 202.467 87.9439 202.077 87.9759 201.64L88.5519 201.912C88.5519 202.563 88.4026 203.144 88.1039 203.656C87.8053 204.157 87.3893 204.552 86.8559 204.84C86.3226 205.117 85.7146 205.256 85.0319 205.256ZM100.515 205V197.016H102.307V205H100.515ZM94.6914 205V197.016H96.4834V205H94.6914ZM95.5394 201.544V200.072H101.539V201.544H95.5394ZM111.653 205H110.005V203.416L109.925 203.08V200.088C109.925 199.491 109.733 199.027 109.349 198.696C108.965 198.355 108.442 198.184 107.781 198.184C107.301 198.184 106.853 198.28 106.437 198.472C106.031 198.664 105.679 198.931 105.381 199.272L104.357 198.152C104.794 197.715 105.306 197.373 105.893 197.128C106.479 196.883 107.13 196.76 107.845 196.76C108.602 196.76 109.263 196.893 109.829 197.16C110.405 197.416 110.853 197.789 111.173 198.28C111.493 198.771 111.653 199.357 111.653 200.04V205ZM107.173 205.256C106.565 205.256 106.026 205.144 105.557 204.92C105.087 204.696 104.725 204.392 104.469 204.008C104.213 203.624 104.085 203.176 104.085 202.664C104.085 202.109 104.245 201.64 104.565 201.256C104.885 200.861 105.327 200.563 105.893 200.36C106.469 200.147 107.13 200.04 107.877 200.04H110.117V201.272H108.037C107.407 201.272 106.895 201.384 106.501 201.608C106.117 201.832 105.925 202.163 105.925 202.6C105.925 202.995 106.074 203.309 106.373 203.544C106.671 203.768 107.061 203.88 107.541 203.88C107.999 203.88 108.421 203.784 108.805 203.592C109.189 203.4 109.493 203.139 109.717 202.808C109.951 202.467 110.085 202.077 110.117 201.64L110.693 201.912C110.693 202.563 110.543 203.144 110.245 203.656C109.946 204.157 109.53 204.552 108.997 204.84C108.463 205.117 107.855 205.256 107.173 205.256ZM113.707 205V197.016H115.435V202.696L115.307 202.648L119.723 197.016H121.291V205H119.563V199.32L119.675 199.368L115.275 205H113.707ZM117.579 195.624C116.822 195.624 116.192 195.432 115.691 195.048C115.19 194.664 114.891 194.099 114.795 193.352H116.235C116.299 193.789 116.448 194.104 116.683 194.296C116.918 194.488 117.216 194.584 117.579 194.584C117.942 194.584 118.24 194.488 118.475 194.296C118.71 194.104 118.854 193.789 118.907 193.352H120.363C120.267 194.099 119.968 194.664 119.467 195.048C118.966 195.432 118.336 195.624 117.579 195.624ZM127.357 201.192H122.941V199.656H127.357V201.192ZM134.828 205V197.016H136.62V205H134.828ZM129.004 205V197.016H130.796V205H129.004ZM129.852 201.544V200.072H135.852V201.544H129.852ZM145.965 205H144.317V203.416L144.237 203.08V200.088C144.237 199.491 144.045 199.027 143.661 198.696C143.277 198.355 142.754 198.184 142.093 198.184C141.613 198.184 141.165 198.28 140.749 198.472C140.344 198.664 139.992 198.931 139.693 199.272L138.669 198.152C139.106 197.715 139.618 197.373 140.205 197.128C140.792 196.883 141.442 196.76 142.157 196.76C142.914 196.76 143.576 196.893 144.141 197.16C144.717 197.416 145.165 197.789 145.485 198.28C145.805 198.771 145.965 199.357 145.965 200.04V205ZM141.485 205.256C140.877 205.256 140.338 205.144 139.869 204.92C139.4 204.696 139.037 204.392 138.781 204.008C138.525 203.624 138.397 203.176 138.397 202.664C138.397 202.109 138.557 201.64 138.877 201.256C139.197 200.861 139.64 200.563 140.205 200.36C140.781 200.147 141.442 200.04 142.189 200.04H144.429V201.272H142.349C141.72 201.272 141.208 201.384 140.813 201.608C140.429 201.832 140.237 202.163 140.237 202.6C140.237 202.995 140.386 203.309 140.685 203.544C140.984 203.768 141.373 203.88 141.853 203.88C142.312 203.88 142.733 203.784 143.117 203.592C143.501 203.4 143.805 203.139 144.029 202.808C144.264 202.467 144.397 202.077 144.429 201.64L145.005 201.912C145.005 202.563 144.856 203.144 144.557 203.656C144.258 204.157 143.842 204.552 143.309 204.84C142.776 205.117 142.168 205.256 141.485 205.256ZM148.02 205V197.016H149.748V202.696L149.62 202.648L154.036 197.016H155.604V205H153.876V199.32L153.988 199.368L149.588 205H148.02ZM151.892 195.624C151.134 195.624 150.505 195.432 150.004 195.048C149.502 194.664 149.204 194.099 149.108 193.352H150.548C150.612 193.789 150.761 194.104 150.996 194.296C151.23 194.488 151.529 194.584 151.892 194.584C152.254 194.584 152.553 194.488 152.788 194.296C153.022 194.104 153.166 193.789 153.22 193.352H154.676C154.58 194.099 154.281 194.664 153.78 195.048C153.278 195.432 152.649 195.624 151.892 195.624ZM34.1092 226V218.016H35.9012V226H34.1092ZM28.2852 226V218.016H30.0772V226H28.2852ZM29.1332 222.544V221.072H35.1332V222.544H29.1332ZM45.2463 226H43.5983V224.416L43.5183 224.08V221.088C43.5183 220.491 43.3263 220.027 42.9423 219.696C42.5583 219.355 42.0356 219.184 41.3743 219.184C40.8943 219.184 40.4463 219.28 40.0303 219.472C39.625 219.664 39.273 219.931 38.9743 220.272L37.9503 219.152C38.3876 218.715 38.8996 218.373 39.4863 218.128C40.073 217.883 40.7236 217.76 41.4383 217.76C42.1956 217.76 42.857 217.893 43.4223 218.16C43.9983 218.416 44.4463 218.789 44.7663 219.28C45.0863 219.771 45.2463 220.357 45.2463 221.04V226ZM40.7663 226.256C40.1583 226.256 39.6196 226.144 39.1503 225.92C38.681 225.696 38.3183 225.392 38.0623 225.008C37.8063 224.624 37.6783 224.176 37.6783 223.664C37.6783 223.109 37.8383 222.64 38.1583 222.256C38.4783 221.861 38.921 221.563 39.4863 221.36C40.0623 221.147 40.7236 221.04 41.4703 221.04H43.7103V222.272H41.6303C41.001 222.272 40.489 222.384 40.0943 222.608C39.7103 222.832 39.5183 223.163 39.5183 223.6C39.5183 223.995 39.6676 224.309 39.9663 224.544C40.265 224.768 40.6543 224.88 41.1343 224.88C41.593 224.88 42.0143 224.784 42.3983 224.592C42.7823 224.4 43.0863 224.139 43.3103 223.808C43.545 223.467 43.6783 223.077 43.7103 222.64L44.2863 222.912C44.2863 223.563 44.137 224.144 43.8383 224.656C43.5396 225.157 43.1236 225.552 42.5903 225.84C42.057 226.117 41.449 226.256 40.7663 226.256ZM47.3008 226V218.016H49.0288V223.696L48.9008 223.648L53.3168 218.016H54.8848V226H53.1568V220.32L53.2688 220.368L48.8688 226H47.3008ZM51.1728 216.624C50.4155 216.624 49.7861 216.432 49.2848 216.048C48.7835 215.664 48.4848 215.099 48.3888 214.352H49.8288C49.8928 214.789 50.0421 215.104 50.2768 215.296C50.5115 215.488 50.8101 215.584 51.1728 215.584C51.5355 215.584 51.8341 215.488 52.0688 215.296C52.3035 215.104 52.4475 214.789 52.5008 214.352H53.9568C53.8608 215.099 53.5621 215.664 53.0608 216.048C52.5595 216.432 51.9301 216.624 51.1728 216.624ZM61.0787 226.256C60.236 226.256 59.484 226.075 58.8227 225.712C58.172 225.349 57.66 224.848 57.2867 224.208C56.9134 223.568 56.7267 222.832 56.7267 222C56.7267 221.179 56.9134 220.448 57.2867 219.808C57.66 219.168 58.172 218.667 58.8227 218.304C59.484 217.941 60.236 217.76 61.0787 217.76C61.932 217.76 62.684 217.941 63.3347 218.304C63.996 218.667 64.508 219.168 64.8707 219.808C65.244 220.448 65.4307 221.179 65.4307 222C65.4307 222.832 65.244 223.568 64.8707 224.208C64.508 224.848 63.996 225.349 63.3347 225.712C62.684 226.075 61.932 226.256 61.0787 226.256ZM61.0787 224.752C61.58 224.752 62.0174 224.635 62.3907 224.4C62.764 224.165 63.052 223.845 63.2547 223.44C63.468 223.024 63.5747 222.544 63.5747 222C63.5747 221.467 63.468 220.997 63.2547 220.592C63.052 220.176 62.764 219.851 62.3907 219.616C62.0174 219.381 61.58 219.264 61.0787 219.264C60.588 219.264 60.156 219.381 59.7827 219.616C59.4094 219.851 59.116 220.176 58.9027 220.592C58.7 220.997 58.5987 221.467 58.5987 222C58.5987 222.544 58.7 223.024 58.9027 223.44C59.116 223.845 59.4094 224.165 59.7827 224.4C60.156 224.635 60.588 224.752 61.0787 224.752ZM73.3496 223.552L74.5016 224.672C74.1069 225.163 73.6216 225.552 73.0456 225.84C72.4696 226.117 71.8082 226.256 71.0616 226.256C70.2402 226.256 69.5042 226.075 68.8536 225.712C68.2136 225.339 67.7069 224.837 67.3336 224.208C66.9602 223.568 66.7736 222.832 66.7736 222C66.7736 221.179 66.9602 220.453 67.3336 219.824C67.7069 219.184 68.2189 218.683 68.8696 218.32C69.5309 217.947 70.2776 217.76 71.1096 217.76C71.8349 217.76 72.4802 217.899 73.0456 218.176C73.6216 218.453 74.1069 218.843 74.5016 219.344L73.3496 220.464C73.1149 220.101 72.8162 219.813 72.4536 219.6C72.1016 219.376 71.6749 219.264 71.1736 219.264C70.6829 219.264 70.2456 219.381 69.8616 219.616C69.4776 219.851 69.1789 220.176 68.9656 220.592C68.7522 220.997 68.6456 221.467 68.6456 222C68.6456 222.533 68.7522 223.008 68.9656 223.424C69.1789 223.84 69.4776 224.165 69.8616 224.4C70.2456 224.635 70.6829 224.752 71.1736 224.752C71.6749 224.752 72.1016 224.64 72.4536 224.416C72.8162 224.192 73.1149 223.904 73.3496 223.552ZM79.7506 226.256C78.9079 226.256 78.1559 226.075 77.4946 225.712C76.8439 225.349 76.3319 224.848 75.9586 224.208C75.5852 223.568 75.3986 222.832 75.3986 222C75.3986 221.179 75.5852 220.448 75.9586 219.808C76.3319 219.168 76.8439 218.667 77.4946 218.304C78.1559 217.941 78.9079 217.76 79.7506 217.76C80.6039 217.76 81.3559 217.941 82.0066 218.304C82.6679 218.667 83.1799 219.168 83.5426 219.808C83.9159 220.448 84.1026 221.179 84.1026 222C84.1026 222.832 83.9159 223.568 83.5426 224.208C83.1799 224.848 82.6679 225.349 82.0066 225.712C81.3559 226.075 80.6039 226.256 79.7506 226.256ZM79.7506 224.752C80.2519 224.752 80.6892 224.635 81.0626 224.4C81.4359 224.165 81.7239 223.845 81.9266 223.44C82.1399 223.024 82.2466 222.544 82.2466 222C82.2466 221.467 82.1399 220.997 81.9266 220.592C81.7239 220.176 81.4359 219.851 81.0626 219.616C80.6892 219.381 80.2519 219.264 79.7506 219.264C79.2599 219.264 78.8279 219.381 78.4546 219.616C78.0812 219.851 77.7879 220.176 77.5746 220.592C77.3719 220.997 77.2706 221.467 77.2706 222C77.2706 222.544 77.3719 223.024 77.5746 223.44C77.7879 223.845 78.0812 224.165 78.4546 224.4C78.8279 224.635 79.2599 224.752 79.7506 224.752ZM89.7014 226.256C88.3361 226.256 87.2854 225.771 86.5494 224.8C85.8134 223.829 85.4454 222.437 85.4454 220.624C85.4454 218.843 85.7548 217.504 86.3734 216.608C86.9921 215.712 87.9734 215.173 89.3174 214.992L92.8214 214.48L93.0454 215.968L89.5894 216.496C88.9921 216.592 88.5121 216.779 88.1494 217.056C87.7974 217.333 87.5414 217.749 87.3814 218.304C87.2214 218.848 87.1201 219.573 87.0774 220.48L86.8054 220.96C86.9121 220.416 87.1254 219.952 87.4454 219.568C87.7654 219.173 88.1654 218.875 88.6454 218.672C89.1254 218.459 89.6374 218.352 90.1814 218.352C90.9494 218.352 91.6001 218.517 92.1334 218.848C92.6774 219.168 93.0934 219.616 93.3814 220.192C93.6694 220.757 93.8134 221.408 93.8134 222.144C93.8134 222.965 93.6428 223.685 93.3014 224.304C92.9601 224.923 92.4801 225.403 91.8614 225.744C91.2534 226.085 90.5334 226.256 89.7014 226.256ZM89.6374 224.736C90.3628 224.736 90.9281 224.512 91.3334 224.064C91.7494 223.616 91.9574 223.003 91.9574 222.224C91.9574 221.467 91.7654 220.88 91.3814 220.464C90.9974 220.037 90.4534 219.824 89.7494 219.824C89.3334 219.824 88.9548 219.92 88.6134 220.112C88.2721 220.293 87.9788 220.549 87.7334 220.88C87.4988 221.211 87.3388 221.605 87.2534 222.064L87.3174 221.168C87.2961 222.384 87.4721 223.285 87.8454 223.872C88.2188 224.448 88.8161 224.736 89.6374 224.736ZM94.7962 226V224.512H95.3722C95.6602 224.512 95.8735 224.443 96.0122 224.304C96.1615 224.165 96.2469 223.925 96.2682 223.584L96.7802 218.016H102.86V226H101.068V218.304L102.348 219.472H97.1162L98.4762 218.304L97.9322 223.936C97.8575 224.704 97.6442 225.243 97.2922 225.552C96.9402 225.851 96.4015 226 95.6762 226H94.7962ZM105.176 226V218.016H106.904V223.696L106.776 223.648L111.192 218.016H112.76V226H111.032V220.32L111.144 220.368L106.744 226H105.176ZM115.098 226V218.016H119.178C120.042 218.016 120.724 218.208 121.226 218.592C121.727 218.976 121.978 219.493 121.978 220.144C121.978 220.549 121.855 220.907 121.61 221.216C121.375 221.515 121.055 221.744 120.65 221.904L120.634 221.76C121.146 221.899 121.562 222.139 121.882 222.48C122.202 222.811 122.362 223.216 122.362 223.696C122.362 224.155 122.223 224.56 121.946 224.912C121.679 225.253 121.316 225.52 120.858 225.712C120.399 225.904 119.887 226 119.322 226H115.098ZM116.746 225.552L115.818 224.656H119.098C119.578 224.656 119.94 224.565 120.186 224.384C120.442 224.203 120.57 223.936 120.57 223.584C120.57 223.232 120.442 222.965 120.186 222.784C119.94 222.603 119.578 222.512 119.098 222.512H115.994V221.248H118.97C119.418 221.248 119.732 221.163 119.914 220.992C120.106 220.821 120.202 220.581 120.202 220.272C120.202 219.963 120.106 219.733 119.914 219.584C119.732 219.435 119.418 219.36 118.97 219.36H115.77L116.746 218.432V225.552ZM125.78 226H123.988V218.016H125.78V226ZM124.884 216.368C124.575 216.368 124.308 216.261 124.084 216.048C123.86 215.835 123.748 215.579 123.748 215.28C123.748 214.96 123.86 214.693 124.084 214.48C124.308 214.267 124.575 214.16 124.884 214.16C125.204 214.16 125.471 214.267 125.684 214.48C125.908 214.693 126.02 214.955 126.02 215.264C126.02 215.573 125.908 215.835 125.684 216.048C125.471 216.261 125.204 216.368 124.884 216.368ZM128.129 226V218.016H129.889V225.648L129.281 224.544H133.569L132.945 225.648V218.016H134.705V225.648L134.289 224.544H138.609L137.761 225.648V218.016H139.521V226H128.129ZM148.871 226H147.223V224.416L147.143 224.08V221.088C147.143 220.491 146.951 220.027 146.567 219.696C146.183 219.355 145.661 219.184 144.999 219.184C144.519 219.184 144.071 219.28 143.655 219.472C143.25 219.664 142.898 219.931 142.599 220.272L141.575 219.152C142.013 218.715 142.525 218.373 143.111 218.128C143.698 217.883 144.349 217.76 145.063 217.76C145.821 217.76 146.482 217.893 147.047 218.16C147.623 218.416 148.071 218.789 148.391 219.28C148.711 219.771 148.871 220.357 148.871 221.04V226ZM144.391 226.256C143.783 226.256 143.245 226.144 142.775 225.92C142.306 225.696 141.943 225.392 141.687 225.008C141.431 224.624 141.303 224.176 141.303 223.664C141.303 223.109 141.463 222.64 141.783 222.256C142.103 221.861 142.546 221.563 143.111 221.36C143.687 221.147 144.349 221.04 145.095 221.04H147.335V222.272H145.255C144.626 222.272 144.114 222.384 143.719 222.608C143.335 222.832 143.143 223.163 143.143 223.6C143.143 223.995 143.293 224.309 143.591 224.544C143.89 224.768 144.279 224.88 144.759 224.88C145.218 224.88 145.639 224.784 146.023 224.592C146.407 224.4 146.711 224.139 146.935 223.808C147.17 223.467 147.303 223.077 147.335 222.64L147.911 222.912C147.911 223.563 147.762 224.144 147.463 224.656C147.165 225.157 146.749 225.552 146.215 225.84C145.682 226.117 145.074 226.256 144.391 226.256ZM36.5924 250.104H34.8004V239.016H36.5764V241.48H36.1924C36.2671 240.947 36.4538 240.477 36.7524 240.072C37.0511 239.667 37.4351 239.347 37.9044 239.112C38.3738 238.877 38.8964 238.76 39.4724 238.76C40.2191 238.76 40.8911 238.941 41.4884 239.304C42.0964 239.667 42.5764 240.168 42.9284 240.808C43.2804 241.448 43.4564 242.179 43.4564 243C43.4564 243.832 43.2751 244.568 42.9124 245.208C42.5604 245.848 42.0804 246.349 41.4724 246.712C40.8644 247.075 40.1764 247.256 39.4084 247.256C38.7044 247.256 38.0964 247.112 37.5844 246.824C37.0724 246.525 36.6831 246.125 36.4164 245.624C36.1604 245.112 36.0538 244.541 36.0964 243.912L36.4644 243.624C36.5178 244.04 36.6618 244.408 36.8964 244.728C37.1311 245.048 37.4351 245.299 37.8084 245.48C38.1818 245.661 38.5871 245.752 39.0244 245.752C39.5471 245.752 39.9951 245.635 40.3684 245.4C40.7524 245.165 41.0511 244.84 41.2644 244.424C41.4778 244.008 41.5844 243.533 41.5844 243C41.5844 242.477 41.4831 242.008 41.2804 241.592C41.0778 241.176 40.7898 240.851 40.4164 240.616C40.0538 240.381 39.6218 240.264 39.1204 240.264C38.6298 240.264 38.1924 240.387 37.8084 240.632C37.4351 240.867 37.1364 241.197 36.9124 241.624C36.6991 242.051 36.5924 242.552 36.5924 243.128V250.104ZM51.9728 244.584L52.9968 245.704C52.5808 246.184 52.0635 246.563 51.4448 246.84C50.8261 247.117 50.1381 247.256 49.3808 247.256C48.4848 247.256 47.6901 247.075 46.9968 246.712C46.3141 246.349 45.7755 245.848 45.3808 245.208C44.9968 244.568 44.8048 243.837 44.8048 243.016C44.8048 242.184 44.9915 241.448 45.3648 240.808C45.7381 240.168 46.2501 239.667 46.9008 239.304C47.5515 238.941 48.2821 238.76 49.0928 238.76C49.8821 238.76 50.5808 238.941 51.1888 239.304C51.7968 239.656 52.2768 240.147 52.6288 240.776C52.9808 241.395 53.1568 242.115 53.1568 242.936V243.032H51.3808V242.856C51.3808 242.323 51.2795 241.859 51.0768 241.464C50.8848 241.059 50.6181 240.749 50.2768 240.536C49.9355 240.312 49.5355 240.2 49.0768 240.2C48.5968 240.2 48.1701 240.317 47.7968 240.552C47.4341 240.776 47.1515 241.096 46.9488 241.512C46.7461 241.917 46.6448 242.408 46.6448 242.984C46.6448 243.56 46.7621 244.061 46.9968 244.488C47.2421 244.915 47.5728 245.245 47.9888 245.48C48.4155 245.704 48.9061 245.816 49.4608 245.816C50.4741 245.816 51.3115 245.405 51.9728 244.584ZM53.1568 243.576H46.0528V242.36H52.9008L53.1568 242.952V243.576ZM60.4436 247L56.3476 242.856H56.5236L60.2036 239.016H62.4116L58.2356 243.368L58.0276 242.248L62.7796 247H60.4436ZM55.0196 247V239.016H56.8116V247H55.0196ZM67.3599 247.256C66.5173 247.256 65.7653 247.075 65.1039 246.712C64.4533 246.349 63.9413 245.848 63.5679 245.208C63.1946 244.568 63.0079 243.832 63.0079 243C63.0079 242.179 63.1946 241.448 63.5679 240.808C63.9413 240.168 64.4533 239.667 65.1039 239.304C65.7653 238.941 66.5173 238.76 67.3599 238.76C68.2133 238.76 68.9653 238.941 69.6159 239.304C70.2773 239.667 70.7893 240.168 71.1519 240.808C71.5253 241.448 71.7119 242.179 71.7119 243C71.7119 243.832 71.5253 244.568 71.1519 245.208C70.7893 245.848 70.2773 246.349 69.6159 246.712C68.9653 247.075 68.2133 247.256 67.3599 247.256ZM67.3599 245.752C67.8613 245.752 68.2986 245.635 68.6719 245.4C69.0453 245.165 69.3333 244.845 69.5359 244.44C69.7493 244.024 69.8559 243.544 69.8559 243C69.8559 242.467 69.7493 241.997 69.5359 241.592C69.3333 241.176 69.0453 240.851 68.6719 240.616C68.2986 240.381 67.8613 240.264 67.3599 240.264C66.8693 240.264 66.4373 240.381 66.0639 240.616C65.6906 240.851 65.3973 241.176 65.1839 241.592C64.9813 241.997 64.8799 242.467 64.8799 243C64.8799 243.544 64.9813 244.024 65.1839 244.44C65.3973 244.845 65.6906 245.165 66.0639 245.4C66.4373 245.635 66.8693 245.752 67.3599 245.752ZM73.5508 247V239.016H75.4388L78.4308 244.648L78.1428 244.632L81.0868 239.016H83.0548V247H81.4068V239.608L82.1268 240.008L78.8628 246.2H77.6308L74.3668 240.008L75.1348 239.672V247H73.5508ZM92.0666 244.584L93.0906 245.704C92.6746 246.184 92.1572 246.563 91.5386 246.84C90.9199 247.117 90.2319 247.256 89.4746 247.256C88.5786 247.256 87.7839 247.075 87.0906 246.712C86.4079 246.349 85.8692 245.848 85.4746 245.208C85.0906 244.568 84.8986 243.837 84.8986 243.016C84.8986 242.184 85.0852 241.448 85.4586 240.808C85.8319 240.168 86.3439 239.667 86.9946 239.304C87.6452 238.941 88.3759 238.76 89.1866 238.76C89.9759 238.76 90.6746 238.941 91.2826 239.304C91.8906 239.656 92.3706 240.147 92.7226 240.776C93.0746 241.395 93.2506 242.115 93.2506 242.936V243.032H91.4746V242.856C91.4746 242.323 91.3732 241.859 91.1706 241.464C90.9786 241.059 90.7119 240.749 90.3706 240.536C90.0292 240.312 89.6292 240.2 89.1706 240.2C88.6906 240.2 88.2639 240.317 87.8906 240.552C87.5279 240.776 87.2452 241.096 87.0426 241.512C86.8399 241.917 86.7386 242.408 86.7386 242.984C86.7386 243.56 86.8559 244.061 87.0906 244.488C87.3359 244.915 87.6666 245.245 88.0826 245.48C88.5092 245.704 88.9999 245.816 89.5546 245.816C90.5679 245.816 91.4052 245.405 92.0666 244.584ZM93.2506 243.576H86.1466V242.36H92.9946L93.2506 242.952V243.576ZM100.937 247V239.016H102.729V247H100.937ZM95.1133 247V239.016H96.9053V247H95.1133ZM95.9613 243.544V242.072H101.961V243.544H95.9613ZM104.634 246.248V245.544H104.89C105.114 245.544 105.29 245.501 105.418 245.416C105.557 245.32 105.658 245.16 105.722 244.936C105.797 244.701 105.856 244.376 105.898 243.96L106.442 239.016H112.41V246.008H110.65V239.304L111.898 240.472H106.746L108.154 239.304L107.578 244.104C107.525 244.637 107.418 245.059 107.258 245.368C107.109 245.677 106.88 245.901 106.57 246.04C106.272 246.179 105.866 246.248 105.354 246.248H104.634ZM104.25 249.144V245.544H113.658V249.144H111.978V245.96L112.986 247H105.306L105.946 245.96V249.144H104.25ZM122.246 247H120.598V245.416L120.518 245.08V242.088C120.518 241.491 120.326 241.027 119.942 240.696C119.558 240.355 119.036 240.184 118.374 240.184C117.894 240.184 117.446 240.28 117.03 240.472C116.625 240.664 116.273 240.931 115.974 241.272L114.95 240.152C115.388 239.715 115.9 239.373 116.486 239.128C117.073 238.883 117.724 238.76 118.438 238.76C119.196 238.76 119.857 238.893 120.422 239.16C120.998 239.416 121.446 239.789 121.766 240.28C122.086 240.771 122.246 241.357 122.246 242.04V247ZM117.766 247.256C117.158 247.256 116.62 247.144 116.15 246.92C115.681 246.696 115.318 246.392 115.062 246.008C114.806 245.624 114.678 245.176 114.678 244.664C114.678 244.109 114.838 243.64 115.158 243.256C115.478 242.861 115.921 242.563 116.486 242.36C117.062 242.147 117.724 242.04 118.47 242.04H120.71V243.272H118.63C118.001 243.272 117.489 243.384 117.094 243.608C116.71 243.832 116.518 244.163 116.518 244.6C116.518 244.995 116.668 245.309 116.966 245.544C117.265 245.768 117.654 245.88 118.134 245.88C118.593 245.88 119.014 245.784 119.398 245.592C119.782 245.4 120.086 245.139 120.31 244.808C120.545 244.467 120.678 244.077 120.71 243.64L121.286 243.912C121.286 244.563 121.137 245.144 120.838 245.656C120.54 246.157 120.124 246.552 119.59 246.84C119.057 247.117 118.449 247.256 117.766 247.256ZM124.301 247V239.016H126.093V246.712L124.717 245.544H130.653L129.757 246.712V239.016H131.549V247H124.301ZM131.053 249.144V245.544H132.733V249.144H131.053ZM136.092 247H134.3V239.016H136.092V247ZM135.196 237.368C134.887 237.368 134.62 237.261 134.396 237.048C134.172 236.835 134.06 236.579 134.06 236.28C134.06 235.96 134.172 235.693 134.396 235.48C134.62 235.267 134.887 235.16 135.196 235.16C135.516 235.16 135.783 235.267 135.996 235.48C136.22 235.693 136.332 235.955 136.332 236.264C136.332 236.573 136.22 236.835 135.996 237.048C135.783 237.261 135.516 237.368 135.196 237.368ZM143.497 247V239.256L144.649 240.392H141.465C141.06 240.392 140.719 240.483 140.441 240.664C140.175 240.845 140.041 241.144 140.041 241.56C140.041 241.933 140.164 242.221 140.409 242.424C140.665 242.627 141.023 242.728 141.481 242.728H144.233V244.04H141.289C140.361 244.04 139.62 243.816 139.065 243.368C138.521 242.909 138.249 242.296 138.249 241.528C138.249 241.048 138.383 240.621 138.649 240.248C138.916 239.864 139.279 239.565 139.737 239.352C140.207 239.128 140.735 239.016 141.321 239.016H145.177V247H143.497ZM137.865 247L140.617 243.448H142.473L139.865 247H137.865Z" fill="#1A141F"/>
<path d="M72.2768 292V282.384H69.7968C69.1994 282.384 68.7301 282.533 68.3888 282.832C68.0474 283.131 67.8768 283.536 67.8768 284.048C67.8768 284.571 68.0474 284.981 68.3888 285.28C68.7301 285.579 69.1994 285.728 69.7968 285.728H72.4368V287.552H69.7968C68.9754 287.552 68.2554 287.408 67.6368 287.12C67.0288 286.821 66.5488 286.411 66.1968 285.888C65.8554 285.355 65.6848 284.741 65.6848 284.048C65.6848 283.355 65.8554 282.747 66.1968 282.224C66.5488 281.701 67.0288 281.296 67.6368 281.008C68.2554 280.709 68.9754 280.56 69.7968 280.56H74.4368V292H72.2768ZM64.8368 292L68.6608 286.672H71.0608L67.3968 292H64.8368ZM82.3725 292L78.5485 287.808H78.7245L82.1805 283.952H84.7085L80.5965 288.528L80.4845 287.12L85.0285 292H82.3725ZM76.9165 292V283.952H79.0285V292H76.9165ZM88.4348 292H86.3228V283.952H88.4348V292ZM87.3788 282.56C87.0268 282.56 86.7228 282.443 86.4668 282.208C86.2214 281.963 86.0988 281.669 86.0988 281.328C86.0988 280.965 86.2214 280.667 86.4668 280.432C86.7228 280.197 87.0268 280.08 87.3788 280.08C87.7414 280.08 88.0454 280.203 88.2908 280.448C88.5361 280.683 88.6588 280.976 88.6588 281.328C88.6588 281.669 88.5361 281.963 88.2908 282.208C88.0454 282.443 87.7414 282.56 87.3788 282.56ZM96.7633 289.344L98.0753 290.624C97.6593 291.147 97.1526 291.552 96.5553 291.84C95.9686 292.117 95.2966 292.256 94.5393 292.256C93.7073 292.256 92.9606 292.075 92.2993 291.712C91.6379 291.339 91.1153 290.832 90.7313 290.192C90.3579 289.541 90.1713 288.805 90.1713 287.984C90.1713 287.152 90.3633 286.416 90.7473 285.776C91.1313 285.125 91.6539 284.619 92.3153 284.256C92.9873 283.883 93.7446 283.696 94.5873 283.696C95.3233 283.696 95.9846 283.84 96.5713 284.128C97.1579 284.405 97.6593 284.8 98.0753 285.312L96.7633 286.608C96.5393 286.267 96.2513 285.989 95.8993 285.776C95.5579 285.563 95.1579 285.456 94.6993 285.456C94.2406 285.456 93.8353 285.563 93.4833 285.776C93.1313 285.989 92.8539 286.288 92.6513 286.672C92.4486 287.056 92.3473 287.493 92.3473 287.984C92.3473 288.464 92.4486 288.896 92.6513 289.28C92.8539 289.664 93.1313 289.963 93.4833 290.176C93.8353 290.389 94.2406 290.496 94.6993 290.496C95.1686 290.496 95.5739 290.389 95.9153 290.176C96.2566 289.963 96.5393 289.685 96.7633 289.344ZM101.697 292V284.672H103.809V292H101.697ZM98.9774 285.648V283.952H106.529V285.648H98.9774ZM107.979 292V283.952H110.011V291.728L108.539 290.304H111.803C112.219 290.304 112.534 290.208 112.747 290.016C112.971 289.824 113.083 289.552 113.083 289.2C113.083 288.848 112.971 288.581 112.747 288.4C112.534 288.208 112.219 288.112 111.803 288.112H109.131V286.4H111.995C112.987 286.4 113.776 286.656 114.363 287.168C114.95 287.68 115.243 288.336 115.243 289.136C115.243 289.723 115.104 290.229 114.827 290.656C114.56 291.083 114.182 291.413 113.691 291.648C113.211 291.883 112.646 292 111.995 292H107.979ZM37.6899 313V304.952H43.6099V306.648H38.1699L39.8019 305.368V313H37.6899ZM52.0946 313H50.1746V311.384L50.0786 311.128V308.104C50.0786 307.539 49.8972 307.101 49.5346 306.792C49.1719 306.483 48.6759 306.328 48.0466 306.328C47.5879 306.328 47.1559 306.419 46.7506 306.6C46.3559 306.771 46.0092 307.016 45.7106 307.336L44.6066 306.056C45.0332 305.629 45.5506 305.299 46.1586 305.064C46.7666 304.819 47.4279 304.696 48.1426 304.696C48.9212 304.696 49.6092 304.829 50.2066 305.096C50.8039 305.363 51.2679 305.747 51.5986 306.248C51.9292 306.739 52.0946 307.341 52.0946 308.056V313ZM47.4386 313.256C46.8199 313.256 46.2759 313.144 45.8066 312.92C45.3372 312.696 44.9692 312.387 44.7026 311.992C44.4466 311.597 44.3186 311.139 44.3186 310.616C44.3186 310.061 44.4786 309.592 44.7986 309.208C45.1186 308.813 45.5719 308.509 46.1586 308.296C46.7559 308.083 47.4439 307.976 48.2226 307.976H50.2866V309.352H48.3826C47.8066 309.352 47.3426 309.453 46.9906 309.656C46.6386 309.859 46.4626 310.152 46.4626 310.536C46.4626 310.888 46.5959 311.165 46.8626 311.368C47.1399 311.571 47.4972 311.672 47.9346 311.672C48.3506 311.672 48.7292 311.587 49.0706 311.416C49.4119 311.235 49.6892 310.989 49.9026 310.68C50.1159 310.371 50.2386 310.019 50.2706 309.624L50.8786 309.912C50.8786 310.573 50.7346 311.155 50.4466 311.656C50.1586 312.157 49.7532 312.552 49.2306 312.84C48.7186 313.117 48.1212 313.256 47.4386 313.256ZM56.1301 316.104H54.0181V304.952H56.1141V307.448H55.6661C55.7407 306.925 55.9167 306.456 56.1941 306.04C56.4821 305.624 56.8554 305.299 57.3141 305.064C57.7727 304.819 58.2954 304.696 58.8821 304.696C59.6181 304.696 60.2901 304.877 60.8981 305.24C61.5061 305.603 61.9861 306.104 62.3381 306.744C62.7007 307.384 62.8821 308.131 62.8821 308.984C62.8821 309.827 62.7007 310.568 62.3381 311.208C61.9754 311.848 61.4901 312.349 60.8821 312.712C60.2741 313.075 59.5914 313.256 58.8341 313.256C58.1407 313.256 57.5434 313.107 57.0421 312.808C56.5407 312.509 56.1621 312.109 55.9061 311.608C55.6501 311.096 55.5381 310.536 55.5701 309.928L56.0181 309.64C56.0714 310.003 56.2047 310.328 56.4181 310.616C56.6314 310.893 56.9034 311.112 57.2341 311.272C57.5754 311.421 57.9434 311.496 58.3381 311.496C58.8074 311.496 59.2181 311.389 59.5701 311.176C59.9221 310.963 60.1941 310.664 60.3861 310.28C60.5887 309.896 60.6901 309.464 60.6901 308.984C60.6901 308.483 60.5941 308.045 60.4021 307.672C60.2207 307.288 59.9594 306.989 59.6181 306.776C59.2874 306.563 58.8927 306.456 58.4341 306.456C57.9861 306.456 57.5861 306.563 57.2341 306.776C56.8927 306.989 56.6207 307.288 56.4181 307.672C56.2261 308.045 56.1301 308.499 56.1301 309.032V316.104ZM71.6727 313H69.7527V311.384L69.6567 311.128V308.104C69.6567 307.539 69.4754 307.101 69.1127 306.792C68.75 306.483 68.254 306.328 67.6247 306.328C67.166 306.328 66.734 306.419 66.3287 306.6C65.934 306.771 65.5874 307.016 65.2887 307.336L64.1847 306.056C64.6114 305.629 65.1287 305.299 65.7367 305.064C66.3447 304.819 67.006 304.696 67.7207 304.696C68.4994 304.696 69.1874 304.829 69.7847 305.096C70.382 305.363 70.846 305.747 71.1767 306.248C71.5074 306.739 71.6727 307.341 71.6727 308.056V313ZM67.0167 313.256C66.398 313.256 65.854 313.144 65.3847 312.92C64.9154 312.696 64.5474 312.387 64.2807 311.992C64.0247 311.597 63.8967 311.139 63.8967 310.616C63.8967 310.061 64.0567 309.592 64.3767 309.208C64.6967 308.813 65.15 308.509 65.7367 308.296C66.334 308.083 67.022 307.976 67.8007 307.976H69.8647V309.352H67.9607C67.3847 309.352 66.9207 309.453 66.5687 309.656C66.2167 309.859 66.0407 310.152 66.0407 310.536C66.0407 310.888 66.174 311.165 66.4407 311.368C66.718 311.571 67.0754 311.672 67.5127 311.672C67.9287 311.672 68.3074 311.587 68.6487 311.416C68.99 311.235 69.2674 310.989 69.4807 310.68C69.694 310.371 69.8167 310.019 69.8487 309.624L70.4567 309.912C70.4567 310.573 70.3127 311.155 70.0247 311.656C69.7367 312.157 69.3314 312.552 68.8087 312.84C68.2967 313.117 67.6994 313.256 67.0167 313.256ZM79.2922 313V304.952H81.4042V313H79.2922ZM73.5962 313V304.952H75.7082V313H73.5962ZM74.5882 309.624V307.928H80.5242V309.624H74.5882ZM85.5958 313V305.672H87.7078V313H85.5958ZM82.8758 306.648V304.952H90.4278V306.648H82.8758ZM95.5489 313.256C94.6743 313.256 93.9009 313.075 93.2289 312.712C92.5569 312.339 92.0343 311.832 91.6609 311.192C91.2876 310.541 91.1009 309.805 91.1009 308.984C91.1009 308.141 91.2876 307.4 91.6609 306.76C92.0343 306.12 92.5569 305.619 93.2289 305.256C93.9009 304.883 94.6743 304.696 95.5489 304.696C96.4236 304.696 97.1969 304.883 97.8689 305.256C98.5409 305.619 99.0636 306.12 99.4369 306.76C99.8103 307.4 99.9969 308.136 99.9969 308.968C99.9969 309.8 99.8103 310.541 99.4369 311.192C99.0636 311.832 98.5409 312.339 97.8689 312.712C97.1969 313.075 96.4236 313.256 95.5489 313.256ZM95.5489 311.496C95.9969 311.496 96.3916 311.389 96.7329 311.176C97.0743 310.963 97.3409 310.669 97.5329 310.296C97.7249 309.912 97.8209 309.475 97.8209 308.984C97.8209 308.483 97.7249 308.045 97.5329 307.672C97.3409 307.288 97.0743 306.989 96.7329 306.776C96.3916 306.563 95.9969 306.456 95.5489 306.456C95.1009 306.456 94.7063 306.563 94.3649 306.776C94.0236 306.989 93.7569 307.288 93.5649 307.672C93.3729 308.045 93.2769 308.483 93.2769 308.984C93.2769 309.475 93.3729 309.912 93.5649 310.296C93.7569 310.669 94.0236 310.963 94.3649 311.176C94.7063 311.389 95.1009 311.496 95.5489 311.496ZM101.737 313V304.952H105.881C106.777 304.952 107.481 305.149 107.993 305.544C108.515 305.928 108.777 306.451 108.777 307.112C108.777 307.528 108.654 307.885 108.409 308.184C108.174 308.483 107.849 308.712 107.433 308.872L107.417 308.728C107.929 308.867 108.345 309.112 108.665 309.464C108.995 309.805 109.161 310.221 109.161 310.712C109.161 311.16 109.022 311.56 108.745 311.912C108.478 312.264 108.11 312.536 107.641 312.728C107.171 312.909 106.638 313 106.041 313H101.737ZM103.641 312.456L102.601 311.48H105.721C106.179 311.48 106.521 311.4 106.745 311.24C106.979 311.08 107.097 310.84 107.097 310.52C107.097 310.2 106.979 309.96 106.745 309.8C106.521 309.64 106.179 309.56 105.721 309.56H102.777V308.184H105.545C105.971 308.184 106.27 308.109 106.441 307.96C106.622 307.811 106.713 307.592 106.713 307.304C106.713 307.016 106.622 306.808 106.441 306.68C106.27 306.541 105.971 306.472 105.545 306.472H102.521L103.641 305.448V312.456ZM118.235 313H116.315V311.384L116.219 311.128V308.104C116.219 307.539 116.038 307.101 115.675 306.792C115.313 306.483 114.817 306.328 114.187 306.328C113.729 306.328 113.297 306.419 112.891 306.6C112.497 306.771 112.15 307.016 111.851 307.336L110.747 306.056C111.174 305.629 111.691 305.299 112.299 305.064C112.907 304.819 113.569 304.696 114.283 304.696C115.062 304.696 115.75 304.829 116.347 305.096C116.945 305.363 117.409 305.747 117.739 306.248C118.07 306.739 118.235 307.341 118.235 308.056V313ZM113.579 313.256C112.961 313.256 112.417 313.144 111.947 312.92C111.478 312.696 111.11 312.387 110.843 311.992C110.587 311.597 110.459 311.139 110.459 310.616C110.459 310.061 110.619 309.592 110.939 309.208C111.259 308.813 111.713 308.509 112.299 308.296C112.897 308.083 113.585 307.976 114.363 307.976H116.427V309.352H114.523C113.947 309.352 113.483 309.453 113.131 309.656C112.779 309.859 112.603 310.152 112.603 310.536C112.603 310.888 112.737 311.165 113.003 311.368C113.281 311.571 113.638 311.672 114.075 311.672C114.491 311.672 114.87 311.587 115.211 311.416C115.553 311.235 115.83 310.989 116.043 310.68C116.257 310.371 116.379 310.019 116.411 309.624L117.019 309.912C117.019 310.573 116.875 311.155 116.587 311.656C116.299 312.157 115.894 312.552 115.371 312.84C114.859 313.117 114.262 313.256 113.579 313.256ZM125.855 313V304.952H127.967V313H125.855ZM120.159 313V304.952H122.271V313H120.159ZM121.151 309.624V307.928H127.087V309.624H121.151ZM134.158 313.256C133.284 313.256 132.51 313.075 131.838 312.712C131.166 312.339 130.644 311.832 130.27 311.192C129.897 310.541 129.71 309.805 129.71 308.984C129.71 308.141 129.897 307.4 130.27 306.76C130.644 306.12 131.166 305.619 131.838 305.256C132.51 304.883 133.284 304.696 134.158 304.696C135.033 304.696 135.806 304.883 136.478 305.256C137.15 305.619 137.673 306.12 138.046 306.76C138.42 307.4 138.606 308.136 138.606 308.968C138.606 309.8 138.42 310.541 138.046 311.192C137.673 311.832 137.15 312.339 136.478 312.712C135.806 313.075 135.033 313.256 134.158 313.256ZM134.158 311.496C134.606 311.496 135.001 311.389 135.342 311.176C135.684 310.963 135.95 310.669 136.142 310.296C136.334 309.912 136.43 309.475 136.43 308.984C136.43 308.483 136.334 308.045 136.142 307.672C135.95 307.288 135.684 306.989 135.342 306.776C135.001 306.563 134.606 306.456 134.158 306.456C133.71 306.456 133.316 306.563 132.974 306.776C132.633 306.989 132.366 307.288 132.174 307.672C131.982 308.045 131.886 308.483 131.886 308.984C131.886 309.475 131.982 309.912 132.174 310.296C132.366 310.669 132.633 310.963 132.974 311.176C133.316 311.389 133.71 311.496 134.158 311.496ZM142.65 311.88C142.65 312.232 142.522 312.536 142.266 312.792C142.01 313.037 141.701 313.16 141.338 313.16C140.965 313.16 140.65 313.037 140.394 312.792C140.138 312.536 140.01 312.232 140.01 311.88C140.01 311.517 140.138 311.213 140.394 310.968C140.65 310.712 140.965 310.584 141.338 310.584C141.701 310.584 142.01 310.712 142.266 310.968C142.522 311.213 142.65 311.517 142.65 311.88ZM141.85 309.416H140.81C140.8 309.256 140.768 308.984 140.714 308.6C140.672 308.216 140.624 307.773 140.57 307.272C140.528 306.771 140.48 306.259 140.426 305.736C140.373 305.203 140.325 304.701 140.282 304.232C140.24 303.752 140.202 303.352 140.17 303.032C140.149 302.712 140.138 302.515 140.138 302.44C140.138 302.109 140.25 301.837 140.474 301.624C140.709 301.411 140.997 301.304 141.338 301.304C141.669 301.304 141.946 301.411 142.17 301.624C142.405 301.837 142.522 302.109 142.522 302.44C142.522 302.515 142.506 302.712 142.474 303.032C142.453 303.352 142.421 303.752 142.378 304.232C142.336 304.701 142.288 305.203 142.234 305.736C142.181 306.259 142.128 306.771 142.074 307.272C142.032 307.773 141.989 308.216 141.946 308.6C141.904 308.984 141.872 309.256 141.85 309.416Z" fill="#1A141F"/>
<path d="M-4.41602 665.164C-4.41596 686.196 0.898417 705.072 10.9971 718.516C20.9324 731.742 35.7842 740.138 56.2051 740.138H198.385L198.385 443.677C198.385 404.604 184.56 379.673 163.686 368.411L163.676 368.406L163.667 368.401L162.959 368.021C159.259 366.064 153.189 363.217 147.751 360.734C144.889 359.428 142.261 358.25 140.35 357.397C140.055 357.266 139.776 357.143 139.518 357.028V373.433C139.518 375.52 138.905 377.369 137.944 378.956L137.871 379.078L137.792 379.196C136.752 380.758 135.305 382.035 133.718 382.893C132.384 383.614 130.635 384.254 128.556 384.302C126.547 384.406 124.68 383.942 123.096 383.183V383.185L67.5508 357.092V373.433C67.5508 375.519 66.9383 377.369 65.9775 378.956L65.9043 379.078L65.8262 379.196C64.9429 380.523 63.6396 381.909 61.8203 382.893L61.708 382.953L61.5938 383.01C60.3775 383.607 58.679 384.253 56.5928 384.302C54.661 384.403 52.754 383.982 51.0898 383.133L-4.41602 357.09L-4.41602 665.164Z" stroke="white" stroke-width="13.1688"/>
<path d="M1.37793 673.984C1.37793 694.863 6.78359 713.605 17.0693 726.963C27.197 740.115 42.3851 748.516 63.3105 748.516H208.393L208.393 453.701C208.393 414.925 194.342 390.135 173.009 378.907L172.999 378.902L172.99 378.897L172.268 378.52C168.489 376.57 162.294 373.735 156.751 371.267C153.832 369.967 151.154 368.794 149.204 367.946C148.812 367.776 148.449 367.62 148.12 367.478V383.838C148.12 385.957 147.482 387.825 146.497 389.412L146.421 389.534L146.341 389.652C145.276 391.212 143.807 392.47 142.215 393.31C140.872 394.018 139.129 394.638 137.065 394.684C135.159 394.782 133.374 394.378 131.832 393.693L131.514 393.547L74.749 367.534V383.838C74.749 385.957 74.1111 387.825 73.126 389.412L73.0508 389.534L72.9697 389.652C72.0636 390.98 70.7407 392.347 68.915 393.31L68.8027 393.368L68.6895 393.423C67.462 394.011 65.7696 394.637 63.7002 394.684C61.7904 394.783 59.8975 394.381 58.2354 393.559L1.37793 367.532L1.37793 673.984Z" stroke="#E40521" stroke-width="13.1688"/>
</g>
<defs>
<clipPath id="clip0_22975_40532">
<rect width="180" height="380" fill="white"/>
</clipPath>
</defs>
</svg>
