<svg width="50" height="36" viewBox="0 0 50 36" fill="none" xmlns="http://www.w3.org/2000/svg">
<path fill-rule="evenodd" clip-rule="evenodd" d="M20.0454 10.4946V8.30002L49.5741 0.633301L49.574 28.4129H45.5505V25.306H42.2285V21.6489H45.2175V18.6452H42.2285V15.5326H45.3435V12.4472H39.0056V28.413H35.5154C36.2239 28.2216 36.7571 27.8484 37.115 27.2934C37.6671 26.4403 37.9432 25.2637 37.9432 23.7634C37.9432 23.0192 37.8502 22.39 37.6641 21.8758C37.4781 21.3555 37.232 20.9018 36.9259 20.5146C36.6198 20.1214 36.2837 19.7493 35.9176 19.3984L34.0901 17.6288C33.7359 17.29 33.4989 16.9906 33.3789 16.7304C33.2588 16.4703 33.1988 16.2283 33.1988 16.0045C33.1988 15.7807 33.2558 15.5991 33.3698 15.46C33.4899 15.3148 33.6759 15.2422 33.928 15.2422C34.1381 15.2422 34.3032 15.3027 34.4232 15.4237C34.5492 15.5447 34.6122 15.7141 34.6122 15.9319V17.0299H37.8352C37.8352 15.4388 37.5291 14.2531 36.9169 13.4727C36.3107 12.6922 35.2814 12.302 33.829 12.302C32.6406 12.302 31.7313 12.6589 31.1012 13.3728C30.477 14.0867 30.1649 15.1243 30.1649 16.4855C30.1649 17.7862 30.696 18.9416 31.7583 19.9519L33.1808 21.3131C33.6009 21.7125 33.928 22.0634 34.1621 22.3659C34.4021 22.6623 34.5702 22.9769 34.6663 23.3096C34.7623 23.6363 34.8103 24.0447 34.8103 24.5347C34.8103 24.9219 34.7533 25.2002 34.6392 25.3695C34.5312 25.539 34.3332 25.6236 34.0451 25.6236C33.769 25.6236 33.5739 25.5208 33.4599 25.3151C33.3518 25.1034 33.2979 24.813 33.2979 24.4439V22.4475H30.1649V24.0083C30.1649 25.5934 30.483 26.7489 31.1192 27.4749C31.5223 27.9306 32.0839 28.2433 32.8039 28.413H29.0845V12.4472H26.0236V20.0971L24.5652 12.4472H21.3062V28.413H20.2529V25.306H16.9309V21.6489H19.9198V18.6452H16.9309V15.5326H20.0459V12.4472H13.7079V28.4187H10.1963C10.9155 28.2291 11.4558 27.854 11.8174 27.2934C12.3695 26.4403 12.6456 25.2637 12.6456 23.7634C12.6456 23.0192 12.5525 22.39 12.3665 21.8758C12.1805 21.3555 11.9344 20.9018 11.6283 20.5146C11.3222 20.1214 10.9861 19.7493 10.62 19.3984L8.79245 17.6288C8.43833 17.29 8.20126 16.9906 8.08118 16.7304C7.96118 16.4703 7.90116 16.2283 7.90116 16.0045C7.90116 15.7807 7.95817 15.5991 8.07222 15.46C8.19222 15.3148 8.37833 15.2422 8.63039 15.2422C8.84047 15.2422 9.00547 15.3027 9.12555 15.4237C9.25158 15.5447 9.3146 15.7141 9.3146 15.9319V17.0299H12.5375C12.5375 15.4388 12.2315 14.2531 11.6193 13.4727C11.0131 12.6922 9.9838 12.302 8.53134 12.302C7.34299 12.302 6.43372 12.6589 5.80353 13.3728C5.17934 14.0867 4.86725 15.1243 4.86725 16.4855C4.86725 17.7862 5.39841 18.9416 6.46073 19.9519L7.88316 21.3131C8.30325 21.7125 8.63039 22.0634 8.86444 22.3659C9.10452 22.6623 9.27261 22.9769 9.36864 23.3096C9.4646 23.6363 9.51261 24.0447 9.51261 24.5347C9.51261 24.9219 9.45563 25.2002 9.34158 25.3695C9.23357 25.539 9.03547 25.6236 8.74745 25.6236C8.47134 25.6236 8.27626 25.5208 8.16222 25.3151C8.0542 25.1034 8.00023 24.813 8.00023 24.4439V22.4475H4.86725V24.0083C4.86725 25.5934 5.18534 26.7489 5.82153 27.4749C6.22923 27.9358 6.799 28.2503 7.53084 28.4187H0.120117V4.12797L20.0454 10.4946ZM24.4032 20.4329L25.9865 28.413H24.4032V20.4329ZM4.86509 30.5175V34.4762H5.77222V33.1994H6.56872C6.82315 33.1994 7.04257 33.1362 7.22694 33.0098C7.415 32.8797 7.56066 32.7124 7.66391 32.508C7.77084 32.3035 7.82431 32.088 7.82431 31.8612C7.82431 31.694 7.79297 31.5304 7.73028 31.3706C7.6676 31.2108 7.5791 31.0677 7.46478 30.9413C7.35047 30.8112 7.21403 30.709 7.05547 30.6347C6.9006 30.5566 6.72913 30.5175 6.54107 30.5175H4.86509ZM6.51341 32.4021H5.77222V31.3204H6.48022C6.55028 31.3204 6.61665 31.339 6.67934 31.3762C6.74572 31.4134 6.79918 31.4728 6.83975 31.5546C6.884 31.6327 6.90613 31.733 6.90613 31.8557C6.90613 31.9747 6.88768 32.075 6.85081 32.1567C6.81394 32.2385 6.766 32.2999 6.707 32.3407C6.648 32.3816 6.58347 32.4021 6.51341 32.4021ZM8.83682 30.5175V34.4762H9.74388V33.1994H10.3579L11.1102 34.4762H12.1113L11.2484 33.0043C11.3812 32.9299 11.4955 32.8351 11.5913 32.7199C11.6872 32.6009 11.7609 32.469 11.8126 32.324C11.8642 32.1754 11.8901 32.0192 11.8901 31.8557C11.8901 31.6921 11.8568 31.5304 11.7905 31.3706C11.7278 31.2108 11.6393 31.0677 11.525 30.9413C11.4107 30.8112 11.2742 30.709 11.1157 30.6347C10.9608 30.5566 10.7912 30.5175 10.6068 30.5175H8.83682ZM10.5736 32.4021H9.74388V31.3204H10.5459C10.616 31.3204 10.6824 31.3427 10.7451 31.3873C10.8078 31.4319 10.8594 31.4951 10.8999 31.5769C10.9442 31.655 10.9663 31.7479 10.9663 31.8557C10.9663 31.9635 10.9479 32.0583 10.911 32.14C10.8741 32.2218 10.8262 32.2868 10.7672 32.3351C10.7119 32.3798 10.6474 32.4021 10.5736 32.4021ZM13.9482 34.3423C14.1878 34.4539 14.4552 34.5096 14.7502 34.5096C15.0341 34.5096 15.2941 34.4557 15.5301 34.3479C15.7698 34.2364 15.9781 34.0878 16.1552 33.9019C16.3321 33.7123 16.4686 33.4986 16.5644 33.2607C16.6603 33.0228 16.7082 32.7719 16.7082 32.508C16.7082 32.259 16.6621 32.0155 16.57 31.7776C16.4778 31.536 16.345 31.3186 16.1717 31.1253C16.0021 30.932 15.7975 30.7796 15.5578 30.6681C15.3217 30.5529 15.0581 30.4952 14.7667 30.4952C14.4829 30.4952 14.221 30.5491 13.9813 30.657C13.7417 30.7647 13.5333 30.9135 13.3563 31.103C13.183 31.2888 13.0466 31.5007 12.947 31.7386C12.8511 31.9765 12.8032 32.2274 12.8032 32.4913C12.8032 32.7478 12.8493 32.9968 12.9414 33.2384C13.0336 33.4763 13.1645 33.6919 13.3342 33.8851C13.5075 34.0747 13.7121 34.2271 13.9482 34.3423ZM13.7932 32.9485C13.749 32.8035 13.7269 32.6548 13.7269 32.5024C13.7269 32.3538 13.7472 32.2088 13.7878 32.0675C13.832 31.9226 13.8965 31.7943 13.9813 31.6828C14.0698 31.5676 14.1767 31.4766 14.3021 31.4096C14.4312 31.3427 14.5824 31.3093 14.7557 31.3093C14.9179 31.3093 15.0636 31.3409 15.1927 31.4041C15.3217 31.4672 15.4305 31.5565 15.519 31.6717C15.6075 31.7832 15.6739 31.9095 15.7182 32.0508C15.7624 32.1921 15.7845 32.3389 15.7845 32.4913C15.7845 32.6399 15.7624 32.7868 15.7182 32.9318C15.6776 33.073 15.6149 33.2012 15.5301 33.3165C15.4453 33.4317 15.3383 33.5246 15.2093 33.5952C15.0802 33.6622 14.929 33.6956 14.7557 33.6956C14.5898 33.6956 14.4423 33.6622 14.3132 33.5952C14.1841 33.5283 14.0754 33.4391 13.9869 33.3276C13.9021 33.2161 13.8375 33.0897 13.7932 32.9485ZM17.7579 30.5175V34.4762H19.2236C19.6182 34.4762 19.9612 34.3944 20.2525 34.2308C20.5475 34.0673 20.7761 33.8368 20.9383 33.5395C21.1006 33.2421 21.1817 32.8927 21.1817 32.4913C21.1817 32.1271 21.108 31.7962 20.9605 31.4988C20.813 31.1978 20.5936 30.9599 20.3023 30.7852C20.0147 30.6067 19.6551 30.5175 19.2236 30.5175H17.7579ZM20.1363 31.8835C20.2175 32.0583 20.258 32.2608 20.258 32.4913C20.258 32.7143 20.2175 32.9169 20.1363 33.099C20.0552 33.2775 19.9372 33.4187 19.7823 33.5227C19.6311 33.6231 19.4449 33.6733 19.2236 33.6733H18.665V31.3204H19.2236C19.4413 31.3204 19.6275 31.3706 19.7823 31.471C19.9372 31.5676 20.0552 31.7051 20.1363 31.8835ZM23.1278 34.3535C23.349 34.4576 23.6163 34.5096 23.9298 34.5096C24.2359 34.5096 24.4976 34.4595 24.7152 34.3591C24.9365 34.2587 25.1171 34.1193 25.2573 33.9409C25.3974 33.7588 25.5006 33.5487 25.5671 33.3109C25.6371 33.073 25.6721 32.8165 25.6721 32.5415V30.5175H24.765V32.5415C24.765 32.6864 24.7502 32.8277 24.7207 32.9652C24.6913 33.1027 24.6452 33.2272 24.5825 33.3387C24.5198 33.4466 24.435 33.5339 24.328 33.6008C24.2211 33.664 24.0883 33.6956 23.9298 33.6956C23.7749 33.6956 23.644 33.664 23.5371 33.6008C23.4338 33.5376 23.349 33.4521 23.2826 33.3443C23.2163 33.2366 23.1683 33.1139 23.1388 32.9763C23.1093 32.8351 23.0945 32.6902 23.0945 32.5415V30.5175H22.1875V32.5415C22.1875 32.8016 22.2188 33.0507 22.2814 33.2886C22.3479 33.5227 22.4493 33.7327 22.5857 33.9186C22.7258 34.1007 22.9065 34.2457 23.1278 34.3535ZM26.8064 31.7553C26.7179 31.9858 26.6736 32.2218 26.6736 32.4634C26.6736 32.7162 26.7198 32.9652 26.812 33.2105C26.9079 33.4521 27.0406 33.6715 27.2102 33.8684C27.3835 34.0617 27.5882 34.2179 27.8242 34.3367C28.0639 34.452 28.3256 34.5096 28.6096 34.5096C28.8271 34.5096 29.0466 34.4743 29.2679 34.4037C29.4928 34.3294 29.6937 34.2234 29.8707 34.0859C30.0477 33.9483 30.1749 33.783 30.2524 33.5897L29.5112 33.1492C29.4596 33.2793 29.384 33.3852 29.2844 33.467C29.1886 33.5451 29.0835 33.6027 28.9691 33.6399C28.8548 33.677 28.7424 33.6956 28.6317 33.6956C28.4768 33.6956 28.3349 33.664 28.2058 33.6008C28.0767 33.5339 27.9661 33.4447 27.874 33.3332C27.7855 33.2217 27.7172 33.0935 27.6693 32.9485C27.6213 32.8035 27.5974 32.653 27.5974 32.4969C27.5974 32.3556 27.6177 32.2143 27.6582 32.0731C27.6988 31.9319 27.7615 31.8036 27.8463 31.6884C27.9311 31.5732 28.038 31.4821 28.1671 31.4152C28.2962 31.3446 28.4474 31.3093 28.6206 31.3093C28.7276 31.3093 28.8382 31.326 28.9525 31.3595C29.0706 31.3892 29.1775 31.4431 29.2733 31.5211C29.3729 31.5992 29.4522 31.7088 29.5112 31.8501L30.2082 31.3595C30.0754 31.103 29.8726 30.8948 29.5997 30.735C29.3306 30.5751 29.0116 30.4952 28.6428 30.4952C28.333 30.4952 28.0565 30.5529 27.8131 30.6681C27.5698 30.7796 27.3632 30.9302 27.1936 31.1197C27.024 31.3093 26.8949 31.5211 26.8064 31.7553ZM33.0317 31.3204H34.2265V30.5175H30.9243V31.3204H32.1246V34.4762H33.0317V31.3204ZM35.1949 30.5175V34.4762H36.1021V30.5175H35.1949ZM38.2969 34.3423C38.5366 34.4539 38.804 34.5096 39.099 34.5096C39.3829 34.5096 39.6428 34.4557 39.8789 34.3479C40.1186 34.2364 40.3269 34.0878 40.5039 33.9019C40.6809 33.7123 40.8173 33.4986 40.9132 33.2607C41.009 33.0228 41.057 32.7719 41.057 32.508C41.057 32.259 41.0109 32.0155 40.9187 31.7776C40.8265 31.536 40.6938 31.3186 40.5205 31.1253C40.3509 30.932 40.1462 30.7796 39.9065 30.6681C39.6705 30.5529 39.4068 30.4952 39.1156 30.4952C38.8316 30.4952 38.5698 30.5491 38.3301 30.657C38.0904 30.7647 37.8821 30.9135 37.7051 31.103C37.5317 31.2888 37.3953 31.5007 37.2958 31.7386C37.1999 31.9765 37.152 32.2274 37.152 32.4913C37.152 32.7478 37.198 32.9968 37.2902 33.2384C37.3824 33.4763 37.5133 33.6919 37.6829 33.8851C37.8563 34.0747 38.0609 34.2271 38.2969 34.3423ZM38.1421 32.9485C38.0978 32.8035 38.0756 32.6548 38.0756 32.5024C38.0756 32.3538 38.0959 32.2088 38.1365 32.0675C38.1808 31.9226 38.2453 31.7943 38.3301 31.6828C38.4186 31.5676 38.5256 31.4766 38.6509 31.4096C38.78 31.3427 38.9312 31.3093 39.1044 31.3093C39.2667 31.3093 39.4124 31.3409 39.5414 31.4041C39.6705 31.4672 39.7793 31.5565 39.8678 31.6717C39.9563 31.7832 40.0227 31.9095 40.0669 32.0508C40.1112 32.1921 40.1332 32.3389 40.1332 32.4913C40.1332 32.6399 40.1112 32.7868 40.0669 32.9318C40.0263 33.073 39.9636 33.2012 39.8789 33.3165C39.794 33.4317 39.6871 33.5246 39.558 33.5952C39.429 33.6622 39.2778 33.6956 39.1044 33.6956C38.9386 33.6956 38.791 33.6622 38.662 33.5952C38.5329 33.5283 38.4241 33.4391 38.3356 33.3276C38.2508 33.2161 38.1863 33.0897 38.1421 32.9485ZM43.0138 34.4762V32.2125L44.8114 34.4762H45.5526V30.5175H44.6455V32.8481L42.8257 30.5175H42.1067V34.4762H43.0138Z" fill="#4E4F5F"/>
</svg>
