<svg width="37" height="32" viewBox="0 0 37 32" fill="none" xmlns="http://www.w3.org/2000/svg">
<path fill-rule="evenodd" clip-rule="evenodd" d="M36.5539 21.4032C36.6479 21.4342 36.7261 21.4809 36.7887 21.543C36.8513 21.6206 36.8983 21.6982 36.9296 21.7759C36.9765 21.869 36.9922 21.9622 36.9765 22.0553V31.3013C36.9765 31.3945 36.9609 31.4877 36.9296 31.5808C36.8983 31.674 36.8435 31.7516 36.7652 31.8137C36.7026 31.8758 36.6322 31.9224 36.5539 31.9534C36.46 31.9845 36.3661 32 36.2722 32H15.6123C8.89784 32 4.29632 29.8807 2.18337 26.3639C1.47906 25.2227 0.0704286 22.3814 0.0704286 22.3814C0.0234743 22.2727 0 22.1563 0 22.0321C0 21.9079 0.0313014 21.7914 0.0939072 21.6827C0.156513 21.574 0.242597 21.4886 0.352157 21.4265C0.461717 21.3644 0.579103 21.3334 0.704315 21.3334H3.96764C4.09285 21.3334 4.21806 21.3101 4.34327 21.2635C4.45284 21.2014 4.53892 21.116 4.60152 21.0073C4.66413 20.8986 4.69543 20.7821 4.69543 20.6579C4.69543 20.5337 4.66413 20.4173 4.60152 20.3086L0.0704286 11.6914C0.0234743 11.5827 0 11.4663 0 11.3421C0 11.2179 0.0313014 11.1014 0.0939072 10.9927C0.156513 10.884 0.242597 10.7987 0.352157 10.7366C0.461717 10.69 0.579103 10.6667 0.704315 10.6667H3.96764C4.09285 10.6667 4.21806 10.6356 4.34327 10.5735C4.45284 10.5114 4.53892 10.426 4.60152 10.3173C4.66413 10.2087 4.69543 10.0922 4.69543 9.968C4.69543 9.84378 4.66413 9.72733 4.60152 9.61865L0.0704286 1.04804C0.0234743 0.93935 0 0.822902 0 0.69869C0 0.574479 0.0313014 0.45803 0.0939072 0.349345C0.156513 0.24066 0.242597 0.155242 0.352157 0.093136C0.461717 0.0310302 0.579103 0 0.704315 0H23.4772C30.7786 0 37 3.30715 37 9.968C37 10.0612 36.9844 10.1543 36.9531 10.2475C36.9218 10.3251 36.867 10.3949 36.7887 10.457C36.7261 10.5347 36.6479 10.5891 36.5539 10.6201C36.4757 10.6512 36.3896 10.6667 36.2957 10.6667H17.514C17.3888 10.6667 17.2714 10.6977 17.1618 10.7598C17.0522 10.8219 16.9583 10.9073 16.8801 11.016C16.8175 11.1092 16.7862 11.2179 16.7862 11.3421C16.7862 11.4818 16.8175 11.606 16.8801 11.7147C16.8801 11.7147 18.2418 14.4629 18.7817 15.3479C21.0355 19.0044 25.1206 21.3334 31.8585 21.3334H36.2722C36.3661 21.3334 36.46 21.3566 36.5539 21.4032ZM16.1992 6.91702C16.2149 6.9636 16.2384 7.00242 16.2697 7.03347C16.3166 7.06453 16.3636 7.08783 16.4105 7.10335C16.4575 7.11888 16.5044 7.12667 16.5514 7.12667H22.8198C22.8668 7.12667 22.9137 7.11888 22.9607 7.10335C23.0076 7.08783 23.0467 7.06453 23.078 7.03347C23.125 7.00242 23.1563 6.9636 23.172 6.91702C23.1876 6.88597 23.1954 6.83943 23.1954 6.77732C23.1954 5.86902 22.8198 4.98399 22.1624 4.30859C21.5051 3.65648 20.6129 3.28387 19.6739 3.28387C18.7582 3.28387 17.8426 3.65648 17.1853 4.30859C16.5279 4.98399 16.1523 5.86902 16.1523 6.77732C16.1523 6.83943 16.1679 6.88597 16.1992 6.91702Z" fill="#E40521"/>
</svg>
