<svg width="158" height="24" viewBox="0 0 158 24" fill="none" xmlns="http://www.w3.org/2000/svg">
<g clip-path="url(#clip0_22698_338432)">
<path d="M98.5062 12.6942C98.5578 12.6569 98.5994 12.6065 98.6268 12.5478C98.6542 12.4892 98.6666 12.4243 98.6628 12.3592C98.6591 12.2942 98.6392 12.2313 98.6052 12.1765C98.5712 12.1217 98.5242 12.0768 98.4686 12.0462C95.1043 9.99365 85.8024 6.21418 74.917 5.95336C74.538 5.94364 74.4299 5.67641 74.6038 5.45448L76.3642 3.21403C76.5694 2.96941 76.4316 2.71993 76.051 2.71507C72.3123 2.67133 62.2993 2.85923 53.1133 5.09481C52.8001 5.16932 52.4868 5.01221 52.5166 4.79351L52.775 2.71665C52.8016 2.50119 52.4978 2.34245 52.1924 2.41211C49.2541 3.07792 36.046 6.48798 25.5897 12.618C25.3673 12.7492 25.3626 12.9695 25.5803 13.104C36.2872 19.7297 49.074 22.1597 52.0498 22.6619C52.1255 22.6748 52.2028 22.6748 52.2785 22.6619C53.1948 22.7753 54.0155 22.8352 54.4869 22.8628C54.5351 22.8688 54.584 22.8638 54.6301 22.8481C54.6762 22.8324 54.7184 22.8064 54.7537 22.7719C54.789 22.7374 54.8165 22.6953 54.8343 22.6486C54.8521 22.6018 54.8597 22.5516 54.8565 22.5015L54.6075 20.6612C54.6043 20.6049 54.6136 20.5486 54.6347 20.4966C54.6558 20.4447 54.6882 20.3984 54.7294 20.3615C54.7706 20.3245 54.8194 20.2978 54.8722 20.2835C54.9249 20.2691 54.9801 20.2676 55.0335 20.2789C62.5092 21.2816 70.4109 20.9609 77.7253 20.2059C81.4075 19.8171 92.8129 17.0778 98.5062 12.6942Z" fill="#C2E5FF"/>
<path d="M24.9272 16.3553H21.8933C17.2651 16.3553 14.4521 14.6916 12.9078 12.0624C12.5397 11.4338 11.5937 9.45427 11.5937 9.45427C11.555 9.37674 11.5363 9.29017 11.5393 9.20297C11.5422 9.11577 11.5669 9.03085 11.6107 8.95633C11.6546 8.88182 11.7163 8.82023 11.7899 8.77749C11.8634 8.73475 11.9463 8.71232 12.0307 8.71231H24.9272C25.0573 8.71231 25.1822 8.65896 25.2744 8.56392C25.3665 8.46887 25.4185 8.3399 25.419 8.20527C25.419 3.43119 21.1478 1.06921 16.128 1.06921H0.492169C0.407776 1.06904 0.324777 1.09142 0.251191 1.13416C0.177605 1.17689 0.11593 1.23854 0.0721395 1.31316C0.0283494 1.38778 0.00392107 1.47287 0.00122642 1.56011C-0.00146823 1.64736 0.0176715 1.73382 0.0567677 1.81118L3.16106 7.9671C3.19974 8.04464 3.21849 8.13113 3.21551 8.21833C3.21253 8.30552 3.18793 8.39053 3.14404 8.46504C3.10015 8.53956 3.03846 8.60115 2.96491 8.64389C2.89137 8.68662 2.80843 8.70906 2.72407 8.70907H0.492169C0.407776 8.70889 0.324777 8.73127 0.251191 8.77401C0.177605 8.81675 0.11593 8.87839 0.0721395 8.95301C0.0283494 9.02763 0.00392107 9.11264 0.00122642 9.19988C-0.00146823 9.28713 0.0176715 9.37367 0.0567677 9.45103L3.16106 15.607C3.19974 15.6845 3.21849 15.771 3.21551 15.8582C3.21253 15.9454 3.18793 16.0303 3.14404 16.1048C3.10015 16.1793 3.03846 16.2409 2.96491 16.2837C2.89137 16.3264 2.80843 16.3489 2.72407 16.3489H0.492169C0.407726 16.3491 0.324745 16.3716 0.25121 16.4146C0.177675 16.4575 0.116077 16.5193 0.0723307 16.594C0.0285843 16.6688 0.00416244 16.7539 0.00143673 16.8412C-0.00128897 16.9285 0.0177728 17.015 0.0567677 17.0925C0.0567677 17.0925 1.02313 19.1304 1.49457 19.9452C2.95588 22.4708 6.10874 23.9952 10.7245 23.9952H24.9272C25.0575 23.9947 25.1823 23.9411 25.2745 23.8458C25.3666 23.7504 25.4185 23.6213 25.419 23.4865V16.8592C25.4173 16.7253 25.3648 16.5973 25.2728 16.5031C25.1808 16.4088 25.0567 16.3557 24.9272 16.3553V16.3553ZM11.1019 5.9324C11.1028 5.26845 11.3584 4.63203 11.8128 4.163C12.2672 3.69397 12.883 3.43073 13.5249 3.43116C14.1668 3.43073 14.7827 3.69397 15.237 4.163C15.6914 4.63203 15.9471 5.26845 15.9479 5.9324C15.947 5.96656 15.9393 6.00018 15.9252 6.03112C15.9112 6.06205 15.8911 6.0896 15.8662 6.11211C15.8413 6.13463 15.8123 6.15162 15.7808 6.16195C15.7493 6.17228 15.7161 6.17574 15.6832 6.17215H11.3666C11.334 6.17457 11.3012 6.17027 11.2702 6.1595C11.2392 6.14873 11.2105 6.13172 11.1859 6.10942C11.1613 6.08713 11.1412 6.06 11.1268 6.02961C11.1124 5.99923 11.1039 5.96618 11.1019 5.9324V5.9324Z" fill="#E40521"/>
<path d="M107.162 13.5836C107.524 14.1502 107.715 14.8158 107.71 15.4952C107.71 16.8722 107.227 17.9424 106.26 18.706C105.293 19.4695 103.965 19.8518 102.277 19.8529C99.9902 19.8529 98.189 19.0704 96.8733 17.5055C96.8109 17.4316 96.778 17.3358 96.7815 17.2376C96.785 17.1395 96.8246 17.0464 96.8921 16.9775L98.1765 15.7058C98.2465 15.6371 98.3399 15.5998 98.4364 15.6019C98.5328 15.604 98.6246 15.6454 98.6917 15.7171C99.0757 16.1286 99.5209 16.4737 100.011 16.7393C100.67 17.0781 101.4 17.245 102.136 17.2253C102.98 17.2253 103.632 17.0509 104.092 16.702C104.311 16.5463 104.489 16.3366 104.609 16.0919C104.73 15.8472 104.79 15.5753 104.783 15.3008C104.789 15.0431 104.732 14.7881 104.619 14.5585C104.506 14.3289 104.339 14.1319 104.134 13.9853C103.702 13.6548 103.083 13.4896 102.277 13.4896H101.038C100.99 13.4898 100.942 13.4802 100.898 13.4614C100.853 13.4425 100.813 13.4147 100.779 13.3796C100.745 13.3446 100.718 13.3029 100.699 13.257C100.681 13.2111 100.671 13.1618 100.671 13.1121V11.4921C100.671 11.4424 100.681 11.3933 100.699 11.3474C100.718 11.3015 100.745 11.2598 100.779 11.2247C100.813 11.1896 100.853 11.1619 100.898 11.143C100.942 11.1241 100.99 11.1145 101.038 11.1148H102.189C102.827 11.1148 103.315 10.9722 103.654 10.6903C104.078 10.3339 104.236 9.81553 104.123 9.13028C104.117 9.08929 104.105 9.04948 104.087 9.01203C103.774 8.31868 103.103 7.97251 102.073 7.97359C101.404 7.95123 100.739 8.09157 100.131 8.38341C99.6919 8.61412 99.2895 8.91299 98.9377 9.26958C98.8699 9.33757 98.7791 9.37557 98.6847 9.37557C98.5903 9.37557 98.4996 9.33757 98.4318 9.26958L97.1459 7.99788C97.0764 7.92837 97.036 7.83353 97.0334 7.7336C97.0308 7.63368 97.0661 7.53664 97.1318 7.46332C97.6981 6.84198 98.3772 6.34213 99.1303 5.99236C100.1 5.54669 101.153 5.32554 102.214 5.34437C103.715 5.34437 104.897 5.68887 105.762 6.3779C106.626 7.06693 107.058 8.0335 107.057 9.27765C107.066 9.86305 106.935 10.4418 106.676 10.9625C106.415 11.4727 106.032 11.9057 105.564 12.2211C106.209 12.5132 106.762 12.9849 107.162 13.5836V13.5836Z" fill="#000E1F"/>
<path d="M110.216 3.36789C110.027 3.1945 109.876 2.98083 109.774 2.74149C109.671 2.50215 109.62 2.24278 109.624 1.98117C109.621 1.71756 109.673 1.45634 109.775 1.21477C109.877 0.973195 110.027 0.756793 110.216 0.579908C110.761 0.0453142 111.469 -0.116684 112.339 0.0939136C112.377 0.102916 112.415 0.117649 112.45 0.137656C113.25 0.593411 113.65 1.21065 113.651 1.98932C113.655 2.25077 113.604 2.50994 113.502 2.74924C113.4 2.98854 113.25 3.20236 113.061 3.37603C112.68 3.74769 112.174 3.95058 111.651 3.94137C111.119 3.95157 110.604 3.7457 110.216 3.36789V3.36789ZM110.53 5.64559H112.754C112.851 5.64559 112.944 5.68555 113.013 5.75664C113.081 5.82773 113.12 5.9241 113.12 6.02464V19.1627C113.12 19.2632 113.081 19.3597 113.013 19.4308C112.944 19.5019 112.851 19.5418 112.754 19.5418H110.53C110.432 19.5418 110.339 19.5019 110.27 19.4308C110.202 19.3597 110.163 19.2632 110.163 19.1627V6.02306C110.163 5.92336 110.202 5.82785 110.27 5.7572C110.338 5.68655 110.43 5.64644 110.526 5.64559H110.53Z" fill="#000E1F"/>
<path d="M128.147 6.02311V19.1612C128.147 19.2617 128.109 19.3581 128.04 19.4292C127.971 19.5002 127.878 19.5402 127.781 19.5402H125.557C125.46 19.5402 125.366 19.5002 125.298 19.4292C125.229 19.3581 125.19 19.2617 125.19 19.1612V8.21981H120.742L120.714 9.60653C120.658 12.003 120.474 13.9318 120.164 15.3931C119.854 16.8543 119.371 17.9392 118.714 18.6476C118.057 19.3561 117.175 19.7104 116.069 19.7104C115.805 19.7135 115.543 19.6857 115.285 19.6277C115.203 19.6092 115.129 19.5623 115.076 19.4945C115.023 19.4267 114.994 19.3423 114.994 19.2551V17.4732C114.994 17.4207 115.005 17.3687 115.026 17.3207C115.046 17.2728 115.076 17.2297 115.114 17.1944C115.152 17.1591 115.196 17.1323 115.244 17.1155C115.292 17.0988 115.343 17.0926 115.394 17.0973H115.55C116.375 17.0973 116.967 16.4606 117.325 15.1873C117.683 13.914 117.88 11.8907 117.915 9.11729L117.965 6.00856C117.967 5.90901 118.006 5.81399 118.074 5.7442C118.143 5.67442 118.236 5.63548 118.332 5.63591H127.77C127.82 5.63436 127.869 5.64331 127.915 5.66218C127.962 5.68104 128.004 5.70948 128.039 5.74571C128.074 5.78193 128.102 5.8252 128.121 5.8729C128.14 5.9206 128.149 5.97168 128.147 6.02311V6.02311Z" fill="#000E1F"/>
<path d="M142.979 6.02311V19.1612C142.979 19.2617 142.941 19.3581 142.872 19.4292C142.803 19.5002 142.71 19.5402 142.613 19.5402H140.389C140.292 19.5402 140.199 19.5002 140.13 19.4292C140.061 19.3581 140.022 19.2617 140.022 19.1612V8.21981H135.574L135.546 9.60653C135.49 12.003 135.306 13.9318 134.996 15.393C134.686 16.8543 134.203 17.9392 133.548 18.6476C132.89 19.3561 132.007 19.7104 130.901 19.7104C130.637 19.7134 130.375 19.6856 130.117 19.6277C130.035 19.6092 129.961 19.5623 129.908 19.4945C129.855 19.4267 129.826 19.3423 129.826 19.2551V17.4732C129.826 17.4207 129.837 17.3687 129.858 17.3207C129.878 17.2728 129.908 17.2297 129.946 17.1944C129.984 17.1591 130.028 17.1323 130.076 17.1155C130.124 17.0988 130.175 17.0926 130.226 17.0973H130.382C131.209 17.0973 131.801 16.4606 132.157 15.1873C132.513 13.914 132.71 11.8907 132.747 9.11729L132.797 6.00856C132.799 5.90928 132.839 5.81476 132.907 5.74515C132.976 5.67555 133.068 5.63631 133.164 5.63591H142.602C142.652 5.63436 142.701 5.64331 142.747 5.66218C142.794 5.68104 142.836 5.70948 142.871 5.74571C142.906 5.78193 142.934 5.8252 142.953 5.8729C142.972 5.9206 142.981 5.97168 142.979 6.02311V6.02311Z" fill="#000E1F"/>
<path d="M155.48 6.83306C156.511 7.83313 157.028 9.26678 157.029 11.1341V19.1611C157.029 19.2617 156.99 19.358 156.921 19.4291C156.853 19.5002 156.759 19.5402 156.662 19.5402H154.635C154.538 19.5402 154.445 19.5002 154.376 19.4291C154.308 19.358 154.269 19.2617 154.269 19.1611V17.9834C153.757 18.5922 153.113 19.0673 152.389 19.3701C151.584 19.7031 150.723 19.8682 149.855 19.8561C148.409 19.8561 147.245 19.4884 146.364 18.7529C145.938 18.4084 145.596 17.965 145.366 17.4584C145.136 16.9518 145.024 16.3963 145.041 15.8369C145.025 15.2757 145.142 14.7189 145.383 14.2156C145.623 13.7123 145.98 13.2776 146.42 12.9501C147.34 12.234 148.579 11.876 150.137 11.876H154.053V10.9688C154.053 10.0076 153.795 9.27223 153.279 8.76248C152.763 8.25273 152.036 7.99781 151.097 7.99781C150.381 7.98408 149.674 8.15972 149.042 8.50809C148.475 8.84202 147.963 9.26753 147.525 9.76848C147.491 9.80621 147.451 9.83665 147.406 9.85802C147.361 9.8794 147.313 9.89124 147.264 9.89291C147.214 9.89457 147.165 9.88599 147.119 9.86767C147.073 9.84936 147.031 9.82169 146.995 9.78628L145.78 8.54377C145.716 8.47895 145.677 8.39212 145.67 8.29966C145.663 8.2072 145.69 8.11544 145.744 8.04156C146.364 7.20517 147.164 6.53009 148.081 6.07005C149.11 5.57307 150.234 5.32171 151.37 5.33458C153.077 5.33458 154.447 5.83407 155.48 6.83306ZM153.002 16.6242C153.335 16.339 153.602 15.9796 153.782 15.5729C153.963 15.1662 154.052 14.7226 154.043 14.2752V14.0209H150.496C149.708 14.0209 149.102 14.1624 148.681 14.4454C148.475 14.5802 148.308 14.7692 148.196 14.993C148.085 15.2168 148.033 15.4673 148.046 15.7187C148.036 15.9864 148.093 16.2522 148.212 16.4904C148.33 16.7285 148.506 16.931 148.723 17.0778C149.173 17.4018 149.754 17.5638 150.468 17.5638C151.396 17.5882 152.299 17.2538 153.002 16.6259V16.6242Z" fill="#000E1F"/>
<path d="M54.8186 18.876C53.727 18.2499 52.814 17.3375 52.1716 16.2306C51.5277 15.1298 51.1915 13.8658 51.2005 12.5792C51.1879 11.2881 51.5243 10.0189 52.1716 8.91482C52.8151 7.8159 53.7284 6.91268 54.8186 6.29691C55.9425 5.65348 57.2084 5.32198 58.493 5.33465C59.7911 5.32073 61.0709 5.65208 62.2097 6.29691C63.3092 6.91182 64.2288 7.82101 64.8723 8.92937C65.516 10.0297 65.8522 11.2932 65.8434 12.5792C65.8524 13.8658 65.5162 15.1298 64.8723 16.2306C64.2267 17.3405 63.3079 18.2534 62.2097 18.876C61.0733 19.5282 59.7924 19.8632 58.493 19.848C57.2071 19.8615 55.9403 19.5264 54.8186 18.876ZM58.493 17.107C59.2621 17.1165 60.0195 16.9117 60.6857 16.5141C61.3347 16.126 61.87 15.5634 62.2347 14.886C62.6117 14.1908 62.8056 13.4054 62.797 12.6083C62.8065 11.7973 62.6128 10.9975 62.2347 10.2869C61.8726 9.60412 61.337 9.03669 60.6857 8.64588C60.0283 8.24901 59.2792 8.04359 58.518 8.05136C57.7487 8.04164 56.9911 8.24704 56.3253 8.64588C55.674 9.03669 55.1384 9.60412 54.7763 10.2869C54.3982 10.9975 54.2045 11.7973 54.214 12.6083C54.2028 13.4144 54.3967 14.2094 54.7763 14.9136C55.1345 15.589 55.6655 16.1495 56.3112 16.5336C56.9754 16.9225 57.7282 17.1205 58.4914 17.107H58.493Z" fill="#000E1F"/>
<path d="M70.5155 8.22138H66.5122C66.3942 8.22138 66.2811 8.17295 66.1977 8.08667C66.1143 8.00039 66.0674 7.88335 66.0674 7.76133V6.10734C66.0674 5.98517 66.1142 5.86798 66.1976 5.78145C66.2809 5.69491 66.3941 5.64606 66.5122 5.64563H77.4759C77.594 5.64606 77.7072 5.69491 77.7905 5.78145C77.8739 5.86798 77.9207 5.98517 77.9207 6.10734V7.76133C77.9207 7.88335 77.8739 8.00039 77.7904 8.08667C77.707 8.17295 77.5939 8.22138 77.4759 8.22138H73.4726V19.0752C73.4722 19.1976 73.425 19.3148 73.3414 19.4013C73.2578 19.4878 73.1445 19.5365 73.0262 19.537H70.9603C70.8422 19.5365 70.7291 19.4877 70.6457 19.4011C70.5623 19.3146 70.5155 19.1974 70.5155 19.0752V8.22138Z" fill="#000E1F"/>
<path d="M82.0168 18.876C80.9252 18.2499 80.0126 17.3368 79.3714 16.229C78.7262 15.1286 78.3895 13.8644 78.3988 12.5776C78.3859 11.2861 78.7228 10.0168 79.3714 8.91315C80.0139 7.81396 80.9268 6.91069 82.0168 6.29532C83.1408 5.65189 84.4067 5.32039 85.6912 5.33306C86.9894 5.31915 88.2692 5.65049 89.4079 6.29532C90.5078 6.90978 91.4275 7.81907 92.0705 8.92779C92.7143 10.0281 93.0504 11.2915 93.0416 12.5776C93.0507 13.8642 92.7145 15.1282 92.0705 16.229C91.4253 17.3393 90.5064 18.2523 89.4079 18.8744C88.2716 19.5266 86.9907 19.8616 85.6912 19.8464C84.4055 19.8604 83.1387 19.5258 82.0168 18.876ZM85.6912 17.107C86.4603 17.116 87.2175 16.9112 87.884 16.5141C88.5321 16.1254 89.0668 15.563 89.4314 14.886C89.8089 14.1909 90.0033 13.4055 89.9953 12.6083C90.0043 11.7972 89.81 10.9974 89.4314 10.2869C89.0695 9.60453 88.5345 9.03718 87.884 8.64587C87.2258 8.24925 86.4764 8.04385 85.7147 8.05135C84.9454 8.04188 84.1879 8.24726 83.522 8.64587C82.8711 9.03714 82.3355 9.60446 81.973 10.2869C81.5953 10.9977 81.4016 11.7973 81.4107 12.6083C81.4003 13.4144 81.5941 14.2091 81.973 14.9136C82.3318 15.5886 82.8626 16.1489 83.5079 16.5335C84.1731 16.9228 84.927 17.1208 85.6912 17.107V17.107Z" fill="#000E1F"/>
<path d="M46.0479 5.84971L41.487 12.8901L36.7882 5.8448C36.7471 5.78354 36.6924 5.73347 36.6286 5.69878C36.5648 5.6641 36.4938 5.64581 36.4217 5.64555H34.395C34.2769 5.64598 34.1638 5.69483 34.0804 5.78137C33.997 5.8679 33.9502 5.98509 33.9502 6.10726V19.0801C33.9502 19.2022 33.997 19.3194 34.0804 19.406C34.1638 19.4925 34.2769 19.5414 34.395 19.5418H36.4891C36.6072 19.5414 36.7203 19.4925 36.8037 19.406C36.8871 19.3194 36.9339 19.2022 36.9339 19.0801V10.7793L39.7375 15.2666C39.7778 15.3313 39.8333 15.3845 39.8987 15.4213C39.9641 15.4581 40.0373 15.4773 40.1118 15.4772H42.8512C42.9254 15.4772 42.9985 15.4581 43.0638 15.4216C43.1292 15.3851 43.1847 15.3324 43.2255 15.2682L46.0573 10.7517V19.0801C46.0573 19.2022 46.1041 19.3194 46.1874 19.406C46.2708 19.4925 46.384 19.5414 46.5021 19.5418H48.568C48.6861 19.5414 48.7992 19.4925 48.8826 19.406C48.966 19.3194 49.0128 19.2022 49.0128 19.0801V6.10726C49.0128 5.98509 48.966 5.8679 48.8826 5.78137C48.7992 5.69483 48.6861 5.64598 48.568 5.64555H46.4269C46.3523 5.64451 46.2787 5.66261 46.2125 5.69823C46.1464 5.73385 46.0898 5.78593 46.0479 5.84971V5.84971Z" fill="#000E1F"/>
</g>
<defs>
<clipPath id="clip0_22698_338432">
<rect width="157.029" height="24" fill="white"/>
</clipPath>
</defs>
</svg>
