<svg width="134" height="40" viewBox="0 0 134 40" fill="none" xmlns="http://www.w3.org/2000/svg">
<g clip-path="url(#clip0_22697_7576)">
<path d="M41.4449 25.7018H36.4004C28.7036 25.7018 24.0292 23.051 21.46 18.8787C20.8459 17.8794 19.277 14.7356 19.277 14.7356C19.2085 14.6131 19.1739 14.4748 19.1768 14.3349C19.1797 14.1949 19.2199 14.0582 19.2934 13.9386C19.3668 13.8189 19.471 13.7205 19.5952 13.6533C19.7195 13.5861 19.8595 13.5526 20.0011 13.5561H41.4556C41.5624 13.5579 41.6684 13.5386 41.7676 13.4994C41.8668 13.4602 41.957 13.4019 42.0332 13.3279C42.1093 13.2539 42.1698 13.1656 42.211 13.0683C42.2523 12.9709 42.2736 12.8664 42.2735 12.7609C42.2735 5.17438 35.1721 1.42355 26.8236 1.42355H0.818094C0.676888 1.42036 0.537319 1.45385 0.41342 1.52088C0.28952 1.58791 0.185655 1.68609 0.112268 1.80537C0.0388813 1.92466 -0.00144125 2.06083 -0.00464768 2.2004C-0.00785411 2.33997 0.0261717 2.47802 0.0940052 2.60047L5.26722 12.3658C5.33572 12.4884 5.37028 12.6266 5.36741 12.7666C5.36453 12.9065 5.32433 13.0433 5.25086 13.163C5.17739 13.2827 5.07327 13.381 4.94899 13.4481C4.82472 13.5153 4.68472 13.5489 4.54313 13.5455H0.818094C0.676505 13.542 0.536499 13.5755 0.412229 13.6427C0.287959 13.7098 0.183826 13.8083 0.110357 13.9279C0.0368887 14.0476 -0.00331055 14.1843 -0.00618223 14.3243C-0.00905391 14.4642 0.0255062 14.6025 0.0940052 14.725L5.26722 24.5222C5.33572 24.6447 5.37028 24.783 5.36741 24.9229C5.36453 25.0629 5.32433 25.1997 5.25086 25.3194C5.17739 25.4391 5.07327 25.5375 4.94899 25.6046C4.82472 25.6718 4.68472 25.7053 4.54313 25.7018H0.818094C0.676505 25.6984 0.536499 25.7319 0.412229 25.799C0.287959 25.8662 0.183826 25.9646 0.110357 26.0843C0.0368887 26.204 -0.00331055 26.3407 -0.00618223 26.4806C-0.00905391 26.6206 0.0255062 26.7588 0.0940052 26.8813C0.0940052 26.8813 1.70309 30.1207 2.4835 31.4169C4.91322 35.4275 10.1562 37.845 17.8315 37.845H41.4315C41.5382 37.8468 41.6443 37.8275 41.7435 37.7883C41.8426 37.7491 41.9329 37.6908 42.009 37.6168C42.0852 37.5428 42.1456 37.4545 42.1869 37.3572C42.2282 37.2598 42.2494 37.1553 42.2494 37.0498V26.5183C42.2523 26.4121 42.2336 26.3063 42.1944 26.2074C42.1553 26.1085 42.0965 26.0183 42.0215 25.9422C41.9465 25.8661 41.8568 25.8056 41.7578 25.7644C41.6587 25.7231 41.5523 25.7018 41.4449 25.7018ZM18.4591 9.13988C18.4591 8.08534 18.8829 7.07404 19.6373 6.32836C20.3917 5.58269 21.4149 5.16374 22.4818 5.16374C23.5487 5.16374 24.5719 5.58269 25.3263 6.32836C26.0807 7.07404 26.5045 8.08534 26.5045 9.13988C26.5029 9.19415 26.4901 9.24749 26.4667 9.29662C26.4433 9.34576 26.41 9.38959 26.3687 9.42541C26.3274 9.46123 26.2791 9.48821 26.2268 9.50475C26.1745 9.52129 26.1193 9.52706 26.0647 9.52157H18.8989C18.8445 9.52553 18.7899 9.51876 18.7383 9.50164C18.6866 9.48452 18.6389 9.45745 18.598 9.42191C18.5571 9.38638 18.5237 9.3431 18.4998 9.29468C18.476 9.24626 18.4621 9.19365 18.4591 9.13988Z" fill="#E40521"/>
<path d="M68.1557 33.0868C68.5761 33.7106 68.7975 34.4448 68.7913 35.1943C68.7913 36.714 68.2326 37.8945 67.1151 38.7356C65.9977 39.5768 64.4628 39.9983 62.5105 40.0001C59.8608 40.0001 57.7753 39.1324 56.2538 37.3971C56.184 37.3162 56.1485 37.2118 56.1545 37.1057C56.1605 36.9996 56.2076 36.8997 56.286 36.827L57.7717 35.4275C57.85 35.3512 57.9555 35.3085 58.0654 35.3085C58.1753 35.3085 58.2808 35.3512 58.359 35.4275C58.8047 35.8851 59.3217 36.269 59.8903 36.5647C60.6536 36.9355 61.4967 37.1175 62.3469 37.0948C63.3231 37.0948 64.0775 36.9022 64.6103 36.5169C64.8643 36.3462 65.071 36.1154 65.2115 35.8454C65.352 35.5755 65.4219 35.275 65.4149 34.9715C65.4214 34.6875 65.3565 34.4063 65.2259 34.1532C65.0953 33.9001 64.9031 33.6831 64.6667 33.5216C64.1678 33.1576 63.4527 32.9755 62.5212 32.9755H61.0891C60.9767 32.9755 60.869 32.9314 60.7895 32.8528C60.71 32.7743 60.6654 32.6678 60.6654 32.5567V30.7701C60.6654 30.7153 60.6764 30.6608 60.6977 30.6102C60.719 30.5595 60.7503 30.5136 60.7897 30.4749C60.829 30.4362 60.8758 30.4056 60.9272 30.3848C60.9786 30.3641 61.0336 30.3535 61.0891 30.3539H62.43C63.0318 30.3932 63.629 30.2276 64.1222 29.8847C64.6139 29.4924 64.7927 28.919 64.6586 28.1644C64.6505 28.1206 64.637 28.0778 64.6184 28.0372C64.2608 27.2702 63.484 26.8876 62.2879 26.8894C61.5141 26.8649 60.7453 27.0202 60.0432 27.3427C59.5398 27.594 59.0785 27.9203 58.6755 28.3102C58.5958 28.3869 58.489 28.4299 58.3778 28.4299C58.2666 28.4299 58.1598 28.3869 58.0801 28.3102L56.5917 26.9053C56.5123 26.8312 56.4651 26.7295 56.4601 26.6217C56.4551 26.5139 56.4927 26.4084 56.5649 26.3274C57.2226 25.6372 58.0119 25.0822 58.8873 24.6945C60.0085 24.2021 61.2248 23.9569 62.4515 23.9761C64.1875 23.9761 65.5543 24.3562 66.552 25.1161C67.5496 25.8759 68.0484 26.9424 68.0484 28.3155C68.0579 28.9603 67.9069 29.5975 67.6086 30.171C67.4029 30.552 67.1305 30.894 66.8041 31.181C66.7538 31.2241 66.7145 31.2783 66.6894 31.3393C66.6643 31.4002 66.6541 31.4661 66.6596 31.5317C66.6651 31.5973 66.6861 31.6606 66.721 31.7167C66.7559 31.7727 66.8036 31.8199 66.8604 31.8543C67.3793 32.1651 67.8217 32.5861 68.1557 33.0868Z" fill="#000E1F"/>
<path d="M71.6875 21.8212C71.4687 21.63 71.2943 21.3944 71.1762 21.1304C71.0582 20.8664 70.9993 20.5803 71.0036 20.2917C71.0005 20.0013 71.0599 19.7136 71.1778 19.4476C71.2957 19.1817 71.4694 18.9435 71.6875 18.749C72.3168 18.1587 73.1348 17.9767 74.1414 18.2029C74.186 18.2137 74.2293 18.2297 74.2701 18.2506C75.1962 18.7525 75.6593 19.4328 75.6593 20.2917C75.6636 20.5803 75.6047 20.8664 75.4867 21.1304C75.3687 21.3944 75.1942 21.63 74.9754 21.8212C74.5361 22.2316 73.9519 22.456 73.3475 22.4467C72.7328 22.4601 72.1371 22.2357 71.6875 21.8212ZM72.0469 24.3341H74.616C74.6716 24.3337 74.7266 24.3442 74.778 24.365C74.8294 24.3858 74.8761 24.4164 74.9155 24.4551C74.9549 24.4938 74.9861 24.5397 75.0075 24.5903C75.0288 24.641 75.0398 24.6954 75.0398 24.7503V39.2393C75.0398 39.2942 75.0288 39.3485 75.0075 39.3991C74.9861 39.4498 74.9549 39.4959 74.9155 39.5345C74.8761 39.5732 74.8294 39.6039 74.778 39.6246C74.7266 39.6454 74.6716 39.6559 74.616 39.6556H72.0442C71.9887 39.6559 71.9336 39.6454 71.8822 39.6246C71.8308 39.6039 71.7841 39.5732 71.7447 39.5345C71.7053 39.4959 71.6741 39.4498 71.6528 39.3991C71.6314 39.3485 71.6205 39.2942 71.6205 39.2393V24.7503C71.6205 24.6954 71.6314 24.641 71.6528 24.5903C71.6741 24.5397 71.7053 24.4938 71.7447 24.4551C71.7841 24.4164 71.8308 24.3858 71.8822 24.365C71.9336 24.3442 71.9887 24.3337 72.0442 24.3341H72.0469Z" fill="#000E1F"/>
<path d="M92.4261 24.75V39.239C92.4261 39.3494 92.3817 39.4553 92.3028 39.5333C92.2238 39.6114 92.1167 39.6553 92.005 39.6553H89.4332C89.3777 39.6556 89.3226 39.6451 89.2712 39.6243C89.2198 39.6036 89.1731 39.5729 89.1337 39.5342C89.0943 39.4956 89.0631 39.4495 89.0417 39.3989C89.0204 39.3482 89.0094 39.2939 89.0094 39.239V27.1727H83.8443L83.8094 28.7022C83.745 31.353 83.5341 33.4799 83.1765 35.0827C82.8189 36.6855 82.2602 37.8819 81.5004 38.6718C80.7387 39.4529 79.7188 39.8435 78.4404 39.8435C78.1385 39.8455 77.8373 39.8152 77.542 39.7532C77.4469 39.7328 77.3616 39.681 77.3002 39.6063C77.2388 39.5317 77.2049 39.4386 77.2041 39.3424V37.3782C77.205 37.3205 77.2179 37.2637 77.242 37.2111C77.266 37.1585 77.3007 37.1114 77.344 37.0726C77.3872 37.0338 77.4381 37.0042 77.4934 36.9856C77.5486 36.9671 77.6072 36.9599 77.6654 36.9646H77.8558C78.8069 36.9646 79.4899 36.2623 79.9047 34.8574C80.3195 33.4525 80.5474 31.2214 80.5885 28.1642L80.6475 24.7367C80.649 24.6272 80.6939 24.5228 80.7728 24.4459C80.8516 24.369 80.9578 24.3259 81.0686 24.3259H91.9809C92.0389 24.3226 92.0969 24.3312 92.1514 24.3511C92.2058 24.3711 92.2555 24.4019 92.2973 24.4417C92.3391 24.4816 92.3721 24.5295 92.3943 24.5825C92.4165 24.6356 92.4273 24.6926 92.4261 24.75Z" fill="#000E1F"/>
<path d="M109.557 24.7503V39.2393C109.557 39.294 109.547 39.3481 109.525 39.3986C109.504 39.4491 109.473 39.495 109.434 39.5336C109.395 39.5723 109.349 39.6029 109.298 39.6238C109.246 39.6448 109.192 39.6556 109.136 39.6556H106.565C106.509 39.6559 106.454 39.6454 106.403 39.6246C106.351 39.6039 106.304 39.5732 106.265 39.5345C106.226 39.4959 106.194 39.4498 106.173 39.3992C106.152 39.3485 106.141 39.2942 106.141 39.2393V27.173H101.008L100.976 28.7025C100.91 31.3533 100.698 33.4802 100.34 35.083C99.9825 36.6858 99.4238 37.8822 98.6639 38.6721C97.9041 39.4532 96.8841 39.8438 95.604 39.8438C95.3021 39.8458 95.0009 39.8155 94.7056 39.7535C94.6105 39.7331 94.5252 39.6813 94.4638 39.6066C94.4024 39.532 94.3685 39.4389 94.3677 39.3427V37.3785C94.3686 37.3205 94.3815 37.2634 94.4057 37.2106C94.43 37.1578 94.4649 37.1106 94.5085 37.0718C94.552 37.033 94.6032 37.0035 94.6588 36.9851C94.7144 36.9667 94.7732 36.9598 94.8316 36.9649H95.0194C95.9741 36.9649 96.6571 36.2626 97.0683 34.8577C97.4795 33.4527 97.7074 31.2217 97.7521 28.1645L97.8111 24.737C97.8125 24.6271 97.8579 24.5222 97.9373 24.4453C98.0167 24.3683 98.1236 24.3255 98.2348 24.3262H109.144C109.2 24.3272 109.254 24.339 109.305 24.3609C109.356 24.3827 109.402 24.4143 109.44 24.4537C109.478 24.4931 109.508 24.5395 109.529 24.5904C109.549 24.6412 109.559 24.6957 109.557 24.7503Z" fill="#000E1F"/>
<path d="M124.01 25.6437C125.2 26.7464 125.797 28.3282 125.798 30.3887V39.2395C125.798 39.2944 125.787 39.3487 125.766 39.3993C125.745 39.45 125.714 39.496 125.674 39.5347C125.635 39.5734 125.588 39.604 125.537 39.6248C125.485 39.6456 125.43 39.6561 125.375 39.6557H123.031C122.975 39.6557 122.921 39.6449 122.87 39.624C122.819 39.6031 122.772 39.5725 122.733 39.5338C122.694 39.4952 122.663 39.4493 122.642 39.3988C122.621 39.3483 122.61 39.2941 122.61 39.2395V37.9406C122.014 38.6117 121.267 39.1348 120.429 39.4675C119.497 39.8336 118.501 40.0138 117.498 39.9977C115.827 39.9977 114.486 39.5912 113.475 38.7783C112.982 38.3999 112.586 37.9116 112.32 37.3533C112.054 36.795 111.925 36.1824 111.944 35.5656C111.928 34.9456 112.066 34.3312 112.347 33.7766C112.628 33.2219 113.042 32.7438 113.553 32.3846C114.615 31.5947 116.046 31.1997 117.844 31.1997H122.368V30.2004C122.368 29.1401 122.07 28.329 121.473 27.767C120.875 27.2051 120.034 26.924 118.949 26.924C118.119 26.9048 117.298 27.0945 116.562 27.4754C115.907 27.8444 115.315 28.3141 114.808 28.8671C114.77 28.9086 114.724 28.9422 114.672 28.9657C114.621 28.9892 114.565 29.0022 114.508 29.0039C114.451 29.0056 114.395 28.996 114.342 28.9757C114.289 28.9554 114.24 28.9247 114.2 28.8856L112.792 27.5152C112.718 27.4433 112.674 27.3476 112.666 27.2457C112.659 27.1438 112.689 27.0427 112.751 26.9612C113.469 26.0388 114.396 25.296 115.457 24.7928C116.649 24.2422 117.95 23.9641 119.266 23.9791C121.234 23.9862 122.815 24.541 124.01 25.6437ZM121.145 36.443C121.53 36.128 121.838 35.7314 122.047 35.2826C122.255 34.8338 122.359 34.3442 122.35 33.8505V33.5722H118.249C117.337 33.5722 116.64 33.7259 116.149 34.0387C115.912 34.1873 115.719 34.3959 115.59 34.6428C115.461 34.8898 115.402 35.1663 115.417 35.4436C115.406 35.7386 115.471 36.0315 115.608 36.2939C115.745 36.5563 115.948 36.7793 116.198 36.9413C116.799 37.3174 117.503 37.5024 118.214 37.4714C119.286 37.4994 120.331 37.133 121.145 36.443Z" fill="#000E1F"/>
<path d="M80.2854 14.932C79.0249 14.2423 77.9705 13.2366 77.2281 12.0162C76.482 10.8034 76.0929 9.40904 76.1044 7.9897C76.089 6.56569 76.4783 5.16592 77.2281 3.94988C77.9715 2.7377 79.0263 1.74168 80.2854 1.06316C81.5852 0.353632 83.0486 -0.0116257 84.5334 0.00285732C86.0318 -0.0116461 87.509 0.353384 88.8243 1.06316C90.0945 1.74047 91.1569 2.74308 91.9003 3.9658C92.6441 5.17846 93.0322 6.57165 93.0213 7.9897C93.0326 9.40864 92.6444 10.8027 91.9003 12.0162C91.1538 13.2398 90.0924 14.2459 88.8243 14.932C87.5118 15.6505 86.0336 16.0212 84.5334 16.0083C83.0467 16.0212 81.5825 15.6502 80.2854 14.932ZM84.5334 12.981C85.4239 12.991 86.3009 12.765 87.0731 12.3263C87.8219 11.8982 88.4398 11.2782 88.8618 10.5317C89.2981 9.76504 89.5229 8.89845 89.5135 8.01883C89.5242 7.12475 89.2997 6.24329 88.8618 5.46087C88.4436 4.70756 87.8251 4.08151 87.0731 3.65037C86.312 3.21335 85.4457 2.98711 84.5656 2.99558C83.6757 2.98395 82.7991 3.21023 82.0286 3.65037C81.2752 4.0807 80.6556 4.70689 80.2371 5.46087C79.7993 6.24329 79.5747 7.12475 79.5854 8.01883C79.5737 8.90882 79.7984 9.7863 80.2371 10.5636C80.6537 11.3046 81.2665 11.9194 82.0098 12.3422C82.779 12.7721 83.6498 12.9925 84.5334 12.981Z" fill="#000E1F"/>
<path d="M97.9157 3.18076H93.8045C93.737 3.18111 93.6701 3.16825 93.6076 3.14297C93.5452 3.11768 93.4884 3.08039 93.4405 3.03334C93.3927 2.98629 93.3547 2.93043 93.3288 2.86883C93.3029 2.80723 93.2896 2.74113 93.2896 2.67442V0.850729C93.2892 0.783795 93.3023 0.717453 93.328 0.655546C93.3538 0.59364 93.3917 0.537333 93.4396 0.490003C93.4875 0.442673 93.5444 0.405309 93.607 0.379857C93.6696 0.354404 93.7368 0.341452 93.8045 0.341804H106.476C106.613 0.341804 106.744 0.395334 106.84 0.49078C106.937 0.586226 106.991 0.715748 106.991 0.850729V2.67442C106.991 2.74113 106.978 2.80723 106.952 2.86883C106.926 2.93043 106.888 2.98629 106.84 3.03334C106.792 3.08039 106.735 3.11768 106.673 3.14297C106.61 3.16825 106.544 3.18111 106.476 3.18076H102.362C102.226 3.18076 102.095 3.23442 101.998 3.32987C101.901 3.42531 101.847 3.5547 101.847 3.68969V15.1568C101.847 15.2913 101.792 15.4202 101.695 15.5151C101.599 15.61 101.468 15.6632 101.332 15.6632H98.9455C98.8094 15.6632 98.6788 15.61 98.5823 15.5151C98.4859 15.4202 98.4313 15.2913 98.4306 15.1568V3.68969C98.4306 3.62285 98.4173 3.55664 98.3914 3.49489C98.3655 3.43314 98.3276 3.37713 98.2798 3.32987C98.232 3.28261 98.1752 3.24504 98.1127 3.21946C98.0503 3.19388 97.9833 3.18076 97.9157 3.18076Z" fill="#000E1F"/>
<path d="M111.735 14.9321C110.475 14.2423 109.42 13.2366 108.678 12.0162C107.932 10.8034 107.543 9.40906 107.554 7.98972C107.539 6.5657 107.928 5.16593 108.678 3.9499C109.421 2.73772 110.476 1.7417 111.735 1.06318C113.035 0.353652 114.498 -0.0116055 115.983 0.00287747C117.482 -0.0119803 118.959 0.353072 120.274 1.06318C121.544 1.74049 122.607 2.7431 123.35 3.96582C124.094 5.17848 124.482 6.57166 124.471 7.98972C124.482 9.40866 124.094 10.8027 123.35 12.0162C122.603 13.2398 121.542 14.246 120.274 14.9321C118.962 15.6508 117.483 16.0216 115.983 16.0083C114.496 16.0212 113.032 15.6502 111.735 14.9321ZM115.983 12.981C116.874 12.991 117.751 12.765 118.523 12.3263C119.272 11.8982 119.89 11.2782 120.312 10.5318C120.748 9.76506 120.973 8.89846 120.963 8.01884C120.974 7.12477 120.749 6.24331 120.312 5.46088C119.893 4.70758 119.275 4.08153 118.523 3.65039C117.762 3.21337 116.895 2.98713 116.015 2.9956C115.125 2.98397 114.249 3.21025 113.478 3.65039C112.725 4.08072 112.105 4.70691 111.687 5.46088C111.249 6.24331 111.024 7.12477 111.035 8.01884C111.023 8.90883 111.248 9.78632 111.687 10.5636C112.103 11.3046 112.716 11.9195 113.46 12.3423C114.226 12.7703 115.092 12.9906 115.972 12.981H115.983Z" fill="#000E1F"/>
<path d="M70.148 0.56735L65.2966 7.71108C65.2493 7.77941 65.1859 7.8354 65.1118 7.87403C65.0378 7.91267 64.9553 7.93279 64.8715 7.93279C64.7878 7.93279 64.7053 7.91267 64.6312 7.87403C64.5571 7.8354 64.4937 7.77941 64.4465 7.71108L59.4342 0.554018C59.3868 0.486179 59.3235 0.430682 59.2497 0.392358C59.1759 0.354035 59.0938 0.33401 59.0104 0.333984H56.6692C56.6016 0.333984 56.5346 0.347237 56.4722 0.372814C56.4097 0.398391 56.3529 0.43583 56.3051 0.48309C56.2573 0.53035 56.2194 0.586496 56.1935 0.648245C56.1676 0.709993 56.1543 0.776074 56.1543 0.84291V15.157C56.155 15.2915 56.2096 15.4204 56.3061 15.5153C56.4025 15.6102 56.5331 15.6634 56.6692 15.6634H59.0828C59.2189 15.6634 59.3495 15.6102 59.446 15.5153C59.5425 15.4204 59.597 15.2915 59.5977 15.157V6.004L62.8374 10.9504C62.8844 11.022 62.9487 11.0809 63.0246 11.1216C63.1005 11.1623 63.1855 11.1836 63.2718 11.1836H66.439C66.525 11.1834 66.6095 11.162 66.6849 11.1212C66.7604 11.0805 66.8243 11.0218 66.8708 10.9504L70.1426 5.97216V15.157C70.1433 15.2915 70.1979 15.4204 70.2944 15.5153C70.3909 15.6102 70.5214 15.6634 70.6575 15.6634H73.0444C73.1805 15.6634 73.311 15.6102 73.4075 15.5153C73.504 15.4204 73.5585 15.2915 73.5593 15.157V0.84291C73.5593 0.707929 73.505 0.578536 73.4084 0.48309C73.3119 0.387644 73.1809 0.333984 73.0444 0.333984H70.569C70.4849 0.335902 70.4025 0.358164 70.3291 0.39883C70.2557 0.439495 70.1935 0.497423 70.148 0.56735Z" fill="#000E1F"/>
</g>
<defs>
<clipPath id="clip0_22697_7576">
<rect width="133.763" height="40" fill="white"/>
</clipPath>
</defs>
</svg>
