<svg width="24" height="24" viewBox="0 0 24 24" fill="none" xmlns="http://www.w3.org/2000/svg">
<path fill-rule="evenodd" clip-rule="evenodd" d="M3.9403 5H13.6488C13.8855 5 14.1312 5.04907 14.3662 5.14439C14.5881 5.23438 14.7851 5.36434 14.9625 5.54091L14.9799 5.55789C15.1419 5.71149 15.2691 5.89858 15.3596 6.11976C15.4375 6.31013 15.505 6.71465 15.505 6.99988L15.5045 11.9982C15.5045 12.5505 15.9519 12.9989 16.5038 12.9989H20.5012V16.9994C20.2337 16.9994 19.904 16.9992 19.5026 16.9989H19.3313C18.9197 15.8337 17.8092 14.9989 16.5038 14.9989C15.1985 14.9989 14.088 15.8337 13.6764 16.9989H11.6111C11.1996 15.8337 10.0891 14.9989 8.78371 14.9989C7.55505 14.9989 6.49902 15.7385 6.03598 16.7971L5.89753 16.7647C5.29359 16.5156 4.95662 16.1089 4.45748 15.2925L4.31945 15.0677C4.22466 14.907 4.08545 14.6459 3.94243 14.3696H4.26073C4.47501 14.3696 4.68782 14.3168 4.88126 14.209C5.09849 14.0926 5.27521 13.9171 5.39301 13.6992C5.4888 13.5288 5.54171 13.3433 5.55332 13.155C5.57756 12.9046 5.52296 12.6704 5.42364 12.4726L5.41487 12.4555L4.43775 10.5995L3.95385 9.68481H4.24787C4.47444 9.68481 4.69938 9.62578 4.90152 9.50502C4.9151 9.49691 4.92849 9.48848 4.94167 9.47973C5.08752 9.38293 5.24253 9.24381 5.36077 9.04762C5.45423 8.89254 5.51357 8.72564 5.54204 8.5556C5.55118 8.501 5.55577 8.44573 5.55577 8.39038C5.55577 8.2253 5.5278 8.067 5.47829 7.91913C5.46053 7.8661 5.43836 7.81465 5.41201 7.76533L4.44884 5.96258L3.9403 5ZM1.65418 14.272C1.63443 14.2319 1.6174 14.1905 1.6032 14.1481C1.55368 14.0002 1.52571 13.8419 1.52571 13.6768C1.52571 13.4224 1.60394 13.1907 1.7319 12.999C1.83049 12.8347 1.97254 12.6784 2.1671 12.5622C2.34562 12.4555 2.52927 12.4029 2.69299 12.3796C2.73957 12.373 2.78656 12.3696 2.83361 12.3696H3.11059L2.66946 11.5317L1.65469 9.61348C1.62918 9.56526 1.60766 9.51504 1.59034 9.46331C1.54078 9.31528 1.51286 9.15692 1.51286 8.992C1.51286 8.71535 1.60481 8.48062 1.72074 8.30102C1.83032 8.12664 1.97812 7.98256 2.15425 7.87735C2.17615 7.86427 2.19854 7.85203 2.22138 7.84066C2.35281 7.77524 2.49871 7.7246 2.65728 7.69828C2.71131 7.68932 2.76599 7.68481 2.82076 7.68481H3.10261L2.68298 6.89938L1.64158 4.92819C1.61618 4.88012 1.59474 4.83005 1.57748 4.7785C1.52792 4.63046 1.5 4.47211 1.5 4.30719C1.5 4.03032 1.59209 3.79565 1.70788 3.61627C1.81282 3.44928 1.95311 3.30955 2.1205 3.20528C2.30016 3.09033 2.53363 3 2.8079 3H13.6488C14.1578 3 14.6577 3.10458 15.117 3.29086C15.5857 3.48096 16.0029 3.75767 16.3636 4.11459C16.7371 4.47125 17.0184 4.89555 17.2092 5.36186C17.2884 5.55543 17.3504 5.77579 17.3966 5.99971L19.7914 5.99893C20.1505 5.99881 20.4821 6.19152 20.6599 6.50371L22.3689 9.50371C22.4548 9.6546 22.5 9.8253 22.5 9.99899L22.4999 17.9989C22.4999 18.5504 22.0538 18.9977 21.5027 18.9989L21.064 18.9993C20.7513 18.9995 20.2512 18.9995 19.5012 18.9989H19.3313C18.9197 20.1641 17.8092 20.9989 16.5038 20.9989C15.1985 20.9989 14.088 20.1641 13.6764 18.9989H11.6111C11.1996 20.1641 10.0891 20.9989 8.78371 20.9989C7.41205 20.9989 6.25554 20.0772 5.89906 18.8189L5.37069 18.6954C5.32593 18.685 5.28194 18.6715 5.23904 18.6549C3.9525 18.1597 3.3178 17.2606 2.75316 16.3372L2.75258 16.3363L2.6121 16.1074L2.60395 16.0939C2.43711 15.8123 2.19483 15.3455 2.00568 14.9736C1.90847 14.7825 1.82079 14.6075 1.75746 14.4804L1.68226 14.3289L1.65418 14.272ZM7.78438 17.9989C7.78438 18.5512 8.23179 18.9989 8.78371 18.9989C9.33562 18.9989 9.78304 18.5512 9.78304 17.9989C9.78304 17.4512 9.33106 16.9989 8.78371 16.9989C8.23636 16.9989 7.78438 17.4512 7.78438 17.9989ZM15.5045 17.9989C15.5045 18.5512 15.9519 18.9989 16.5038 18.9989C17.0558 18.9989 17.5032 18.5512 17.5032 17.9989C17.5032 17.4512 17.0512 16.9989 16.5038 16.9989C15.9565 16.9989 15.5045 17.4512 15.5045 17.9989ZM20.5013 10.9989L20.5013 10.2639L19.2112 7.99912L17.5036 7.99967L17.5032 10.9989H20.5013Z" fill="#E80000"/>
</svg>
