<svg width="60" height="19" viewBox="0 0 60 19" fill="none" xmlns="http://www.w3.org/2000/svg">
<path d="M4.75078 8.88624V4.72432C4.75078 3.39325 5.8292 2.31529 7.16074 2.31529C8.49234 2.31529 9.57073 3.39325 9.57073 4.72432V8.87685H11.8964V4.72432C11.8964 2.11845 9.77703 0 7.16074 0C4.55386 0 2.43457 2.11845 2.43457 4.72432V8.87685H4.75078V8.88624Z" fill="#C4102E"/>
<path d="M6.486 4.63064C6.86108 4.31192 7.47063 4.31192 7.84571 4.63064C8.22079 4.94935 8.90538 5.09929 9.38361 4.95868C9.8525 4.81808 10.4151 5.06179 10.6214 5.51172C10.8371 5.9617 11.3997 6.37413 11.8967 6.43036C12.3844 6.49597 12.797 6.9459 12.8064 7.44271C12.8157 7.93953 13.172 8.54879 13.594 8.80189C14.016 9.05499 14.2036 9.63614 14.016 10.0955C13.8285 10.5454 13.9035 11.2484 14.1755 11.6609C14.4568 12.064 14.3911 12.6732 14.0348 13.0106C13.6785 13.3481 13.4534 14.023 13.5472 14.5011C13.6409 14.9885 13.3315 15.5135 12.872 15.6728C12.4031 15.8322 11.9343 16.3571 11.8217 16.8351C11.7092 17.3132 11.2122 17.6694 10.7246 17.6319C10.237 17.5944 9.5899 17.8756 9.28985 18.2693C8.98974 18.663 8.39897 18.7848 7.96765 18.5505C7.53627 18.3161 6.83296 18.3161 6.39224 18.5505C5.96086 18.7848 5.3607 18.663 5.06064 18.2693C4.76056 17.8756 4.11352 17.5944 3.6259 17.6319C3.13827 17.6694 2.64127 17.3132 2.52874 16.8351C2.41621 16.3571 1.94735 15.8322 1.47848 15.6728C1.00961 15.5135 0.709534 14.9791 0.803307 14.5011C0.89708 14.0137 0.681401 13.3481 0.315681 13.0106C-0.0406589 12.6732 -0.106301 12.064 0.175021 11.6609C0.456342 11.2578 0.531361 10.5548 0.334436 10.0955C0.146889 9.64553 0.334437 9.06438 0.756418 8.80189C1.1784 8.54879 1.53474 7.93014 1.54412 7.44271C1.5535 6.95528 1.9661 6.49597 2.45373 6.43036C2.94135 6.36475 3.51337 5.95232 3.72905 5.51172C3.93535 5.06179 4.49799 4.81808 4.96686 4.95868C5.42633 5.09929 6.11091 4.94935 6.486 4.63064Z" fill="#C4102E"/>
<path d="M7.16137 6.84277C4.57319 6.84277 2.47266 8.94243 2.47266 11.5296C2.47266 14.1167 4.57319 16.2164 7.16137 16.2164C9.74948 16.2164 11.85 14.1167 11.85 11.5296C11.85 8.94243 9.74948 6.84277 7.16137 6.84277Z" fill="#C4102E"/>
<path d="M7.48036 8.45508C7.18025 8.45508 6.89893 8.48319 6.64578 8.52069C5.13599 8.74568 4.32016 9.57054 4.13262 10.9672L4.00133 12.0265C3.91693 12.7576 4.04822 13.3013 4.39518 13.695C4.80779 14.1543 5.51109 14.5292 6.55197 14.5292H8.38058C9.44019 14.5292 9.57151 13.4231 9.57151 13.4231H7.14274C6.81456 13.4231 6.49572 13.395 6.27064 13.3106C5.97059 13.1981 5.78302 13.0013 5.71738 12.6451C5.68926 12.5045 5.69865 12.1952 5.72678 11.989L5.84866 11.061C5.88617 10.8266 5.9612 10.5642 5.98932 10.4704C6.08313 10.2455 6.22379 10.0205 6.45821 9.85176C6.59887 9.75804 6.91771 9.56121 7.7429 9.56121H9.08389C10.0216 9.56121 10.1904 8.45508 10.1904 8.45508H7.48036Z" fill="#C4102E"/>
<path d="M20.4301 15.4572C20.4301 15.6541 20.3832 15.8322 20.28 15.9821C20.1769 16.1321 20.0362 16.254 19.8487 16.3383C19.6611 16.4227 19.4361 16.4695 19.1829 16.4695C18.9672 16.4695 18.7984 16.4602 18.6484 16.4227C18.5077 16.3946 18.3577 16.3383 18.1982 16.2633V15.5041C18.3577 15.5884 18.5358 15.6541 18.7046 15.7009C18.8828 15.7478 19.0422 15.7665 19.1923 15.7665C19.3235 15.7665 19.4173 15.7478 19.4736 15.7009C19.5298 15.6541 19.558 15.5978 19.558 15.5322C19.558 15.4853 19.5486 15.4478 19.5204 15.4197C19.4923 15.3822 19.4548 15.3541 19.408 15.3166C19.3517 15.2791 19.211 15.2135 18.986 15.1103C18.7797 15.0166 18.6202 14.9229 18.5171 14.8385C18.4139 14.7542 18.3389 14.6511 18.2827 14.5386C18.2358 14.4261 18.2076 14.2855 18.2076 14.1355C18.2076 13.8449 18.3108 13.6106 18.5265 13.4512C18.7422 13.2919 19.0328 13.2075 19.408 13.2075C19.7361 13.2075 20.0737 13.2825 20.4113 13.4325L20.1487 14.098C19.8487 13.9574 19.5955 13.8918 19.3798 13.8918C19.2673 13.8918 19.1923 13.9106 19.136 13.9481C19.0891 13.9855 19.0609 14.0324 19.0609 14.098C19.0609 14.1636 19.0891 14.2199 19.1548 14.2668C19.2204 14.3136 19.3986 14.4074 19.6799 14.5386C19.9518 14.6604 20.1394 14.7916 20.2519 14.9322C20.3738 15.0635 20.4301 15.2416 20.4301 15.4572Z" fill="#C4102E"/>
<path d="M22.9994 15.4572C22.9994 15.6541 22.9525 15.8322 22.8493 15.9821C22.7462 16.1321 22.6055 16.254 22.418 16.3383C22.2304 16.4227 22.0054 16.4695 21.7522 16.4695C21.5459 16.4695 21.3677 16.4602 21.2177 16.4227C21.077 16.3946 20.927 16.3383 20.7676 16.2633V15.5041C20.927 15.5884 21.1051 15.6541 21.2739 15.7009C21.4521 15.7478 21.6115 15.7665 21.7616 15.7665C21.8928 15.7665 21.9866 15.7478 22.0429 15.7009C22.0991 15.6541 22.1366 15.5978 22.1366 15.5322C22.1366 15.4853 22.1273 15.4478 22.0991 15.4197C22.071 15.3822 22.0335 15.3541 21.9866 15.3166C21.9303 15.2791 21.7897 15.2135 21.5646 15.1103C21.3584 15.0166 21.1989 14.9229 21.0958 14.8385C20.9926 14.7542 20.9176 14.6511 20.8707 14.5386C20.8238 14.4261 20.7957 14.2855 20.7957 14.1355C20.7957 13.8449 20.8988 13.6106 21.1145 13.4512C21.3302 13.2919 21.6209 13.2075 21.996 13.2075C22.3242 13.2075 22.6618 13.2825 22.9994 13.4325L22.7368 14.098C22.4367 13.9574 22.1835 13.8918 21.9679 13.8918C21.8553 13.8918 21.7709 13.9106 21.724 13.9481C21.6771 13.9855 21.649 14.0324 21.649 14.098C21.649 14.1636 21.6771 14.2199 21.7428 14.2668C21.8085 14.3136 21.9772 14.4074 22.268 14.5386C22.5399 14.6604 22.7368 14.7916 22.8399 14.9322C22.9431 15.0635 22.9994 15.2416 22.9994 15.4572Z" fill="#C4102E"/>
<path d="M23.4873 16.4228V13.2451H24.3407V15.7291H25.5597V16.4228H23.4873Z" fill="#C4102E"/>
<path d="M27.5383 13.4042C27.1445 13.4042 26.8256 13.5355 26.6005 13.7886C26.3755 14.0417 26.2536 14.3885 26.2536 14.8384C26.2536 15.2883 26.3661 15.6446 26.5724 15.8977C26.7881 16.1508 27.0975 16.2726 27.5008 16.2726C27.7633 16.2726 28.0166 16.2351 28.2322 16.1695V16.3663C28.0259 16.4413 27.7633 16.4788 27.4445 16.4788C26.9944 16.4788 26.6474 16.3382 26.3942 16.0477C26.1411 15.7571 26.0098 15.354 26.0098 14.8384C26.0098 14.5197 26.0755 14.2292 26.1973 13.9854C26.3193 13.7417 26.4974 13.5448 26.7225 13.4136C26.9475 13.2824 27.2195 13.2168 27.5195 13.2168C27.829 13.2168 28.1103 13.273 28.3541 13.3949L28.2698 13.5917C28.0353 13.4605 27.7915 13.4042 27.5383 13.4042Z" fill="#C4102E"/>
<path d="M30.6791 16.4228H28.9443V13.2451H30.6791V13.4513H29.1694V14.6512H30.5948V14.8574H29.1694V16.2166H30.6791V16.4228Z" fill="#C4102E"/>
<path d="M31.6171 15.0356V16.4135H31.4014V13.2358H32.161C32.5548 13.2358 32.8455 13.3108 33.0331 13.4514C33.2206 13.6014 33.3144 13.817 33.3144 14.1076C33.3144 14.3232 33.2581 14.5013 33.1456 14.6419C33.0331 14.7919 32.8642 14.895 32.6298 14.9606L33.4925 16.4041H33.23L32.4141 15.0262H31.6171V15.0356ZM31.6171 14.8481H32.2266C32.4985 14.8481 32.7048 14.7919 32.8455 14.67C32.9956 14.5482 33.0706 14.3701 33.0706 14.1451C33.0706 13.9014 32.9956 13.7233 32.8549 13.6202C32.7142 13.5077 32.4704 13.4514 32.1422 13.4514H31.6171V14.8481Z" fill="#C4102E"/>
<path d="M34.8718 16.4227H34.6467V13.4606H33.6152V13.2544H35.9033V13.4606H34.8718V16.4227Z" fill="#C4102E"/>
<path d="M36.3721 16.4228V13.2451H36.5971V16.4228H36.3721Z" fill="#C4102E"/>
<path d="M37.7128 16.4228H37.4971V13.2451H39.2413V13.4513H37.7222V14.8011H39.1569V15.0074H37.7222V16.4228H37.7128Z" fill="#C4102E"/>
<path d="M39.7285 16.4228V13.2451H39.9536V16.4228H39.7285Z" fill="#C4102E"/>
<path d="M42.2047 13.4042C41.8108 13.4042 41.492 13.5355 41.2669 13.7886C41.0419 14.0417 40.92 14.3885 40.92 14.8384C40.92 15.2883 41.0325 15.6446 41.2482 15.8977C41.4639 16.1508 41.7733 16.2726 42.1765 16.2726C42.4391 16.2726 42.6923 16.2351 42.908 16.1695V16.3663C42.7017 16.4413 42.4391 16.4788 42.1203 16.4788C41.6702 16.4788 41.3232 16.3382 41.07 16.0477C40.8168 15.7571 40.6855 15.354 40.6855 14.8384C40.6855 14.5197 40.7512 14.2292 40.8731 13.9854C40.995 13.7417 41.1732 13.5448 41.3983 13.4136C41.6233 13.2824 41.8952 13.2168 42.1953 13.2168C42.5048 13.2168 42.7861 13.273 43.0299 13.3949L42.9361 13.5917C42.7017 13.4605 42.4579 13.4042 42.2047 13.4042Z" fill="#C4102E"/>
<path d="M45.1397 15.2982H43.8457L43.4049 16.4136H43.1611L44.4364 13.2266H44.5771L45.8243 16.4136H45.5711L45.1397 15.2982ZM43.9301 15.1013H45.0647L44.6334 13.9578C44.5959 13.864 44.5584 13.7422 44.5021 13.5828C44.4646 13.7234 44.4177 13.8453 44.3708 13.9578L43.9301 15.1013Z" fill="#C4102E"/>
<path d="M47.1091 16.4227H46.884V13.4606H45.8525V13.2544H48.1406V13.4606H47.1091V16.4227Z" fill="#C4102E"/>
<path d="M50.3442 16.4228H48.6094V13.2451H50.3442V13.4513H48.825V14.6512H50.2598V14.8574H48.825V16.2166H50.3442V16.4228Z" fill="#C4102E"/>
<path d="M49.2842 6.36475H46.8273V6.53346C46.8367 6.89901 46.9586 7.35833 47.5776 7.35833H48.2996H49.2186C50.1751 7.35833 50.6908 7.67704 50.5408 8.74567L50.4283 9.59864C50.2876 10.7047 49.4905 10.8735 48.7872 10.8735H47.8588L48.1214 8.74567C48.1589 8.43629 48.0089 7.93953 47.4275 7.93953H46.621L46.4053 9.69236L46.199 11.239C46.1428 11.6515 46.4429 11.8858 47.0899 11.8858H48.9841C50.9065 11.8858 51.4316 11.1921 51.6942 10.7516C51.8349 10.4985 51.938 10.1986 51.9943 9.84236C52.0037 9.77675 52.1349 8.67067 52.1349 8.67067C52.2193 8.00514 52.088 7.49893 51.7599 7.124C51.3191 6.62718 50.5126 6.36475 49.2842 6.36475Z" fill="#C4102E"/>
<path d="M26.9662 6.24268H26.6942C24.7625 6.2614 23.7497 7.06754 23.534 8.60482L23.4028 9.5984C23.3184 10.2827 23.4403 10.7983 23.7779 11.1732C24.1905 11.6325 24.9125 11.9699 26.0003 11.9793H26.2722C28.1665 11.9606 29.1699 11.1826 29.4137 9.7484L29.4324 9.64529L29.5637 8.65171C29.6481 7.93929 29.5262 7.40497 29.1792 7.02065C28.7667 6.56133 28.0446 6.25201 26.9662 6.24268ZM27.9695 8.65171L27.8477 9.5609C27.7914 9.964 27.6882 10.2733 27.5101 10.5077C27.2663 10.817 26.9005 11.0045 26.3942 11.0045H26.1035C25.5971 11.0045 25.2314 10.8264 25.0719 10.5358C24.9688 10.3202 24.9406 10.0109 24.9969 9.5984L25.1188 8.68915C25.1845 8.20173 25.3439 7.84557 25.5971 7.59247C25.8503 7.34875 26.1972 7.23626 26.6286 7.23626H26.9099C27.2006 7.23626 27.5944 7.28314 27.8101 7.57369C27.9789 7.8174 28.0352 8.16428 27.9695 8.65171Z" fill="#C4102E"/>
<path d="M59.2241 7.02065C58.8116 6.56133 58.0896 6.25201 57.0112 6.24268H56.739C54.8073 6.2614 53.7945 7.06754 53.5789 8.60482L53.4477 9.5984C53.3634 10.2827 53.485 10.7983 53.8228 11.1732C54.2353 11.6325 54.9573 11.9699 56.0453 11.9793H56.3169C58.2113 11.9606 59.2145 11.1826 59.4584 9.7484L59.477 9.64529L59.6083 8.65171C59.6836 7.93929 59.5619 7.40497 59.2241 7.02065ZM58.0144 8.65171L57.8927 9.5609C57.8362 9.964 57.7332 10.2733 57.5549 10.5077C57.3111 10.817 56.9456 11.0045 56.4391 11.0045H56.1387C55.6323 11.0045 55.2668 10.8264 55.1072 10.5358C55.0042 10.3202 54.976 10.0109 55.0325 9.5984L55.1542 8.68915C55.2198 8.20173 55.3794 7.84557 55.6323 7.59247C55.8762 7.34875 56.2326 7.23626 56.6643 7.23626H56.9456C57.2358 7.23626 57.6302 7.28314 57.8458 7.57369C58.024 7.8174 58.08 8.16428 58.0144 8.65171Z" fill="#C4102E"/>
<path d="M42.5424 6.24268H42.2704C40.3387 6.2614 39.3259 7.06754 39.1102 8.60482L38.9789 9.5984C38.8945 10.2827 39.0165 10.7983 39.354 11.1732C39.7666 11.6325 40.4887 11.9699 41.5765 11.9793H41.8484C43.7426 11.9606 44.746 11.1826 44.9899 9.7484L45.0086 9.64529L45.1399 8.65171C45.2243 7.93929 45.1023 7.40497 44.7554 7.02065C44.3428 6.56133 43.6301 6.25201 42.5424 6.24268ZM43.5551 8.65171L43.4332 9.5609C43.3769 9.964 43.2738 10.2733 43.0956 10.5077C42.8518 10.817 42.4861 11.0045 41.9797 11.0045H41.689C41.1826 11.0045 40.8169 10.8264 40.6575 10.5358C40.5544 10.3202 40.5262 10.0109 40.5825 9.5984L40.7044 8.68915C40.77 8.20173 40.92 7.84557 41.1826 7.59247C41.4358 7.34875 41.7828 7.23626 42.2141 7.23626H42.4955C42.7862 7.23626 43.18 7.28314 43.3957 7.57369C43.5645 7.8174 43.6208 8.16428 43.5551 8.65171Z" fill="#C4102E"/>
<path d="M36.4284 6.67418L34.2998 9.08321L32.8088 6.6929C32.6681 6.46797 32.3774 6.36486 31.946 6.36486H31.2709L30.5957 11.8766H31.4209C31.6929 11.8766 31.8898 11.7641 32.0023 11.661C32.1805 11.511 32.293 11.2954 32.3212 11.0704L32.6212 8.65201L33.7184 10.7423C33.7652 10.8173 33.8965 10.9954 34.0747 10.9954H34.0935C34.281 10.9954 34.4404 10.8173 34.4873 10.7611L36.1565 8.65201L35.7532 11.8672H36.5503C36.8223 11.8672 37.0192 11.7547 37.1318 11.6516C37.3005 11.5016 37.4224 11.286 37.4506 11.061L38.032 6.35547H37.3287C36.9161 6.36486 36.6066 6.46796 36.4284 6.67418Z" fill="#C4102E"/>
<path d="M20.5239 6.36486C20.252 6.36486 19.9988 6.38358 19.7644 6.42108C18.3859 6.62729 17.6544 7.37721 17.4763 8.64262L17.3544 9.60814C17.2794 10.2737 17.3919 10.7704 17.7107 11.1266C18.0858 11.5391 18.7235 11.8859 19.6706 11.8859H21.3398C22.3056 11.8859 22.4182 10.8735 22.4182 10.8735H20.2145C19.9144 10.8735 19.6237 10.8454 19.4174 10.7704C19.1361 10.6673 18.9767 10.4892 18.911 10.1612C18.8923 10.03 18.8923 9.74875 18.9204 9.57064L19.0329 8.727C19.0705 8.5114 19.1361 8.26769 19.1642 8.19269C19.2486 7.99586 19.3799 7.78026 19.5956 7.63026C19.7175 7.53654 20.0175 7.35844 20.7677 7.35844H21.9962C22.8495 7.35844 23.009 6.35547 23.009 6.35547H20.5239V6.36486Z" fill="#C4102E"/>
</svg>
