<svg width="31" height="24" viewBox="0 0 31 24" fill="none" xmlns="http://www.w3.org/2000/svg">
<path d="M30.3085 23.6743V23.7368H30.3667C30.3795 23.7368 30.3902 23.7337 30.3982 23.7289C30.4056 23.724 30.4099 23.7155 30.4099 23.7052C30.4099 23.6949 30.4056 23.687 30.3982 23.6822C30.3902 23.6767 30.3795 23.6743 30.3667 23.6743H30.3085ZM30.3672 23.6307C30.3971 23.6307 30.42 23.6373 30.4366 23.6507C30.4531 23.664 30.4606 23.6822 30.4606 23.7052C30.4606 23.7246 30.4547 23.7404 30.4414 23.7531C30.4286 23.7652 30.4104 23.7731 30.3859 23.7761L30.4627 23.8641H30.403L30.332 23.7768H30.3085V23.8641H30.2589V23.6307H30.3672ZM30.3517 23.9447C30.3795 23.9447 30.4051 23.9392 30.4281 23.9289C30.4515 23.9186 30.4723 23.9047 30.49 23.8871C30.5076 23.8695 30.5214 23.8489 30.5321 23.8247C30.5417 23.801 30.547 23.7755 30.547 23.7483C30.547 23.721 30.5417 23.6955 30.5321 23.6718C30.5214 23.6482 30.5076 23.627 30.49 23.6094C30.4723 23.5918 30.4515 23.5779 30.4281 23.5676C30.4051 23.5579 30.3795 23.5531 30.3517 23.5531C30.3245 23.5531 30.2984 23.5579 30.2749 23.5676C30.2504 23.5779 30.229 23.5918 30.2114 23.6094C30.1938 23.627 30.1799 23.6482 30.1703 23.6718C30.1596 23.6955 30.1548 23.721 30.1548 23.7483C30.1548 23.7755 30.1596 23.801 30.1703 23.8247C30.1799 23.8489 30.1938 23.8695 30.2114 23.8871C30.229 23.9047 30.2504 23.9186 30.2749 23.9289C30.2984 23.9392 30.3245 23.9447 30.3517 23.9447ZM30.3517 23.4967C30.388 23.4967 30.4206 23.5033 30.4521 23.5167C30.4836 23.5294 30.5102 23.5476 30.5337 23.5706C30.5567 23.5931 30.5753 23.6197 30.5887 23.6507C30.602 23.681 30.6084 23.7137 30.6084 23.7483C30.6084 23.7828 30.602 23.8155 30.5887 23.8459C30.5753 23.8762 30.5567 23.9029 30.5337 23.9259C30.5102 23.9483 30.4836 23.9665 30.4521 23.9798C30.4206 23.9932 30.388 23.9999 30.3517 23.9999C30.3155 23.9999 30.2818 23.9932 30.2504 23.9798C30.2189 23.9665 30.1917 23.9483 30.1682 23.9259C30.1452 23.9029 30.1271 23.8762 30.1138 23.8459C30.1004 23.8155 30.0935 23.7828 30.0935 23.7483C30.0935 23.7137 30.1004 23.681 30.1138 23.6507C30.1271 23.6197 30.1452 23.5931 30.1682 23.5706C30.1917 23.5476 30.2189 23.5294 30.2504 23.5167C30.2818 23.5033 30.3155 23.4967 30.3517 23.4967ZM6.65954 22.5976C6.65954 22.1525 6.95196 21.7869 7.43009 21.7869C7.88633 21.7869 8.19476 22.1368 8.19476 22.5976C8.19476 23.0583 7.88633 23.4081 7.43009 23.4081C6.95196 23.4081 6.65954 23.0426 6.65954 22.5976ZM8.71558 22.5976V21.3316H8.16328V21.639C7.98825 21.411 7.72251 21.268 7.36125 21.268C6.64887 21.268 6.09069 21.8245 6.09069 22.5976C6.09069 23.3712 6.64887 23.9271 7.36125 23.9271C7.72251 23.9271 7.98825 23.784 8.16328 23.5561V23.8634H8.71558V22.5976ZM27.3747 22.5976C27.3747 22.1525 27.6671 21.7869 28.1452 21.7869C28.6025 21.7869 28.9099 22.1368 28.9099 22.5976C28.9099 23.0583 28.6025 23.4081 28.1452 23.4081C27.6671 23.4081 27.3747 23.0426 27.3747 22.5976ZM29.4312 22.5976V20.3149H28.8784V21.639C28.7034 21.411 28.4376 21.268 28.0764 21.268C27.3645 21.268 26.8058 21.8245 26.8058 22.5976C26.8058 23.3712 27.3645 23.9271 28.0764 23.9271C28.4376 23.9271 28.7034 23.784 28.8784 23.5561V23.8634H29.4312V22.5976ZM15.5694 21.7609C15.9253 21.7609 16.1537 21.9834 16.2124 22.375H14.8944C14.9536 22.0095 15.1761 21.7609 15.5694 21.7609ZM15.5806 21.268C14.8362 21.268 14.3154 21.8082 14.3154 22.5976C14.3154 23.4027 14.8575 23.9271 15.6174 23.9271C16 23.9271 16.3501 23.8319 16.6585 23.5724L16.388 23.1644C16.175 23.3336 15.904 23.4294 15.6489 23.4294C15.2935 23.4294 14.9691 23.2651 14.8896 22.8092H16.7754C16.7807 22.7406 16.786 22.6715 16.786 22.5976C16.7807 21.8082 16.2919 21.268 15.5806 21.268ZM22.2477 22.5976C22.2477 22.1525 22.5401 21.7869 23.0182 21.7869C23.475 21.7869 23.7834 22.1368 23.7834 22.5976C23.7834 23.0583 23.475 23.4081 23.0182 23.4081C22.5401 23.4081 22.2477 23.0426 22.2477 22.5976ZM24.3037 22.5976V21.3316H23.7514V21.639C23.5758 21.411 23.3106 21.268 22.9494 21.268C22.2375 21.268 21.6794 21.8245 21.6794 22.5976C21.6794 23.3712 22.2375 23.9271 22.9494 23.9271C23.3106 23.9271 23.5758 23.784 23.7514 23.5561V23.8634H24.3037V22.5976ZM19.1292 22.5976C19.1292 23.3657 19.6655 23.9271 20.484 23.9271C20.8666 23.9271 21.1217 23.8422 21.3976 23.6252L21.1324 23.1802C20.9248 23.3287 20.7071 23.4081 20.4675 23.4081C20.0267 23.4027 19.7028 23.085 19.7028 22.5976C19.7028 22.1101 20.0267 21.7924 20.4675 21.7869C20.7071 21.7869 20.9248 21.8664 21.1324 22.0149L21.3976 21.5699C21.1217 21.3528 20.8666 21.268 20.484 21.268C19.6655 21.268 19.1292 21.8294 19.1292 22.5976ZM26.2482 21.268C25.9296 21.268 25.7226 21.4165 25.579 21.639V21.3316H25.0315V23.8634H25.5844V22.4441C25.5844 22.0252 25.7647 21.7924 26.126 21.7924C26.2381 21.7924 26.3549 21.8082 26.4718 21.8561L26.642 21.3371C26.5198 21.2892 26.3603 21.268 26.2482 21.268ZM11.4466 21.5329C11.1809 21.3583 10.8148 21.268 10.4109 21.268C9.76734 21.268 9.35326 21.5754 9.35326 22.0786C9.35326 22.4915 9.66169 22.7461 10.2295 22.8255L10.4904 22.8625C10.7935 22.9049 10.9365 22.9843 10.9365 23.1274C10.9365 23.3233 10.7343 23.4348 10.3575 23.4348C9.97492 23.4348 9.6985 23.313 9.5128 23.1699L9.25239 23.5985C9.55548 23.821 9.93757 23.9271 10.3517 23.9271C11.0854 23.9271 11.5101 23.5828 11.5101 23.1008C11.5101 22.6558 11.1761 22.4229 10.6233 22.3435L10.3629 22.3059C10.1238 22.2744 9.93223 22.2271 9.93223 22.0574C9.93223 21.8719 10.1131 21.7609 10.4157 21.7609C10.7396 21.7609 11.0534 21.8827 11.2076 21.9779L11.4466 21.5329ZM18.571 21.268C18.2524 21.268 18.0449 21.4165 17.9024 21.639V21.3316H17.3549V23.8634H17.9072V22.4441C17.9072 22.0252 18.0875 21.7924 18.4488 21.7924C18.5609 21.7924 18.6777 21.8082 18.7941 21.8561L18.9643 21.3371C18.8421 21.2892 18.6831 21.268 18.571 21.268ZM13.8586 21.3316H12.9557V20.5635H12.3976V21.3316H11.8826V21.8348H12.3976V22.9898C12.3976 23.5773 12.6259 23.9271 13.2791 23.9271C13.5187 23.9271 13.7951 23.8531 13.9701 23.7313L13.8106 23.2596C13.6462 23.3548 13.4653 23.4027 13.3218 23.4027C13.0459 23.4027 12.9557 23.2329 12.9557 22.9789V21.8348H13.8586V21.3316ZM5.60243 23.8634V22.2744C5.60243 21.676 5.21983 21.2734 4.6035 21.268C4.27906 21.2625 3.94501 21.3632 3.71075 21.7184C3.53572 21.4378 3.25931 21.268 2.87137 21.268C2.60029 21.268 2.33508 21.3474 2.12803 21.6439V21.3316H1.5752V23.8634H2.13284V22.4599C2.13284 22.0204 2.37724 21.7869 2.75451 21.7869C3.12164 21.7869 3.30679 22.0252 3.30679 22.4544V23.8634H3.86497V22.4599C3.86497 22.0204 4.12003 21.7869 4.48662 21.7869C4.86389 21.7869 5.04427 22.0252 5.04427 22.4544V23.8634H5.60243Z" fill="#000E1F"/>
<path d="M30.6495 15.4435V15.0737H30.5529L30.4409 15.3277L30.3293 15.0737H30.2322V15.4435H30.3011V15.1647L30.4057 15.4054H30.4766L30.5812 15.1641V15.4435H30.6495ZM30.0359 15.4435V15.1368H30.1597V15.0743H29.8438V15.1368H29.9675V15.4435H30.0359Z" fill="#4E4F5F"/>
<path d="M19.6539 17.0344H11.2852V2.04004H19.6539V17.0344Z" fill="#FF5F00"/>
<path d="M11.8218 9.53611C11.8218 6.4944 13.2503 3.78498 15.4745 2.0389C13.848 0.762088 11.7951 0 9.56408 0C4.28177 0 0 4.26939 0 9.53611C0 14.8028 4.28177 19.0722 9.56408 19.0722C11.7951 19.0722 13.848 18.3101 15.4745 17.0333C13.2503 15.2872 11.8218 12.5778 11.8218 9.53611Z" fill="#EB001B"/>
<path d="M30.9413 9.53611C30.9413 14.8028 26.6596 19.0722 21.3773 19.0722C19.1462 19.0722 17.0934 18.3101 15.4658 17.0333C17.691 15.2872 19.1195 12.5778 19.1195 9.53611C19.1195 6.4944 17.691 3.78498 15.4658 2.0389C17.0934 0.762088 19.1462 0 21.3773 0C26.6596 0 30.9413 4.26939 30.9413 9.53611Z" fill="#F79E1B"/>
</svg>
