<svg width="58" height="21" viewBox="0 0 58 21" fill="none" xmlns="http://www.w3.org/2000/svg">
<path fill-rule="evenodd" clip-rule="evenodd" d="M24.9941 3.43848C24.9941 3.43848 24.9941 3.43848 26.1953 3.43848C26.6329 3.43848 26.8533 3.65339 26.8533 4.13858C26.8533 4.13858 26.8533 4.13858 26.8533 5.8578C26.8533 5.8578 26.8533 5.8578 29.206 5.8578C29.206 5.8578 29.206 5.8578 29.206 4.13858C29.206 3.65339 29.4232 3.43848 29.9168 3.43848C29.9168 3.43848 29.9168 3.43848 31.0646 3.43848C31.0646 3.43848 31.0646 3.43848 31.0646 4.5684C31.0646 4.5684 31.0646 4.5684 30.5747 4.5684L30.5187 4.62371C30.5187 4.62371 30.5187 4.62371 30.5187 9.46237C30.5187 9.46237 30.5187 9.46237 29.206 9.46237C29.206 9.46237 29.206 9.46237 29.206 7.04304C29.206 7.04304 29.206 7.04304 26.8533 7.04304C26.8533 7.04304 26.8533 7.04304 26.8533 9.46237C26.8533 9.46237 26.8533 9.46237 25.5406 9.46237C25.5406 9.46237 25.5406 9.46237 25.5406 4.62371C25.5406 4.62371 25.5406 4.5684 25.4845 4.5684C25.4845 4.5684 25.4845 4.5684 24.9941 4.5684C24.9941 4.5684 24.9941 4.5684 24.9941 3.43848Z" fill="#ED1C2A"/>
<path fill-rule="evenodd" clip-rule="evenodd" d="M34.5097 3.33105L34.5396 3.33431V4.57491L34.5097 4.56835C33.5263 4.56835 32.7595 5.37588 32.7595 6.39831C32.7595 7.47287 33.5263 8.33245 34.5097 8.33245L34.5396 8.32595V9.56655L34.5097 9.5698C32.7595 9.5698 31.3379 8.17291 31.3379 6.39831C31.3379 4.67583 32.7595 3.33105 34.5097 3.33105Z" fill="#ED1C2A"/>
<path fill-rule="evenodd" clip-rule="evenodd" d="M34.54 3.33447L35.1484 3.39309C36.5929 3.67313 37.682 4.89091 37.682 6.39853C37.682 7.94846 36.5929 9.21509 35.1484 9.50489L34.54 9.56676V8.32616L35.2076 8.18289C35.8527 7.88984 36.3165 7.2028 36.3165 6.39853C36.3165 5.63005 35.8527 4.98537 35.2076 4.71184L34.54 4.57507V3.33447Z" fill="#ED1C2A"/>
<path fill-rule="evenodd" clip-rule="evenodd" d="M37.9551 3.43848C37.9551 3.43848 37.9551 3.43848 39.7875 3.43848H40.6627V4.5684H40.5805C40.4722 4.5684 40.2518 4.5684 39.8137 4.5684C39.8137 4.5684 39.8137 4.5684 39.8137 5.80569C39.8137 5.80569 39.8137 5.80569 40.1856 5.80569H40.6627V6.88024H40.3831C40.2448 6.88024 40.0607 6.88024 39.8137 6.88024C39.8137 6.88024 39.8137 6.88024 39.8137 8.22502C39.8137 8.28039 39.8137 8.28039 39.8697 8.28039C39.8697 8.28039 39.8697 8.28039 40.2614 8.28039H40.6627V9.46237H40.5474C40.35 9.46237 39.9519 9.46237 39.1589 9.46237C38.7214 9.46237 38.5042 9.24746 38.5042 8.76232V4.5684C38.5042 4.5684 38.5042 4.5684 37.9551 4.5684C37.9551 4.5684 37.9551 4.5684 37.9551 3.43848Z" fill="#ED1C2A"/>
<path fill-rule="evenodd" clip-rule="evenodd" d="M40.6621 3.43848H40.6888C41.8926 3.43848 42.6034 4.08321 42.6034 5.05353C42.6034 5.64289 42.3307 6.0206 42.0575 6.29088C42.5511 6.50579 42.8766 7.04304 42.8766 7.6324C42.8766 8.76232 42.0015 9.46237 40.7448 9.46237C40.7448 9.46237 40.7448 9.46237 40.7213 9.46237H40.6621V8.28039H40.7971C41.2347 8.28039 41.5111 8.01011 41.5111 7.58034C41.5111 7.15052 41.2347 6.88024 40.7971 6.88024C40.7971 6.88024 40.7971 6.88024 40.6754 6.88024H40.6621V5.80569H40.6888C41.0735 5.80569 41.2907 5.53547 41.2907 5.16101C41.2907 4.78331 41.0735 4.5684 40.6888 4.5684C40.6888 4.5684 40.6888 4.5684 40.6754 4.5684H40.6621V3.43848Z" fill="#ED1C2A"/>
<path fill-rule="evenodd" clip-rule="evenodd" d="M45.3939 3.43848C45.3939 3.43848 45.3939 3.43848 45.9467 3.43848H46.0486V5.16101C45.9958 5.26844 45.9398 5.42798 45.9398 5.59083C45.9398 5.59083 45.9398 5.59083 45.5022 6.82813C45.5022 6.82813 45.5022 6.82813 45.9665 6.82813H46.0486V7.95479H45.7525C45.5844 7.95479 45.3939 7.95479 45.1767 7.95479C45.1767 7.95479 45.1767 7.95479 44.792 8.92512C44.6831 9.29957 44.4659 9.46237 44.0284 9.46237C44.0284 9.46237 44.0284 9.46237 43.2061 9.46237C43.2061 9.46237 43.2061 9.46237 43.2061 8.28039C43.2061 8.28039 43.2061 8.28039 43.4787 8.28039C43.5908 8.28039 43.5908 8.28039 43.6436 8.22502C43.6436 8.22502 43.6436 8.22502 45.3939 3.43848Z" fill="#ED1C2A"/>
<path fill-rule="evenodd" clip-rule="evenodd" d="M46.0488 3.43848H46.7068C46.7068 3.43848 46.7068 3.43848 48.4571 8.22502C48.5099 8.28039 48.5099 8.28039 48.6182 8.28039C48.6182 8.28039 48.6182 8.28039 48.8391 8.28039C48.8391 8.28039 48.8391 8.28039 48.8391 9.46237C48.8391 9.46237 48.8391 9.46237 48.0723 9.46237C47.6348 9.46237 47.4176 9.29957 47.3055 8.86975C47.3055 8.86975 47.3055 8.86975 46.924 7.95479C46.924 7.95479 46.924 7.95479 46.187 7.95479H46.0488V6.82813H46.5947C46.5947 6.82813 46.5947 6.82813 46.1609 5.59083C46.1609 5.42798 46.1049 5.26844 46.0488 5.16101V3.43848Z" fill="#ED1C2A"/>
<path fill-rule="evenodd" clip-rule="evenodd" d="M24.9941 11.1816C24.9941 11.1816 24.9941 11.1816 29.7519 11.1816C30.1895 11.1816 30.4627 11.3965 30.4627 11.8817C30.4627 11.8817 30.4627 11.8817 30.4627 15.9681C30.4627 16.0202 30.4627 16.0202 30.5187 16.0202C30.5187 16.0202 30.5187 16.0202 30.9563 16.0202C30.9563 16.0202 30.9563 16.0202 30.9563 17.2055C30.9563 17.2055 30.9563 17.2055 29.8079 17.2055C29.3143 17.2055 29.0971 16.9906 29.0971 16.5054C29.0971 16.5054 29.0971 16.5054 29.0971 12.3669C29.0971 12.3669 29.0971 12.3115 29.0411 12.3115C29.0411 12.3115 29.0411 12.3115 26.8533 12.3115C26.8533 12.3115 26.8533 12.3115 26.8533 17.2055C26.8533 17.2055 26.8533 17.2055 25.5406 17.2055C25.5406 17.2055 25.5406 17.2055 25.5406 12.3115C25.5406 12.3115 25.5406 12.3115 24.9941 12.3115C24.9941 12.3115 24.9941 12.3115 24.9941 11.1816Z" fill="#ED1C2A"/>
<path fill-rule="evenodd" clip-rule="evenodd" d="M34.4018 11.0742L34.4279 11.0775V12.3181L34.4018 12.3116C33.4146 12.3116 32.651 13.1191 32.651 14.1415C32.651 15.216 33.4146 16.0757 34.4018 16.0757L34.4279 16.0692V17.3097L34.4018 17.313C32.651 17.313 31.2822 15.9128 31.2822 14.1415C31.2822 12.419 32.651 11.0742 34.4018 11.0742Z" fill="#ED1C2A"/>
<path fill-rule="evenodd" clip-rule="evenodd" d="M34.4277 11.0771L35.0563 11.1358C36.527 11.4158 37.5729 12.6336 37.5729 14.1412C37.5729 15.6911 36.527 16.9578 35.0563 17.2476L34.4277 17.3094V16.0688L35.122 15.9256C35.7767 15.6325 36.2079 14.9455 36.2079 14.1412C36.2079 13.3728 35.7767 12.728 35.122 12.4545L34.4277 12.3178V11.0771Z" fill="#ED1C2A"/>
<path fill-rule="evenodd" clip-rule="evenodd" d="M37.8457 11.1816C37.8457 11.1816 37.8457 11.1816 39.0501 11.1816C39.4876 11.1816 39.7048 11.3965 39.7048 11.8817C39.7048 11.8817 39.7048 11.8817 39.7048 15.9681C39.7048 16.0202 39.7048 16.0202 39.7609 16.0202C39.7609 16.0202 39.7609 16.0202 41.3468 16.0202C41.3468 16.0202 41.3468 16.0202 41.3468 11.1816C41.3468 11.1816 41.3468 11.1816 42.6595 11.1816C42.6595 11.1816 42.6595 11.1816 42.6595 16.0202C42.6595 16.0202 42.6595 16.0202 44.2454 16.0202C44.3014 16.0202 44.3014 16.0202 44.3014 15.9681C44.3014 15.9681 44.3014 15.9681 44.3014 11.8817C44.3014 11.3965 44.5186 11.1816 44.9562 11.1816C44.9562 11.1816 44.9562 11.1816 46.1606 11.1816C46.1606 11.1816 46.1606 11.1816 46.1606 12.3115C46.1606 12.3115 46.1606 12.3115 45.667 12.3115C45.6109 12.3115 45.6109 12.3669 45.6109 12.3669C45.6109 12.3669 45.6109 12.3669 45.6109 16.5054C45.6109 16.9906 45.3938 17.2055 44.9562 17.2055C44.9562 17.2055 44.9562 17.2055 39.1029 17.2055C38.6125 17.2055 38.3921 16.9906 38.3921 16.5054C38.3921 16.5054 38.3921 16.5054 38.3921 12.3669C38.3921 12.3669 38.3921 12.3115 38.3393 12.3115C38.3393 12.3115 38.3393 12.3115 37.8457 12.3115C37.8457 12.3115 37.8457 12.3115 37.8457 11.1816Z" fill="#ED1C2A"/>
<path fill-rule="evenodd" clip-rule="evenodd" d="M47.1972 11.1816C47.1972 11.1816 47.1972 11.1816 51.3002 11.1816C51.7933 11.1816 51.9582 11.3965 51.9582 11.8263C51.9582 11.8263 51.9582 11.8263 51.9582 12.8488H50.7538C50.7538 12.8488 50.7538 12.8488 50.7538 12.3669C50.7538 12.3115 50.7538 12.3115 50.6977 12.3115C50.6977 12.3115 50.6977 12.3115 49.9347 12.3115C49.9347 12.3115 49.9347 12.3115 49.9347 17.2055C49.9347 17.2055 49.9347 17.2055 48.6182 17.2055C48.6182 17.2055 48.6182 17.2055 48.6182 12.3115C48.6182 12.3115 48.6182 12.3115 47.8551 12.3115C47.7991 12.3115 47.7991 12.3115 47.7991 12.3669C47.7991 12.3669 47.7991 12.3669 47.7991 12.8488C47.7991 12.8488 47.7991 12.8488 46.5947 12.8488C46.5947 12.8488 46.5947 12.8488 46.5947 11.8263C46.5947 11.3965 46.7596 11.1816 47.1972 11.1816Z" fill="#ED1C2A"/>
<path fill-rule="evenodd" clip-rule="evenodd" d="M53.6527 11.1816C53.6527 11.1816 53.6527 11.1816 54.2055 11.1816H54.3074V12.9041C54.2519 13.0116 54.1991 13.1711 54.1991 13.3339C54.1991 13.3339 54.1991 13.3339 53.7615 14.5712C53.7615 14.5712 53.7615 14.5712 54.2221 14.5712H54.3074V15.6979H54.0113C53.8437 15.6979 53.6527 15.6979 53.4323 15.6979C53.4323 15.6979 53.4323 15.6979 53.0508 16.6129C52.9424 17.0427 52.7215 17.2055 52.284 17.2055C52.284 17.2055 52.284 17.2055 51.4648 17.2055C51.4648 17.2055 51.4648 17.2055 51.4648 16.0202C51.4648 16.0202 51.4648 16.0202 51.7381 16.0202C51.8501 16.0202 51.8501 16.0202 51.9024 15.9681C51.9024 15.9681 51.9024 15.9681 53.6527 11.1816Z" fill="#ED1C2A"/>
<path fill-rule="evenodd" clip-rule="evenodd" d="M54.3076 11.1816H54.9624C54.9624 11.1816 54.9624 11.1816 56.7164 15.9681C56.7687 16.0202 56.7687 16.0202 56.8807 16.0202H57.0979C57.0979 16.0202 57.0979 16.0202 57.0979 17.2055C57.0979 17.2055 57.0979 17.2055 56.3311 17.2055C55.8935 17.2055 55.6764 17.0427 55.5648 16.6129C55.5648 16.6129 55.5648 16.6129 55.1828 15.6979C55.1828 15.6979 55.1828 15.6979 54.4458 15.6979H54.3076V14.5712H54.854C54.854 14.5712 54.854 14.5712 54.4165 13.3339C54.4165 13.1711 54.3636 13.0116 54.3076 12.9041V11.1816Z" fill="#ED1C2A"/>
<path fill-rule="evenodd" clip-rule="evenodd" d="M16.5648 6.00093C16.6273 5.9814 16.71 6.0205 16.7921 6.12793C16.7921 6.12793 16.7921 6.12793 20.5099 9.72924C20.7271 9.94415 20.7271 10.2697 20.5099 10.4293C20.5099 10.4293 20.5099 10.4293 16.7921 14.086C16.71 14.1934 16.6273 14.2195 16.5648 14.1869C16.5024 14.1543 16.4629 14.0599 16.4629 13.9232V6.23541C16.4629 6.1019 16.5024 6.0205 16.5648 6.00093Z" fill="#ED1C2A"/>
<path fill-rule="evenodd" clip-rule="evenodd" d="M10.2055 0H10.4686L10.7221 0.104196C10.7221 0.104196 10.7221 0.104196 14.5487 3.86831C14.713 4.08322 14.657 4.24601 14.3838 4.24601C14.3838 4.24601 14.3838 4.24601 12.7979 4.24601C12.5246 4.24601 12.308 4.46092 12.308 4.7312C12.308 4.7312 12.308 4.7312 12.308 7.52498C12.308 7.79521 12.0871 8.01012 11.7584 8.01012C11.7584 8.01012 11.7584 8.01012 8.97127 8.01012C8.69859 8.01012 8.47767 7.79521 8.47767 7.52498C8.47767 7.52498 8.47767 7.52498 8.47767 4.7312C8.47767 4.46092 8.26049 4.24601 7.9846 4.24601H6.28982C6.01661 4.24601 5.96111 4.08322 6.12547 3.86831C6.12547 3.86831 6.12547 3.86831 9.95526 0.104196L10.2055 0Z" fill="#ED1C2A"/>
<path fill-rule="evenodd" clip-rule="evenodd" d="M4.20987 5.91987C4.27924 5.9524 4.32193 6.04682 4.32193 6.18358V14.0309C4.32193 14.1677 4.27924 14.2491 4.20987 14.2751C4.14424 14.3012 4.04872 14.2751 3.93719 14.1937C3.93719 14.1937 3.93718 14.1937 0.162888 10.4296C-0.0542959 10.2701 -0.0542959 9.94443 0.162888 9.72952C0.162888 9.72952 0.162895 9.72952 3.93719 6.02079C4.04872 5.91336 4.14424 5.88727 4.20987 5.91987Z" fill="#ED1C2A"/>
<path fill-rule="evenodd" clip-rule="evenodd" d="M8.97118 12.0967C8.97118 12.0967 8.97117 12.0967 11.7583 12.0967C12.087 12.0967 12.3079 12.3116 12.3079 12.5818C12.3079 12.5818 12.3079 12.5818 12.3079 15.5384C12.3079 15.8608 12.5251 16.0757 12.7978 16.0757H14.2754C14.5486 16.0757 14.6569 16.2352 14.4397 16.398C14.4397 16.398 14.4397 16.398 10.722 20.1068C10.6099 20.2143 10.4749 20.2696 10.3367 20.2696C10.2017 20.2696 10.0635 20.2143 9.95517 20.1068C9.95517 20.1068 9.95517 20.1068 6.2369 16.398C6.01651 16.2352 6.12538 16.0757 6.39859 16.0757C6.39859 16.0757 6.39859 16.0757 7.98451 16.0757C8.26093 16.0757 8.47757 15.8608 8.47757 15.5384C8.47757 15.5384 8.47757 15.5384 8.47757 12.5818C8.47757 12.3116 8.6985 12.0967 8.97118 12.0967Z" fill="#ED1C2A"/>
</svg>
