<svg width="45" height="15" viewBox="0 0 45 15" fill="none" xmlns="http://www.w3.org/2000/svg">
<path d="M19.4318 14.2938H15.7744L18.0598 0.250926H21.7178L19.4318 14.2938ZM12.697 0.250926L9.21029 9.90975L8.7978 7.82983V7.83058L7.56727 1.51534C7.56727 1.51534 7.41839 0.250926 5.83247 0.250926H0.0677773L0 0.488703C0 0.488703 1.76309 0.855353 3.82607 2.09382L7.00377 14.2942H10.8143L16.6335 0.250926H12.697ZM41.4655 14.2938H44.8241L41.8961 0.250553H38.9559C37.5978 0.250553 37.2675 1.29707 37.2675 1.29707L31.8123 14.2938H35.625L36.3876 12.2079H41.0375L41.4655 14.2938ZM37.4409 9.32636L39.3625 4.07117L40.4441 9.32636H37.4409ZM32.0983 3.6279L32.6202 0.612278C32.6202 0.612278 31.0097 0 29.3304 0C27.5156 0 23.2055 0.792997 23.2055 4.6489C23.2055 8.27683 28.2643 8.3219 28.2643 10.2276C28.2643 12.1332 23.7264 11.7917 22.229 10.5901L21.6853 13.7431C21.6853 13.7431 23.3187 14.5361 25.8139 14.5361C28.3096 14.5361 32.0749 13.2443 32.0749 9.72834C32.0749 6.0771 26.9708 5.73716 26.9708 4.14968C26.9713 2.56189 30.5332 2.76581 32.0983 3.6279Z" fill="#1A1F71"/>
</svg>
