<svg width="192" height="192" viewBox="0 0 192 192" fill="none" xmlns="http://www.w3.org/2000/svg">
<path d="M129.399 47V54.4698C126.747 52.7213 123.638 51.4877 120.228 50.8466C115.361 49.9238 109.91 50.1667 104.023 51.5557C98.1648 52.9448 92.1998 55.4023 86.2736 58.8701C80.1433 62.4641 74.3337 66.981 69.0098 72.3041C63.686 77.6271 59.1685 83.4359 55.5739 89.5652C52.1056 95.4905 49.6477 101.455 48.2584 107.312C46.8691 113.199 46.6263 118.648 47.5492 123.514C48.4916 128.507 50.6969 132.849 53.9223 136.074C57.1477 139.299 61.4904 141.504 66.4839 142.446C68.4172 142.815 70.4477 143 72.5559 143C75.7521 143 79.1427 142.582 82.6887 141.737C88.5469 140.348 94.512 137.891 100.438 134.423C106.568 130.829 112.378 126.312 117.702 120.989C122.2 116.491 126.125 111.644 129.399 106.545V139.668H143V47H129.399ZM125.212 82.8434C124.153 87.3214 122.142 92.1587 119.392 96.8504C116.39 101.979 112.582 106.865 108.074 111.363C103.566 115.87 98.6895 119.668 93.5599 122.679C88.8772 125.428 84.0294 127.439 79.5507 128.498C72.3713 130.197 66.5422 129.449 63.5402 126.448C60.5383 123.446 59.7999 117.618 61.4904 110.44C62.5493 105.962 64.5603 101.124 67.3097 96.4328C70.3117 91.304 74.12 86.418 78.6278 81.9206C83.1356 77.4134 88.0126 73.6154 93.1421 70.6042C97.8248 67.8552 102.673 65.8445 107.151 64.7857C109.677 64.1834 112.038 63.892 114.175 63.892C118.09 63.892 121.228 64.8925 123.171 66.8353C126.164 69.8271 126.912 75.665 125.212 82.8434Z" fill="#00C8FA"/>
<rect x="1.5" y="1.5" width="189" height="189" rx="38.5" stroke="#00C8FA" stroke-width="3"/>
</svg>
