<svg width="30" height="30" viewBox="0 0 30 30" fill="none" xmlns="http://www.w3.org/2000/svg">
<g clip-path="url(#clip0_25755_3504)">
<mask id="mask0_25755_3504" style="mask-type:luminance" maskUnits="userSpaceOnUse" x="0" y="0" width="30" height="30">
<path d="M30 0H0V30H30V0Z" fill="white"/>
</mask>
<g mask="url(#mask0_25755_3504)">
<path d="M17.6903 6.03725L14.8177 1H9.01801L13.009 6.03725H17.6903Z" fill="#00D352"/>
<path d="M25 18.6615V8.52063H19.9336V9.96626C18.3491 8.93649 16.4898 8.30762 14.5012 8.30762C8.70155 8.30762 4 12.9578 4 18.6928C4 24.4278 8.70155 29.078 14.5012 29.078C16.4898 29.078 18.3479 28.4491 19.9336 27.418V28.8651H25C25 28.8651 25 18.7029 25 18.6928C25 18.6828 25 18.6715 25 18.6615ZM14.5012 24.2437C11.4007 24.2437 8.88775 21.7582 8.88775 18.6928C8.88775 15.6274 11.4007 13.1433 14.5012 13.1433C17.6019 13.1433 20.1122 15.6274 20.1122 18.6928C20.1122 21.7582 17.6006 24.2437 14.5012 24.2437Z" fill="#00D352"/>
</g>
</g>
<defs>
<clipPath id="clip0_25755_3504">
<rect width="30" height="30" fill="white"/>
</clipPath>
</defs>
</svg>
