<svg width="35" height="35" viewBox="0 0 35 35" fill="none" xmlns="http://www.w3.org/2000/svg">
<path d="M17.3852 34.7704C25.0026 34.7704 29.2388 34.7704 32.0046 32.0046C34.7704 29.2389 34.7704 25.0047 34.7704 17.3852C34.7704 9.76577 34.7704 5.53156 32.0046 2.76578C29.2388 1.98918e-06 25.0047 0 17.3852 0C9.76575 0 5.53156 1.98918e-06 2.76578 2.76578C0 5.53156 0 9.76577 0 17.3852C0 25.0047 0 29.2389 2.76578 32.0046C5.53156 34.7704 9.76575 34.7704 17.3852 34.7704Z" fill="#151B1F"/>
<path d="M23.9139 13.9481C22.5998 13.9481 21.6257 14.9618 21.6257 16.2132C21.6257 17.2353 22.3432 18.0321 23.2527 18.2678L21.3879 21.1232H23.1296L24.7148 18.4659H25.9016V21.1232H27.3554V13.9481H23.9139ZM24.1141 17.2499C23.5155 17.2499 23.1463 16.7806 23.1463 16.2466C23.1463 15.7127 23.4842 15.2037 24.1141 15.2037H25.9037V17.2499H24.1141Z" fill="white"/>
<path d="M15.9566 13.9481L15.4747 15.2746L17.4542 15.2642L16.2819 19.5631C15.9482 20.8166 17.2539 21.7636 18.3698 21.0273L20.9041 19.3086L20.1574 18.2115L17.6252 19.9656L19.3314 13.9501H15.9566V13.9481Z" fill="white"/>
<path d="M19.6922 12.1182C19.6922 12.6188 19.4711 13.0234 18.6869 13.0234C17.9026 13.0234 17.6815 12.6167 17.6815 12.1182C17.6815 11.6197 17.9381 11.213 18.6869 11.213C19.4357 11.213 19.6922 11.6197 19.6922 12.1182Z" fill="white"/>
<path d="M13.5556 19.7938V12.2808H7.97813V16.2918C7.97813 18.1794 7.43165 19.3454 7.10834 19.7938H6.44714V23.0748H7.86132V21.135H13.1488V23.0748H14.563V19.7938H13.5535H13.5556ZM9.38396 16.2104V13.6136H12.1018V19.7938H8.58927C8.91048 19.2724 9.38187 17.9458 9.38187 16.2104" fill="white"/>
</svg>
