<svg width="32" height="32" viewBox="0 0 32 32" fill="none" xmlns="http://www.w3.org/2000/svg">
<rect x="0.5" y="0.5" width="31" height="31" rx="15.5" fill="white"/>
<g clip-path="url(#clip0_1576_23533)">
<path d="M6.40921 16.1494C7.1875 16.1494 7.81843 15.5301 7.81843 14.7661C7.81843 14.0022 7.1875 13.3829 6.40921 13.3829C5.63093 13.3829 5 14.0022 5 14.7661C5 15.5301 5.63093 16.1494 6.40921 16.1494Z" fill="#005BAA"/>
<path d="M11.8804 26.1067C12.5489 26.1067 13.0909 25.5757 13.0909 24.9207C13.0909 24.2656 12.5489 23.7346 11.8804 23.7346C11.2119 23.7346 10.6699 24.2656 10.6699 24.9207C10.6699 25.5757 11.2119 26.1067 11.8804 26.1067Z" fill="#005BAA"/>
<path d="M14.3707 26.761C14.9627 26.761 15.4426 26.2902 15.4426 25.7094C15.4426 25.1287 14.9627 24.6578 14.3707 24.6578C13.7786 24.6578 13.2987 25.1287 13.2987 25.7094C13.2987 26.2902 13.7786 26.761 14.3707 26.761Z" fill="#005BAA"/>
<path d="M16.629 27.003C17.1312 27.003 17.5383 26.603 17.5383 26.1097C17.5383 25.6164 17.1312 25.2164 16.629 25.2164C16.1267 25.2164 15.7196 25.6164 15.7196 26.1097C15.7196 26.603 16.1267 27.003 16.629 27.003Z" fill="#005BAA"/>
<path d="M19.0018 26.6147C19.4391 26.6147 19.7937 26.2669 19.7937 25.8379C19.7937 25.4089 19.4391 25.0612 19.0018 25.0612C18.5644 25.0612 18.2098 25.4089 18.2098 25.8379C18.2098 26.2669 18.5644 26.6147 19.0018 26.6147Z" fill="#005BAA"/>
<path d="M21.0584 26.047C21.4958 26.047 21.8503 25.6993 21.8503 25.2703C21.8503 24.8413 21.4958 24.4935 21.0584 24.4935C20.621 24.4935 20.2665 24.8413 20.2665 25.2703C20.2665 25.6993 20.621 26.047 21.0584 26.047Z" fill="#005BAA"/>
<path d="M22.7206 24.8968C23.0864 24.8968 23.383 24.6065 23.383 24.2485C23.383 23.8905 23.0864 23.6002 22.7206 23.6002C22.3547 23.6002 22.0581 23.8905 22.0581 24.2485C22.0581 24.6065 22.3547 24.8968 22.7206 24.8968Z" fill="#005BAA"/>
<path d="M24.1539 23.421C24.4216 23.421 24.6387 23.2083 24.6387 22.946C24.6387 22.6836 24.4216 22.4709 24.1539 22.4709C23.8861 22.4709 23.6691 22.6836 23.6691 22.946C23.6691 23.2083 23.8861 23.421 24.1539 23.421Z" fill="#005BAA"/>
<path d="M7.64981 22.2349C8.4281 22.2349 9.05903 21.6157 9.05903 20.8517C9.05903 20.0878 8.4281 19.4685 7.64981 19.4685C6.87153 19.4685 6.2406 20.0878 6.2406 20.8517C6.2406 21.6157 6.87153 22.2349 7.64981 22.2349Z" fill="#005BAA"/>
<path d="M9.67325 24.3978C10.3717 24.3978 10.9379 23.8428 10.9379 23.158C10.9379 22.4733 10.3717 21.9182 9.67325 21.9182C8.97479 21.9182 8.40857 22.4733 8.40857 23.158C8.40857 23.8428 8.97479 24.3978 9.67325 24.3978Z" fill="#005BAA"/>
<path d="M11.6396 22.6442C12.1817 22.6442 12.6212 22.2135 12.6212 21.6822C12.6212 21.1509 12.1817 20.7202 11.6396 20.7202C11.0975 20.7202 10.658 21.1509 10.658 21.6822C10.658 22.2135 11.0975 22.6442 11.6396 22.6442Z" fill="#005BAA"/>
<path d="M13.5667 21.2341C13.9692 21.2341 14.2954 20.9144 14.2954 20.52C14.2954 20.1257 13.9692 19.806 13.5667 19.806C13.1643 19.806 12.838 20.1257 12.838 20.52C12.838 20.9144 13.1643 21.2341 13.5667 21.2341Z" fill="#005BAA"/>
<path d="M15.7167 20.4275C16.0559 20.4275 16.331 20.1573 16.331 19.8241C16.331 19.4908 16.0559 19.2206 15.7167 19.2206C15.3774 19.2206 15.1024 19.4908 15.1024 19.8241C15.1024 20.1573 15.3774 20.4275 15.7167 20.4275Z" fill="#005BAA"/>
<path d="M17.4299 19.6477C17.6894 19.6477 17.8997 19.4417 17.8997 19.1876C17.8997 18.9335 17.6894 18.7275 17.4299 18.7275C17.1705 18.7275 16.9602 18.9335 16.9602 19.1876C16.9602 19.4417 17.1705 19.6477 17.4299 19.6477Z" fill="#005BAA"/>
<path d="M19.0349 19.5909C19.2944 19.5909 19.5047 19.3849 19.5047 19.1309C19.5047 18.8768 19.2944 18.6708 19.0349 18.6708C18.7755 18.6708 18.5652 18.8768 18.5652 19.1309C18.5652 19.3849 18.7755 19.5909 19.0349 19.5909Z" fill="#005BAA"/>
<path d="M20.4802 19.7403C20.7397 19.7403 20.95 19.5344 20.95 19.2803C20.95 19.0262 20.7397 18.8202 20.4802 18.8202C20.2208 18.8202 20.0105 19.0262 20.0105 19.2803C20.0105 19.5344 20.2208 19.7403 20.4802 19.7403Z" fill="#005BAA"/>
<path d="M21.8985 19.7015C22.1363 19.7015 22.3291 19.5129 22.3291 19.2802C22.3291 19.0476 22.1363 18.859 21.8985 18.859C21.6607 18.859 21.4679 19.0476 21.4679 19.2802C21.4679 19.5129 21.6607 19.7015 21.8985 19.7015Z" fill="#005BAA"/>
<path d="M7.2012 13.1111C7.90964 13.1111 8.48395 12.5493 8.48395 11.8563C8.48395 11.1633 7.90964 10.6016 7.2012 10.6016C6.49276 10.6016 5.91846 11.1633 5.91846 11.8563C5.91846 12.5493 6.49276 13.1111 7.2012 13.1111Z" fill="#005BAA"/>
<path d="M10.0015 13.4576C10.5203 13.4576 10.941 13.0403 10.941 12.5255C10.941 12.0107 10.5203 11.5934 10.0015 11.5934C9.48263 11.5934 9.06201 12.0107 9.06201 12.5255C9.06201 13.0403 9.48263 13.4576 10.0015 13.4576Z" fill="#005BAA"/>
<path d="M12.32 13.4278C12.7657 13.4278 13.127 13.0332 13.127 12.5465C13.127 12.0597 12.7657 11.6652 12.32 11.6652C11.8744 11.6652 11.5131 12.0597 11.5131 12.5465C11.5131 13.0332 11.8744 13.4278 12.32 13.4278Z" fill="#005BAA"/>
<path d="M14.2954 13.3082C14.7411 13.3082 15.1024 12.9497 15.1024 12.5076C15.1024 12.0654 14.7411 11.7069 14.2954 11.7069C13.8497 11.7069 13.4884 12.0654 13.4884 12.5076C13.4884 12.9497 13.8497 13.3082 14.2954 13.3082Z" fill="#005BAA"/>
<path d="M16.1412 13.2097C16.4705 13.2097 16.7375 12.9248 16.7375 12.5734C16.7375 12.2219 16.4705 11.937 16.1412 11.937C15.812 11.937 15.545 12.2219 15.545 12.5734C15.545 12.9248 15.812 13.2097 16.1412 13.2097Z" fill="#005BAA"/>
<path d="M17.6919 12.8063C18.0212 12.8063 18.2881 12.5321 18.2881 12.1939C18.2881 11.8556 18.0212 11.5814 17.6919 11.5814C17.3626 11.5814 17.0957 11.8556 17.0957 12.1939C17.0957 12.5321 17.3626 12.8063 17.6919 12.8063Z" fill="#005BAA"/>
<path d="M19.2968 12.0774C19.5729 12.0774 19.7967 11.8554 19.7967 11.5815C19.7967 11.3076 19.5729 11.0856 19.2968 11.0856C19.0208 11.0856 18.797 11.3076 18.797 11.5815C18.797 11.8554 19.0208 12.0774 19.2968 12.0774Z" fill="#005BAA"/>
<path d="M20.4802 11.3096C20.7247 11.3096 20.9229 11.121 20.9229 10.8884C20.9229 10.6558 20.7247 10.4672 20.4802 10.4672C20.2358 10.4672 20.0376 10.6558 20.0376 10.8884C20.0376 11.121 20.2358 11.3096 20.4802 11.3096Z" fill="#005BAA"/>
<path d="M21.8504 10.5897C22.0633 10.5897 22.2358 10.4251 22.2358 10.2222C22.2358 10.0193 22.0633 9.85474 21.8504 9.85474C21.6375 9.85474 21.465 10.0193 21.465 10.2222C21.465 10.4251 21.6375 10.5897 21.8504 10.5897Z" fill="#005BAA"/>
<path d="M8.83324 10.721C9.52838 10.721 10.0919 10.1834 10.0919 9.52007C10.0919 8.85679 9.52838 8.31909 8.83324 8.31909C8.1381 8.31909 7.57458 8.85679 7.57458 9.52007C7.57458 10.1834 8.1381 10.721 8.83324 10.721Z" fill="#005BAA"/>
<path d="M10.4923 8.70448C11.0627 8.70448 11.5251 8.2243 11.5251 7.63196C11.5251 7.03963 11.0627 6.55945 10.4923 6.55945C9.92188 6.55945 9.45947 7.03963 9.45947 7.63196C9.45947 8.2243 9.92188 8.70448 10.4923 8.70448Z" fill="#005BAA"/>
<path d="M12.6031 7.50049C13.1353 7.50049 13.5667 7.09387 13.5667 6.59228C13.5667 6.0907 13.1353 5.68408 12.6031 5.68408C12.0709 5.68408 11.6395 6.0907 11.6395 6.59228C11.6395 7.09387 12.0709 7.50049 12.6031 7.50049Z" fill="#005BAA"/>
<path d="M14.8404 6.92102C15.3726 6.92102 15.804 6.5144 15.804 6.01282C15.804 5.51123 15.3726 5.10461 14.8404 5.10461C14.3082 5.10461 13.8768 5.51123 13.8768 6.01282C13.8768 6.5144 14.3082 6.92102 14.8404 6.92102Z" fill="#005BAA"/>
<path d="M17.1229 6.47583C17.5602 6.47583 17.9148 6.14545 17.9148 5.73791C17.9148 5.33038 17.5602 5 17.1229 5C16.6855 5 16.3309 5.33038 16.3309 5.73791C16.3309 6.14545 16.6855 6.47583 17.1229 6.47583Z" fill="#005BAA"/>
<path d="M19.0319 6.75073C19.4693 6.75073 19.8238 6.42036 19.8238 6.01282C19.8238 5.60528 19.4693 5.2749 19.0319 5.2749C18.5945 5.2749 18.24 5.60528 18.24 6.01282C18.24 6.42036 18.5945 6.75073 19.0319 6.75073Z" fill="#005BAA"/>
<path d="M21.0554 7.19587C21.3897 7.19587 21.6607 6.93103 21.6607 6.60434C21.6607 6.27765 21.3897 6.01282 21.0554 6.01282C20.7212 6.01282 20.4502 6.27765 20.4502 6.60434C20.4502 6.93103 20.7212 7.19587 21.0554 7.19587Z" fill="#005BAA"/>
<path d="M22.4977 8.02335C22.7671 8.02335 22.9855 7.80131 22.9855 7.52742C22.9855 7.25353 22.7671 7.03149 22.4977 7.03149C22.2283 7.03149 22.0099 7.25353 22.0099 7.52742C22.0099 7.80131 22.2283 8.02335 22.4977 8.02335Z" fill="#005BAA"/>
<path d="M23.7866 9.04803C24.0293 9.04803 24.2262 8.85676 24.2262 8.62082C24.2262 8.38487 24.0293 8.1936 23.7866 8.1936C23.5438 8.1936 23.3469 8.38487 23.3469 8.62082C23.3469 8.85676 23.5438 9.04803 23.7866 9.04803Z" fill="#005BAA"/>
<path d="M24.5604 10.3655C24.8032 10.3655 25 10.1743 25 9.93832C25 9.70238 24.8032 9.51111 24.5604 9.51111C24.3176 9.51111 24.1207 9.70238 24.1207 9.93832C24.1207 10.1743 24.3176 10.3655 24.5604 10.3655Z" fill="#005BAA"/>
<path d="M6.76151 19.4476C7.5847 19.4476 8.25203 18.8015 8.25203 18.0046C8.25203 17.2077 7.5847 16.5616 6.76151 16.5616C5.93832 16.5616 5.271 17.2077 5.271 18.0046C5.271 18.8015 5.93832 19.4476 6.76151 19.4476Z" fill="#005BAA"/>
<path d="M9.67329 18.5902C10.3302 18.5902 10.8627 18.0471 10.8627 17.3772C10.8627 16.7074 10.3302 16.1643 9.67329 16.1643C9.0164 16.1643 8.48389 16.7074 8.48389 17.3772C8.48389 18.0471 9.0164 18.5902 9.67329 18.5902Z" fill="#005BAA"/>
<path d="M12.3201 17.7357C12.8473 17.7357 13.2747 17.3264 13.2747 16.8215C13.2747 16.3166 12.8473 15.9073 12.3201 15.9073C11.793 15.9073 11.3656 16.3166 11.3656 16.8215C11.3656 17.3264 11.793 17.7357 12.3201 17.7357Z" fill="#005BAA"/>
<path d="M14.6688 17.2219C15.0696 17.2219 15.3945 16.8835 15.3945 16.466C15.3945 16.0486 15.0696 15.7102 14.6688 15.7102C14.268 15.7102 13.9431 16.0486 13.9431 16.466C13.9431 16.8835 14.268 17.2219 14.6688 17.2219Z" fill="#005BAA"/>
<path d="M17.0958 16.6214C17.4966 16.6214 17.8215 16.3138 17.8215 15.9343C17.8215 15.5548 17.4966 15.2472 17.0958 15.2472C16.695 15.2472 16.3701 15.5548 16.3701 15.9343C16.3701 16.3138 16.695 16.6214 17.0958 16.6214Z" fill="#005BAA"/>
<path d="M19.1494 16.024C19.4703 16.024 19.7305 15.7498 19.7305 15.4115C19.7305 15.0733 19.4703 14.7991 19.1494 14.7991C18.8284 14.7991 18.5682 15.0733 18.5682 15.4115C18.5682 15.7498 18.8284 16.024 19.1494 16.024Z" fill="#005BAA"/>
<path d="M20.95 15.4533C21.2343 15.4533 21.4649 15.2112 21.4649 14.9126C21.4649 14.6139 21.2343 14.3718 20.95 14.3718C20.6656 14.3718 20.4351 14.6139 20.4351 14.9126C20.4351 15.2112 20.6656 15.4533 20.95 15.4533Z" fill="#005BAA"/>
<path d="M22.7205 14.799C22.9068 14.799 23.0578 14.6412 23.0578 14.4465C23.0578 14.2518 22.9068 14.094 22.7205 14.094C22.5343 14.094 22.3833 14.2518 22.3833 14.4465C22.3833 14.6412 22.5343 14.799 22.7205 14.799Z" fill="#005BAA"/>
</g>
<rect x="0.5" y="0.5" width="31" height="31" rx="15.5" stroke="#E5E5E5"/>
<defs>
<clipPath id="clip0_1576_23533">
<rect width="20" height="22" fill="white" transform="translate(5 5)"/>
</clipPath>
</defs>
</svg>
