<svg width="22" height="22" viewBox="0 0 22 22" fill="none" xmlns="http://www.w3.org/2000/svg">
<g clip-path="url(#clip0_14404_168)">
<circle cx="11" cy="11" r="11" fill="#FF4D00"/>
<path d="M4.46643 5.13244C5.01776 4.77254 5.85132 5.20135 5.86663 5.86536C5.97712 6.60265 5.04073 7.15399 4.43799 6.73283C3.84181 6.4145 3.85712 5.4267 4.46643 5.13244Z" fill="white"/>
<path d="M16.6053 5.12589C17.1982 4.7474 18.0919 5.27685 17.9923 5.98899C18.0208 6.70878 17.0581 7.13978 16.5112 6.69566C15.962 6.34342 16.0189 5.4114 16.6053 5.12589Z" fill="white"/>
<path d="M7.91346 8.20412C9.34539 8.2074 10.7762 8.20631 12.2082 8.20412C12.7453 8.21725 13.3185 8.34961 13.7112 8.73904C14.3216 9.31663 14.4189 10.3274 13.9759 11.0319C13.7353 11.4487 13.29 11.697 12.8459 11.8447C11.8056 12.1728 10.7511 12.4616 9.71294 12.7975C9.42853 12.8631 9.22068 13.2317 9.40665 13.4877C9.52151 13.701 9.78624 13.759 10.0094 13.7601C11.3691 13.759 12.73 13.7579 14.0897 13.7601C14.0853 14.2228 14.0864 14.6855 14.0886 15.1483C12.6195 15.1461 11.1503 15.1494 9.68231 15.1472C9.02159 15.1537 8.3007 14.8584 7.98238 14.2502C7.75266 13.7995 7.66405 13.2569 7.83142 12.7712C8.00316 12.1663 8.55668 11.7659 9.12004 11.5559C10.1932 11.1719 11.3024 10.9039 12.3788 10.5309C12.8426 10.3788 12.6851 9.60214 12.2005 9.63386C10.7708 9.61308 9.34101 9.63386 7.91127 9.62402C7.91127 9.15145 7.91018 8.67778 7.91346 8.20412Z" fill="white"/>
<path d="M4.13293 15.1483C4.14168 12.8325 4.12418 10.5167 4.14168 8.20091C4.67223 8.21185 5.20278 8.2031 5.73442 8.20748C5.73114 10.5211 5.73223 12.8347 5.73332 15.1483C5.19949 15.1483 4.66567 15.1472 4.13293 15.1483Z" fill="white"/>
<path d="M16.2629 8.20748C16.7934 8.20201 17.324 8.21185 17.8545 8.19982C17.8742 10.5156 17.8545 12.8325 17.8644 15.1494C17.3316 15.1472 16.7989 15.1473 16.2662 15.1483C16.264 12.8347 16.2684 10.5211 16.2629 8.20748Z" fill="white"/>
</g>
<defs>
<clipPath id="clip0_14404_168">
<rect width="22" height="22" fill="white"/>
</clipPath>
</defs>
</svg>
