<svg width="21" height="20" viewBox="0 0 21 20" fill="none" xmlns="http://www.w3.org/2000/svg">
<rect x="0.5" width="20" height="20" rx="10" fill="url(#paint0_linear_9054_9947)"/>
<path fill-rule="evenodd" clip-rule="evenodd" d="M6.86972 11.2591V8.8758C6.86972 8.19974 6.49648 7.87878 5.86972 7.87878C5.34859 7.87878 4.89789 8.17925 4.7007 8.47972C4.57394 8.10414 4.25704 7.87878 3.75704 7.87878C3.23592 7.87878 2.78521 8.19291 2.64437 8.39095V7.96073H1.75V11.2591H2.64437V9.03969C2.77817 8.85531 3.03873 8.65044 3.34859 8.65044C3.71479 8.65044 3.85563 8.86897 3.85563 9.17627V11.2591H4.75704V9.03286C4.8838 8.85531 5.14437 8.65044 5.46127 8.65044C5.82746 8.65044 5.96831 8.86897 5.96831 9.17627V11.2591H6.86972ZM9.32747 11.341C8.20775 11.341 7.53169 10.5489 7.53169 9.60648C7.53169 8.67093 8.20775 7.87878 9.32747 7.87878C10.4542 7.87878 11.1303 8.67093 11.1303 9.60648C11.1303 10.5489 10.4542 11.341 9.32747 11.341ZM9.32747 10.5694C9.8838 10.5694 10.2007 10.1255 10.2007 9.60648C10.2007 9.09432 9.8838 8.65044 9.32747 8.65044C8.77113 8.65044 8.46127 9.09432 8.46127 9.60648C8.46127 10.1255 8.77113 10.5694 9.32747 10.5694ZM14.9824 11.2591V8.93043C14.9824 8.28852 14.6232 7.87878 13.8768 7.87878C13.3204 7.87878 12.9049 8.13828 12.6866 8.39095V7.96073H11.7923V11.2591H12.6866V9.03969C12.8345 8.84165 13.1092 8.65044 13.4613 8.65044C13.8415 8.65044 14.088 8.80751 14.088 9.26504V11.2591H14.9824ZM17.4472 11.341C16.3275 11.341 15.6514 10.5489 15.6514 9.60648C15.6514 8.67093 16.3275 7.87878 17.4472 7.87878C18.5739 7.87878 19.25 8.67093 19.25 9.60648C19.25 10.5489 18.5739 11.341 17.4472 11.341ZM17.4472 10.5694C18.0035 10.5694 18.3204 10.1255 18.3204 9.60648C18.3204 9.09432 18.0035 8.65044 17.4472 8.65044C16.8908 8.65044 16.581 9.09432 16.581 9.60648C16.581 10.1255 16.8908 10.5694 17.4472 10.5694Z" fill="white"/>
<defs>
<linearGradient id="paint0_linear_9054_9947" x1="10.5" y1="0" x2="10.5" y2="20" gradientUnits="userSpaceOnUse">
<stop stop-color="#343643"/>
<stop offset="1" stop-color="#1C1D22"/>
</linearGradient>
</defs>
</svg>
