<svg width="21" height="20" viewBox="0 0 21 20" fill="none" xmlns="http://www.w3.org/2000/svg">
<path d="M6.94869 17.4532C7.18456 17.4818 7.44084 17.4027 7.61473 17.2568C7.81374 17.0862 7.99261 16.7339 7.99261 16.3515C7.99261 15.9291 7.72431 15.8789 7.62466 15.8789C7.48059 15.8789 7.37128 15.9543 7.26693 16.0247L6.94869 17.4532ZM7.3514 15.5269C7.48059 15.4364 7.69422 15.2853 8.01744 15.2853C8.5143 15.2853 8.84746 15.6624 8.84746 16.3012C8.84746 16.6635 8.72326 17.0909 8.46462 17.408C7.97274 18.0164 7.3514 18.0113 6.82446 18.0113L6.54151 19.2136L6.50699 19.2387C6.39246 19.2387 6.28315 19.2335 6.16888 19.2335C5.99995 19.2335 5.85089 19.2438 5.66704 19.2488L5.64194 19.2136C5.64194 19.2136 5.81715 18.6804 6.03499 17.7639C6.2638 16.8022 6.47771 15.6756 6.49653 15.4462L6.53132 15.411L7.38121 15.2705L7.41128 15.3054L7.3514 15.5269ZM5.55303 17.956L5.51328 17.9963C5.35401 18.0267 5.1673 18.0516 5.06583 18.0516C4.69059 18.0516 4.13986 17.9941 4.37312 17.0361C4.53027 16.3883 4.64351 15.904 4.64351 15.904L4.29546 15.9141L4.26563 15.8738L4.40998 15.3657L4.44477 15.3408H4.7727L4.91678 14.6917L4.95157 14.6568C5.32447 14.5713 5.42357 14.5459 5.76666 14.4453L5.79648 14.4755L5.57786 15.3509L6.08465 15.3408L6.10474 15.3758C6.03491 15.587 6.01503 15.6425 5.95045 15.8789L5.9107 15.9141L5.45359 15.904C5.45359 15.904 5.36075 16.2944 5.23079 16.8377C5.09035 17.4254 5.1641 17.3953 5.30479 17.4514C5.42508 17.4995 5.58278 17.4381 5.67221 17.408L5.70202 17.4331L5.55296 17.956H5.55303ZM2.77508 15.8135C2.54129 15.8135 2.2769 15.9339 2.12418 16.6664C1.95447 17.4815 2.29286 17.5337 2.45709 17.5337C2.60614 17.5337 2.92361 17.4514 3.08129 16.6709C3.19191 16.1252 3.1043 15.8135 2.77508 15.8135ZM3.93563 16.6709C3.72197 17.9044 2.96361 18.0616 2.32163 18.0616C1.68799 18.0616 1.10379 17.6199 1.26908 16.6648C1.39824 15.9183 1.83627 15.2276 2.90112 15.2802C3.64379 15.317 4.08076 15.8323 3.93563 16.6709Z" fill="#00674C"/>
<path d="M18.6162 16.4711L19.3863 17.955L19.3565 17.9952L18.805 18.0103L18.7653 17.9799C18.6363 17.6266 18.0744 16.5164 18.0744 16.5164C17.9303 17.1552 17.9005 17.3061 17.776 17.9698L17.7415 18.0002L17.2394 18.0103L17.2195 17.9799C17.2195 17.9799 17.4847 16.8647 17.714 15.8323C17.8215 15.3496 17.9883 14.5853 18.0545 14.1222L18.089 14.092L18.6309 14.0015L18.6609 14.0367C18.5608 14.3842 18.089 16.446 18.089 16.446C18.4454 16.13 19.0385 15.5004 19.1181 15.415L19.1727 15.3848H19.7443L19.7592 15.43C19.618 15.5428 19.3565 15.782 19.2621 15.8675L18.6162 16.4711L18.6162 16.4711ZM16.7169 17.9711L16.6774 18.0013L16.1704 18.0164L16.1505 17.9814C16.2235 17.6427 16.5294 16.5082 16.5333 16.1554C16.5365 15.8537 16.3495 15.7531 16.1157 15.7531C15.8077 15.7531 15.6037 15.909 15.4547 16.0199C15.2708 16.8646 15.2112 17.1311 15.0522 17.9711L15.0171 18.0013L14.5106 18.0163L14.4855 17.9814C14.4855 17.9814 14.6364 17.3656 14.7726 16.7254C14.8793 16.2242 14.9669 15.8114 15.0072 15.4665L15.0422 15.4313C15.2758 15.4012 15.3304 15.3911 15.5692 15.3408L15.594 15.3758L15.5245 15.6322C15.7182 15.5017 15.9667 15.3255 16.3791 15.3255C16.543 15.3255 17.0799 15.371 17.0799 15.9794C17.0799 16.3433 16.7656 17.6159 16.7169 17.9711V17.9711ZM13.8882 15.7632C13.8134 15.7632 13.7392 15.7582 13.6644 15.7582C13.5004 15.7582 13.1775 15.7683 12.884 15.9696C12.3624 16.3314 12.3524 16.9803 12.3524 17.0057C12.3524 17.2471 12.4816 17.6342 12.9337 17.6342C13.0681 17.6342 13.2899 17.6025 13.5302 17.3876L13.8882 15.7632V15.7632ZM14.2559 16.4021C14.082 17.1767 14.0472 17.3677 13.9478 17.9664L13.9128 18.0013L13.4458 18.0113L13.4209 17.9761L13.4557 17.7753C13.3712 17.8454 13.1526 18.0315 12.73 18.0315C12.223 18.0315 11.8106 17.6694 11.8106 17.0406C11.8106 16.6434 11.9994 16.2107 12.2083 15.9593C12.6704 15.411 13.3116 15.3808 13.769 15.3808L14.4546 15.3861L14.4795 15.4261L14.2559 16.4021ZM9.49888 17.6091C9.78001 17.6223 10.1948 17.6141 10.5177 17.3929C10.8854 17.1362 11.0595 16.6887 11.0595 16.3666C11.0595 15.909 10.786 15.733 10.468 15.733C10.2144 15.733 10.0355 15.8437 9.87649 15.9442C9.87649 15.9442 9.52974 17.4858 9.49888 17.6091ZM8.89244 17.9761C8.92566 17.8237 9.13982 16.93 9.35899 15.9249C9.5462 15.063 9.6767 14.5252 9.72248 14.1235L9.76223 14.088L10.3041 13.9928L10.3289 14.028L10.1898 14.5864L9.96095 15.552C10.1699 15.4364 10.3684 15.3255 10.6866 15.3255C11.1785 15.3255 11.5912 15.6624 11.5912 16.2965C11.5912 16.5529 11.5117 17.0356 11.1785 17.423C10.7313 17.9412 10.1798 17.9761 9.53863 18.0013H9.26537L8.91729 18.0063L8.89244 17.9761V17.9761Z" fill="#6EC72D"/>
<path d="M7.93037 6.64052C7.93037 5.1977 9.08595 4.02798 10.5117 4.02798C11.9374 4.02798 13.0927 5.1977 13.0927 6.64052C13.0927 8.08308 11.9374 9.25279 10.5117 9.25279C9.08595 9.25279 7.93037 8.08308 7.93037 6.64052Z" fill="#6EC72D"/>
<path d="M12.3017 3.33144C12.3017 2.5047 12.9641 1.83436 13.781 1.83436C14.5982 1.83436 15.2609 2.5047 15.2609 3.33144C15.2609 4.15844 14.5982 4.82877 13.781 4.82877C12.9641 4.82877 12.3017 4.15844 12.3017 3.33144ZM4.67831 6.64051C4.67831 3.39019 7.28001 0.75516 10.4905 0.75119V2.87943C8.44109 2.88314 6.78108 4.56546 6.78108 6.64051C6.78108 8.71767 8.44502 10.4013 10.4973 10.4013C12.5376 10.4013 14.2138 8.73355 14.2138 6.62622L16.3166 6.62749C16.3166 9.89289 13.7114 12.5292 10.4973 12.5292C7.28342 12.5292 4.67831 9.89289 4.67831 6.64045" fill="#00674C"/>
</svg>
