<svg width="21" height="20" viewBox="0 0 21 20" fill="none" xmlns="http://www.w3.org/2000/svg">
<g clip-path="url(#clip0_9054_9916)">
<path d="M12.8966 1.08392C10.7769 0.777612 8.56155 1.31953 6.79697 2.55103C7.38296 3.47191 7.97493 4.38934 8.56694 5.30682C9.62195 6.94184 10.6771 8.57702 11.6986 10.2322C9.46725 11.5309 7.24691 12.8533 5.02778 14.1749C4.75347 14.3383 4.47918 14.5017 4.2049 14.665C5.64373 17.1075 8.26823 18.7993 11.0733 18.9705C13.1575 19.1496 15.288 18.5071 16.9568 17.2269C18.7199 15.9059 19.9426 13.878 20.3378 11.6899C20.8241 9.21432 20.1989 6.54869 18.7014 4.54279C17.3212 2.6657 15.1814 1.39179 12.8966 1.08392Z" fill="#FDDC36"/>
<path d="M4.44576 2.15205C2.81086 3.27988 1.53566 4.94963 0.933571 6.8707C0.146223 9.32427 0.439549 12.1171 1.74562 14.3335C4.29288 12.8224 6.84786 11.3239 9.40284 9.82543C8.45327 8.39963 7.53121 6.95535 6.6089 5.51093C5.89223 4.38859 5.17549 3.26612 4.44576 2.15205Z" fill="#40956E"/>
</g>
<defs>
<clipPath id="clip0_9054_9916">
<rect width="20" height="20" fill="white" transform="translate(0.5)"/>
</clipPath>
</defs>
</svg>
