<?xml version="1.0" encoding="utf-8"?>
<!-- Generator: Adobe Illustrator 28.5.0, SVG Export Plug-In . SVG Version: 9.03 Build 54727)  -->
<svg version="1.0" id="Шар_1" xmlns="http://www.w3.org/2000/svg" xmlns:xlink="http://www.w3.org/1999/xlink" x="0px" y="0px"
	 viewBox="0 0 472 472" style="enable-background:new 0 0 472 472;" xml:space="preserve">
<style type="text/css">
	.st0{fill:#E60C2A;}
	.st1{fill:#FFF0EA;}
</style>
<path class="st0" d="M449.1,240.3c0-117.6-95.4-213-213-213v0c0,0,0,0-0.1,0c-75.4,0-141.6,39.1-179.5,98.2
	c-0.1,0.1-0.1,0.2-0.2,0.2c-0.9,1.4-1.7,2.7-2.6,4.1c-0.1,0.2-0.2,0.4-0.3,0.5c-0.8,1.3-1.6,2.6-2.3,3.9c-0.2,0.3-0.4,0.6-0.5,1
	c-0.7,1.2-1.3,2.3-2,3.5c-0.2,0.4-0.4,0.8-0.6,1.2c-0.6,1.1-1.2,2.2-1.8,3.4c-0.3,0.5-0.5,1-0.8,1.5c-0.5,1-1,2.1-1.5,3.1
	c-0.3,0.6-0.6,1.2-0.9,1.9c-0.4,0.9-0.9,1.9-1.3,2.8c-0.3,0.8-0.7,1.5-1,2.3c-0.4,0.8-0.7,1.6-1.1,2.5c-0.4,0.9-0.7,1.8-1.1,2.6
	c-0.3,0.7-0.6,1.4-0.9,2.2c-0.4,1-0.7,1.9-1.1,2.9c-0.3,0.7-0.5,1.3-0.8,2c-0.4,1-0.7,2.1-1.1,3.1c-0.2,0.6-0.4,1.2-0.6,1.8
	c-0.4,1.2-0.8,2.3-1.1,3.5c-0.2,0.5-0.3,1-0.5,1.5c-0.4,1.2-0.7,2.5-1.1,3.7c-0.1,0.4-0.3,0.9-0.4,1.3c-0.4,1.2-0.7,2.5-1,3.7
	c-0.1,0.4-0.2,0.9-0.4,1.3c-0.3,1.3-0.6,2.6-0.9,3.9c-0.1,0.4-0.2,0.8-0.3,1.3c-0.3,1.3-0.6,2.7-0.9,4c-0.1,0.4-0.2,0.8-0.2,1.1
	c-0.3,1.4-0.6,2.8-0.8,4.2c-0.1,0.3-0.1,0.7-0.2,1c-0.3,1.4-0.5,2.8-0.7,4.3c-0.1,0.3-0.1,0.7-0.2,1c-0.2,1.5-0.4,3-0.6,4.5
	c0,0.3-0.1,0.6-0.1,0.8c-0.2,1.6-0.4,3.1-0.5,4.7c0,0.2-0.1,0.4-0.1,0.6c-0.2,1.6-0.3,3.2-0.4,4.8c0,0.2,0,0.4-0.1,0.6
	c-0.1,1.6-0.2,3.2-0.3,4.8c0,0.2,0,0.4,0,0.6c-0.1,1.6-0.1,3.3-0.2,4.9c0,0.2,0,0.3,0,0.5c0,1.6-0.1,3.3-0.1,4.9c0,0.2,0,0.4,0,0.6
	c0,0,0,0,0,0.1c0,115.8,92.4,210.1,207.6,213c1.8,0,3.7,0.1,5.5,0.1c60.7,0,115.4-25.4,154.3-66.1c0,0,0,0,0,0
	c1.2-1.2,2.3-2.5,3.5-3.7c0.1-0.1,0.2-0.2,0.2-0.3c1.1-1.2,2.1-2.4,3.2-3.6c0.1-0.2,0.3-0.4,0.4-0.5c1-1.1,1.9-2.2,2.9-3.4
	c0.3-0.3,0.5-0.6,0.8-0.9c0.8-1,1.6-2,2.5-3c0.4-0.5,0.8-1,1.2-1.5c0.6-0.8,1.3-1.7,1.9-2.5c0.4-0.5,0.8-1.1,1.2-1.7
	c0.6-0.8,1.2-1.6,1.8-2.5c0.5-0.7,1-1.5,1.6-2.3c0.4-0.6,0.9-1.3,1.3-1.9c0.6-0.9,1.3-1.9,1.9-2.9c0.3-0.5,0.6-0.9,0.9-1.4
	c0.7-1,1.3-2.1,2-3.2c0.2-0.4,0.5-0.8,0.7-1.2c0.7-1.2,1.4-2.3,2.1-3.5c0.2-0.3,0.4-0.6,0.6-0.9c0.8-1.3,1.5-2.7,2.2-4
	c0.1-0.2,0.2-0.3,0.3-0.5C439.8,311.8,449.1,277.2,449.1,240.3C449.1,240.4,449.1,240.4,449.1,240.3z M236.1,240.3V58.2
	c100.4,0,182.1,81.7,182.1,182.1H236.1z"/>
<g>
	<path class="st1" d="M364.5,272.4c-6.4,17.5-32.3,14.3-38.3,28.9c16.2-13.9,43.4-1.5,42.6,21.2c-0.6,40.5-64.6,39.6-64.6-4.7
		c0-20.2,7.1-33.1,28.7-42.7c6.6-3.3,8.2-3.7,11.9-6.9c1.6-1.4,3.4-3.7,4.2-5.3L364.5,272.4L364.5,272.4z M350.2,322.5
		c0.3-11.6-14.8-16.3-22.8-9.2c-5.3,4.3-5,13.5,0.1,17.8C335.2,338.5,350.4,334.1,350.2,322.5z"/>
	<path class="st1" d="M103.4,287.1h58.2V349H143v-44.6h-21V349h-18.6V287.1z"/>
	<path class="st1" d="M282.5,287.1h17.8V349h-17.8v-31.9l-14.8,21.5h-0.4l-14.8-21.5V349h-17.8v-61.9h17.8l15,23.4L282.5,287.1
		L282.5,287.1z"/>
	<path class="st1" d="M211.1,287.1l-9.7,31.2l-0.2,0.6l-16-31.8h-19.8l26.9,53.9c-1.3,4.7-4.8,8.7-15.4,8.7v17.9
		c18.4,0,28.3-8.6,34.8-27.2l19.2-53.2H211.1z"/>
</g>
</svg>
