<svg width="20" height="20" viewBox="0 0 20 20" fill="none" xmlns="http://www.w3.org/2000/svg">
<g clip-path="url(#clip0_5420_1157)">
<mask id="mask0_5420_1157" style="mask-type:luminance" maskUnits="userSpaceOnUse" x="0" y="0" width="20" height="20">
<path d="M0 0H20V20H0V0Z" fill="white"/>
</mask>
<g mask="url(#mask0_5420_1157)">
<path d="M0 0H20V20H0V0Z" fill="url(#paint0_linear_5420_1157)"/>
</g>
<mask id="mask1_5420_1157" style="mask-type:luminance" maskUnits="userSpaceOnUse" x="0" y="0" width="20" height="20">
<path d="M1.76487 0.465088C1.38347 0.465088 1.13371 0.806948 1.07464 1.25858C1.07464 1.25858 0.583008 3.86276 0.583008 9.35206C0.583008 14.8437 1.07464 18.3902 1.07464 18.3902C1.11929 18.8242 1.38347 19.0697 1.76487 19.0697H18.81C19.1909 19.0697 19.4937 18.8618 19.5007 18.3902C19.5007 18.3902 19.3109 14.2753 19.3109 10.1646C19.3109 6.05392 19.5007 1.2823 19.5007 1.2823C19.5095 0.861367 19.1909 0.465088 18.81 0.465088H1.76487Z" fill="white"/>
</mask>
<g mask="url(#mask1_5420_1157)">
<path d="M0.583008 0.465088H19.5095V19.0697H0.583008V0.465088Z" fill="url(#paint1_linear_5420_1157)"/>
</g>
<mask id="mask2_5420_1157" style="mask-type:luminance" maskUnits="userSpaceOnUse" x="9" y="2" width="9" height="8">
<path d="M11.333 2.52596C11.8711 2.75154 14.032 3.91991 14.2967 4.2934C13.2092 4.43712 11.0771 4.992 9.9283 5.55107L9.86133 5.68642C11.1278 5.40782 12.8981 5.26177 14.119 5.19573C13.6632 5.8641 13.3613 6.1827 12.6678 6.93898L12.6037 7.08596C13.9246 6.29247 14.2967 6.23526 15.5148 5.52224C15.9748 6.2027 16.085 7.77014 16.1032 9.01294C16.499 8.22503 16.9799 5.2548 16.7799 4.71852C17.5878 4.16456 17.6971 3.71759 17.6971 3.71759C16.9567 3.78177 16.5483 3.79387 16.1488 3.91991C15.2027 3.34038 13.0334 2.57433 11.3957 2.38968L11.333 2.52596V2.52596Z" fill="white"/>
</mask>
<g mask="url(#mask2_5420_1157)">
<path d="M9.86133 2.38968H17.6971V9.01294H9.86133V2.38968Z" fill="url(#paint2_linear_5420_1157)"/>
</g>
<mask id="mask3_5420_1157" style="mask-type:luminance" maskUnits="userSpaceOnUse" x="2" y="11" width="5" height="7">
<path d="M3.27016 11.7536C3.16319 12.7438 3.11993 13.4508 3.26179 14.2424C2.86133 14.3531 2.51016 14.3685 2.18737 14.5057L2.12598 14.6415C2.63946 14.9587 3.0576 15.201 3.63807 15.4722C3.94877 16.1396 4.27063 16.5894 4.79063 17.1038L4.85388 16.9662C4.7604 16.5871 4.639 16.2736 4.68458 15.8582C5.33016 16.0466 5.88458 16.1462 6.61993 16.168L6.68179 16.0308C6.03574 15.7801 5.38877 15.582 4.86505 15.0889C5.03016 14.6313 5.21853 14.2722 5.52598 13.8192L5.59063 13.6796C5.03528 13.7634 4.53109 13.9666 4.05063 14.0601C3.67156 13.3941 3.52458 12.4829 3.33342 11.615L3.27016 11.7536V11.7536Z" fill="white"/>
</mask>
<g mask="url(#mask3_5420_1157)">
<path d="M2.12598 11.615H6.68179V17.1038H2.12598V11.615Z" fill="url(#paint3_linear_5420_1157)"/>
</g>
<mask id="mask4_5420_1157" style="mask-type:luminance" maskUnits="userSpaceOnUse" x="3" y="6" width="9" height="6">
<path d="M6.56322 7.26201C6.56322 7.26201 6.14694 7.19968 5.45857 7.22061C4.87717 7.24712 4.00973 7.29875 3.58787 7.42294L3.52601 7.55875C4.19717 7.58712 5.11578 7.76712 5.46694 8.12015C5.46694 8.12015 4.4488 9.03875 3.44043 11.0481C3.44043 11.0481 5.26927 9.33224 6.06182 8.90712C6.06182 8.90712 6.47671 10.2899 6.76508 10.9811L6.82834 10.8448C6.90834 10.4006 7.10648 9.19736 7.44415 8.45968C7.44415 8.45968 7.56369 8.39224 8.14834 8.33596C8.73485 8.2834 9.56369 8.26387 11.1376 8.54015L11.2018 8.42712C10.8418 8.21503 9.4102 7.44201 7.89345 7.44201H7.94322C8.15113 6.51177 8.41113 6.32294 8.41113 6.32294C8.08973 6.36852 7.17485 6.7741 6.56322 7.26201" fill="white"/>
</mask>
<g mask="url(#mask4_5420_1157)">
<path d="M3.44043 6.32291H11.2018V11.048H3.44043V6.32291Z" fill="url(#paint4_linear_5420_1157)"/>
</g>
<mask id="mask5_5420_1157" style="mask-type:luminance" maskUnits="userSpaceOnUse" x="7" y="14" width="5" height="4">
<path d="M10.398 15.718C10.3747 15.4522 10.3568 15.186 10.3445 14.9194C10.05 15.3228 9.73619 15.7116 9.40405 16.0845C9.03289 16.1878 8.6087 16.1836 8.22219 16.1794C8.07677 16.1767 7.93132 16.177 7.78591 16.1804L7.72266 16.318C8.06701 16.4934 8.43409 16.6201 8.81335 16.6943C8.50777 16.9729 8.09893 17.185 7.81242 17.3785L7.7487 17.5138C8.36405 17.3683 9.17382 17.1073 9.77754 16.7506C10.0526 16.7658 10.3285 16.7494 10.5999 16.7018C10.5999 16.7018 10.6645 16.5613 10.6645 16.565C10.6245 16.4255 10.5017 16.3408 10.465 16.1464C11.0306 15.7073 11.4399 15.3073 11.9134 14.832L11.9789 14.6938C11.5115 15.0157 10.9445 15.459 10.398 15.718" fill="white"/>
</mask>
<g mask="url(#mask5_5420_1157)">
<path d="M7.72266 14.6931H11.9789V17.5131H7.72266V14.6931Z" fill="url(#paint5_linear_5420_1157)"/>
</g>
<path d="M15.579 5.38382C14.3637 6.09823 13.9916 6.15823 12.6697 6.9494C13.4395 6.11451 13.7069 5.75916 14.1832 5.06009C12.9651 5.12475 11.1944 5.27126 9.9302 5.55126C11.0307 4.96382 13.2121 4.31033 14.3637 4.15451C14.0967 3.78614 11.9353 2.61544 11.3976 2.38986C13.1088 2.52289 15.2004 3.16242 16.2144 3.78242C16.6135 3.65777 17.0279 3.65172 17.7702 3.58568C17.5814 3.91033 17.573 4.09823 16.8446 4.58102C17.0465 5.12102 16.5646 8.08847 16.1665 8.87451C16.1521 7.63312 16.0432 6.06521 15.579 5.38382ZM6.67997 16.0308C5.98183 15.7717 5.47857 15.4708 4.92508 14.9531C5.09066 14.4954 5.27997 14.1382 5.58834 13.6796C5.0209 13.7647 4.60229 13.8285 4.11299 13.9215C3.71485 13.2247 3.53438 12.5522 3.33159 11.6159C3.22276 12.608 3.18183 13.3164 3.32183 14.1061C2.87252 14.2313 2.55485 14.3401 2.18555 14.5066C2.70322 14.8234 3.12136 15.0671 3.69904 15.3368C4.00973 16.0029 4.33113 16.4527 4.85206 16.9666C4.72973 16.5289 4.69764 16.1815 4.74787 15.7224C5.39392 15.9094 5.94694 16.0085 6.67997 16.0308ZM8.49857 6.1601C8.2809 6.44242 8.0288 6.96893 7.96043 7.21358C9.76043 7.45777 11.2046 8.38195 11.2046 8.38195C9.63066 8.10289 8.80136 8.13777 8.21392 8.19033C7.63066 8.24568 7.51066 8.31405 7.51066 8.31405C7.08601 9.24428 6.83113 10.842 6.83113 10.842C6.54508 10.1513 6.13113 8.76847 6.13113 8.76847C5.33717 9.19358 3.5102 10.9113 3.5102 10.9113C4.51438 8.90009 5.53392 7.98521 5.53392 7.98521C5.18322 7.62986 4.26369 7.45265 3.59113 7.42289C3.93997 7.28056 4.83578 7.11358 5.52415 7.08195C6.21299 7.06242 6.62973 7.10149 6.62973 7.10149C7.24415 6.61637 8.17717 6.20754 8.49857 6.1601ZM10.4079 14.7838C10.1131 15.1873 9.79832 15.5757 9.46462 15.9475C8.91921 16.107 8.35332 16.1856 7.78508 16.1806C8.12957 16.3568 8.497 16.4841 8.87671 16.5587C8.54652 16.8627 8.19009 17.137 7.81159 17.3782C8.42741 17.2327 9.23624 16.9713 9.83903 16.615C10.1535 16.6271 10.4479 16.6066 10.6637 16.5643C10.6067 16.382 10.561 16.1964 10.5269 16.0085C11.0944 15.5694 11.506 15.1713 11.9781 14.6936C11.5001 15.0343 10.9923 15.3312 10.4609 15.5806C10.4363 15.3155 10.4186 15.0498 10.4079 14.7838Z" fill="white"/>
</g>
<defs>
<linearGradient id="paint0_linear_5420_1157" x1="10.0213" y1="-0.494419" x2="10.0213" y2="20.6176" gradientUnits="userSpaceOnUse">
<stop stop-color="#008053"/>
<stop offset="0.6" stop-color="#7FC4A7"/>
<stop offset="1" stop-color="#00A06D"/>
</linearGradient>
<linearGradient id="paint1_linear_5420_1157" x1="10.0472" y1="-4.73863" x2="10.0472" y2="18.493" gradientUnits="userSpaceOnUse">
<stop stop-color="#00A06D"/>
<stop offset="0.3" stop-color="#7FC4A7"/>
<stop offset="0.55" stop-color="#00A06D"/>
<stop offset="0.835" stop-color="#008053"/>
<stop offset="0.888" stop-color="#00885C"/>
<stop offset="0.973" stop-color="#009E74"/>
<stop offset="1" stop-color="#00A67D"/>
</linearGradient>
<linearGradient id="paint2_linear_5420_1157" x1="13.7791" y1="17.3836" x2="13.7791" y2="2.26693" gradientUnits="userSpaceOnUse">
<stop stop-color="#00AC80"/>
<stop offset="1" stop-color="#00A06D"/>
</linearGradient>
<linearGradient id="paint3_linear_5420_1157" x1="4.40658" y1="17.3838" x2="4.40658" y2="2.26248" gradientUnits="userSpaceOnUse">
<stop stop-color="#00AC80"/>
<stop offset="1" stop-color="#00A06D"/>
</linearGradient>
<linearGradient id="paint4_linear_5420_1157" x1="7.30825" y1="17.3183" x2="7.30825" y2="2.34895" gradientUnits="userSpaceOnUse">
<stop stop-color="#00AC80"/>
<stop offset="1" stop-color="#00A06D"/>
</linearGradient>
<linearGradient id="paint5_linear_5420_1157" x1="9.85684" y1="17.3833" x2="9.85684" y2="2.26684" gradientUnits="userSpaceOnUse">
<stop stop-color="#00AC80"/>
<stop offset="1" stop-color="#00A06D"/>
</linearGradient>
<clipPath id="clip0_5420_1157">
<rect width="20" height="20" fill="white"/>
</clipPath>
</defs>
</svg>
