<svg width="512" height="512" viewBox="0 0 512 512" fill="none" xmlns="http://www.w3.org/2000/svg">
<g clip-path="url(#clip0_36534_26202)">
<path d="M447.7 0H64.3C28.7881 0 0 28.7881 0 64.3V447.7C0 483.212 28.7881 512 64.3 512H447.7C483.212 512 512 483.212 512 447.7V64.3C512 28.7881 483.212 0 447.7 0Z" fill="#2722FF"/>
<path d="M64.3 512H131C66.8 487.6 19.8 437.6 0 377V447.8C0 483.3 28.8 512.1 64.3 512.1V512Z" fill="#F6F7FB"/>
<path d="M224.2 273.6C157.4 232 107.6 205.7 118.3 159.2C126 125.6 154.2 107.1 233.3 125.3C296.1 139.8 346.5 168.5 397 231.4L402 222.8L486.6 92.7999L412.6 48.1999L384.7 102.5C350.1 72.7999 306.7 45.2999 255.6 33.5999C124.6 3.29993 38.1 47.1999 17.1 138.1C-3.60001 228 65.2 290.5 178.6 357.7C271.2 411 292.6 446.7 286.2 474.8C282.5 491 273.7 503.4 261.1 512H382C384.8 504.4 387.2 496.5 389.1 488.3C403.6 425.5 373.3 363.8 224.2 273.6Z" fill="#F6F7FB"/>
</g>
<defs>
<clipPath id="clip0_36534_26202">
<rect width="512" height="512" fill="white"/>
</clipPath>
</defs>
</svg>
